<svg preserveAspectRatio="none" width="100%" height="100%" overflow="visible" style="display: block;" viewBox="0 0 27 25" fill="none" xmlns="http://www.w3.org/2000/svg">
<g id="Group 2018777235">
<path id="Vector" d="M21.5402 6.1266e-08C22.8041 -0.00020441 24.0193 0.511407 24.9323 1.42812C25.8454 2.34483 26.3857 3.59586 26.4406 4.92025L26.4444 5.14372V19.742C26.4446 21.0676 25.9568 22.3422 25.0828 23.2997C24.2088 24.2573 23.016 24.824 21.7533 24.8816L21.5402 24.8857H4.90519C3.64127 24.8859 2.42607 24.3743 1.51306 23.4576C0.600059 22.5408 0.0597523 21.2898 0.00484252 19.9654L5.21045e-08 19.742V17.4433C5.21045e-08 17.1467 0.0997503 16.8603 0.278913 16.6338L0.37479 16.5261L5.3623 11.5246C5.53746 11.349 5.75885 11.2326 5.99781 11.1904C6.23676 11.1482 6.48229 11.1822 6.70263 11.2879L6.82175 11.354L11.2127 14.1147L14.0386 11.4921C14.2171 11.3266 14.4382 11.2199 14.6742 11.1856C14.9103 11.1513 15.1507 11.1908 15.3654 11.2991L15.4816 11.3662L22.1813 15.7572C22.4435 15.9294 22.6329 16.2004 22.7106 16.5145C22.7883 16.8287 22.7483 17.162 22.599 17.4462C22.4496 17.7304 22.2022 17.9438 21.9075 18.0426C21.6128 18.1415 21.2932 18.1182 21.0144 17.9776L20.8981 17.9106L14.9654 14.0223L12.1531 16.6328C11.9772 16.7963 11.7597 16.9026 11.5272 16.9387C11.2947 16.9747 11.0572 16.939 10.8437 16.8359L10.7275 16.7709L6.36755 14.0294L2.42112 17.9857V19.742C2.42109 20.4042 2.66161 21.0416 3.09374 21.5245C3.52588 22.0073 4.11717 22.2994 4.74733 22.3412L4.90519 22.3463H21.5402C22.1716 22.3464 22.7794 22.0941 23.2397 21.6409C23.7001 21.1876 23.9786 20.5674 24.0185 19.9065L24.0233 19.742V5.14372C24.0234 4.48146 23.7828 3.84407 23.3507 3.3612C22.9186 2.87834 22.3273 2.58628 21.6971 2.54443L21.5402 2.53935H4.90519C4.2736 2.53906 3.66564 2.79121 3.20505 3.24448C2.74447 3.69774 2.46587 4.31806 2.42596 4.97917L2.42112 5.14372V10.4743C2.42012 10.7991 2.30051 11.1111 2.08688 11.3462C1.87326 11.5813 1.58187 11.7216 1.27264 11.7382C0.963408 11.7549 0.659849 11.6466 0.424393 11.4357C0.188938 11.2248 0.0394871 10.9273 0.00677916 10.6043L5.21045e-08 10.4743V5.14372C-0.000184094 3.8179 0.48774 2.54321 1.36197 1.5856C2.23621 0.62798 3.42923 0.0613999 4.69213 0.0040631L4.90519 6.1266e-08H21.5402Z" fill="var(--fill-0, white)"/>
<path id="Vector_2" d="M17.5597 8.09298C17.5597 8.5919 17.7487 9.07037 18.085 9.42316C18.4214 9.77594 18.8776 9.97414 19.3533 9.97414C19.8289 9.97414 20.2851 9.77594 20.6215 9.42316C20.9579 9.07037 21.1468 8.5919 21.1468 8.09298C21.1468 7.59407 20.9579 7.11559 20.6215 6.76281C20.2851 6.41002 19.8289 6.21183 19.3533 6.21183C18.8776 6.21183 18.4214 6.41002 18.085 6.76281C17.7487 7.11559 17.5597 7.59407 17.5597 8.09298Z" fill="var(--fill-0, white)"/>
</g>
</svg>
