<svg preserveAspectRatio="none" width="100%" height="100%" overflow="visible" style="display: block;" viewBox="0 0 22 17" fill="none" xmlns="http://www.w3.org/2000/svg">
<path id="Vector" d="M9.62254 0.370581C9.84579 0.588527 9.97991 0.8785 9.99972 1.1861C10.0195 1.4937 9.92369 1.79779 9.73016 2.04131L9.62254 2.16029L4.42681 7.23197L20.7048 7.23197C21.0353 7.23233 21.3531 7.35586 21.5935 7.57731C21.8338 7.79877 21.9784 8.10145 21.9978 8.4235C22.0171 8.74555 21.9098 9.06266 21.6977 9.31004C21.4856 9.55743 21.1847 9.71642 20.8565 9.75452L20.7048 9.76338L4.42681 9.76338L9.62254 14.8351C9.85756 15.0623 9.99472 15.3686 10.0059 15.6914C10.0172 16.0141 9.90158 16.3288 9.68288 16.5711C9.46417 16.8134 9.15887 16.9649 8.82947 16.9946C8.50006 17.0244 8.17147 16.9301 7.91094 16.7311L7.78906 16.6248L0.377329 9.39253L0.282673 9.28874L0.278783 9.28494L0.377329 9.39253C0.310301 9.3273 0.250736 9.25515 0.199686 9.17736L0.189313 9.16091C0.186246 9.15544 0.18322 9.14996 0.180236 9.14445L0.162083 9.11534C0.0552323 8.92627 -0.000128492 8.7136 0.00129669 8.49768V8.47363C0.00129669 8.44452 0.00259334 8.41414 0.00648333 8.38503L0 8.49768C0.000812324 8.21684 0.0965262 7.94412 0.272299 7.7218C0.307309 7.67623 0.342319 7.63826 0.378626 7.60282L7.78906 0.370581C8.03222 0.133298 8.36197 0 8.7058 0C9.04962 0 9.37938 0.133298 9.62254 0.370581Z" fill="var(--fill-0, white)"/>
</svg>
