<svg preserveAspectRatio="none" width="100%" height="100%" overflow="visible" style="display: block;" viewBox="0 0 22 22" fill="none" xmlns="http://www.w3.org/2000/svg">
<g id="&#233;&#186;&#166;&#229;&#133;&#139;&#233;&#163;&#142; (1) 1">
<path id="Vector" d="M10.45 20.9V18.1291C8.6542 17.9906 6.97684 17.1793 5.75324 15.8576C4.52963 14.536 3.84993 12.8011 3.85 11C3.85 10.8541 3.90795 10.7142 4.01109 10.6111C4.11424 10.5079 4.25413 10.45 4.4 10.45C4.54587 10.45 4.68576 10.5079 4.78891 10.6111C4.89205 10.7142 4.95 10.8541 4.95 11C4.95 12.6046 5.58741 14.1434 6.722 15.278C7.8566 16.4126 9.39544 17.05 11 17.05C12.6046 17.05 14.1434 16.4126 15.278 15.278C16.4126 14.1434 17.05 12.6046 17.05 11C17.05 10.8541 17.1079 10.7142 17.2111 10.6111C17.3142 10.5079 17.4541 10.45 17.6 10.45C17.7459 10.45 17.8858 10.5079 17.9889 10.6111C18.0921 10.7142 18.15 10.8541 18.15 11C18.1501 12.8011 17.4704 14.536 16.2468 15.8576C15.0232 17.1793 13.3458 17.9906 11.55 18.1291V20.9H14.85C14.9959 20.9 15.1358 20.9579 15.2389 21.0611C15.3421 21.1642 15.4 21.3041 15.4 21.45C15.4 21.5959 15.3421 21.7358 15.2389 21.8389C15.1358 21.9421 14.9959 22 14.85 22H7.15C7.00413 22 6.86424 21.9421 6.76109 21.8389C6.65795 21.7358 6.6 21.5959 6.6 21.45C6.6 21.3041 6.65795 21.1642 6.76109 21.0611C6.86424 20.9579 7.00413 20.9 7.15 20.9H10.45ZM11 1.1C10.1248 1.1 9.28542 1.44768 8.66655 2.06655C8.04768 2.68542 7.7 3.52479 7.7 4.4V11C7.7 11.8752 8.04768 12.7146 8.66655 13.3335C9.28542 13.9523 10.1248 14.3 11 14.3C11.8752 14.3 12.7146 13.9523 13.3335 13.3335C13.9523 12.7146 14.3 11.8752 14.3 11V4.4C14.3 3.96664 14.2146 3.53752 14.0488 3.13714C13.883 2.73677 13.6399 2.37298 13.3335 2.06655C13.027 1.76011 12.6632 1.51704 12.2629 1.3512C11.8625 1.18536 11.4334 1.1 11 1.1ZM11 0C12.167 0 13.2861 0.46357 14.1113 1.28873C14.9364 2.11389 15.4 3.23305 15.4 4.4V11C15.4 12.167 14.9364 13.2861 14.1113 14.1113C13.2861 14.9364 12.167 15.4 11 15.4C9.83305 15.4 8.71389 14.9364 7.88873 14.1113C7.06357 13.2861 6.6 12.167 6.6 11V4.4C6.6 3.23305 7.06357 2.11389 7.88873 1.28873C8.71389 0.46357 9.83305 0 11 0Z" fill="var(--fill-0, #E4E4E4)"/>
</g>
</svg>
