<svg preserveAspectRatio="none" width="100%" height="100%" overflow="visible" style="display: block;" viewBox="0 0 8 8" fill="none" xmlns="http://www.w3.org/2000/svg">
<g id="Vector 84">
<path d="M1.07803 5.53308C-0.0400664 4.41511 -0.421992 2.53309 0.578002 1.53308C1.57799 0.533081 3.57795 1.03308 3.57795 1.03308C3.57795 1.03308 4.07803 -0.216943 5.57803 0.0330572C7.57803 0.283081 7.82803 2.53308 7.32803 4.03308C6.94598 5.17924 6.0206 6.40168 5.34858 7.18916C4.91649 7.69549 4.1805 7.76819 3.63061 7.39309C2.70605 6.76242 1.39378 5.84879 1.07803 5.53308Z" fill="url(#paint0_linear_32_1295)"/>
<path d="M1.07803 5.53308C-0.0400664 4.41511 -0.421992 2.53309 0.578002 1.53308C1.57799 0.533081 3.57795 1.03308 3.57795 1.03308C3.57795 1.03308 4.07803 -0.216943 5.57803 0.0330572C7.57803 0.283081 7.82803 2.53308 7.32803 4.03308C6.94598 5.17924 6.0206 6.40168 5.34858 7.18916C4.91649 7.69549 4.1805 7.76819 3.63061 7.39309C2.70605 6.76242 1.39378 5.84879 1.07803 5.53308Z" fill="url(#paint1_radial_32_1295)"/>
<path d="M1.07803 5.53308C-0.0400664 4.41511 -0.421992 2.53309 0.578002 1.53308C1.57799 0.533081 3.57795 1.03308 3.57795 1.03308C3.57795 1.03308 4.07803 -0.216943 5.57803 0.0330572C7.57803 0.283081 7.82803 2.53308 7.32803 4.03308C6.94598 5.17924 6.0206 6.40168 5.34858 7.18916C4.91649 7.69549 4.1805 7.76819 3.63061 7.39309C2.70605 6.76242 1.39378 5.84879 1.07803 5.53308Z" fill="url(#paint2_radial_32_1295)" fill-opacity="0.51"/>
</g>
<defs>
<linearGradient id="paint0_linear_32_1295" x1="3.07788" y1="2.03308" x2="6.42005" y2="7.43972" gradientUnits="userSpaceOnUse">
<stop stop-color="#CA0B4A"/>
<stop offset="1" stop-color="#F70A8D"/>
</linearGradient>
<radialGradient id="paint1_radial_32_1295" cx="0" cy="0" r="1" gradientUnits="userSpaceOnUse" gradientTransform="translate(5.5422 5.11449) rotate(121.197) scale(3.41197 2.2423)">
<stop stop-color="#F944A5"/>
<stop offset="0.753331" stop-color="#F944A5" stop-opacity="0"/>
</radialGradient>
<radialGradient id="paint2_radial_32_1295" cx="0" cy="0" r="1" gradientUnits="userSpaceOnUse" gradientTransform="translate(5.53029 2.15358) rotate(129.857) scale(2.88516 2.86209)">
<stop stop-color="white" stop-opacity="0.83"/>
<stop offset="0.0639679" stop-color="white" stop-opacity="0.83"/>
<stop offset="0.150472" stop-color="white" stop-opacity="0.76"/>
<stop offset="0.270833" stop-color="white" stop-opacity="0.57"/>
<stop offset="0.590756" stop-color="white" stop-opacity="0"/>
</radialGradient>
</defs>
</svg>
