<svg preserveAspectRatio="none" width="100%" height="100%" overflow="visible" style="display: block;" viewBox="0 0 10 9" fill="none" xmlns="http://www.w3.org/2000/svg">
<g id="Vector 85">
<path d="M1.62647 0.106225C3.12648 -0.393775 4.79312 1.00622 5.12646 1.50622C5.29312 1.00622 6.02646 0.00622479 7.62646 0.00622479C9.62646 0.00622479 10.1835 2.11351 9.62646 3.50622C8.89626 5.33172 6.5665 7.64241 5.3625 8.75639C4.9598 9.12898 4.33754 9.08311 3.98103 8.66611C3.01809 7.53981 1.25167 5.44405 0.626465 4.50622C-0.373526 3.00622 -0.270901 0.738677 1.62647 0.106225Z" fill="url(#paint0_linear_146_1644)"/>
<path d="M1.62647 0.106225C3.12648 -0.393775 4.79312 1.00622 5.12646 1.50622C5.29312 1.00622 6.02646 0.00622479 7.62646 0.00622479C9.62646 0.00622479 10.1835 2.11351 9.62646 3.50622C8.89626 5.33172 6.5665 7.64241 5.3625 8.75639C4.9598 9.12898 4.33754 9.08311 3.98103 8.66611C3.01809 7.53981 1.25167 5.44405 0.626465 4.50622C-0.373526 3.00622 -0.270901 0.738677 1.62647 0.106225Z" fill="url(#paint1_radial_146_1644)"/>
<path d="M1.62647 0.106225C3.12648 -0.393775 4.79312 1.00622 5.12646 1.50622C5.29312 1.00622 6.02646 0.00622479 7.62646 0.00622479C9.62646 0.00622479 10.1835 2.11351 9.62646 3.50622C8.89626 5.33172 6.5665 7.64241 5.3625 8.75639C4.9598 9.12898 4.33754 9.08311 3.98103 8.66611C3.01809 7.53981 1.25167 5.44405 0.626465 4.50622C-0.373526 3.00622 -0.270901 0.738677 1.62647 0.106225Z" fill="url(#paint2_radial_146_1644)" style="mix-blend-mode:screen"/>
<path d="M1.62647 0.106225C3.12648 -0.393775 4.79312 1.00622 5.12646 1.50622C5.29312 1.00622 6.02646 0.00622479 7.62646 0.00622479C9.62646 0.00622479 10.1835 2.11351 9.62646 3.50622C8.89626 5.33172 6.5665 7.64241 5.3625 8.75639C4.9598 9.12898 4.33754 9.08311 3.98103 8.66611C3.01809 7.53981 1.25167 5.44405 0.626465 4.50622C-0.373526 3.00622 -0.270901 0.738677 1.62647 0.106225Z" fill="url(#paint3_radial_146_1644)" style="mix-blend-mode:screen"/>
<path d="M1.62647 0.106225C3.12648 -0.393775 4.79312 1.00622 5.12646 1.50622C5.29312 1.00622 6.02646 0.00622479 7.62646 0.00622479C9.62646 0.00622479 10.1835 2.11351 9.62646 3.50622C8.89626 5.33172 6.5665 7.64241 5.3625 8.75639C4.9598 9.12898 4.33754 9.08311 3.98103 8.66611C3.01809 7.53981 1.25167 5.44405 0.626465 4.50622C-0.373526 3.00622 -0.270901 0.738677 1.62647 0.106225Z" fill="url(#paint4_radial_146_1644)" fill-opacity="0.5" style="mix-blend-mode:screen"/>
<path d="M1.62647 0.106225C3.12648 -0.393775 4.79312 1.00622 5.12646 1.50622C5.29312 1.00622 6.02646 0.00622479 7.62646 0.00622479C9.62646 0.00622479 10.1835 2.11351 9.62646 3.50622C8.89626 5.33172 6.5665 7.64241 5.3625 8.75639C4.9598 9.12898 4.33754 9.08311 3.98103 8.66611C3.01809 7.53981 1.25167 5.44405 0.626465 4.50622C-0.373526 3.00622 -0.270901 0.738677 1.62647 0.106225Z" fill="url(#paint5_radial_146_1644)" fill-opacity="0.4" style="mix-blend-mode:screen"/>
</g>
<defs>
<linearGradient id="paint0_linear_146_1644" x1="7.726" y1="1.04291" x2="4.50202" y2="8.43422" gradientUnits="userSpaceOnUse">
<stop stop-color="#CA0B4A"/>
<stop offset="1" stop-color="#F70A8D"/>
</linearGradient>
<radialGradient id="paint1_radial_146_1644" cx="0" cy="0" r="1" gradientUnits="userSpaceOnUse" gradientTransform="translate(2.83023 5.46483) rotate(53.8543) scale(4.30019 1.78063)">
<stop stop-color="#F944A5" stop-opacity="0.69"/>
<stop offset="1" stop-color="#F944A5" stop-opacity="0"/>
</radialGradient>
<radialGradient id="paint2_radial_146_1644" cx="0" cy="0" r="1" gradientUnits="userSpaceOnUse" gradientTransform="translate(6.67522 3.04962) rotate(-51.1573) scale(2.39774 1.25578)">
<stop stop-color="white" stop-opacity="0.3"/>
<stop offset="0.480213" stop-color="white" stop-opacity="0.22"/>
<stop offset="1" stop-color="white" stop-opacity="0.03"/>
</radialGradient>
<radialGradient id="paint3_radial_146_1644" cx="0" cy="0" r="1" gradientUnits="userSpaceOnUse" gradientTransform="translate(3.72116 3.1611) rotate(-134.091) scale(3.72489 1.69666)">
<stop stop-color="white" stop-opacity="0.35"/>
<stop offset="0.334831" stop-color="white" stop-opacity="0.26163"/>
<stop offset="1" stop-color="white" stop-opacity="0"/>
</radialGradient>
<radialGradient id="paint4_radial_146_1644" cx="0" cy="0" r="1" gradientUnits="userSpaceOnUse" gradientTransform="translate(4.39038 3.80491) rotate(-134.493) scale(4.65306 3.14828)">
<stop stop-color="white" stop-opacity="0.35"/>
<stop offset="0.143176" stop-color="white" stop-opacity="0.26163"/>
<stop offset="0.358835" stop-color="white" stop-opacity="0"/>
</radialGradient>
<radialGradient id="paint5_radial_146_1644" cx="0" cy="0" r="1" gradientUnits="userSpaceOnUse" gradientTransform="translate(6.00093 3.69754) rotate(-46.0512) scale(3.31076 1.54799)">
<stop stop-color="white" stop-opacity="0.58"/>
<stop offset="0.555297" stop-color="white" stop-opacity="0.26163"/>
<stop offset="1" stop-color="white" stop-opacity="0"/>
</radialGradient>
</defs>
</svg>
