<svg preserveAspectRatio="none" width="100%" height="100%" overflow="visible" style="display: block;" viewBox="0 0 25 24" fill="none" xmlns="http://www.w3.org/2000/svg">
<path id="Vector" d="M8.05675 0.139928C8.7555 -0.159072 9.68175 0.0359278 10.2018 0.583553C10.7868 1.19293 11.7357 1.82505 12.3435 1.82505C12.9447 1.82505 13.8938 1.20105 14.469 0.609553C14.9419 0.115553 15.7576 -0.0843221 16.4304 0.113928L16.6286 0.185428L16.6839 0.213053L19.7161 1.90305C20.3531 2.3483 20.6261 3.17543 20.4051 3.9018L20.2573 4.2983C20.1805 4.51188 20.1297 4.73394 20.1061 4.95968C20.0676 5.65147 20.2994 6.33115 20.7528 6.85513C21.2061 7.37911 21.8454 7.70634 22.5355 7.76768L22.763 7.77905H22.867C23.5885 7.77905 24.1443 8.35755 24.3068 9.22205L24.3636 9.54218L24.4124 9.86068C24.505 10.4977 24.5635 11.1087 24.5635 11.6271C24.5635 12.0398 24.5261 12.5143 24.4644 13.0132L24.4124 13.3934L24.3409 13.8403L24.3084 14.0288C24.1573 14.8186 23.6811 15.3727 23.0571 15.4604L22.8849 15.4718H22.7646C21.294 15.4718 20.098 16.6678 20.098 18.1384L20.1029 18.2701C20.1191 18.4423 20.1581 18.6308 20.215 18.8226L20.2962 19.0663L20.3304 19.1524C20.6456 19.8593 20.4506 20.7076 19.8754 21.2227L19.708 21.3527L19.6495 21.3917L16.5636 23.0898C16.3361 23.1873 16.0924 23.2377 15.8389 23.2377C15.2929 23.2377 14.7582 23.0102 14.4056 22.6234C13.8239 21.9816 12.8456 21.3023 12.22 21.3023C11.6269 21.3023 10.6389 21.9572 10.0474 22.5958C9.57613 23.1093 8.75875 23.3206 8.08113 23.1207L7.88288 23.0476L7.8195 23.0183L4.84575 21.3478C4.53719 21.1278 4.30507 20.8169 4.18183 20.4586C4.05859 20.1002 4.05039 19.7123 4.15838 19.3491L4.30625 18.9542L4.3485 18.8193C4.40537 18.6324 4.44437 18.4488 4.459 18.2798L4.4655 18.1384C4.4655 16.7458 3.393 15.5986 2.028 15.4816L1.8005 15.4718H1.6965C0.975 15.4718 0.41925 14.8933 0.25675 14.0304C0.101857 13.2377 0.0159521 12.433 0 11.6254C0 10.8308 0.138125 9.81193 0.25675 9.22205C0.40625 8.4323 0.882375 7.87818 1.50475 7.79205L1.677 7.77905H1.79888C3.2695 7.77905 4.4655 6.58305 4.4655 5.11243L4.46062 4.9808C4.44227 4.79328 4.4047 4.60814 4.3485 4.4283L4.26725 4.18455L4.2315 4.10005C4.08113 3.75024 4.04448 3.36203 4.1267 2.99026C4.20893 2.61849 4.40589 2.28195 4.68975 2.02818L4.85712 1.89818L4.91725 1.85918L8.05675 0.139928ZM8.75875 2.29468L6.41875 3.58168L6.46425 3.71005C6.5715 4.0448 6.6495 4.40068 6.682 4.75655L6.69825 5.11243C6.69879 6.292 6.27376 7.43216 5.5012 8.32353C4.72864 9.2149 3.66043 9.79762 2.49275 9.96468L2.39363 9.97605L2.36113 10.1776C2.30436 10.5487 2.26477 10.9223 2.2425 11.2972L2.23438 11.6271C2.23438 12.0414 2.28637 12.5614 2.36275 13.0733L2.39363 13.2748L2.49275 13.2862C3.61072 13.446 4.63915 13.9872 5.40401 14.8181C6.16888 15.649 6.62321 16.7186 6.69013 17.8459L6.69988 18.1384C6.69988 18.6146 6.60725 19.0972 6.46425 19.5457L6.41875 19.6741L8.59138 20.8912L8.6255 20.8587C8.80425 20.6832 9.022 20.4914 9.2625 20.3013L9.5095 20.1128C10.452 19.4222 11.362 19.0679 12.22 19.0679C13.0829 19.0679 14.001 19.4287 14.95 20.1307C15.2669 20.3679 15.548 20.6117 15.7836 20.8392L15.8697 20.9253L18.1431 19.6708L18.0976 19.5424C17.9877 19.2024 17.9147 18.8516 17.8799 18.4959L17.8636 18.1384C17.8632 16.9584 18.2887 15.8178 19.0619 14.9264C19.8351 14.0349 20.9041 13.4525 22.0724 13.2862L22.1699 13.2748L22.2024 13.0684C22.259 12.6989 22.2986 12.3269 22.321 11.9537L22.3291 11.6271C22.3291 11.2143 22.2788 10.7008 22.2024 10.1824L22.1683 9.97605L22.0707 9.96468C20.9525 9.80519 19.9237 9.26419 19.1585 8.43326C18.3933 7.60233 17.9387 6.53252 17.8718 5.40493L17.8636 5.11243C17.8636 4.63305 17.9579 4.1488 18.0993 3.70355L18.1431 3.5768L15.899 2.33205L15.821 2.4068C15.6292 2.58316 15.4285 2.74966 15.2198 2.90568L14.9858 3.0763C14.0644 3.7263 13.1755 4.05943 12.3435 4.05943C11.5034 4.05943 10.608 3.71818 9.6785 3.0568C9.38805 2.85063 9.11123 2.62591 8.84975 2.38405L8.75875 2.29468ZM12.2298 7.08355C13.4295 7.08527 14.5796 7.56263 15.428 8.41098C16.2763 9.25932 16.7537 10.4094 16.7554 11.6092C16.7545 12.8093 16.2775 13.9601 15.429 14.8089C14.5805 15.6577 13.4299 16.1351 12.2298 16.1364C11.0293 16.1356 9.87829 15.6583 9.02945 14.8095C8.18061 13.9606 7.70336 12.8096 7.7025 11.6092C7.70465 10.4094 8.18242 9.2595 9.03107 8.41145C9.87972 7.56341 11.03 7.08647 12.2298 7.08518V7.08355ZM12.2298 9.31793C10.9655 9.31793 9.9385 10.3466 9.9385 11.6092C9.9385 12.8734 10.9655 13.9021 12.2298 13.9021C13.494 13.9021 14.521 12.8734 14.521 11.6108C14.521 10.3466 13.494 9.31793 12.2298 9.31793Z" fill="var(--fill-0, #E4E4E4)"/>
</svg>
