<svg preserveAspectRatio="none" width="100%" height="100%" overflow="visible" style="display: block;" viewBox="0 0 9 9" fill="none" xmlns="http://www.w3.org/2000/svg">
<g id="Vector">
<path d="M8.49219 8.10938C8.00781 7.17969 4.67187 1.78133 3.69531 0.780642C2.71875 -0.220044 1.67609 -0.134209 0.890625 0.345232C0.105157 0.824674 0 1.85141 0 1.85141C0.636186 2.64179 3.21796 5.8295 4.40625 7.50781C5.95057 9.68897 8.49219 8.10938 8.49219 8.10938Z" fill="url(#paint0_radial_32_1129)"/>
<path d="M8.49219 8.10938C8.00781 7.17969 4.67187 1.78133 3.69531 0.780642C2.71875 -0.220044 1.67609 -0.134209 0.890625 0.345232C0.105157 0.824674 0 1.85141 0 1.85141C0.636186 2.64179 3.21796 5.8295 4.40625 7.50781C5.95057 9.68897 8.49219 8.10938 8.49219 8.10938Z" fill="url(#paint1_radial_32_1129)"/>
<path d="M8.49219 8.10938C8.00781 7.17969 4.67187 1.78133 3.69531 0.780642C2.71875 -0.220044 1.67609 -0.134209 0.890625 0.345232C0.105157 0.824674 0 1.85141 0 1.85141C0.636186 2.64179 3.21796 5.8295 4.40625 7.50781C5.95057 9.68897 8.49219 8.10938 8.49219 8.10938Z" fill="url(#paint2_linear_32_1129)"/>
<path d="M8.49219 8.10938C8.00781 7.17969 4.67187 1.78133 3.69531 0.780642C2.71875 -0.220044 1.67609 -0.134209 0.890625 0.345232C0.105157 0.824674 0 1.85141 0 1.85141C0.636186 2.64179 3.21796 5.8295 4.40625 7.50781C5.95057 9.68897 8.49219 8.10938 8.49219 8.10938Z" fill="url(#paint3_radial_32_1129)"/>
</g>
<defs>
<radialGradient id="paint0_radial_32_1129" cx="0" cy="0" r="1" gradientUnits="userSpaceOnUse" gradientTransform="translate(5.41406 3.71094) rotate(55.5194) scale(26.3854 6.40756)">
<stop offset="0.118483" stop-color="#A47D71"/>
<stop offset="0.402194" stop-color="#734A42"/>
<stop offset="1" stop-color="#593428"/>
</radialGradient>
<radialGradient id="paint1_radial_32_1129" cx="0" cy="0" r="1" gradientUnits="userSpaceOnUse" gradientTransform="translate(2.07031 4.86719) rotate(52.0523) scale(12.9585 1.81604)">
<stop stop-color="#432419"/>
<stop offset="0.609651" stop-color="#6A433B" stop-opacity="0"/>
</radialGradient>
<linearGradient id="paint2_linear_32_1129" x1="7.66322" y1="9.1345" x2="5.05141" y2="5.52316" gradientUnits="userSpaceOnUse">
<stop offset="0.487226" stop-color="#A78174"/>
<stop offset="1" stop-color="#A78174" stop-opacity="0"/>
</linearGradient>
<radialGradient id="paint3_radial_32_1129" cx="0" cy="0" r="1" gradientUnits="userSpaceOnUse" gradientTransform="translate(4.78906 4.96094) rotate(53.0382) scale(23.3875 10.6023)">
<stop offset="0.239356" stop-color="#513329" stop-opacity="0"/>
<stop offset="0.300451" stop-color="#513329"/>
</radialGradient>
</defs>
</svg>
