<svg preserveAspectRatio="none" width="100%" height="100%" overflow="visible" style="display: block;" viewBox="0 0 23 24" fill="none" xmlns="http://www.w3.org/2000/svg">
<g id="Shape">
<path d="M22.5 0.75C22.5 0.335786 22.1642 0 21.75 0C21.3358 0 21 0.335786 21 0.75C21 2.05188 19.909 3 18.75 3C18.3358 3 18 3.33579 18 3.75C18 4.16421 18.3358 4.5 18.75 4.5C20.668 4.5 22.5 2.94812 22.5 0.75Z" fill="var(--fill-0, #F70A8D)"/>
<path d="M4.5 19.75C4.5 19.3358 4.16421 19 3.75 19C3.33579 19 3 19.3358 3 19.75C3 21.0519 1.90902 22 0.75 22C0.335786 22 0 22.3358 0 22.75C0 23.1642 0.335786 23.5 0.75 23.5C2.66796 23.5 4.5 21.9481 4.5 19.75Z" fill="var(--fill-0, #F70A8D)"/>
</g>
</svg>
