<svg preserveAspectRatio="none" width="100%" height="100%" overflow="visible" style="display: block;" viewBox="0 0 8 9" fill="none" xmlns="http://www.w3.org/2000/svg">
<g id="Vector">
<path d="M0.769581 0.487722C-0.297466 1.24917 -0.0549307 2.77116 0.312257 3.36491C0.679444 3.95866 0.571533 3.74709 0.571533 3.74709C0.571533 3.74709 1.47201 3.97351 2.27644 5.12912C2.27644 5.12912 2.45016 5.37871 3.76266 7.35527C3.76266 7.35527 6.99064 8.85878 7.31876 8.49941C8.23379 7.49723 7.26505 6.23341 7.11535 5.94874C6.63879 5.04249 4.91859 2.39706 3.95796 1.10004C2.99732 -0.196988 1.83695 -0.273959 0.769581 0.487722Z" fill="url(#paint0_radial_146_1844)"/>
<path d="M0.769581 0.487722C-0.297466 1.24917 -0.0549307 2.77116 0.312257 3.36491C0.679444 3.95866 0.571533 3.74709 0.571533 3.74709C0.571533 3.74709 1.47201 3.97351 2.27644 5.12912C2.27644 5.12912 2.45016 5.37871 3.76266 7.35527C3.76266 7.35527 6.99064 8.85878 7.31876 8.49941C8.23379 7.49723 7.26505 6.23341 7.11535 5.94874C6.63879 5.04249 4.91859 2.39706 3.95796 1.10004C2.99732 -0.196988 1.83695 -0.273959 0.769581 0.487722Z" fill="url(#paint1_radial_146_1844)"/>
<path d="M0.769581 0.487722C-0.297466 1.24917 -0.0549307 2.77116 0.312257 3.36491C0.679444 3.95866 0.571533 3.74709 0.571533 3.74709C0.571533 3.74709 1.47201 3.97351 2.27644 5.12912C2.27644 5.12912 2.45016 5.37871 3.76266 7.35527C3.76266 7.35527 6.99064 8.85878 7.31876 8.49941C8.23379 7.49723 7.26505 6.23341 7.11535 5.94874C6.63879 5.04249 4.91859 2.39706 3.95796 1.10004C2.99732 -0.196988 1.83695 -0.273959 0.769581 0.487722Z" fill="url(#paint2_radial_146_1844)"/>
</g>
<defs>
<radialGradient id="paint0_radial_146_1844" cx="0" cy="0" r="1" gradientUnits="userSpaceOnUse" gradientTransform="translate(2.67661 1.18196) rotate(48.1749) scale(4.28159 3.7011)">
<stop offset="0.186792" stop-color="#B18975"/>
<stop offset="0.82956" stop-color="#8C5B5A" stop-opacity="0"/>
</radialGradient>
<radialGradient id="paint1_radial_146_1844" cx="0" cy="0" r="1" gradientUnits="userSpaceOnUse" gradientTransform="translate(4.19712 3.86884) rotate(57.6372) scale(2.74146 1.83442)">
<stop offset="0.0267379" stop-color="#6A3E34"/>
<stop offset="1" stop-color="#905E5D" stop-opacity="0"/>
</radialGradient>
<radialGradient id="paint2_radial_146_1844" cx="0" cy="0" r="1" gradientUnits="userSpaceOnUse" gradientTransform="translate(1.66052 5.55727) rotate(53.8951) scale(10.261 4.15568)">
<stop offset="0.161122" stop-color="#7A4B46"/>
<stop offset="0.290305" stop-color="#98646A" stop-opacity="0"/>
</radialGradient>
</defs>
</svg>
