<svg preserveAspectRatio="none" width="100%" height="100%" overflow="visible" style="display: block;" viewBox="0 0 11 11" fill="none" xmlns="http://www.w3.org/2000/svg">
<g id="Shadow Back">
<path d="M6.12491 1.20728L6.03323 1.05974C6.03637 1.04234 6.14236 0.468395 6.55208 0L6.97421 0.679366C7.30862 1.21736 7.76165 1.94571 8.23613 2.70723C9.18669 4.23282 10.2189 5.88427 10.5597 6.41096C10.7097 6.6428 10.6434 6.95235 10.4115 7.10237C10.1797 7.25238 9.87012 7.18605 9.72011 6.95421C9.3734 6.41839 8.33528 4.75734 7.3874 3.23606C6.91267 2.47414 6.45944 1.74547 6.12491 1.20728Z" fill="var(--fill-0, #D67D00)"/>
<path d="M2.20917 2.8423C2.12904 2.82048 2.05364 2.80591 1.98329 2.79675C2.08704 2.80427 2.16298 2.82385 2.20917 2.8423Z" fill="var(--fill-0, #D67D00)"/>
<path d="M2.24161 2.85146C2.52154 2.9333 2.85681 3.10396 3.23383 3.43908C3.26245 3.46453 3.32929 3.54021 3.4363 3.69067C3.53711 3.8324 3.65586 4.01495 3.78872 4.23023C4.05423 4.66042 4.36352 5.20078 4.67955 5.76463C4.84557 6.06083 5.01436 6.36527 5.17937 6.66289C5.63276 7.48066 6.05766 8.24702 6.3181 8.64952C6.46811 8.88136 6.77767 8.94769 7.00951 8.79768C7.24135 8.64767 7.30768 8.33811 7.15767 8.10627C6.91718 7.73461 6.52105 7.02018 6.07633 6.2181C5.90662 5.91203 5.72979 5.59311 5.55188 5.27569C5.23474 4.70987 4.91689 4.15415 4.6397 3.70502C4.50122 3.48064 4.36973 3.27772 4.2512 3.11107C4.13888 2.95315 4.01729 2.79754 3.89819 2.69167C3.10242 1.98432 2.369 1.78831 1.80151 1.78375C1.82893 2.17935 1.97672 2.55652 2.24161 2.85146Z" fill="var(--fill-0, #D67D00)"/>
<path d="M0.521832 6.75207C0.409745 6.72759 0.303393 6.71092 0.20759 6.70067C0.359736 6.70591 0.466757 6.73378 0.521832 6.75207Z" fill="var(--fill-0, #D67D00)"/>
<path d="M0.56087 6.76087C0.592261 6.76815 0.62405 6.77605 0.656134 6.78459C0.98175 6.87128 1.2818 7.00945 1.48384 7.18903C1.58516 7.27909 1.73848 7.46451 1.93601 7.74454C2.12716 8.01551 2.33899 8.34487 2.55809 8.69786C2.73516 8.98311 2.91988 9.28886 3.10001 9.58701C3.35489 10.0089 3.60064 10.4157 3.80248 10.7276C3.95249 10.9594 4.26205 11.0258 4.49389 10.8758C4.72573 10.7257 4.79206 10.4162 4.64205 10.1843C4.44462 9.87923 4.21657 9.50149 3.97162 9.09575C3.79105 8.79665 3.60116 8.48211 3.40772 8.17048C3.18507 7.81177 2.96117 7.463 2.75317 7.16813C2.55156 6.88231 2.34232 6.61416 2.14819 6.44161C1.78772 6.12121 1.32476 5.92776 0.913395 5.81825C0.592717 5.73288 0.269357 5.68957 0 5.68762C0.0227865 5.74608 0.0485606 5.80225 0.0773644 5.85567C0.447529 6.54209 0.542455 6.72494 0.56087 6.76087Z" fill="var(--fill-0, #D67D00)"/>
</g>
</svg>
