<svg preserveAspectRatio="none" width="100%" height="100%" overflow="visible" style="display: block;" viewBox="0 0 22 22" fill="none" xmlns="http://www.w3.org/2000/svg">
<g id="recheck 1">
<path id="Vector" d="M12.3922 17.7096C10.2008 18.1543 7.8375 17.5377 6.15957 15.8619C3.65879 13.3633 3.48906 9.46172 5.64609 6.79336V8.05879C5.64609 8.43477 5.95547 8.74199 6.33145 8.74199C6.70957 8.74199 7.01465 8.43477 7.0168 8.05879V5.32168C7.0168 5.11543 6.94805 4.9457 6.81055 4.84258C6.67305 4.70508 6.50117 4.63633 6.33145 4.63633H3.59219C3.21406 4.63633 2.90898 4.94355 2.90684 5.32168C2.90684 5.69766 3.21621 6.00703 3.59219 6.00703H4.55039C1.98086 9.18887 2.22148 13.8424 5.16699 16.8201C7.2209 18.874 10.0633 19.5916 12.7016 19.0438C12.8047 19.0094 12.9422 18.9406 13.0109 18.8719C13.2838 18.599 13.2838 18.1865 13.0109 17.9137C12.8713 17.7096 12.5984 17.6408 12.3922 17.7096ZM18.4207 16.0338H17.4969C19.9977 12.8176 19.7914 8.16191 16.8115 5.18633C14.893 3.26992 12.2891 2.51582 9.79043 2.85742C9.61855 2.85742 9.48105 2.92617 9.3457 3.06367C9.07285 3.33652 9.07285 3.74687 9.3457 4.02187C9.51758 4.19375 9.75605 4.26035 9.99668 4.19375C12.0506 3.88652 14.2441 4.53535 15.8189 6.11016C18.3197 8.60879 18.4895 12.5104 16.3324 15.1787V13.9133C16.3324 13.5373 16.023 13.2279 15.6471 13.2279C15.2689 13.2279 14.9639 13.5352 14.9617 13.9133V16.6504C14.9617 16.8566 15.0305 17.0264 15.168 17.1295C15.3055 17.267 15.4773 17.3357 15.6471 17.3357H18.3863C18.7645 17.3357 19.0695 17.0285 19.0717 16.6504C19.0717 16.2723 18.7967 16.0338 18.4207 16.0338Z" fill="var(--fill-0, #E4E4E4)"/>
</g>
</svg>
