<svg preserveAspectRatio="none" width="100%" height="100%" overflow="visible" style="display: block;" viewBox="0 0 58 19" fill="none" xmlns="http://www.w3.org/2000/svg">
<g id="Frame 2117130217">
<path id="Vector" d="M14.6592 0.849609C17.6956 0.849609 20.1504 3.44835 20.1504 6.62109C20.1504 8.27949 19.4758 9.5108 18.8428 10.4912L18.5762 10.8965C17.5569 12.4264 15.7804 14.1373 14.2412 15.4795C12.7161 16.8095 11.4098 17.7875 11.2734 17.8867L11.2744 17.8877C11.0541 18.0576 10.7807 18.1504 10.5 18.1504C10.2207 18.1504 9.94916 18.0588 9.72949 17.8906C9.616 17.8086 8.29696 16.8257 6.75488 15.4834C5.21447 14.1425 3.43787 12.432 2.42383 10.8965C1.73067 9.85379 0.849628 8.51636 0.849609 6.62109C0.849609 3.44835 3.30436 0.849609 6.34082 0.849609C7.96213 0.849751 9.47612 1.60735 10.5 2.85742C11.5324 1.60755 13.037 0.849751 14.6592 0.849609ZM14.4434 2.34961C13.7558 2.34961 13.0242 2.6667 12.3457 3.14062C11.6696 3.61286 11.0607 4.23015 10.6191 4.80371L10.499 4.95898L10.3809 4.80371C9.94501 4.23059 9.3358 3.61296 8.6582 3.14062C7.97836 2.66673 7.24431 2.34961 6.55664 2.34961C5.28036 2.3497 4.26442 2.8211 3.56543 3.62012C2.86445 4.42143 2.47168 5.56488 2.47168 6.92383C2.47182 8.51076 3.41446 9.63118 4.04492 10.5879L4.42383 11.0693C5.35407 12.1975 6.58562 13.3524 7.65723 14.2793C8.57539 15.0735 9.37099 15.6952 9.75 15.9834L9.97949 16.1553L9.98828 16.1611H9.9873C10.1292 16.2757 10.3102 16.3377 10.4971 16.3359C10.6861 16.3323 10.868 16.2698 11.0156 16.1582L11.0205 16.1543C11.114 16.0893 12.1402 15.344 13.373 14.3027C14.6074 13.2601 16.0399 11.929 16.9551 10.6924C17.2761 10.2188 17.6938 9.68266 18.04 9.05078C18.385 8.42102 18.6474 7.71355 18.6475 6.92383C18.6475 5.56739 18.229 4.42414 17.5 3.62207C16.7724 2.82159 15.7256 2.3497 14.4434 2.34961Z" fill="var(--fill-0, #303742)" stroke="var(--stroke-0, #303742)" stroke-width="0.3"/>
<path id="Vector_2" d="M53.7305 0.849609C54.3101 0.849631 54.8806 0.99742 55.3877 1.27832C55.8948 1.55928 56.3225 1.96454 56.6299 2.45605C56.9372 2.94749 57.1148 3.50908 57.1455 4.08789C57.1762 4.66675 57.0593 5.2444 56.8057 5.76562C56.552 6.28684 56.1698 6.73536 55.6953 7.06836C55.2209 7.4013 54.6691 7.60757 54.0928 7.66895C53.5163 7.73027 52.9334 7.64462 52.3994 7.41895C51.9032 7.20918 51.4658 6.88354 51.1191 6.47266L46.5996 8.73242C46.7159 9.23754 46.7158 9.76146 46.5996 10.2666L51.1191 12.5264C51.4657 12.1158 51.9034 11.7907 52.3994 11.5811C52.9334 11.3554 53.5163 11.2697 54.0928 11.3311C54.6691 11.3924 55.2209 11.5987 55.6953 11.9316C56.1698 12.2646 56.552 12.7132 56.8057 13.2344C57.0593 13.7556 57.1762 14.3333 57.1455 14.9121C57.1148 15.4909 56.9372 16.0525 56.6299 16.5439C56.3225 17.0355 55.8948 17.4407 55.3877 17.7217C54.8806 18.0026 54.3101 18.1504 53.7305 18.1504C53.2061 18.1497 52.6889 18.0282 52.2188 17.7959C51.7486 17.5636 51.3377 17.2266 51.0186 16.8105C50.6994 16.3945 50.4804 15.9098 50.3779 15.3955C50.2835 14.9214 50.2917 14.4333 50.3994 13.9629L45.8799 11.7031C45.4488 12.2139 44.8792 12.5897 44.2363 12.7793C43.554 12.9805 42.8257 12.9646 42.1533 12.7324C41.4809 12.5002 40.8972 12.0637 40.4844 11.4844C40.0716 10.9051 39.8496 10.2113 39.8496 9.5C39.8496 8.78869 40.0716 8.09491 40.4844 7.51562C40.8972 6.9363 41.4809 6.49975 42.1533 6.26758C42.8257 6.03545 43.554 6.01954 44.2363 6.2207C44.8789 6.41019 45.4489 6.78538 45.8799 7.2959L50.3994 5.03613C50.2911 4.56586 50.2818 4.07777 50.376 3.60352C50.4781 3.08899 50.6974 2.60474 51.0166 2.18848C51.336 1.77214 51.7472 1.43421 52.2178 1.20215C52.6882 0.970182 53.2059 0.849551 53.7305 0.849609ZM53.7305 12.9189C53.4927 12.919 53.2568 12.9656 53.0371 13.0566C52.8174 13.1477 52.6184 13.282 52.4502 13.4502C52.2821 13.6183 52.1486 13.8175 52.0576 14.0371C51.9666 14.2568 51.919 14.4927 51.9189 14.7305C51.9189 15.2109 52.1105 15.672 52.4502 16.0117C52.7898 16.3513 53.2502 16.5419 53.7305 16.542C54.2109 16.542 54.672 16.3514 55.0117 16.0117C55.3515 15.672 55.542 15.2109 55.542 14.7305C55.542 14.4927 55.4953 14.2568 55.4043 14.0371C55.3133 13.8176 55.1798 13.6183 55.0117 13.4502C54.8435 13.282 54.6436 13.1477 54.4238 13.0566C54.2042 12.9657 53.9682 12.9189 53.7305 12.9189ZM43.2695 7.68848C43.0317 7.68848 42.7959 7.73521 42.5762 7.82617C42.3565 7.91717 42.1565 8.05063 41.9883 8.21875C41.8201 8.38692 41.6867 8.58692 41.5957 8.80664C41.5047 9.02643 41.458 9.26211 41.458 9.5L41.4668 9.67871C41.5079 10.0935 41.6909 10.4839 41.9883 10.7812C42.328 11.1209 42.7892 11.3115 43.2695 11.3115C43.7497 11.3114 44.2102 11.1207 44.5498 10.7812C44.8895 10.4415 45.0811 9.98045 45.0811 9.5L45.0723 9.32227C45.0548 9.14533 45.0107 8.9715 44.9424 8.80664C44.8513 8.58696 44.718 8.3869 44.5498 8.21875C44.3817 8.05077 44.1824 7.91715 43.9629 7.82617C43.7432 7.73518 43.5073 7.68853 43.2695 7.68848ZM53.7305 2.45801C53.4927 2.45806 53.2568 2.50471 53.0371 2.5957C52.8176 2.68671 52.6183 2.82025 52.4502 2.98828C52.282 3.1565 52.1487 3.35639 52.0576 3.57617C51.9666 3.79596 51.9189 4.03164 51.9189 4.26953C51.919 4.74986 52.1105 5.21015 52.4502 5.5498C52.7898 5.88945 53.2501 6.08096 53.7305 6.08105C54.2109 6.08105 54.672 5.88953 55.0117 5.5498C55.3513 5.21016 55.5419 4.74981 55.542 4.26953C55.542 4.03167 55.4953 3.79593 55.4043 3.57617C55.3133 3.35639 55.1799 3.1565 55.0117 2.98828C54.8435 2.82009 54.6436 2.68673 54.4238 2.5957C54.2041 2.50472 53.9683 2.45801 53.7305 2.45801Z" fill="var(--fill-0, #303742)" stroke="var(--stroke-0, #303742)" stroke-width="0.3"/>
</g>
</svg>
