<svg preserveAspectRatio="none" width="100%" height="100%" overflow="visible" style="display: block;" viewBox="0 0 36 36" fill="none" xmlns="http://www.w3.org/2000/svg">
<g id="&#232;&#191;&#148;&#229;&#155;&#158; 1">
<path id="Vector" d="M16.8193 11.0319C17.0107 11.2187 17.1256 11.4673 17.1426 11.7309C17.1596 11.9946 17.0774 12.2552 16.9116 12.464L16.8193 12.566L12.3658 16.9131L26.3184 16.9131C26.6017 16.9134 26.8741 17.0193 27.0801 17.2091C27.2861 17.3989 27.4101 17.6584 27.4267 17.9344C27.4433 18.2105 27.3513 18.4823 27.1694 18.6943C26.9876 18.9064 26.7297 19.0426 26.4484 19.0753L26.3184 19.0829L12.3658 19.0829L16.8193 23.4301C17.0208 23.6248 17.1383 23.8874 17.1479 24.164C17.1576 24.4407 17.0585 24.7104 16.871 24.9181C16.6836 25.1257 16.4219 25.2556 16.1395 25.2811C15.8572 25.3066 15.5755 25.2258 15.3522 25.0552L15.2478 24.9641L8.89485 18.765L8.81372 18.6761L8.81038 18.6728L8.89485 18.765C8.8374 18.7091 8.78635 18.6473 8.74259 18.5806L8.7337 18.5665C8.73107 18.5618 8.72847 18.5571 8.72592 18.5524L8.71036 18.5274C8.61877 18.3654 8.57132 18.1831 8.57254 17.998V17.9774C8.57254 17.9524 8.57365 17.9264 8.57699 17.9015L8.57143 17.998C8.57212 17.7573 8.65417 17.5235 8.80483 17.333C8.83484 17.2939 8.86484 17.2614 8.89596 17.231L15.2478 11.0319C15.4562 10.8285 15.7388 10.7143 16.0335 10.7143C16.3282 10.7143 16.6109 10.8285 16.8193 11.0319Z" fill="var(--fill-0, black)" fill-opacity="0.8"/>
</g>
</svg>
