<svg preserveAspectRatio="none" width="100%" height="100%" overflow="visible" style="display: block;" viewBox="0 0 8 9" fill="none" xmlns="http://www.w3.org/2000/svg">
<g id="Vector">
<path d="M0.731196 0.475461C-0.285146 1.19954 -0.0557331 2.74331 0.311454 3.33706C0.678642 3.93081 0.953193 4.31621 0.953193 4.31621C0.953193 4.31621 1.7028 4.25222 2.34294 4.95556C2.34294 4.95556 2.50966 5.09599 3.82216 7.07255C3.82216 7.07255 6.95225 8.84652 7.28038 8.48715C8.19541 7.48497 7.22666 6.22115 7.07696 5.93648C6.6004 5.03023 4.59058 1.94457 3.71125 0.941189C2.83192 -0.0621913 1.86977 -0.335705 0.731196 0.475461Z" fill="url(#paint0_radial_146_1602)"/>
<path d="M0.731196 0.475461C-0.285146 1.19954 -0.0557331 2.74331 0.311454 3.33706C0.678642 3.93081 0.953193 4.31621 0.953193 4.31621C0.953193 4.31621 1.7028 4.25222 2.34294 4.95556C2.34294 4.95556 2.50966 5.09599 3.82216 7.07255C3.82216 7.07255 6.95225 8.84652 7.28038 8.48715C8.19541 7.48497 7.22666 6.22115 7.07696 5.93648C6.6004 5.03023 4.59058 1.94457 3.71125 0.941189C2.83192 -0.0621913 1.86977 -0.335705 0.731196 0.475461Z" fill="url(#paint1_radial_146_1602)"/>
<path d="M0.731196 0.475461C-0.285146 1.19954 -0.0557331 2.74331 0.311454 3.33706C0.678642 3.93081 0.953193 4.31621 0.953193 4.31621C0.953193 4.31621 1.7028 4.25222 2.34294 4.95556C2.34294 4.95556 2.50966 5.09599 3.82216 7.07255C3.82216 7.07255 6.95225 8.84652 7.28038 8.48715C8.19541 7.48497 7.22666 6.22115 7.07696 5.93648C6.6004 5.03023 4.59058 1.94457 3.71125 0.941189C2.83192 -0.0621913 1.86977 -0.335705 0.731196 0.475461Z" fill="url(#paint2_radial_146_1602)"/>
</g>
<defs>
<radialGradient id="paint0_radial_146_1602" cx="0" cy="0" r="1" gradientUnits="userSpaceOnUse" gradientTransform="translate(2.38908 1.30987) rotate(47.4846) scale(4.31657 3.73049)">
<stop offset="0.186792" stop-color="#836760"/>
<stop offset="0.82956" stop-color="#523238" stop-opacity="0"/>
</radialGradient>
<radialGradient id="paint1_radial_146_1602" cx="0" cy="0" r="1" gradientUnits="userSpaceOnUse" gradientTransform="translate(5.16467 3.50167) rotate(80.8419) scale(3.50056 3.14522)">
<stop offset="0.0267379" stop-color="#39241D"/>
<stop offset="1" stop-color="#6A464F" stop-opacity="0"/>
</radialGradient>
<radialGradient id="paint2_radial_146_1602" cx="0" cy="0" r="1" gradientUnits="userSpaceOnUse" gradientTransform="translate(2.45138 6.16239) rotate(52.6973) scale(9.2333 3.7368)">
<stop offset="0.161122" stop-color="#39241D"/>
<stop offset="0.344055" stop-color="#5A3A3F" stop-opacity="0"/>
</radialGradient>
</defs>
</svg>
