<svg preserveAspectRatio="none" width="100%" height="100%" overflow="visible" style="display: block;" viewBox="0 0 7 8" fill="none" xmlns="http://www.w3.org/2000/svg">
<g id="Sound">
<path d="M6.05185 2.81707L4.83185 1.16552C4.64185 0.907461 4.76185 0.535847 5.06185 0.442946L6.42185 0.019745C6.72185 -0.0731555 7.02185 0.17457 7.00185 0.494561L6.86185 2.56935C6.82185 2.99256 6.30185 3.15771 6.05185 2.81707Z" fill="var(--fill-0, #46A4FB)"/>
<path d="M3.69185 4.4391L1.83185 3.6591C1.54185 3.5391 1.46185 3.1691 1.68185 2.9391L2.65185 1.9091C2.86185 1.6791 3.24185 1.7391 3.38185 2.0191L4.27185 3.8291C4.44185 4.1991 4.07185 4.5991 3.69185 4.4391Z" fill="var(--fill-0, #46A4FB)"/>
<path d="M0.519787 7.35898L2.59127 7.08919C3.01593 7.03731 3.15058 6.48734 2.79842 6.2383L1.06873 5.07613C0.799439 4.89973 0.42657 5.04499 0.354068 5.35629L0.012273 6.78826C-0.060229 7.10994 0.198707 7.40048 0.519787 7.35898Z" fill="var(--fill-0, #46A4FB)"/>
</g>
</svg>
