<svg preserveAspectRatio="none" width="100%" height="100%" overflow="visible" style="display: block;" viewBox="0 0 15 12" fill="none" xmlns="http://www.w3.org/2000/svg">
<g id="Shadow Front">
<path d="M6.12067 1.05523L6.13373 1.07625C6.46826 1.61443 6.92148 2.3431 7.39621 3.10502C8.34409 4.6263 9.38221 6.28735 9.72892 6.82317C9.87893 7.05501 10.1885 7.12135 10.4203 6.97133C10.6522 6.82132 10.7185 6.51176 10.5685 6.27992C10.2277 5.75324 9.19551 4.10179 8.24495 2.5762C7.77046 1.81468 7.31743 1.08632 6.98302 0.548329L6.6423 0C6.26272 0.433474 6.1409 0.95681 6.12067 1.05523Z" fill="var(--fill-0, #D67D00)"/>
<path d="M2.22503 2.86096C2.06996 2.83165 1.93448 2.82316 1.82767 2.82648C2.01186 2.81296 2.14596 2.83565 2.22503 2.86096Z" fill="var(--fill-0, #D67D00)"/>
<path d="M3.51183 3.51791C3.07614 3.13063 2.6327 2.94784 2.27989 2.87204C2.02252 2.58134 1.87657 2.21304 1.84506 1.826C2.44291 1.81973 3.34147 2.02853 4.17619 2.7705C4.38192 2.95337 4.64277 3.31967 4.90113 3.71162C5.17346 4.12475 5.48465 4.63254 5.79531 5.15117C6.02713 5.53818 6.25733 5.92883 6.47254 6.29404C6.8421 6.92119 7.16746 7.47333 7.38098 7.80332C7.531 8.03516 7.46467 8.34472 7.23282 8.49473C7.00098 8.64475 6.69143 8.57841 6.54141 8.34657C6.31727 8.00016 5.97162 7.41373 5.5919 6.76948C5.37935 6.40886 5.156 6.02991 4.93744 5.66503C4.6286 5.14944 4.32633 4.65659 4.06621 4.26198C3.79212 3.84619 3.60154 3.59766 3.51183 3.51791Z" fill="var(--fill-0, #D67D00)"/>
<path d="M0.710488 6.85808C0.665134 6.83965 0.621194 6.82286 0.578832 6.80763C0.542485 6.73769 0.427841 6.51986 0.101839 5.91533C0.0622661 5.84195 0.0283551 5.76341 0 5.68091C0.333224 5.67648 0.73354 5.78803 1.08697 5.93166C1.49302 6.09667 1.92765 6.34103 2.26215 6.63835C2.46458 6.81828 2.67718 7.11076 2.87691 7.41594C3.08481 7.73358 3.30858 8.11235 3.53062 8.49955C3.66543 8.73464 3.79893 8.97148 3.92876 9.20183C4.23524 9.74557 4.52132 10.2531 4.75601 10.6158C4.90603 10.8477 4.83969 11.1572 4.60785 11.3072C4.37601 11.4572 4.06646 11.3909 3.91644 11.1591C3.66421 10.7693 3.35285 10.2169 3.03873 9.65963C2.91277 9.43616 2.78634 9.21187 2.66313 8.997C2.44339 8.61381 2.23144 8.25578 2.04019 7.96356C1.84078 7.65888 1.69081 7.46845 1.5978 7.38577C1.3698 7.18311 1.04141 6.99256 0.710488 6.85808Z" fill="var(--fill-0, #D67D00)"/>
<path d="M13.7396 7.41176C13.5673 7.11471 13.2203 6.49537 12.8055 5.74938C12.8106 5.66397 12.8604 5.03104 13.2455 4.48163C13.8428 5.55929 14.3794 6.52171 14.6047 6.91005C14.7432 7.14892 14.6619 7.45488 14.423 7.59342C14.1841 7.73197 13.8782 7.65063 13.7396 7.41176Z" fill="var(--fill-0, #D67D00)"/>
</g>
</svg>
