<svg preserveAspectRatio="none" width="100%" height="100%" overflow="visible" style="display: block;" viewBox="0 0 20 24" fill="none" xmlns="http://www.w3.org/2000/svg">
<path id="Hand Back" d="M18.9958 15.7061L18.8411 6.31609C18.7421 5.42504 18.2533 4.2277 16.5826 4.2277C14.6334 4.32052 14.5561 6.31609 14.5561 6.31609L11.5859 1.01006C10.8434 -0.119234 9.62562 -0.197827 8.86328 0.267497C8.10094 0.732821 7.93511 1.67523 7.93511 1.67523L7.31633 0.870818C6.851 0.108478 5.45849 0.0196949 4.74838 0.45314C3.56974 1.17257 3.39846 2.66214 4.16054 3.48517C4.11055 3.43119 3.52814 3.2295 2.5517 3.8255C1.78936 4.29083 1.55388 5.68191 1.97931 6.4708C2.40473 7.25969 2.4666 7.38345 2.4666 7.38345C2.4666 7.38345 1.80915 7.07406 0.772688 7.77019C0.0312618 8.26816 -0.234076 9.74602 0.231248 10.5084L2.72742 14.7171L6.1629 20.3307C8.18262 23.1933 12.4889 24.1818 15.6179 22.2811C17.7514 20.985 19.199 18.2462 18.9958 15.7061Z" fill="var(--fill-0, #BB806E)"/>
</svg>
