<svg preserveAspectRatio="none" width="100%" height="100%" overflow="visible" style="display: block;" viewBox="0 0 29 29" fill="none" xmlns="http://www.w3.org/2000/svg">
<g id="&#233;&#186;&#166;&#229;&#133;&#139;&#233;&#163;&#142; (1) 1" clip-path="url(#clip0_36_1787)">
<path id="Vector" d="M13.4666 26.9314V23.3609C11.1525 23.1823 8.99111 22.137 7.41439 20.4339C5.83768 18.7308 4.96182 16.4954 4.96191 14.1744C4.96191 13.9865 5.03658 13.8062 5.16949 13.6733C5.3024 13.5404 5.48267 13.4657 5.67064 13.4657C5.8586 13.4657 6.03887 13.5404 6.17178 13.6733C6.30469 13.8062 6.37936 13.9865 6.37936 14.1744C6.37936 16.242 7.20071 18.225 8.66273 19.687C10.1248 21.149 12.1077 21.9704 14.1753 21.9704C16.2429 21.9704 18.2258 21.149 19.6878 19.687C21.1499 18.225 21.9712 16.242 21.9712 14.1744C21.9712 13.9865 22.0459 13.8062 22.1788 13.6733C22.3117 13.5404 22.492 13.4657 22.6799 13.4657C22.8679 13.4657 23.0482 13.5404 23.1811 13.6733C23.314 13.8062 23.3887 13.9865 23.3887 14.1744C23.3888 16.4954 22.5129 18.7308 20.9362 20.4339C19.3595 22.137 17.198 23.1823 14.884 23.3609V26.9314H19.1363C19.3243 26.9314 19.5046 27.0061 19.6375 27.139C19.7704 27.2719 19.8451 27.4522 19.8451 27.6401C19.8451 27.8281 19.7704 28.0084 19.6375 28.1413C19.5046 28.2742 19.3243 28.3489 19.1363 28.3489H9.21424C9.02627 28.3489 8.84601 28.2742 8.7131 28.1413C8.58019 28.0084 8.50552 27.8281 8.50552 27.6401C8.50552 27.4522 8.58019 27.2719 8.7131 27.139C8.84601 27.0061 9.02627 26.9314 9.21424 26.9314H13.4666ZM14.1753 1.41746C13.0475 1.41746 11.9659 1.86547 11.1684 2.66294C10.371 3.4604 9.92296 4.542 9.92296 5.66979V14.1744C9.92296 15.3022 10.371 16.3838 11.1684 17.1813C11.9659 17.9788 13.0475 18.4268 14.1753 18.4268C15.3031 18.4268 16.3847 17.9788 17.1821 17.1813C17.9796 16.3838 18.4276 15.3022 18.4276 14.1744V5.66979C18.4276 5.11136 18.3176 4.55841 18.1039 4.04249C17.8902 3.52658 17.577 3.0578 17.1821 2.66294C16.7873 2.26807 16.3185 1.95485 15.8026 1.74115C15.2867 1.52745 14.7337 1.41746 14.1753 1.41746ZM14.1753 1.98719e-05C15.679 1.98719e-05 17.1211 0.597369 18.1844 1.66066C19.2477 2.72394 19.8451 4.16607 19.8451 5.66979V14.1744C19.8451 15.6782 19.2477 17.1203 18.1844 18.1836C17.1211 19.2469 15.679 19.8442 14.1753 19.8442C12.6716 19.8442 11.2294 19.2469 10.1662 18.1836C9.10287 17.1203 8.50552 15.6782 8.50552 14.1744V5.66979C8.50552 4.16607 9.10287 2.72394 10.1662 1.66066C11.2294 0.597369 12.6716 1.98719e-05 14.1753 1.98719e-05Z" fill="var(--fill-0, white)"/>
</g>
<defs>
<clipPath id="clip0_36_1787">
<rect width="28.3488" height="28.3488" fill="white"/>
</clipPath>
</defs>
</svg>
