<svg preserveAspectRatio="none" width="100%" height="100%" overflow="visible" style="display: block;" viewBox="0 0 28 25" fill="none" xmlns="http://www.w3.org/2000/svg">
<g id="Heart">
<path d="M12.7872 23.9036C13.3986 24.2525 14.1406 24.2326 14.7497 23.8797C18.3191 21.811 24.3646 17.1818 26.7571 11.1909C30.3131 3.29184 21.9635 -3.01368 16.1927 1.52147C15.6194 1.97206 14.9055 2.48466 14.3888 2.97555C14.111 3.23956 13.6257 3.26651 13.3396 3.01138C12.6537 2.39963 11.6373 1.64231 10.9757 1.19468C6.05598 -2.1338 -2.8955 2.2537 0.922885 11.6177C2.30598 15.7737 8.83853 21.6505 12.7872 23.9036Z" fill="url(#paint0_linear_32_1393)"/>
<path d="M12.7872 23.9036C13.3986 24.2525 14.1406 24.2326 14.7497 23.8797C18.3191 21.811 24.3646 17.1818 26.7571 11.1909C30.3131 3.29184 21.9635 -3.01368 16.1927 1.52147C15.6194 1.97206 14.9055 2.48466 14.3888 2.97555C14.111 3.23956 13.6257 3.26651 13.3396 3.01138C12.6537 2.39963 11.6373 1.64231 10.9757 1.19468C6.05598 -2.1338 -2.8955 2.2537 0.922885 11.6177C2.30598 15.7737 8.83853 21.6505 12.7872 23.9036Z" fill="url(#paint1_radial_32_1393)"/>
<path d="M12.7872 23.9036C13.3986 24.2525 14.1406 24.2326 14.7497 23.8797C18.3191 21.811 24.3646 17.1818 26.7571 11.1909C30.3131 3.29184 21.9635 -3.01368 16.1927 1.52147C15.6194 1.97206 14.9055 2.48466 14.3888 2.97555C14.111 3.23956 13.6257 3.26651 13.3396 3.01138C12.6537 2.39963 11.6373 1.64231 10.9757 1.19468C6.05598 -2.1338 -2.8955 2.2537 0.922885 11.6177C2.30598 15.7737 8.83853 21.6505 12.7872 23.9036Z" fill="url(#paint2_radial_32_1393)"/>
<path d="M12.7872 23.9036C13.3986 24.2525 14.1406 24.2326 14.7497 23.8797C18.3191 21.811 24.3646 17.1818 26.7571 11.1909C30.3131 3.29184 21.9635 -3.01368 16.1927 1.52147C15.6194 1.97206 14.9055 2.48466 14.3888 2.97555C14.111 3.23956 13.6257 3.26651 13.3396 3.01138C12.6537 2.39963 11.6373 1.64231 10.9757 1.19468C6.05598 -2.1338 -2.8955 2.2537 0.922885 11.6177C2.30598 15.7737 8.83853 21.6505 12.7872 23.9036Z" fill="url(#paint3_radial_32_1393)"/>
<path d="M12.7872 23.9036C13.3986 24.2525 14.1406 24.2326 14.7497 23.8797C18.3191 21.811 24.3646 17.1818 26.7571 11.1909C30.3131 3.29184 21.9635 -3.01368 16.1927 1.52147C15.6194 1.97206 14.9055 2.48466 14.3888 2.97555C14.111 3.23956 13.6257 3.26651 13.3396 3.01138C12.6537 2.39963 11.6373 1.64231 10.9757 1.19468C6.05598 -2.1338 -2.8955 2.2537 0.922885 11.6177C2.30598 15.7737 8.83853 21.6505 12.7872 23.9036Z" fill="url(#paint4_linear_32_1393)"/>
<path d="M12.7872 23.9036C13.3986 24.2525 14.1406 24.2326 14.7497 23.8797C18.3191 21.811 24.3646 17.1818 26.7571 11.1909C30.3131 3.29184 21.9635 -3.01368 16.1927 1.52147C15.6194 1.97206 14.9055 2.48466 14.3888 2.97555C14.111 3.23956 13.6257 3.26651 13.3396 3.01138C12.6537 2.39963 11.6373 1.64231 10.9757 1.19468C6.05598 -2.1338 -2.8955 2.2537 0.922885 11.6177C2.30598 15.7737 8.83853 21.6505 12.7872 23.9036Z" fill="url(#paint5_linear_32_1393)"/>
<path d="M12.7872 23.9036C13.3986 24.2525 14.1406 24.2326 14.7497 23.8797C18.3191 21.811 24.3646 17.1818 26.7571 11.1909C30.3131 3.29184 21.9635 -3.01368 16.1927 1.52147C15.6194 1.97206 14.9055 2.48466 14.3888 2.97555C14.111 3.23956 13.6257 3.26651 13.3396 3.01138C12.6537 2.39963 11.6373 1.64231 10.9757 1.19468C6.05598 -2.1338 -2.8955 2.2537 0.922885 11.6177C2.30598 15.7737 8.83853 21.6505 12.7872 23.9036Z" fill="url(#paint6_radial_32_1393)"/>
<path d="M12.7872 23.9036C13.3986 24.2525 14.1406 24.2326 14.7497 23.8797C18.3191 21.811 24.3646 17.1818 26.7571 11.1909C30.3131 3.29184 21.9635 -3.01368 16.1927 1.52147C15.6194 1.97206 14.9055 2.48466 14.3888 2.97555C14.111 3.23956 13.6257 3.26651 13.3396 3.01138C12.6537 2.39963 11.6373 1.64231 10.9757 1.19468C6.05598 -2.1338 -2.8955 2.2537 0.922885 11.6177C2.30598 15.7737 8.83853 21.6505 12.7872 23.9036Z" fill="url(#paint7_radial_32_1393)"/>
<path d="M12.7872 23.9036C13.3986 24.2525 14.1406 24.2326 14.7497 23.8797C18.3191 21.811 24.3646 17.1818 26.7571 11.1909C30.3131 3.29184 21.9635 -3.01368 16.1927 1.52147C15.6194 1.97206 14.9055 2.48466 14.3888 2.97555C14.111 3.23956 13.6257 3.26651 13.3396 3.01138C12.6537 2.39963 11.6373 1.64231 10.9757 1.19468C6.05598 -2.1338 -2.8955 2.2537 0.922885 11.6177C2.30598 15.7737 8.83853 21.6505 12.7872 23.9036Z" fill="url(#paint8_radial_32_1393)"/>
<path d="M12.7872 23.9036C13.3986 24.2525 14.1406 24.2326 14.7497 23.8797C18.3191 21.811 24.3646 17.1818 26.7571 11.1909C30.3131 3.29184 21.9635 -3.01368 16.1927 1.52147C15.6194 1.97206 14.9055 2.48466 14.3888 2.97555C14.111 3.23956 13.6257 3.26651 13.3396 3.01138C12.6537 2.39963 11.6373 1.64231 10.9757 1.19468C6.05598 -2.1338 -2.8955 2.2537 0.922885 11.6177C2.30598 15.7737 8.83853 21.6505 12.7872 23.9036Z" fill="url(#paint9_radial_32_1393)"/>
</g>
<defs>
<linearGradient id="paint0_linear_32_1393" x1="1.93567" y1="5.56172" x2="26.2918" y2="5.56172" gradientUnits="userSpaceOnUse">
<stop offset="0.0812458" stop-color="#FF3E9C"/>
<stop offset="1" stop-color="#FF4EAA"/>
</linearGradient>
<radialGradient id="paint1_radial_32_1393" cx="0" cy="0" r="1" gradientUnits="userSpaceOnUse" gradientTransform="translate(22.5828 22.8499) rotate(45.3648) scale(50.1517 22.94)">
<stop offset="0.520683" stop-color="#E5498A" stop-opacity="0"/>
<stop offset="0.579924" stop-color="#CE5784"/>
</radialGradient>
<radialGradient id="paint2_radial_32_1393" cx="0" cy="0" r="1" gradientUnits="userSpaceOnUse" gradientTransform="translate(25.55 2.47456) rotate(119.571) scale(24.9275 24.9429)">
<stop offset="0.225474" stop-color="#FF51AC"/>
<stop offset="1" stop-color="#FF51AC" stop-opacity="0"/>
</radialGradient>
<radialGradient id="paint3_radial_32_1393" cx="0" cy="0" r="1" gradientUnits="userSpaceOnUse" gradientTransform="translate(11.2102 6.05188) rotate(72.782) scale(10.8614 6.29864)">
<stop offset="0.227664" stop-color="#FF74BF"/>
<stop offset="0.755379" stop-color="#FF6BB9" stop-opacity="0"/>
</radialGradient>
<linearGradient id="paint4_linear_32_1393" x1="12.1974" y1="6.42613" x2="23.3864" y2="6.42613" gradientUnits="userSpaceOnUse">
<stop offset="0.0552486" stop-color="#FF54AC" stop-opacity="0"/>
<stop offset="0.154909" stop-color="#FF449E"/>
<stop offset="0.668508" stop-color="#FF449F"/>
<stop offset="1" stop-color="#FF57AF" stop-opacity="0"/>
</linearGradient>
<linearGradient id="paint5_linear_32_1393" x1="6.63494" y1="28.5303" x2="17.8684" y2="10.8564" gradientUnits="userSpaceOnUse">
<stop offset="0.432579" stop-color="#CF2F8D"/>
<stop offset="0.823982" stop-color="#F4369A" stop-opacity="0"/>
</linearGradient>
<radialGradient id="paint6_radial_32_1393" cx="0" cy="0" r="1" gradientUnits="userSpaceOnUse" gradientTransform="translate(24.2518 3.9564) rotate(134.467) scale(11.38 6.41856)">
<stop offset="0.163623" stop-color="#FF82CC"/>
<stop offset="1" stop-color="#FF5DB0" stop-opacity="0"/>
</radialGradient>
<radialGradient id="paint7_radial_32_1393" cx="0" cy="0" r="1" gradientUnits="userSpaceOnUse" gradientTransform="translate(19.121 -4.99639) rotate(125.756) scale(11.1082 3.89595)">
<stop offset="0.230453" stop-color="#CE5880"/>
<stop offset="1" stop-color="#CE5880" stop-opacity="0"/>
</radialGradient>
<radialGradient id="paint8_radial_32_1393" cx="0" cy="0" r="1" gradientUnits="userSpaceOnUse" gradientTransform="translate(18.6882 16.9225) rotate(117.801) scale(10.47 8.56162)">
<stop stop-color="#FF3BA3"/>
<stop offset="1" stop-color="#FF3BA3" stop-opacity="0"/>
</radialGradient>
<radialGradient id="paint9_radial_32_1393" cx="0" cy="0" r="1" gradientUnits="userSpaceOnUse" gradientTransform="translate(6.13927 2.1041) rotate(136.69) scale(45.366 35.2994)">
<stop offset="0.56698" stop-color="#CF5B91" stop-opacity="0"/>
<stop offset="0.670829" stop-color="#CF5B91"/>
</radialGradient>
</defs>
</svg>
