<svg preserveAspectRatio="none" width="100%" height="100%" overflow="visible" style="display: block;" viewBox="0 0 42 42" fill="none" xmlns="http://www.w3.org/2000/svg">
<g id="&#232;&#191;&#148;&#229;&#155;&#158; 1">
<rect width="42" height="42" rx="10" fill="var(--fill-0, black)" fill-opacity="0.3"/>
<path id="Vector" d="M19.6225 12.8706C19.8458 13.0885 19.9799 13.3785 19.9997 13.6861C20.0195 13.9937 19.9237 14.2978 19.7302 14.5413L19.6225 14.6603L14.4268 19.732L30.7048 19.732C31.0353 19.7323 31.3531 19.8559 31.5935 20.0773C31.8338 20.2988 31.9784 20.6015 31.9978 20.9235C32.0171 21.2455 31.9098 21.5627 31.6977 21.81C31.4856 22.0574 31.1847 22.2164 30.8565 22.2545L30.7048 22.2634L14.4268 22.2634L19.6225 27.3351C19.8576 27.5623 19.9947 27.8686 20.0059 28.1914C20.0172 28.5141 19.9016 28.8288 19.6829 29.0711C19.4642 29.3134 19.1589 29.4649 18.8295 29.4946C18.5001 29.5244 18.1715 29.4301 17.9109 29.2311L17.7891 29.1248L10.3773 21.8925L10.2827 21.7887L10.2788 21.7849L10.3773 21.8925C10.3103 21.8273 10.2507 21.7552 10.1997 21.6774L10.1893 21.6609C10.1862 21.6554 10.1832 21.65 10.1802 21.6445L10.1621 21.6153C10.0552 21.4263 9.99987 21.2136 10.0013 20.9977V20.9736C10.0013 20.9445 10.0026 20.9141 10.0065 20.885L10 20.9977C10.0008 20.7168 10.0965 20.4441 10.2723 20.2218C10.3073 20.1762 10.3423 20.1383 10.3786 20.1028L17.7891 12.8706C18.0322 12.6333 18.362 12.5 18.7058 12.5C19.0496 12.5 19.3794 12.6333 19.6225 12.8706Z" fill="var(--fill-0, white)"/>
</g>
</svg>
