<svg preserveAspectRatio="none" width="100%" height="100%" overflow="visible" style="display: block;" viewBox="0 0 24 25" fill="none" xmlns="http://www.w3.org/2000/svg">
<g id="Shape">
<path d="M13.9574 3.37779V6.42696C15.227 3.74282 18.3827 0.158318 23.6153 0.715264C19.1057 -1.31596 15.4205 1.42689 13.9574 3.37779Z" fill="var(--fill-0, #E25C82)"/>
<path d="M9.90308 0.41472C8.21888 -0.17214 6.18251 -0.234741 3.95739 0.877813C-2.04261 3.8778 -0.542618 11.3778 3.95739 15.8778C6.12243 18.0429 10.2874 21.9578 12.8801 24.0506C13.5189 24.5662 14.4128 24.5884 15.0662 24.0915C15.3204 23.8982 15.583 23.691 15.852 23.4725C12.9973 21.3302 8.99107 17.954 6.81649 16.0103C1.8597 11.5798 0.20745 4.19569 6.81649 1.24206C7.89031 0.762162 8.92422 0.504346 9.90308 0.41472Z" fill="var(--fill-0, #E25C82)"/>
</g>
</svg>
