<svg preserveAspectRatio="none" width="100%" height="100%" overflow="visible" style="display: block;" viewBox="0 0 5 5" fill="none" xmlns="http://www.w3.org/2000/svg">
<g id="Party Horn (Stroke)">
<path fill-rule="evenodd" clip-rule="evenodd" d="M0 0.75C0 0.335786 0.335786 0 0.75 0H0.812272C2.79073 0 4.37872 1.63347 4.32286 3.61114C4.31117 4.02518 3.96604 4.35136 3.55199 4.33966C3.13794 4.32797 2.81177 3.98284 2.82346 3.56879C2.85546 2.4358 1.94571 1.5 0.812272 1.5H0.75C0.335786 1.5 0 1.16421 0 0.75Z" fill="var(--fill-0, #00A6ED)"/>
<path fill-rule="evenodd" clip-rule="evenodd" d="M0 0.75C0 0.335786 0.335786 0 0.75 0H0.812272C2.79073 0 4.37872 1.63347 4.32286 3.61114C4.31117 4.02518 3.96604 4.35136 3.55199 4.33966C3.13794 4.32797 2.81177 3.98284 2.82346 3.56879C2.85546 2.4358 1.94571 1.5 0.812272 1.5H0.75C0.335786 1.5 0 1.16421 0 0.75Z" fill="url(#paint0_radial_32_1219)"/>
<path fill-rule="evenodd" clip-rule="evenodd" d="M0 0.75C0 0.335786 0.335786 0 0.75 0H0.812272C2.79073 0 4.37872 1.63347 4.32286 3.61114C4.31117 4.02518 3.96604 4.35136 3.55199 4.33966C3.13794 4.32797 2.81177 3.98284 2.82346 3.56879C2.85546 2.4358 1.94571 1.5 0.812272 1.5H0.75C0.335786 1.5 0 1.16421 0 0.75Z" fill="url(#paint1_radial_32_1219)"/>
<path fill-rule="evenodd" clip-rule="evenodd" d="M0 0.75C0 0.335786 0.335786 0 0.75 0H0.812272C2.79073 0 4.37872 1.63347 4.32286 3.61114C4.31117 4.02518 3.96604 4.35136 3.55199 4.33966C3.13794 4.32797 2.81177 3.98284 2.82346 3.56879C2.85546 2.4358 1.94571 1.5 0.812272 1.5H0.75C0.335786 1.5 0 1.16421 0 0.75Z" fill="url(#paint2_radial_32_1219)"/>
<path fill-rule="evenodd" clip-rule="evenodd" d="M0 0.75C0 0.335786 0.335786 0 0.75 0H0.812272C2.79073 0 4.37872 1.63347 4.32286 3.61114C4.31117 4.02518 3.96604 4.35136 3.55199 4.33966C3.13794 4.32797 2.81177 3.98284 2.82346 3.56879C2.85546 2.4358 1.94571 1.5 0.812272 1.5H0.75C0.335786 1.5 0 1.16421 0 0.75Z" fill="url(#paint3_radial_32_1219)"/>
<path fill-rule="evenodd" clip-rule="evenodd" d="M0 0.75C0 0.335786 0.335786 0 0.75 0H0.812272C2.79073 0 4.37872 1.63347 4.32286 3.61114C4.31117 4.02518 3.96604 4.35136 3.55199 4.33966C3.13794 4.32797 2.81177 3.98284 2.82346 3.56879C2.85546 2.4358 1.94571 1.5 0.812272 1.5H0.75C0.335786 1.5 0 1.16421 0 0.75Z" fill="url(#paint4_radial_32_1219)"/>
</g>
<defs>
<radialGradient id="paint0_radial_32_1219" cx="0" cy="0" r="1" gradientUnits="userSpaceOnUse" gradientTransform="translate(-4.10053 -0.470469) rotate(9.29314) scale(4.42401 7.22305)">
<stop offset="0.328125" stop-color="#1B6AD1"/>
<stop offset="1" stop-color="#2A80F0" stop-opacity="0"/>
</radialGradient>
<radialGradient id="paint1_radial_32_1219" cx="0" cy="0" r="1" gradientUnits="userSpaceOnUse" gradientTransform="translate(0.413919 0.201081) rotate(26.9934) scale(1.13327 1.59596)">
<stop stop-color="#1B6AD1"/>
<stop offset="1" stop-color="#2A80F0" stop-opacity="0"/>
</radialGradient>
<radialGradient id="paint2_radial_32_1219" cx="0" cy="0" r="1" gradientUnits="userSpaceOnUse" gradientTransform="translate(1.92864 5.64492) rotate(-93.0178) scale(3.94905 16.8855)">
<stop stop-color="#1B6AD1"/>
<stop offset="0.601914" stop-color="#2A80F0" stop-opacity="0"/>
</radialGradient>
<radialGradient id="paint3_radial_32_1219" cx="0" cy="0" r="1" gradientUnits="userSpaceOnUse" gradientTransform="translate(1.16306 3.39876) rotate(-54.7725) scale(3.09273 2.93161)">
<stop stop-color="#A0D9FF" stop-opacity="0"/>
<stop offset="0.623619" stop-color="#A0D9FF" stop-opacity="0.183577"/>
<stop offset="0.727437" stop-color="#A0D9FF" stop-opacity="0.47"/>
<stop offset="0.798816" stop-color="#A0D9FF" stop-opacity="0.5"/>
<stop offset="0.83338" stop-color="#A0D9FF" stop-opacity="0.52"/>
<stop offset="0.8682" stop-color="#A0D9FF" stop-opacity="0.46"/>
<stop offset="1" stop-color="#A0D9FF" stop-opacity="0"/>
</radialGradient>
<radialGradient id="paint4_radial_32_1219" cx="0" cy="0" r="1" gradientUnits="userSpaceOnUse" gradientTransform="translate(1.23999 0.020752) rotate(98.9306) scale(0.276793 1.04734)">
<stop stop-color="#00A6ED"/>
<stop offset="0.739378" stop-color="#00A6ED"/>
<stop offset="1" stop-color="#00A6ED" stop-opacity="0"/>
</radialGradient>
</defs>
</svg>
