<svg preserveAspectRatio="none" width="100%" height="100%" overflow="visible" style="display: block;" viewBox="0 0 15 10" fill="none" xmlns="http://www.w3.org/2000/svg">
<path id="Combined Shape" d="M7.0281 6.92285C7.802 6.92289 8.51035 7.2007 9.0613 7.66113C9.18669 7.76604 9.18579 7.96111 9.07009 8.07715L7.2322 9.91602C7.11977 10.0284 6.93649 10.0283 6.824 9.91602L4.9861 8.07715C4.87025 7.96113 4.86895 7.76609 4.99489 7.66113C5.54536 7.20076 6.25421 6.92285 7.0281 6.92285ZM7.02614 3.46094C8.75664 3.46094 10.3324 4.12446 11.5134 5.20996C11.6334 5.32047 11.6328 5.51344 11.5174 5.62891L10.4549 6.69141C10.3453 6.80069 10.1728 6.79922 10.0574 6.69629C9.2514 5.9768 8.18913 5.53809 7.02614 5.53809C5.86321 5.53813 4.80085 5.97682 3.99489 6.69629C3.87941 6.79913 3.70688 6.8008 3.59743 6.69141L2.53493 5.62891C2.41952 5.51349 2.41911 5.3205 2.53884 5.20996C3.7198 4.1245 5.29571 3.46098 7.02614 3.46094ZM7.02614 0C9.71361 0 12.1556 1.05024 13.9646 2.7627C14.0826 2.87413 14.0819 3.06369 13.9676 3.17871L12.9031 4.24316C12.7926 4.35285 12.6181 4.35237 12.5047 4.24609C11.0702 2.90159 9.14264 2.07715 7.02614 2.07715C4.90978 2.07723 2.98303 2.90168 1.5486 4.24609C1.4351 4.35259 1.25969 4.35316 1.14919 4.24316L0.0857142 3.17871C-0.0287646 3.06371 -0.0293488 2.87419 0.0886439 2.7627C1.89755 1.0504 4.33889 8.41156e-05 7.02614 0Z" fill="var(--fill-0, white)"/>
</svg>
