<svg preserveAspectRatio="none" width="100%" height="100%" overflow="visible" style="display: block;" viewBox="0 0 22 22" fill="none" xmlns="http://www.w3.org/2000/svg">
<path id="Vector" d="M17.1543 0.842773C17.8328 0.842859 18.5002 1.01589 19.0938 1.34473C19.6874 1.67366 20.188 2.14821 20.5479 2.72363C20.9076 3.29891 21.1154 3.95623 21.1514 4.63379C21.1873 5.31148 21.0499 5.98744 20.7529 6.59766C20.4559 7.20791 20.0087 7.73318 19.4531 8.12305C18.8976 8.51282 18.252 8.75536 17.5771 8.82715C16.9023 8.89891 16.2198 8.79744 15.5947 8.5332C15.0091 8.28558 14.4933 7.90068 14.0859 7.41406L8.74121 10.0869C8.8819 10.6877 8.88176 11.3113 8.74121 11.9121L14.0859 14.585C14.4932 14.0986 15.0093 13.7143 15.5947 13.4668C16.2198 13.2026 16.9023 13.1011 17.5771 13.1729C18.252 13.2446 18.8976 13.4872 19.4531 13.877C20.0087 14.2668 20.4559 14.7921 20.7529 15.4023C21.0499 16.0126 21.1873 16.6885 21.1514 17.3662C21.1154 18.0438 20.9076 18.7011 20.5479 19.2764C20.188 19.8518 19.6874 20.3263 19.0938 20.6553C18.5002 20.9841 17.8328 21.1571 17.1543 21.1572H17.1533C16.5395 21.1563 15.9341 21.0141 15.3838 20.7422C14.8334 20.4702 14.3531 20.075 13.9795 19.5879C13.6059 19.1008 13.3485 18.5347 13.2285 17.9326C13.1169 17.3728 13.1277 16.7963 13.2568 16.2412L7.91211 13.5684C7.40636 14.1721 6.73577 14.6165 5.97852 14.8398C5.1798 15.0753 4.32717 15.0559 3.54004 14.7842C2.7528 14.5124 2.06928 14.0015 1.58594 13.3232C1.10264 12.645 0.842773 11.8328 0.842773 11C0.842774 10.1672 1.10264 9.35496 1.58594 8.67676C2.06928 7.99853 2.7528 7.48763 3.54004 7.21582C4.32717 6.94414 5.1798 6.92468 5.97852 7.16016C6.73553 7.38338 7.40642 7.82724 7.91211 8.43066L13.2568 5.75879C13.1268 5.20367 13.1154 4.62661 13.2266 4.06641C13.3462 3.46411 13.6029 2.89742 13.9766 2.41016C14.3504 1.92274 14.8319 1.52754 15.3828 1.25586C15.9337 0.984238 16.5401 0.842632 17.1543 0.842773ZM17.1543 15.0029C16.8719 15.0029 16.592 15.0589 16.3311 15.167C16.0701 15.2751 15.8325 15.4331 15.6328 15.6328C15.4331 15.8325 15.2751 16.0701 15.167 16.3311C15.0589 16.592 15.0029 16.8719 15.0029 17.1543C15.003 17.7245 15.2296 18.2716 15.6328 18.6748C16.0362 19.0782 16.5838 19.3047 17.1543 19.3047C17.7246 19.3046 18.2715 19.0781 18.6748 18.6748C19.0781 18.2715 19.3046 17.7246 19.3047 17.1543C19.3047 16.8719 19.2487 16.592 19.1406 16.3311C19.0325 16.0701 18.8745 15.8325 18.6748 15.6328C18.4752 15.4333 18.2383 15.2751 17.9775 15.167C17.7167 15.0589 17.4366 15.003 17.1543 15.0029ZM4.8457 8.84961C4.56354 8.84966 4.28415 8.90478 4.02344 9.0127C3.76248 9.12079 3.52493 9.27977 3.3252 9.47949C3.12562 9.67911 2.96743 9.91599 2.85938 10.1768C2.75128 10.4377 2.69531 10.7175 2.69531 11C2.69531 11.5704 2.92193 12.1172 3.3252 12.5205C3.72848 12.9238 4.27538 13.1503 4.8457 13.1504C5.41616 13.1504 5.96381 12.9239 6.36719 12.5205C6.77038 12.1172 6.99707 11.5703 6.99707 11C6.99707 10.7175 6.9411 10.4377 6.83301 10.1768C6.72497 9.91601 6.56673 9.67911 6.36719 9.47949C6.16746 9.27977 5.92991 9.12079 5.66895 9.0127C5.40806 8.90467 5.12807 8.84961 4.8457 8.84961ZM17.1543 2.69531C16.8719 2.69531 16.592 2.7513 16.3311 2.85938C16.0701 2.96747 15.8325 3.12547 15.6328 3.3252C15.4331 3.52491 15.2751 3.76251 15.167 4.02344C15.059 4.28418 15.003 4.56349 15.0029 4.8457C15.0029 5.41613 15.2295 5.96382 15.6328 6.36719C16.0362 6.77055 16.5838 6.99707 17.1543 6.99707C17.7246 6.99697 18.2715 6.77041 18.6748 6.36719C19.0782 5.96382 19.3047 5.41615 19.3047 4.8457C19.3046 4.56346 19.2486 4.28421 19.1406 4.02344C19.0325 3.76248 18.8745 3.52492 18.6748 3.3252C18.4752 3.12563 18.2383 2.96745 17.9775 2.85938C17.7167 2.75133 17.4366 2.69536 17.1543 2.69531Z" fill="var(--fill-0, #E4E4E4)" stroke="var(--stroke-0, #E4E4E4)" stroke-width="0.313636"/>
</svg>
