<svg preserveAspectRatio="none" width="100%" height="100%" overflow="visible" style="display: block;" viewBox="0 0 30 30" fill="none" xmlns="http://www.w3.org/2000/svg">
<g id="Shape">
<path d="M6 15C6 15 6 24 15 24C24 24 24 15 24 15H6Z" fill="#212121"/>
<path d="M9.59278 13.2704C8.54671 12.9405 6.7854 12.1917 5.43594 10.6342C3.3456 8.22172 5.29702 4.7673 8.98596 6.50002C10.5629 3.92775 14.4761 4.87914 13.9558 8C13.6074 10.0898 12.0607 11.937 11.1542 12.8655C10.745 13.2846 10.1514 13.4466 9.59278 13.2704Z" fill="#212121"/>
<path d="M24.5672 10.6342C23.2178 12.1917 21.4565 12.9405 20.4104 13.2704C19.8518 13.4466 19.2582 13.2846 18.849 12.8655C17.9425 11.937 16.3957 10.0898 16.0473 8C15.527 4.87914 19.4402 3.92775 21.0172 6.50002C24.7062 4.7673 26.6576 8.22172 24.5672 10.6342Z" fill="#212121"/>
<path d="M3.76342 4.42276C6.313 1.65419 10.0952 0 14.9989 0C19.9026 0 23.6848 1.65419 26.2343 4.42276C28.7715 7.17785 29.9978 10.9378 29.9978 14.9989C29.9978 19.06 28.7715 22.8199 26.2343 25.575C23.6848 28.3436 19.9026 29.9978 14.9989 29.9978C10.0952 29.9978 6.313 28.3436 3.76342 25.575C1.22626 22.8199 0 19.06 0 14.9989C0 10.9378 1.22626 7.17785 3.76342 4.42276ZM4.23403 6.42569C3.87597 6.9196 3.66443 7.49065 3.60028 8.08933C2.54297 10.067 2 12.4272 2 14.9989C2 18.6691 3.10595 21.9087 5.23462 24.2202C7.35088 26.5182 10.5681 27.9978 14.9989 27.9978C19.4296 27.9978 22.6469 26.5182 24.7631 24.2202C26.8918 21.9087 27.9978 18.6691 27.9978 14.9989C27.9978 12.4327 27.4571 10.077 26.4042 8.10194C26.3417 7.49867 26.1297 6.92307 25.7691 6.42569C25.3833 5.89347 24.8698 5.50321 24.2672 5.27354C22.1564 3.26549 19.0966 2 14.9989 2C10.8988 2 7.83788 3.26695 5.72691 5.277C5.12821 5.50712 4.61793 5.89614 4.23403 6.42569Z" fill="#212121"/>
</g>
</svg>
