<svg preserveAspectRatio="none" width="100%" height="100%" overflow="visible" style="display: block;" viewBox="0 0 23 24" fill="none" xmlns="http://www.w3.org/2000/svg">
<path id="Union" d="M3.75 19C4.16421 19 4.5 19.3358 4.5 19.75C4.5 21.9481 2.66796 23.5 0.75 23.5C0.335786 23.5 0 23.1642 0 22.75C0 22.3358 0.335786 22 0.75 22C1.90902 22 3 21.0519 3 19.75C3 19.3358 3.33579 19 3.75 19ZM21.75 0C22.1642 0 22.5 0.335786 22.5 0.75C22.5 2.94812 20.668 4.5 18.75 4.5C18.3358 4.5 18 4.16421 18 3.75C18 3.33579 18.3358 3 18.75 3C19.909 3 21 2.05188 21 0.75C21 0.335786 21.3358 0 21.75 0Z" fill="var(--fill-0, #212121)"/>
</svg>
