<svg preserveAspectRatio="none" width="100%" height="100%" overflow="visible" style="display: block;" viewBox="0 0 28 25" fill="none" xmlns="http://www.w3.org/2000/svg">
<path id="Shape" d="M19.7299 0.0338535C19.0264 0.102635 18.3644 0.2726 17.7521 0.510323C17.2339 0.711546 16.7513 0.961318 16.3096 1.23937C15.9682 1.45423 15.6512 1.68599 15.3609 1.92527C15.345 1.93842 15.3291 1.95158 15.3133 1.96477C15.1059 2.13806 14.9125 2.31501 14.7339 2.49209C14.4308 2.79267 14.1705 3.09364 13.9574 3.37781C13.6091 2.91348 13.135 2.40429 12.5539 1.92528C12.0777 1.53276 11.5296 1.16051 10.92 0.849813C9.86243 0.310761 8.61971 -0.0429909 7.246 0.00421304C6.64796 0.0247633 6.02509 0.121308 5.38186 0.311641C4.9171 0.449164 4.44172 0.635651 3.95739 0.877813C3.94563 0.883693 3.9339 0.889591 3.9222 0.895505C3.74666 0.984224 3.5776 1.07682 3.41489 1.1731C2.94579 1.4507 2.52957 1.75894 2.16348 2.09326C1.64452 2.56719 1.2263 3.09352 0.901032 3.65924C0.591844 4.19699 0.366635 4.77032 0.218699 5.36807C0.0281451 6.13802 -0.0342027 6.94846 0.0173237 7.77553C0.0739205 8.68399 0.267906 9.61249 0.580288 10.5294C1.23896 12.4627 2.42401 14.3444 3.95739 15.8778C4.22802 16.1484 4.5299 16.4464 4.85605 16.7648C7.13911 18.9931 10.6115 22.2194 12.8801 24.0506C13.3369 24.4193 13.9242 24.5357 14.4606 24.3904C14.6744 24.3325 14.88 24.2331 15.0662 24.0915C15.2964 23.9165 15.5334 23.7301 15.7759 23.5341C16.2683 23.1362 16.783 22.699 17.3079 22.2377C17.6855 21.9057 18.0684 21.5613 18.452 21.2102C18.9416 20.762 19.4323 20.3028 19.9146 19.8444C20.2904 19.4873 20.661 19.1308 21.0221 18.7803C21.5202 18.2969 22 17.8252 22.4499 17.3797C22.8375 16.996 23.2028 16.6319 23.5384 16.2966C23.682 16.1532 23.8201 16.0151 23.9522 15.883C23.9539 15.8813 23.9556 15.8796 23.9573 15.8779C24.2899 15.5453 24.6062 15.1963 24.9042 14.8339C25.2345 14.4323 25.5425 14.0142 25.8256 13.5838C26.2112 12.9977 26.5506 12.3888 26.8378 11.7676C27.0763 11.2515 27.2788 10.7269 27.4415 10.1997C27.6863 9.40689 27.8413 8.60823 27.8943 7.82407C27.9486 7.02066 27.8959 6.23246 27.7231 5.48132C27.2902 3.59987 26.1036 1.95094 23.9574 0.877813C23.4832 0.640724 23.0176 0.457001 22.5621 0.320348C21.6937 0.0597902 20.8622 -0.029649 20.0786 0.00836332C19.9613 0.0140533 19.8451 0.0225983 19.7299 0.0338535ZM16.148 3.90623L24.3768 12.135C24.1096 12.5725 23.8106 13.0004 23.4824 13.4121L15.0938 5.02359C15.2693 4.90245 15.4263 4.75261 15.5574 4.57781C15.7172 4.36468 15.9157 4.13606 16.148 3.90623ZM17.7711 2.70089C17.9999 2.57761 18.24 2.46568 18.4899 2.36936C18.7645 2.26352 19.0526 2.17553 19.3538 2.112L25.7909 8.5491C25.69 9.10574 25.5287 9.67419 25.312 10.2417L17.7711 2.70089ZM25.6955 5.62528L22.4748 2.40455C22.6677 2.48 22.8638 2.56708 23.063 2.66667C24.4975 3.38395 25.3315 4.40768 25.6955 5.62528ZM9.74538 2.50359L22.1242 14.8824C21.786 15.2201 21.4208 15.5841 21.0356 15.9654L7.08627 2.01605C7.94846 1.94791 8.72987 2.10148 9.42491 2.36936C9.53364 2.41127 9.6405 2.45613 9.74538 2.50359ZM4.88967 2.64788L19.6076 17.3658C19.2453 17.7173 18.8746 18.0739 18.4999 18.4297L3.58035 3.51013C3.93678 3.19583 4.35884 2.91316 4.85182 2.66667C4.86445 2.66036 4.87706 2.65409 4.88967 2.64788ZM2.39036 5.14857L17.0366 19.7948C16.651 20.1471 16.2675 20.4911 15.8909 20.8207L2.00566 6.93544C2.03334 6.30076 2.15691 5.70112 2.39036 5.14857ZM2.68016 10.4384L14.3533 22.1115C14.235 22.2059 14.1182 22.2976 14.0032 22.3864C11.4803 20.3316 7.47771 16.5697 5.37161 14.4636C4.17915 13.2712 3.25645 11.8623 2.68016 10.4384Z" fill="var(--fill-0, #212121)"/>
</svg>
