<svg preserveAspectRatio="none" width="100%" height="100%" overflow="visible" style="display: block;" viewBox="0 0 393 30" fill="none" xmlns="http://www.w3.org/2000/svg">
<g id="Emoji Tabs">
<path id="Recents" d="M20 7C24.4183 7 28 10.5817 28 15C28 19.4183 24.4183 23 20 23C15.5817 23 12 19.4183 12 15C12 10.5817 15.5817 7 20 7ZM20 8C16.134 8 13 11.134 13 15C13 18.866 16.134 22 20 22C23.866 22 27 18.866 27 15C27 11.134 23.866 8 20 8ZM20.667 15.667H16V14.667H19.667V9H20.667V15.667Z" fill="var(--fill-0, #757677)"/>
<g id="Frame">
<circle id="Selected Circle" cx="57.9137" cy="15" r="15" fill="var(--fill-0, black)" fill-opacity="0.1"/>
<path id="Smileys &#38; People" d="M57.9137 7C62.332 7 65.9137 10.5817 65.9137 15C65.9137 19.4183 62.332 23 57.9137 23C53.4955 23 49.9137 19.4183 49.9137 15C49.9137 10.5817 53.4955 7 57.9137 7ZM57.9137 8C54.0477 8 50.9137 11.134 50.9137 15C50.9137 18.866 54.0477 22 57.9137 22C61.7797 22 64.9137 18.866 64.9137 15C64.9137 11.134 61.7797 8 57.9137 8ZM57.9215 16.6758C60.6829 16.6758 62.9215 15.496 62.9215 16.126C62.9213 18.8872 60.6828 21.126 57.9215 21.126C55.1603 21.126 52.9218 18.8872 52.9215 16.126C52.9215 15.496 55.1602 16.6758 57.9215 16.6758ZM61.9137 17.0957C61.9137 16.6564 60.3437 17.5957 57.9137 17.5957C55.4837 17.5957 53.9137 16.6564 53.9137 17.0957C53.9139 19.0095 56.8218 19.0957 57.9137 19.0957C59.1397 19.0957 61.9136 19.0092 61.9137 17.0957ZM55.6618 12C56.0751 12 56.4108 12.4473 56.4108 13C56.4108 13.5527 56.0768 14 55.6618 14C55.2469 13.9998 54.9137 13.5525 54.9137 13C54.9137 12.4475 55.2486 12.0002 55.6618 12ZM60.3317 12C60.746 12 61.0817 12.4477 61.0817 13C61.0817 13.5523 60.746 14 60.3317 14C59.9174 14 59.5817 13.5523 59.5817 13C59.5817 12.4477 59.9174 12 60.3317 12Z" fill="var(--fill-0, black)"/>
</g>
<path id="Animals" d="M100.603 7.01644C101.458 7.03051 102.244 7.38385 102.877 8.03792C104.684 9.90433 103.377 12.4067 102.403 13.5106C103.077 14.132 104.642 15.8586 104.015 18.0389C103.096 21.2328 100.223 21.343 100.017 21.3465H99.4974C98.5521 22.553 97.0272 22.9842 95.9993 22.9842C94.8799 22.9841 93.3651 22.476 92.4788 21.3465H91.9612C91.7684 21.3432 88.8926 21.2348 87.9729 18.0389C87.3439 15.854 88.9175 14.1237 89.5921 13.5028C88.619 12.3947 87.3211 9.89984 89.1233 8.03792C89.757 7.38311 90.5439 7.03044 91.3987 7.01644C93.0834 6.98913 94.4541 8.26591 94.6048 8.41195L94.6067 8.4139L94.6858 8.48519C95.1528 8.36849 95.6586 8.29964 96.2083 8.29964C96.5265 8.29964 96.8281 8.32245 97.1145 8.36409L97.3968 8.41195C97.5474 8.26625 98.9181 6.98876 100.603 7.01644ZM96.2083 9.30062C92.2765 9.30062 90.9081 13.3823 90.8509 13.5604L90.7532 13.8612L90.4983 14.0545C90.413 14.1199 88.3646 15.7189 88.9544 17.7674C89.6634 20.2316 91.7447 20.3418 91.9808 20.3465H92.8958C93.1776 20.3465 93.4063 20.57 93.4065 20.8465C93.4065 20.8532 93.4039 20.86 93.4036 20.867C94.1463 21.6956 95.3129 21.9841 95.9993 21.9842C96.7009 21.9842 97.8826 21.6848 98.6204 20.8143C98.6381 20.5536 98.8579 20.3466 99.1282 20.3465H100.017C100.244 20.3417 102.324 20.2307 103.033 17.7674C103.622 15.7191 101.574 14.121 101.486 14.0526L101.2 13.8328L101.116 13.4823C101.076 13.3149 100.077 9.30067 96.2083 9.30062ZM96.9261 17.3026C96.9261 17.3026 97.4876 17.3027 97.4876 17.8465C97.4873 18.2866 96.8752 18.9625 96.344 19.2049V19.9393C96.344 19.9393 96.3406 20.0838 96.4378 20.1815C96.4864 20.2308 96.5618 20.2684 96.6761 20.2684C97.0233 20.2684 97.0384 19.9391 97.0384 19.9354L97.7181 19.9657V19.9686C97.6966 20.4374 97.324 20.9354 96.6761 20.9354C96.4139 20.9354 96.177 20.8441 95.9964 20.6834C95.8154 20.8441 95.5776 20.9354 95.3157 20.9354C94.6677 20.9354 94.2955 20.4374 94.2737 19.9686V19.9657L94.9534 19.9354C94.9534 19.9391 94.9688 20.2684 95.3157 20.2684C95.43 20.2684 95.505 20.2308 95.554 20.1815C95.6512 20.0838 95.6477 19.9393 95.6477 19.9393V19.2098C95.1145 18.9714 94.4947 18.2889 94.4944 17.8465C94.4944 17.3117 95.0371 17.3027 95.055 17.3026H96.9261ZM92.9241 14.3016C93.2997 14.3019 93.6037 14.7494 93.6038 15.3016C93.6038 15.8532 93.2998 16.3013 92.9241 16.3016C92.5486 16.3016 92.2434 15.8534 92.2434 15.3016C92.2435 14.7492 92.5486 14.3016 92.9241 14.3016ZM99.0462 14.3016C99.422 14.3016 99.7268 14.7492 99.7268 15.3016C99.7268 15.8534 99.422 16.3016 99.0462 16.3016C98.6708 16.3013 98.3665 15.8532 98.3665 15.3016C98.3666 14.7494 98.6709 14.3019 99.0462 14.3016ZM91.4153 8.01644C90.8981 8.02488 90.3597 8.2141 89.8636 8.7264C88.556 10.0774 89.6277 11.8682 90.1526 12.5799C90.6068 11.5966 91.6622 9.79659 93.594 8.87581C93.1654 8.54372 92.324 8.00144 91.4153 8.01644ZM100.585 8.01644C99.7679 8.0031 99.004 8.44158 98.5472 8.77132C100.524 9.64118 101.482 11.505 101.878 12.5389C102.412 11.8021 103.421 10.0527 102.137 8.7264C101.641 8.21401 101.103 8.02448 100.585 8.01644Z" fill="var(--fill-0, #757677)"/>
<path id="Food &#38; Drink" d="M133.222 7C133.265 7 133.307 7.00821 133.346 7.01855L133.347 7.0166L133.406 7.03711L133.408 7.03809L136.65 8.14453L136.342 9.04395L133.559 8.09277L132.924 10.6484H134.424L134.127 13.6865C134.515 13.6665 134.915 13.6553 135.323 13.6553C138.912 13.6553 141.835 14.4133 141.835 16.2021C141.835 16.5356 141.655 16.548 141.467 16.8506C141.492 16.8668 141.538 16.8734 141.541 16.9043C141.555 17.0821 140.984 17.2871 140.984 17.2871L142.074 17.917C142.074 17.917 141.92 18.1033 141.61 18.2725C142.001 18.5821 142.06 18.9258 142.06 19.2871C142.06 19.7319 141.889 20.1184 141.312 20.4795C141.599 20.7401 141.882 21.7011 141.882 21.998C141.881 22.5058 140.434 22.9941 140.1 22.9941C139.765 22.9941 137.082 22.998 135.259 22.998C134.447 22.998 133.676 23.0024 132.962 22.998L127.355 22.9834L126.074 10.6484H131.944L132.761 7.35938H132.763C132.816 7.15359 133 7.00014 133.222 7ZM130.769 20.6455C130.216 20.6459 129.892 21.4004 130.23 21.7354C130.569 22.0696 131.352 21.998 131.352 21.998H139.754C139.768 21.9978 140.154 21.989 140.452 21.6943C140.888 21.2636 140.352 20.6543 139.81 20.6543C138.743 20.6543 132.005 20.6455 130.769 20.6455ZM128.154 21.998H128.76C128.752 21.7011 129.106 20.7715 129.392 20.5107C128.816 20.15 128.547 19.826 128.547 19.3809C128.547 18.9992 128.65 18.4818 129.083 18.1592C128.544 17.974 128.455 17.5949 128.801 17.4932C129.184 17.3794 129.226 17.6409 129.454 17.3486C129.011 16.9108 128.761 16.7261 128.76 16.2021C128.76 14.7853 130.629 14.0177 133.187 13.7588L133.421 11.6494H127.124L128.154 21.998ZM135.353 19.9531L141.274 17.9932H129.673L135.353 19.9531ZM135.323 14.625C133.389 14.625 129.673 15.0522 129.743 16.2197C129.765 16.5727 131.07 16.9922 131.07 16.9922H139.586C139.586 16.9922 140.874 16.5344 140.884 16.2197C140.919 15.0512 137.196 14.6251 135.323 14.625Z" fill="var(--fill-0, #757677)"/>
<path id="Activity" d="M171.988 7C176.406 7 179.988 10.5817 179.988 15C179.988 19.4183 176.406 23 171.988 23C167.569 23 163.988 19.4183 163.988 15C163.988 10.5817 167.569 7 171.988 7ZM169.144 21.4834C170.014 21.8658 170.976 22.0801 171.988 22.0801C172.221 22.0801 172.452 22.068 172.679 22.0459L170.715 21.3027H169.15L169.144 21.4834ZM170.96 19.2412V20.6924L173.878 21.7549L173.87 21.6807L175.219 20.7217L175.265 18.7012L173.318 17.9707L170.96 19.2412ZM166.327 19.2529C166.918 20.0373 167.668 20.6937 168.529 21.1768L168.536 20.8975L167.001 19.1445L166.327 19.2529ZM177.539 15.8701L177.551 15.8887L175.894 18.374L175.891 20.3691L176.435 20.5068C177.841 19.3696 178.802 17.706 179.019 15.8145L178.883 15.5596L177.539 15.8701ZM168.174 14.6289L168.187 17.3467L170.637 18.708L172.983 17.4443V14.8975L170.183 13.3271L168.174 14.6289ZM165.036 13.6504C164.952 14.0873 164.908 14.5385 164.908 15C164.908 16.3525 165.288 17.6157 165.946 18.6904L166.524 18.5986L166.475 18.543L167.563 17.4531L167.551 14.584L166.438 13.0254L165.036 13.6504ZM175.898 10.7695L175.895 13.2637L177.181 15.3018L178.811 14.8682L178.989 13.9443C178.772 12.4955 178.116 11.1911 177.161 10.1689L175.898 10.7695ZM170.408 10.6914L170.569 12.8252L173.357 14.3906L175.272 13.4092L175.275 10.5283L173.214 9.23047L170.408 10.6914ZM167.406 9.60352C166.418 10.4432 165.663 11.5489 165.253 12.8105L166.342 12.3242L167.625 10.2705L167.406 9.60352ZM171.988 7.91992C170.487 7.91992 169.097 8.38674 167.952 9.18262L168.211 10.04H170.283L172.965 8.64355V7.98828C172.646 7.94413 172.319 7.91993 171.988 7.91992Z" fill="var(--fill-0, #757677)"/>
<path id="Travel &#38; Places" d="M210.776 13.667C212.458 13.6575 213.842 14.9865 213.901 16.667V17.667H214.901C215.269 17.6671 215.568 17.965 215.568 18.333V21C215.568 21.3224 215.339 21.5914 215.035 21.6533L214.901 21.667V23H212.901V21.667H206.901V23H204.901V21.667L204.767 21.6533C204.463 21.5911 204.234 21.3221 204.234 21V18.333C204.235 17.965 204.533 17.667 204.901 17.667H205.901V16.667C205.96 14.9865 207.345 13.6575 209.026 13.667H210.776ZM212.235 11H217.901V22H216.901V12H212.235V13H211.236L211.235 8.00002H206.235V14H202.901V22H201.901V13H205.236L205.235 7.09182L205.234 7.00002H212.235V11ZM207.734 19.9893C207.55 19.9895 207.401 20.1393 207.401 20.3233V20.333H204.901V20.9893H214.901V20.333H212.401V20.3233C212.401 20.1393 212.252 19.9895 212.068 19.9893H207.734ZM206.047 18.4063C205.633 18.4065 205.298 18.7423 205.298 19.1563C205.298 19.5703 205.633 19.906 206.047 19.9063C206.461 19.9063 206.797 19.5705 206.797 19.1563C206.797 18.7421 206.461 18.4063 206.047 18.4063ZM213.734 18.4063C213.321 18.4067 212.985 18.7424 212.985 19.1563C212.985 19.5705 213.321 19.9063 213.735 19.9063C214.149 19.9061 214.485 19.5704 214.485 19.1563C214.485 18.7421 214.149 18.4063 213.734 18.4063ZM209.901 14.667C206.901 14.667 206.901 16.1437 206.901 17.667H212.901C212.901 16.142 212.901 14.667 209.901 14.667ZM204.901 15.9893H203.901V14.9893H204.901V15.9893ZM215.901 15.9893H214.901V14.9893H215.901V15.9893ZM215.901 13.9893H214.901V12.9893H215.901V13.9893ZM208.234 12H207.234V11H208.234V12ZM210.234 12H209.234V11H210.234V12ZM208.234 9.00002V10H207.234V8.98928L208.234 9.00002ZM210.234 10H209.234V9.00002H210.234V10Z" fill="var(--fill-0, #757677)"/>
<path id="Objects" d="M245.649 7C248.863 7 251.479 9.39249 251.479 12.333C251.535 13.8088 250.914 15.2328 249.784 16.2207C248.888 16.9736 248.31 18.0239 248.164 19.167L248.059 20.0361V21.9883H248.014L248.059 21.9893C248.048 22.4312 247.711 22.8012 247.261 22.8643C246.728 22.948 246.189 22.9935 245.649 23C245.109 22.9935 244.57 22.948 244.037 22.8643C243.587 22.8013 243.249 22.4313 243.239 21.9893V20.0371L243.133 19.167C242.987 18.0239 242.41 16.9736 241.513 16.2207C240.384 15.2328 239.763 13.8088 239.819 12.333C239.819 9.39251 242.435 7.00003 245.649 7ZM244.267 21.8877C244.728 21.9571 245.194 21.9943 245.636 22C246.098 21.9944 246.558 21.9578 247.03 21.8877V20H244.267V21.8877ZM245.649 21.333H244.278V20.667H245.649V21.333ZM245.649 8C242.989 8 240.848 9.95883 240.848 12.333C240.803 13.5493 241.298 14.6877 242.185 15.4639C243.262 16.3678 243.959 17.6246 244.147 19H247.151C247.337 17.6281 248.033 16.3693 249.096 15.4775C249.999 14.6879 250.495 13.5498 250.45 12.3701C250.45 9.95912 248.308 8.00004 245.649 8ZM247.021 14C247.4 14.0001 247.706 14.2989 247.706 14.667C247.706 15.035 247.399 15.3329 247.021 15.333C246.963 15.333 246.908 15.3235 246.855 15.3105L245.992 16.085V18.333H245.306V16.085L244.442 15.3105C244.389 15.3232 244.334 15.333 244.278 15.333C243.899 15.333 243.591 15.035 243.591 14.667C243.591 14.2988 243.899 14 244.278 14C244.656 14.0002 244.963 14.299 244.963 14.667C244.963 14.7192 244.955 14.7696 244.944 14.8184L245.649 15.4502L246.354 14.8174C246.342 14.769 246.334 14.7188 246.334 14.667C246.334 14.2988 246.642 14 247.021 14Z" fill="var(--fill-0, #757677)"/>
<path id="Symbols" d="M285.109 19.4688L282.676 22.9688L281.441 23L284.174 19.3516L286.682 15.9561H287.882L285.109 19.4688ZM276.238 15.9375C277.211 15.9375 278.009 16.5693 278.009 17.5059C278.009 18.3486 277.345 18.8292 276.581 19.2305L278.035 20.876C278.282 20.3535 278.398 19.7805 278.371 19.2051V18.9473H279.26V19.2344C279.304 20.0389 279.112 20.8391 278.706 21.54L280.045 22.9287H278.79L278.112 22.1846C277.538 22.6871 276.797 22.9696 276.028 22.9795C274.721 22.9795 273.728 22.2144 273.728 21.0303C273.728 20.1489 274.278 19.6077 275.035 19.1895C275.12 19.1396 275.21 19.0943 275.305 19.0498C274.856 18.5791 274.466 18.1136 274.466 17.499C274.466 16.6432 275.205 15.9375 276.238 15.9375ZM286.65 19.4561C287.538 19.4561 288.062 20.191 288.062 21.126V21.2666C288.062 22.1717 287.548 22.9414 286.64 22.9414C285.747 22.9414 285.238 22.196 285.238 21.2559V21.1172C285.238 20.2014 285.761 19.4562 286.65 19.4561ZM286.655 20.2266C286.231 20.2266 286.023 20.6246 286.023 21.165V21.2051C286.023 21.781 286.248 22.1668 286.65 22.167C287.043 22.167 287.278 21.7899 287.278 21.2139V21.1738C287.278 20.6024 287.061 20.2267 286.655 20.2266ZM275.599 19.7412C275.06 20.0285 274.691 20.381 274.691 20.9551C274.691 21.743 275.337 22.0468 276.076 22.0469C276.613 22.0703 277.138 21.8798 277.53 21.5186L275.813 19.6328C275.738 19.6673 275.669 19.7018 275.599 19.7412ZM282.578 15.96C283.467 15.96 283.991 16.6948 283.992 17.6299V17.7686C283.992 18.6739 283.477 19.4443 282.569 19.4443C281.676 19.4441 281.167 18.6988 281.167 17.7588V17.6211C281.167 16.7053 281.69 15.9602 282.578 15.96ZM276.689 16.7832C276.414 16.6232 276.072 16.6246 275.798 16.7861C275.525 16.9477 275.364 17.2433 275.38 17.5557C275.38 17.8979 275.55 18.1848 276.073 18.6943C276.676 18.3921 277.111 18.0957 277.111 17.5508C277.125 17.2384 276.963 16.9432 276.689 16.7832ZM282.584 16.7334C282.162 16.7334 281.955 17.1303 281.955 17.668V17.708C281.955 18.281 282.179 18.665 282.579 18.665C282.971 18.665 283.204 18.29 283.204 17.7168V17.6768C283.204 17.1083 282.988 16.7337 282.584 16.7334ZM284.272 7C285.892 7.00002 287.645 7.98459 287.596 10.3809C287.573 11.4539 286.33 12.5762 286.33 12.5762C285.894 12.1639 286.949 11.4999 286.87 10.4297C286.77 9.05596 285.292 8.32129 285.292 8.32129V12.6152C285.292 14.7608 282.218 15.2979 281.808 14.1855C281.574 13.5501 281.568 12.7301 282.625 12.1523C283.289 11.7909 284.246 12.0195 284.246 12.0195L284.272 7ZM280.729 10.6484H277.729V14.667H276.729V10.6494L273.396 10.6504V9.65039H280.729V10.6484ZM280.729 8.65723H273.396V7.65723H280.729V8.65723Z" fill="var(--fill-0, #757677)"/>
<path id="Union" d="M318.298 7.85205C319.15 7.85945 319.986 8.07588 320.726 8.48096L321.419 8.92139V16.9214L320.726 16.481C319.986 16.0759 319.15 15.8595 318.298 15.8521C317.38 15.8521 316.168 16.4696 316.146 16.481C315.303 16.8774 314.381 17.092 313.443 17.1099C311.71 17.1099 311.016 16.4058 311.016 16.4058V22.1479H309.976V8.14795H311.016V8.16064C311.022 8.16937 311.717 9.14795 313.443 9.14795C314.272 9.10154 315.077 8.86654 315.792 8.4624C316.574 8.0923 317.427 7.88411 318.298 7.85205ZM318.298 8.85205C317.38 8.85206 316.168 9.46964 316.146 9.48096C315.303 9.87737 314.381 10.092 313.443 10.1099C311.72 10.1099 311.024 9.50787 311.016 9.50049V15.1606C311.022 15.1694 311.717 16.1479 313.443 16.1479C314.272 16.1015 315.077 15.8665 315.792 15.4624C316.574 15.0923 317.427 14.8841 318.298 14.8521C319.019 14.8583 319.729 15.0161 320.379 15.3101V9.4458C319.753 9.07856 319.036 8.87159 318.298 8.85205Z" fill="var(--fill-0, #757677)"/>
<g id="Frame_2">
<path id="Delete" d="M367.071 6.00684C367.422 6.01285 367.774 6.04786 368.12 6.11133C368.464 6.18024 368.798 6.30556 369.11 6.48242C369.424 6.66282 369.71 6.8985 369.958 7.18066C370.206 7.46047 370.414 7.78251 370.573 8.13477C370.73 8.49036 370.841 8.8702 370.901 9.26172C370.957 9.65226 370.986 10.0469 370.99 10.4424C370.997 10.6224 370.997 10.8063 371 10.9863V19.0137C370.997 19.1937 370.997 19.3776 370.99 19.5576C370.986 19.9531 370.956 20.3477 370.901 20.7383C370.84 21.1297 370.73 21.5094 370.573 21.8652C370.414 22.2175 370.206 22.5395 369.958 22.8193C369.71 23.1015 369.424 23.3372 369.11 23.5176C368.798 23.6944 368.464 23.8198 368.12 23.8887C367.773 23.951 367.422 23.9844 367.071 23.9893C366.912 23.9964 366.753 23.9961 366.594 23.9961C366.403 23.9997 366.215 24 366.023 24H359.623C359.435 24 359.244 23.9997 359.053 23.9961C358.894 23.9961 358.734 23.9964 358.575 23.9893C358.225 23.9847 357.876 23.9512 357.53 23.8887C357.184 23.8198 356.848 23.6945 356.533 23.5176C356.222 23.3353 355.936 23.0998 355.688 22.8193C355.666 22.7939 355.584 22.6928 355.564 22.6748C355.472 22.5741 355.379 22.4737 355.29 22.373L354.966 22.0059L352.768 19.5176C352.691 19.4421 352.637 19.3808 352.586 19.3232L350.416 16.8721C350.356 16.8002 350.292 16.7281 350.229 16.6562C350.174 16.5952 350.123 16.5338 350.072 16.4727C349.915 16.2995 349.766 16.1155 349.629 15.9219C349.535 15.8143 349.46 15.6865 349.409 15.5469C349.307 15.1914 349.307 14.8086 349.409 14.4531C349.461 14.314 349.536 14.1863 349.629 14.0781C349.767 13.8853 349.916 13.7013 350.072 13.5273C350.123 13.4662 350.174 13.4048 350.229 13.3438L350.416 13.1318L352.395 10.8926C352.458 10.8206 352.522 10.7481 352.586 10.6797C352.637 10.6186 352.691 10.5575 352.745 10.5C352.759 10.4841 355.268 7.65189 355.29 7.62695C355.379 7.52625 355.472 7.42589 355.564 7.3252C355.584 7.30722 355.666 7.20607 355.688 7.18066C355.936 6.9002 356.222 6.66473 356.533 6.48242C356.848 6.30546 357.184 6.18019 357.53 6.11133C357.876 6.04756 358.225 6.01255 358.575 6.00684C358.734 6.00324 358.894 6.00359 359.053 6H366.594C366.753 6.0036 366.912 6.00325 367.071 6.00684ZM358.827 7.44336C358.712 7.44466 358.661 7.44576 358.594 7.44727C358.306 7.45196 358.019 7.48085 357.751 7.53027C357.525 7.57517 357.306 7.65593 357.119 7.76074C356.924 7.87489 356.746 8.023 356.59 8.19922C356.586 8.20373 356.575 8.21699 356.551 8.24609C356.526 8.27581 356.525 8.27558 356.497 8.30762C356.471 8.33753 356.451 8.36045 356.429 8.38379C356.375 8.44207 356.348 8.47219 356.315 8.50781C356.269 8.55906 356.228 8.60368 356.191 8.64551L353.665 11.5C353.649 11.517 353.634 11.5315 353.622 11.5439C353.583 11.586 353.547 11.627 353.514 11.667L353.464 11.7236C353.422 11.769 353.383 11.8119 353.297 11.9092C353.27 11.9392 351.343 14.1202 351.317 14.1494L351.129 14.3623C351.096 14.3996 351.068 14.4336 351 14.5146L350.965 14.5547C350.843 14.6904 350.727 14.8339 350.619 14.9844C350.728 15.1677 350.841 15.3085 350.961 15.4404L351 15.4854C351.068 15.5665 351.096 15.6004 351.129 15.6377C351.225 15.7467 351.273 15.801 351.328 15.8662L353.486 18.3057C353.524 18.3479 353.539 18.3645 353.559 18.3857C353.602 18.4288 353.636 18.4634 353.669 18.501L355.866 20.9873L356.191 21.3545C356.228 21.3963 356.269 21.4409 356.315 21.4922C356.348 21.5278 356.375 21.5579 356.429 21.6162C356.451 21.6395 356.471 21.6625 356.497 21.6924C356.525 21.7244 356.525 21.7243 356.549 21.752C356.592 21.8025 356.594 21.8063 356.59 21.8018C356.745 21.9774 356.924 22.1249 357.101 22.2285C357.306 22.3439 357.525 22.4255 357.731 22.4668C358.015 22.5182 358.303 22.5451 358.59 22.5488C358.736 22.5549 358.831 22.5564 359.074 22.5566C359.224 22.5595 359.347 22.5596 359.623 22.5596H366.303C366.402 22.5591 366.49 22.5584 366.594 22.5566C366.815 22.5566 366.911 22.5557 367.021 22.5508C367.345 22.5458 367.634 22.5178 367.897 22.4707C368.121 22.426 368.337 22.3447 368.532 22.2344C368.725 22.1235 368.901 21.9783 369.057 21.8008C369.21 21.6271 369.339 21.4272 369.432 21.2236C369.534 20.9916 369.606 20.7442 369.643 20.5117C369.688 20.1903 369.712 19.8655 369.716 19.54C369.719 19.4349 369.72 19.364 369.722 19.2646C369.722 19.2212 369.722 19.2208 369.723 19.1758C369.724 19.0824 369.725 19.0393 369.726 19.0137V11.0146C369.725 10.9603 369.724 10.9175 369.723 10.8242C369.722 10.7792 369.722 10.7788 369.722 10.7354C369.72 10.636 369.719 10.5652 369.717 10.5C369.712 10.1343 369.688 9.80956 369.646 9.50879C369.606 9.25483 369.534 9.00841 369.438 8.79102C369.339 8.57263 369.211 8.37292 369.054 8.19531C368.901 8.0218 368.725 7.87614 368.54 7.76953C368.337 7.65488 368.121 7.57437 367.916 7.5332C367.63 7.48091 367.341 7.45235 367.046 7.44727C366.985 7.4459 366.935 7.44466 366.82 7.44336C366.697 7.44196 366.64 7.44177 366.594 7.44043L359.078 7.43945C359.006 7.44107 358.95 7.44197 358.827 7.44336ZM364.89 11.1895C365.073 11.005 365.35 10.9496 365.59 11.0488C365.83 11.1483 365.987 11.3832 365.987 11.6436C365.987 11.8171 365.917 11.9784 365.799 12.0967L365.807 12.1045L362.908 15.0098L365.75 17.8516C365.77 17.8672 365.792 17.882 365.811 17.9004C365.995 18.0842 366.05 18.3619 365.951 18.6025C365.852 18.843 365.617 18.9999 365.357 19C365.184 19 365.023 18.9286 364.904 18.8105L364.897 18.8193L361.999 15.9209L359.105 18.8232L359.095 18.8125C359.037 18.8693 358.969 18.9179 358.892 18.9502C358.65 19.05 358.372 18.9937 358.188 18.8086C357.937 18.5567 357.937 18.1495 358.188 17.8975C358.222 17.8626 358.261 17.8331 358.302 17.8076L361.09 15.0117L358.188 12.1084L358.197 12.0977C358.141 12.0398 358.094 11.9713 358.062 11.8936C357.962 11.6519 358.017 11.374 358.202 11.1895C358.454 10.9385 358.861 10.9386 359.112 11.1895C359.146 11.2235 359.175 11.2621 359.2 11.3018L361.999 14.1006L364.831 11.2627C364.849 11.2378 364.867 11.2121 364.89 11.1895Z" fill="var(--fill-0, black)"/>
</g>
</g>
</svg>
