<svg preserveAspectRatio="none" width="100%" height="100%" overflow="visible" style="display: block;" viewBox="0 0 26 26" fill="none" xmlns="http://www.w3.org/2000/svg">
<g id="Head">
<path d="M13 26C21.6684 26 26 20.1797 26 13C26 5.8203 21.6684 0 13 0C4.33161 0 0 5.8203 0 13C0 20.1797 4.33161 26 13 26Z" fill="url(#paint0_radial_32_1375)"/>
<path d="M13 26C21.6684 26 26 20.1797 26 13C26 5.8203 21.6684 0 13 0C4.33161 0 0 5.8203 0 13C0 20.1797 4.33161 26 13 26Z" fill="url(#paint1_radial_32_1375)"/>
<path d="M13 26C21.6684 26 26 20.1797 26 13C26 5.8203 21.6684 0 13 0C4.33161 0 0 5.8203 0 13C0 20.1797 4.33161 26 13 26Z" fill="url(#paint2_radial_32_1375)"/>
<path d="M13 26C21.6684 26 26 20.1797 26 13C26 5.8203 21.6684 0 13 0C4.33161 0 0 5.8203 0 13C0 20.1797 4.33161 26 13 26Z" fill="url(#paint3_radial_32_1375)"/>
<path d="M13 26C21.6684 26 26 20.1797 26 13C26 5.8203 21.6684 0 13 0C4.33161 0 0 5.8203 0 13C0 20.1797 4.33161 26 13 26Z" fill="url(#paint4_radial_32_1375)"/>
<path d="M13 26C21.6684 26 26 20.1797 26 13C26 5.8203 21.6684 0 13 0C4.33161 0 0 5.8203 0 13C0 20.1797 4.33161 26 13 26Z" fill="url(#paint5_radial_32_1375)"/>
<path d="M13 26C21.6684 26 26 20.1797 26 13C26 5.8203 21.6684 0 13 0C4.33161 0 0 5.8203 0 13C0 20.1797 4.33161 26 13 26Z" fill="url(#paint6_radial_32_1375)"/>
<path d="M13 26C21.6684 26 26 20.1797 26 13C26 5.8203 21.6684 0 13 0C4.33161 0 0 5.8203 0 13C0 20.1797 4.33161 26 13 26Z" fill="url(#paint7_radial_32_1375)"/>
<path d="M13 26C21.6684 26 26 20.1797 26 13C26 5.8203 21.6684 0 13 0C4.33161 0 0 5.8203 0 13C0 20.1797 4.33161 26 13 26Z" fill="url(#paint8_radial_32_1375)"/>
<path d="M13 26C21.6684 26 26 20.1797 26 13C26 5.8203 21.6684 0 13 0C4.33161 0 0 5.8203 0 13C0 20.1797 4.33161 26 13 26Z" fill="url(#paint9_radial_32_1375)"/>
<path d="M13 26C21.6684 26 26 20.1797 26 13C26 5.8203 21.6684 0 13 0C4.33161 0 0 5.8203 0 13C0 20.1797 4.33161 26 13 26Z" fill="url(#paint10_radial_32_1375)"/>
<path d="M13 26C21.6684 26 26 20.1797 26 13C26 5.8203 21.6684 0 13 0C4.33161 0 0 5.8203 0 13C0 20.1797 4.33161 26 13 26Z" fill="url(#paint11_radial_32_1375)"/>
<path d="M13 26C21.6684 26 26 20.1797 26 13C26 5.8203 21.6684 0 13 0C4.33161 0 0 5.8203 0 13C0 20.1797 4.33161 26 13 26Z" fill="url(#paint12_radial_32_1375)"/>
<path d="M13 26C21.6684 26 26 20.1797 26 13C26 5.8203 21.6684 0 13 0C4.33161 0 0 5.8203 0 13C0 20.1797 4.33161 26 13 26Z" fill="url(#paint13_radial_32_1375)"/>
<path d="M13 26C21.6684 26 26 20.1797 26 13C26 5.8203 21.6684 0 13 0C4.33161 0 0 5.8203 0 13C0 20.1797 4.33161 26 13 26Z" fill="url(#paint14_radial_32_1375)"/>
<path d="M13 26C21.6684 26 26 20.1797 26 13C26 5.8203 21.6684 0 13 0C4.33161 0 0 5.8203 0 13C0 20.1797 4.33161 26 13 26Z" fill="url(#paint15_radial_32_1375)"/>
<path d="M13 26C21.6684 26 26 20.1797 26 13C26 5.8203 21.6684 0 13 0C4.33161 0 0 5.8203 0 13C0 20.1797 4.33161 26 13 26Z" fill="url(#paint16_radial_32_1375)"/>
<path d="M13 26C21.6684 26 26 20.1797 26 13C26 5.8203 21.6684 0 13 0C4.33161 0 0 5.8203 0 13C0 20.1797 4.33161 26 13 26Z" fill="url(#paint17_radial_32_1375)"/>
<path d="M13 26C21.6684 26 26 20.1797 26 13C26 5.8203 21.6684 0 13 0C4.33161 0 0 5.8203 0 13C0 20.1797 4.33161 26 13 26Z" fill="url(#paint18_radial_32_1375)"/>
<path d="M13 26C21.6684 26 26 20.1797 26 13C26 5.8203 21.6684 0 13 0C4.33161 0 0 5.8203 0 13C0 20.1797 4.33161 26 13 26Z" fill="url(#paint19_radial_32_1375)"/>
</g>
<defs>
<radialGradient id="paint0_radial_32_1375" cx="0" cy="0" r="1" gradientUnits="userSpaceOnUse" gradientTransform="translate(21.8232 6.50052) rotate(132.839) scale(34.8273)">
<stop stop-color="#FFF478"/>
<stop offset="0.474827" stop-color="#FFB02E"/>
<stop offset="1" stop-color="#F70A8D"/>
</radialGradient>
<radialGradient id="paint1_radial_32_1375" cx="0" cy="0" r="1" gradientUnits="userSpaceOnUse" gradientTransform="translate(14.2018 12.6615) rotate(121.67) scale(14.304)">
<stop stop-opacity="0"/>
<stop offset="0.692364" stop-opacity="0.0118229"/>
<stop offset="1" stop-opacity="0.09"/>
</radialGradient>
<radialGradient id="paint2_radial_32_1375" cx="0" cy="0" r="1" gradientUnits="userSpaceOnUse" gradientTransform="translate(13.001 9.75078) rotate(90) scale(16.6092)">
<stop offset="0.823911" stop-color="#F59639" stop-opacity="0"/>
<stop offset="1" stop-color="#FF63C4"/>
</radialGradient>
<radialGradient id="paint3_radial_32_1375" cx="0" cy="0" r="1" gradientUnits="userSpaceOnUse" gradientTransform="translate(10.6508 10.3003) rotate(82.316) scale(1.46643 1.32554)">
<stop stop-color="#CA7A1B" stop-opacity="0.85"/>
<stop offset="0.55915" stop-color="#CA7A1B" stop-opacity="0.336184"/>
<stop offset="0.868092" stop-color="#CA7A1B" stop-opacity="0.0764313"/>
<stop offset="1" stop-color="#CA7A1B" stop-opacity="0"/>
</radialGradient>
<radialGradient id="paint4_radial_32_1375" cx="0" cy="0" r="1" gradientUnits="userSpaceOnUse" gradientTransform="translate(21.851 17.5548) rotate(90) scale(0.870855 5.43922)">
<stop stop-color="#BB582B" stop-opacity="0.34"/>
<stop offset="0.64156" stop-color="#BB582B" stop-opacity="0.0937459"/>
<stop offset="1" stop-color="#BB582B" stop-opacity="0"/>
</radialGradient>
<radialGradient id="paint5_radial_32_1375" cx="0" cy="0" r="1" gradientUnits="userSpaceOnUse" gradientTransform="translate(22.8406 17.4969) rotate(83.4781) scale(0.838377 2.03587)">
<stop stop-color="#BB582B" stop-opacity="0.34"/>
<stop offset="0.204707" stop-color="#BB582B" stop-opacity="0.0937459"/>
<stop offset="1" stop-color="#BB582B" stop-opacity="0"/>
</radialGradient>
<radialGradient id="paint6_radial_32_1375" cx="0" cy="0" r="1" gradientUnits="userSpaceOnUse" gradientTransform="translate(21.6381 14.6041) rotate(127.999) scale(1.54598 2.01475)">
<stop stop-color="#BB582B" stop-opacity="0.47"/>
<stop offset="0.744792" stop-color="#BB582B" stop-opacity="0.105729"/>
<stop offset="1" stop-color="#BB582B" stop-opacity="0"/>
</radialGradient>
<radialGradient id="paint7_radial_32_1375" cx="0" cy="0" r="1" gradientUnits="userSpaceOnUse" gradientTransform="translate(24.2633 14.5898) rotate(-164.616) scale(0.958792 1.33021)">
<stop stop-color="#BB582B" stop-opacity="0.46"/>
<stop offset="0.743212" stop-color="#BB582B" stop-opacity="0.105729"/>
<stop offset="1" stop-color="#BB582B" stop-opacity="0"/>
</radialGradient>
<radialGradient id="paint8_radial_32_1375" cx="0" cy="0" r="1" gradientUnits="userSpaceOnUse" gradientTransform="translate(21.2643 13.1547) rotate(180) scale(1.6337 2.12906)">
<stop stop-color="#BB582B" stop-opacity="0.52"/>
<stop offset="0.437811" stop-color="#BB582B" stop-opacity="0.33"/>
<stop offset="0.744792" stop-color="#BB582B" stop-opacity="0.105729"/>
<stop offset="1" stop-color="#BB582B" stop-opacity="0"/>
</radialGradient>
<radialGradient id="paint9_radial_32_1375" cx="0" cy="0" r="1" gradientUnits="userSpaceOnUse" gradientTransform="translate(23.7777 15.8738) rotate(-124.317) scale(1.11667 1.54926)">
<stop stop-color="#BB582B" stop-opacity="0.35"/>
<stop offset="0.743212" stop-color="#BB582B" stop-opacity="0.105729"/>
<stop offset="1" stop-color="#BB582B" stop-opacity="0"/>
</radialGradient>
<radialGradient id="paint10_radial_32_1375" cx="0" cy="0" r="1" gradientUnits="userSpaceOnUse" gradientTransform="translate(23.4528 12.5381) rotate(107.996) scale(0.740257 1.03668)">
<stop stop-color="#BB582B" stop-opacity="0.26"/>
<stop offset="0.634263" stop-color="#BB582B" stop-opacity="0.12"/>
<stop offset="1" stop-color="#BB582B" stop-opacity="0"/>
</radialGradient>
<radialGradient id="paint11_radial_32_1375" cx="0" cy="0" r="1" gradientUnits="userSpaceOnUse" gradientTransform="translate(22.408 12.2307) rotate(87.7094) scale(0.901152 1.262)">
<stop stop-color="#BB582B" stop-opacity="0.37"/>
<stop offset="0.567708" stop-color="#BB582B" stop-opacity="0.19"/>
<stop offset="1" stop-color="#BB582B" stop-opacity="0"/>
</radialGradient>
<radialGradient id="paint12_radial_32_1375" cx="0" cy="0" r="1" gradientUnits="userSpaceOnUse" gradientTransform="translate(9.41668 9.06621) rotate(106.109) scale(0.842606 2.01535)">
<stop stop-color="#CA7A1B" stop-opacity="0.85"/>
<stop offset="0.53696" stop-color="#CA7A1B" stop-opacity="0.336184"/>
<stop offset="1" stop-color="#CA7A1B" stop-opacity="0"/>
</radialGradient>
<radialGradient id="paint13_radial_32_1375" cx="0" cy="0" r="1" gradientUnits="userSpaceOnUse" gradientTransform="translate(10.0969 9.68687) rotate(120.805) scale(0.827266 1.99506)">
<stop stop-color="#CA7A1B" stop-opacity="0.85"/>
<stop offset="0.254368" stop-color="#CA7A1B" stop-opacity="0.336184"/>
<stop offset="1" stop-color="#CA7A1B" stop-opacity="0"/>
</radialGradient>
<radialGradient id="paint14_radial_32_1375" cx="0" cy="0" r="1" gradientUnits="userSpaceOnUse" gradientTransform="translate(19.7934 10.1388) rotate(118.322) scale(1.36421)">
<stop stop-color="#CA7A1B" stop-opacity="0.8"/>
<stop offset="0.695556" stop-color="#CA7A1B" stop-opacity="0.158114"/>
<stop offset="1" stop-color="#CA7A1B" stop-opacity="0"/>
</radialGradient>
<radialGradient id="paint15_radial_32_1375" cx="0" cy="0" r="1" gradientUnits="userSpaceOnUse" gradientTransform="translate(19.9724 10.5373) rotate(126.357) scale(1.23509 1.21052)">
<stop stop-color="#CA7A1B" stop-opacity="0.38"/>
<stop offset="0.556517" stop-color="#CA7A1B" stop-opacity="0.158114"/>
<stop offset="1" stop-color="#CA7A1B" stop-opacity="0"/>
</radialGradient>
<radialGradient id="paint16_radial_32_1375" cx="0" cy="0" r="1" gradientUnits="userSpaceOnUse" gradientTransform="translate(19.1236 9.41861) rotate(124.482) scale(0.796195 2.16641)">
<stop stop-color="#CA7A1B" stop-opacity="0.8"/>
<stop offset="0.727564" stop-color="#CA7A1B" stop-opacity="0.158114"/>
<stop offset="1" stop-color="#CA7A1B" stop-opacity="0"/>
</radialGradient>
<radialGradient id="paint17_radial_32_1375" cx="0" cy="0" r="1" gradientUnits="userSpaceOnUse" gradientTransform="translate(21.1712 6.84902) rotate(105.526) scale(1.56077)">
<stop stop-color="#E37847" stop-opacity="0.37"/>
<stop offset="0.427196" stop-color="#E37847" stop-opacity="0.268229"/>
<stop offset="1" stop-color="#E37847" stop-opacity="0"/>
</radialGradient>
<radialGradient id="paint18_radial_32_1375" cx="0" cy="0" r="1" gradientUnits="userSpaceOnUse" gradientTransform="translate(18.3487 17.419) rotate(89.2151) scale(1.09279 5.21178)">
<stop stop-color="#BB582B" stop-opacity="0.32"/>
<stop offset="0.702064" stop-color="#BB582B" stop-opacity="0.15"/>
<stop offset="1" stop-color="#BB582B" stop-opacity="0"/>
</radialGradient>
<radialGradient id="paint19_radial_32_1375" cx="0" cy="0" r="1" gradientUnits="userSpaceOnUse" gradientTransform="translate(17.4565 17.3921) rotate(91.0809) scale(0.989263 3.12883)">
<stop stop-color="#BB582B" stop-opacity="0.22"/>
<stop offset="0.702064" stop-color="#BB582B" stop-opacity="0.09"/>
<stop offset="1" stop-color="#BB582B" stop-opacity="0"/>
</radialGradient>
</defs>
</svg>
