<svg preserveAspectRatio="none" width="100%" height="100%" overflow="visible" style="display: block;" viewBox="0 0 5 3" fill="none" xmlns="http://www.w3.org/2000/svg">
<g id="Party Horn (Stroke)">
<path fill-rule="evenodd" clip-rule="evenodd" d="M3.34299 0C3.7572 0 4.09299 0.335786 4.09299 0.75V0.797256C4.09299 1.9275 3.17674 2.84375 2.04649 2.84375C0.916247 2.84375 0 1.9275 0 0.797256C0 0.383043 0.335786 0.0472565 0.75 0.0472565C1.16421 0.0472565 1.5 0.383043 1.5 0.797256C1.5 1.09908 1.74467 1.34375 2.04649 1.34375C2.34831 1.34375 2.59299 1.09908 2.59299 0.797256V0.75C2.59299 0.335786 2.92877 0 3.34299 0Z" fill="var(--fill-0, #00A6ED)"/>
<path fill-rule="evenodd" clip-rule="evenodd" d="M3.34299 0C3.7572 0 4.09299 0.335786 4.09299 0.75V0.797256C4.09299 1.9275 3.17674 2.84375 2.04649 2.84375C0.916247 2.84375 0 1.9275 0 0.797256C0 0.383043 0.335786 0.0472565 0.75 0.0472565C1.16421 0.0472565 1.5 0.383043 1.5 0.797256C1.5 1.09908 1.74467 1.34375 2.04649 1.34375C2.34831 1.34375 2.59299 1.09908 2.59299 0.797256V0.75C2.59299 0.335786 2.92877 0 3.34299 0Z" fill="url(#paint0_radial_32_1339)"/>
<path fill-rule="evenodd" clip-rule="evenodd" d="M3.34299 0C3.7572 0 4.09299 0.335786 4.09299 0.75V0.797256C4.09299 1.9275 3.17674 2.84375 2.04649 2.84375C0.916247 2.84375 0 1.9275 0 0.797256C0 0.383043 0.335786 0.0472565 0.75 0.0472565C1.16421 0.0472565 1.5 0.383043 1.5 0.797256C1.5 1.09908 1.74467 1.34375 2.04649 1.34375C2.34831 1.34375 2.59299 1.09908 2.59299 0.797256V0.75C2.59299 0.335786 2.92877 0 3.34299 0Z" fill="url(#paint1_radial_32_1339)"/>
<path fill-rule="evenodd" clip-rule="evenodd" d="M3.34299 0C3.7572 0 4.09299 0.335786 4.09299 0.75V0.797256C4.09299 1.9275 3.17674 2.84375 2.04649 2.84375C0.916247 2.84375 0 1.9275 0 0.797256C0 0.383043 0.335786 0.0472565 0.75 0.0472565C1.16421 0.0472565 1.5 0.383043 1.5 0.797256C1.5 1.09908 1.74467 1.34375 2.04649 1.34375C2.34831 1.34375 2.59299 1.09908 2.59299 0.797256V0.75C2.59299 0.335786 2.92877 0 3.34299 0Z" fill="url(#paint2_radial_32_1339)"/>
<path fill-rule="evenodd" clip-rule="evenodd" d="M3.34299 0C3.7572 0 4.09299 0.335786 4.09299 0.75V0.797256C4.09299 1.9275 3.17674 2.84375 2.04649 2.84375C0.916247 2.84375 0 1.9275 0 0.797256C0 0.383043 0.335786 0.0472565 0.75 0.0472565C1.16421 0.0472565 1.5 0.383043 1.5 0.797256C1.5 1.09908 1.74467 1.34375 2.04649 1.34375C2.34831 1.34375 2.59299 1.09908 2.59299 0.797256V0.75C2.59299 0.335786 2.92877 0 3.34299 0Z" fill="url(#paint3_radial_32_1339)"/>
<path fill-rule="evenodd" clip-rule="evenodd" d="M3.34299 0C3.7572 0 4.09299 0.335786 4.09299 0.75V0.797256C4.09299 1.9275 3.17674 2.84375 2.04649 2.84375C0.916247 2.84375 0 1.9275 0 0.797256C0 0.383043 0.335786 0.0472565 0.75 0.0472565C1.16421 0.0472565 1.5 0.383043 1.5 0.797256C1.5 1.09908 1.74467 1.34375 2.04649 1.34375C2.34831 1.34375 2.59299 1.09908 2.59299 0.797256V0.75C2.59299 0.335786 2.92877 0 3.34299 0Z" fill="url(#paint4_radial_32_1339)"/>
<path fill-rule="evenodd" clip-rule="evenodd" d="M3.34299 0C3.7572 0 4.09299 0.335786 4.09299 0.75V0.797256C4.09299 1.9275 3.17674 2.84375 2.04649 2.84375C0.916247 2.84375 0 1.9275 0 0.797256C0 0.383043 0.335786 0.0472565 0.75 0.0472565C1.16421 0.0472565 1.5 0.383043 1.5 0.797256C1.5 1.09908 1.74467 1.34375 2.04649 1.34375C2.34831 1.34375 2.59299 1.09908 2.59299 0.797256V0.75C2.59299 0.335786 2.92877 0 3.34299 0Z" fill="url(#paint5_radial_32_1339)"/>
</g>
<defs>
<radialGradient id="paint0_radial_32_1339" cx="0" cy="0" r="1" gradientUnits="userSpaceOnUse" gradientTransform="translate(-3.88119 -0.308273) rotate(6.46289) scale(4.15884 4.76534)">
<stop offset="0.328125" stop-color="#1B6AD1"/>
<stop offset="1" stop-color="#2A80F0" stop-opacity="0"/>
</radialGradient>
<radialGradient id="paint1_radial_32_1339" cx="0" cy="0" r="1" gradientUnits="userSpaceOnUse" gradientTransform="translate(1.82548 3.69882) rotate(-94.3549) scale(2.59149 15.9583)">
<stop stop-color="#1B6AD1"/>
<stop offset="0.601914" stop-color="#2A80F0" stop-opacity="0"/>
</radialGradient>
<radialGradient id="paint2_radial_32_1339" cx="0" cy="0" r="1" gradientUnits="userSpaceOnUse" gradientTransform="translate(2.75429 -0.158531) rotate(31.5169) scale(0.785892 2.49055)">
<stop stop-color="#1B6AD1"/>
<stop offset="1" stop-color="#2A80F0" stop-opacity="0"/>
</radialGradient>
<radialGradient id="paint3_radial_32_1339" cx="0" cy="0" r="1" gradientUnits="userSpaceOnUse" gradientTransform="translate(2.12092 0.510411) rotate(96.2035) scale(2.01533 1.79789)">
<stop stop-color="#A0D9FF" stop-opacity="0"/>
<stop offset="0.418873" stop-color="#A0D9FF" stop-opacity="0.0663814"/>
<stop offset="0.505564" stop-color="#A0D9FF" stop-opacity="0.244587"/>
<stop offset="0.583785" stop-color="#A0D9FF" stop-opacity="0.44"/>
<stop offset="0.682644" stop-color="#A0D9FF" stop-opacity="0.54"/>
<stop offset="0.725141" stop-color="#A0D9FF" stop-opacity="0.54"/>
<stop offset="0.772791" stop-color="#A0D9FF" stop-opacity="0.52"/>
<stop offset="0.816441" stop-color="#A0D9FF" stop-opacity="0.46"/>
<stop offset="0.91367" stop-color="#A0D9FF" stop-opacity="0.203845"/>
<stop offset="1" stop-color="#A0D9FF" stop-opacity="0"/>
</radialGradient>
<radialGradient id="paint4_radial_32_1339" cx="0" cy="0" r="1" gradientUnits="userSpaceOnUse" gradientTransform="translate(3.6422 0.31423) rotate(90) scale(0.500579 1.05224)">
<stop stop-color="#00A6ED"/>
<stop offset="1" stop-color="#00A6ED" stop-opacity="0"/>
</radialGradient>
<radialGradient id="paint5_radial_32_1339" cx="0" cy="0" r="1" gradientUnits="userSpaceOnUse" gradientTransform="translate(3.54571 0.457196) rotate(135) scale(0.418685 0.414861)">
<stop stop-color="#A0D9FF" stop-opacity="0.5"/>
<stop offset="0.369792" stop-color="#A0D9FF" stop-opacity="0.38"/>
<stop offset="0.640625" stop-color="#A0D9FF" stop-opacity="0.22"/>
<stop offset="0.796875" stop-color="#A0D9FF" stop-opacity="0.0988406"/>
<stop offset="1" stop-color="#A0D9FF" stop-opacity="0"/>
</radialGradient>
</defs>
</svg>
