<svg preserveAspectRatio="none" width="100%" height="100%" overflow="visible" style="display: block;" viewBox="0 0 5 5" fill="none" xmlns="http://www.w3.org/2000/svg">
<g id="Party Horn (Stroke)">
<path fill-rule="evenodd" clip-rule="evenodd" d="M3.82109 0.000304861C4.23514 0.0119988 4.56131 0.357131 4.54962 0.77118L4.54146 1.06009C4.4835 3.11237 2.8031 4.74598 0.75 4.74598C0.335786 4.74598 0 4.41019 0 3.99598C0 3.58177 0.335786 3.24598 0.75 3.24598C1.99116 3.24598 3.00702 2.25841 3.04205 1.01774L3.05021 0.728832C3.06191 0.314784 3.40704 -0.011389 3.82109 0.000304861Z" fill="var(--fill-0, #00A6ED)"/>
<path fill-rule="evenodd" clip-rule="evenodd" d="M3.82109 0.000304861C4.23514 0.0119988 4.56131 0.357131 4.54962 0.77118L4.54146 1.06009C4.4835 3.11237 2.8031 4.74598 0.75 4.74598C0.335786 4.74598 0 4.41019 0 3.99598C0 3.58177 0.335786 3.24598 0.75 3.24598C1.99116 3.24598 3.00702 2.25841 3.04205 1.01774L3.05021 0.728832C3.06191 0.314784 3.40704 -0.011389 3.82109 0.000304861Z" fill="url(#paint0_radial_32_1285)"/>
<path fill-rule="evenodd" clip-rule="evenodd" d="M3.82109 0.000304861C4.23514 0.0119988 4.56131 0.357131 4.54962 0.77118L4.54146 1.06009C4.4835 3.11237 2.8031 4.74598 0.75 4.74598C0.335786 4.74598 0 4.41019 0 3.99598C0 3.58177 0.335786 3.24598 0.75 3.24598C1.99116 3.24598 3.00702 2.25841 3.04205 1.01774L3.05021 0.728832C3.06191 0.314784 3.40704 -0.011389 3.82109 0.000304861Z" fill="url(#paint1_radial_32_1285)"/>
<path fill-rule="evenodd" clip-rule="evenodd" d="M3.82109 0.000304861C4.23514 0.0119988 4.56131 0.357131 4.54962 0.77118L4.54146 1.06009C4.4835 3.11237 2.8031 4.74598 0.75 4.74598C0.335786 4.74598 0 4.41019 0 3.99598C0 3.58177 0.335786 3.24598 0.75 3.24598C1.99116 3.24598 3.00702 2.25841 3.04205 1.01774L3.05021 0.728832C3.06191 0.314784 3.40704 -0.011389 3.82109 0.000304861Z" fill="url(#paint2_radial_32_1285)"/>
<path fill-rule="evenodd" clip-rule="evenodd" d="M3.82109 0.000304861C4.23514 0.0119988 4.56131 0.357131 4.54962 0.77118L4.54146 1.06009C4.4835 3.11237 2.8031 4.74598 0.75 4.74598C0.335786 4.74598 0 4.41019 0 3.99598C0 3.58177 0.335786 3.24598 0.75 3.24598C1.99116 3.24598 3.00702 2.25841 3.04205 1.01774L3.05021 0.728832C3.06191 0.314784 3.40704 -0.011389 3.82109 0.000304861Z" fill="url(#paint3_radial_32_1285)"/>
<path fill-rule="evenodd" clip-rule="evenodd" d="M3.82109 0.000304861C4.23514 0.0119988 4.56131 0.357131 4.54962 0.77118L4.54146 1.06009C4.4835 3.11237 2.8031 4.74598 0.75 4.74598C0.335786 4.74598 0 4.41019 0 3.99598C0 3.58177 0.335786 3.24598 0.75 3.24598C1.99116 3.24598 3.00702 2.25841 3.04205 1.01774L3.05021 0.728832C3.06191 0.314784 3.40704 -0.011389 3.82109 0.000304861Z" fill="url(#paint4_radial_32_1285)"/>
</g>
<defs>
<radialGradient id="paint0_radial_32_1285" cx="0" cy="0" r="1" gradientUnits="userSpaceOnUse" gradientTransform="translate(-4.31448 -0.514483) rotate(9.65183) scale(4.65971 7.89053)">
<stop offset="0.328125" stop-color="#1B6AD1"/>
<stop offset="1" stop-color="#2A80F0" stop-opacity="0"/>
</radialGradient>
<radialGradient id="paint1_radial_32_1285" cx="0" cy="0" r="1" gradientUnits="userSpaceOnUse" gradientTransform="translate(0.435516 0.219893) rotate(27.8973) scale(1.20221 1.73102)">
<stop stop-color="#1B6AD1"/>
<stop offset="1" stop-color="#2A80F0" stop-opacity="0"/>
</radialGradient>
<radialGradient id="paint2_radial_32_1285" cx="0" cy="0" r="1" gradientUnits="userSpaceOnUse" gradientTransform="translate(2.02927 6.17302) rotate(-92.9038) scale(4.31804 17.7684)">
<stop stop-color="#1B6AD1"/>
<stop offset="0.601914" stop-color="#2A80F0" stop-opacity="0"/>
</radialGradient>
<radialGradient id="paint3_radial_32_1285" cx="0" cy="0" r="1" gradientUnits="userSpaceOnUse" gradientTransform="translate(0.641359 0.787869) rotate(37.0007) scale(3.93925 3.77652)">
<stop offset="0.626079" stop-color="#A0D9FF" stop-opacity="0"/>
<stop offset="0.779522" stop-color="#A0D9FF" stop-opacity="0.47"/>
<stop offset="0.798816" stop-color="#A0D9FF" stop-opacity="0.5"/>
<stop offset="0.83338" stop-color="#A0D9FF" stop-opacity="0.52"/>
<stop offset="0.8682" stop-color="#A0D9FF" stop-opacity="0.46"/>
<stop offset="1" stop-color="#A0D9FF" stop-opacity="0"/>
</radialGradient>
<radialGradient id="paint4_radial_32_1285" cx="0" cy="0" r="1" gradientUnits="userSpaceOnUse" gradientTransform="translate(4.49174 0.351258) rotate(161.94) scale(0.276635 1.18276)">
<stop stop-color="#00A6ED"/>
<stop offset="0.628895" stop-color="#00A6ED" stop-opacity="0.537426"/>
<stop offset="1" stop-color="#00A6ED" stop-opacity="0"/>
</radialGradient>
</defs>
</svg>
