<svg preserveAspectRatio="none" width="100%" height="100%" overflow="visible" style="display: block;" viewBox="0 0 26 26" fill="none" xmlns="http://www.w3.org/2000/svg">
<path id="Emoji" d="M12.834 17.5477C10.8206 17.5477 8.68321 17.2615 6.73664 16.7653C6.37405 16.2118 6.10687 15.6202 5.98282 15.0191C8.03435 15.6011 10.4198 16.0019 12.8435 16.0019C15.2672 16.0019 17.6527 15.6011 19.7137 15.0191C19.5706 15.6202 19.313 16.2118 18.9599 16.7653C17.0134 17.2519 14.876 17.5477 12.8435 17.5477H12.834ZM12.834 21.4313C17.1469 21.4313 20.6107 18.2634 21.0878 14.5038C21.1927 13.75 20.6966 13.4065 20.0286 13.5973C17.605 14.313 15.334 14.7137 12.834 14.7137C10.334 14.7137 8.08206 14.313 5.64886 13.5973C4.98092 13.4065 4.49427 13.75 4.58969 14.5038C5.05725 18.2634 8.51145 21.4313 12.834 21.4313ZM16.5553 11.7176C17.3473 11.7176 18.0534 11.0019 18.0534 9.99046C18.0534 8.97901 17.3473 8.25382 16.5553 8.25382C15.7634 8.25382 15.0668 8.97901 15.0668 9.99046C15.0668 11.0019 15.7634 11.7176 16.5553 11.7176ZM9.09351 11.7176C9.89504 11.7176 10.6011 11.0019 10.6011 9.99046C10.6011 8.97901 9.89504 8.25382 9.09351 8.25382C8.29198 8.25382 7.62405 8.97901 7.62405 9.99046C7.62405 11.0019 8.30153 11.7176 9.09351 11.7176ZM12.8435 23.5019C6.92748 23.5019 2.18511 18.7595 2.18511 12.834C2.18511 6.9084 6.91794 2.17557 12.834 2.17557C18.75 2.17557 23.5114 6.91794 23.5114 12.8435C23.5114 18.7691 18.7691 23.5114 12.8435 23.5114V23.5019ZM12.8435 25.6775C19.8664 25.6775 25.687 19.8569 25.687 12.834C25.687 5.81107 19.8664 0 12.834 0C5.80153 0 0 5.82061 0 12.8435C0 19.8664 5.82061 25.687 12.8435 25.687V25.6775Z" fill="var(--fill-0, #3C3C43)" fill-opacity="0.8"/>
</svg>
