<svg preserveAspectRatio="none" width="100%" height="100%" overflow="visible" style="display: block;" viewBox="0 0 4 9" fill="none" xmlns="http://www.w3.org/2000/svg">
<path id="Shape" d="M1 0C0.447715 0 0 0.447715 0 1C0 1.55228 0.447715 2 1 2C1.28772 2 1.52 2.23229 1.52 2.52C1.52 2.80771 1.28772 3.04 1 3.04C0.447715 3.04 0 3.48771 0 4.04C0 4.03999 0 4.04001 0 4.04C0 4.59228 0.447715 5.04004 1 5.04004C1.28772 5.04004 1.52 5.27232 1.52 5.56004C1.52 5.84775 1.28772 6.08004 1 6.08004C0.447715 6.08004 0 6.52776 0 7.08004C0 7.63232 0.447715 8.08004 1 8.08004C2.39228 8.08004 3.52 6.95232 3.52 5.56004C3.52 4.98901 3.33031 4.46249 3.01046 4.04002C3.33031 3.61755 3.52 3.09103 3.52 2.52C3.52 1.12772 2.39228 0 1 0Z" fill="var(--fill-0, #402A32)"/>
</svg>
