<svg preserveAspectRatio="none" width="100%" height="100%" overflow="visible" style="display: block;" viewBox="0 0 10 9" fill="none" xmlns="http://www.w3.org/2000/svg">
<g id="Vector 83">
<path d="M2.00045 0.100707C3.21314 -0.258995 4.50034 0.500712 5.00034 1.00071C5.50022 0.500738 7.16842 -0.831085 8.75024 0.750738C10.025 2.02549 9.5004 4.0007 8.5004 5.5007C7.91165 6.38382 6.38407 7.77243 5.15335 8.70995C4.50919 9.20064 3.61366 9.05526 3.06764 8.45727C2.14308 7.44471 0.972926 6.14586 0.400347 5.0007C-0.599653 3.0007 0.400543 0.575264 2.00045 0.100707Z" fill="url(#paint0_linear_146_1742)"/>
<path d="M2.00045 0.100707C3.21314 -0.258995 4.50034 0.500712 5.00034 1.00071C5.50022 0.500738 7.16842 -0.831085 8.75024 0.750738C10.025 2.02549 9.5004 4.0007 8.5004 5.5007C7.91165 6.38382 6.38407 7.77243 5.15335 8.70995C4.50919 9.20064 3.61366 9.05526 3.06764 8.45727C2.14308 7.44471 0.972926 6.14586 0.400347 5.0007C-0.599653 3.0007 0.400543 0.575264 2.00045 0.100707Z" fill="url(#paint1_radial_146_1742)" fill-opacity="0.48"/>
<path d="M2.00045 0.100707C3.21314 -0.258995 4.50034 0.500712 5.00034 1.00071C5.50022 0.500738 7.16842 -0.831085 8.75024 0.750738C10.025 2.02549 9.5004 4.0007 8.5004 5.5007C7.91165 6.38382 6.38407 7.77243 5.15335 8.70995C4.50919 9.20064 3.61366 9.05526 3.06764 8.45727C2.14308 7.44471 0.972926 6.14586 0.400347 5.0007C-0.599653 3.0007 0.400543 0.575264 2.00045 0.100707Z" fill="url(#paint2_radial_146_1742)"/>
</g>
<defs>
<linearGradient id="paint0_linear_146_1742" x1="3.50024" y1="2.50073" x2="7.13631" y2="7.27775" gradientUnits="userSpaceOnUse">
<stop stop-color="#DC2E50"/>
<stop offset="1" stop-color="#F70A8D"/>
</linearGradient>
<radialGradient id="paint1_radial_146_1742" cx="0" cy="0" r="1" gradientUnits="userSpaceOnUse" gradientTransform="translate(7.50233 2.79848) rotate(125.784) scale(4.97797 3.09003)">
<stop stop-color="white" stop-opacity="0.75"/>
<stop offset="0.125206" stop-color="white" stop-opacity="0.701862"/>
<stop offset="0.281504" stop-color="white" stop-opacity="0.479537"/>
<stop offset="0.690887" stop-color="#DC2E50" stop-opacity="0"/>
</radialGradient>
<radialGradient id="paint2_radial_146_1742" cx="0" cy="0" r="1" gradientUnits="userSpaceOnUse" gradientTransform="translate(6.25473 7.58846) rotate(-129.472) scale(3.27861 6.30974)">
<stop stop-color="#F944A5"/>
<stop offset="1" stop-color="#F944A5" stop-opacity="0"/>
</radialGradient>
</defs>
</svg>
