<svg preserveAspectRatio="none" width="100%" height="100%" overflow="visible" style="display: block;" viewBox="0 0 20 20" fill="none" xmlns="http://www.w3.org/2000/svg">
<g id="&#228;&#191;&#174;&#230;&#148;&#185;&#227;&#128;&#129;&#228;&#191;&#174;&#230;&#148;&#185;&#232;&#181;&#132;&#230;&#150;&#153; 1" clip-path="url(#clip0_68_1035)">
<path id="Vector" d="M19.4281 19.0125C19.3576 19.1242 19.2597 19.2161 19.1438 19.2795C19.0279 19.3429 18.8977 19.3758 18.7656 19.375H1.5625C1.43067 19.3761 1.30072 19.3437 1.18484 19.2809C1.06895 19.218 0.970942 19.1267 0.9 19.0156C0.832571 18.9085 0.796795 18.7844 0.796795 18.6578C0.796795 18.5312 0.832571 18.4072 0.9 18.3C0.970631 18.1881 1.06841 18.0959 1.18424 18.032C1.30008 17.9681 1.4302 17.9345 1.5625 17.9344H18.75C18.8824 17.9327 19.0129 17.9649 19.1294 18.0277C19.2459 18.0906 19.3444 18.1822 19.4156 18.2938C19.4863 18.3998 19.525 18.5239 19.5272 18.6513C19.5295 18.7787 19.4951 18.9041 19.4281 19.0125ZM10.6531 13.4375C9.84945 14.1696 8.84052 14.6375 7.7625 14.7781L5.8875 14.9313C4.98438 15.0063 4.4875 15.0469 4.39375 15.0469C4.29875 15.0474 4.20458 15.0292 4.11663 14.9933C4.02868 14.9573 3.9487 14.9044 3.88125 14.8375C3.63438 14.5938 3.63438 14.5938 3.78125 12.8344L3.9375 10.9594C4.07808 9.88136 4.54601 8.87242 5.27812 8.06875L12.1531 1.20938C12.5641 0.819901 13.1088 0.602818 13.675 0.602818C14.2412 0.602818 14.7859 0.819901 15.1969 1.20938L17.5187 3.53125C17.9208 3.9338 18.1467 4.47948 18.1467 5.04844C18.1467 5.61739 17.9208 6.16308 17.5187 6.56563L10.6531 13.4375ZM16.5031 4.54688L14.1812 2.225C14.0458 2.09291 13.8642 2.01898 13.675 2.01898C13.4858 2.01898 13.3042 2.09291 13.1687 2.225L6.29375 9.1C5.79161 9.6589 5.4655 10.3535 5.35625 11.0969L5.2 12.9719L5.15 13.575L5.75312 13.525L7.62812 13.3688C8.37111 13.2583 9.06538 12.9323 9.625 12.4313L16.5 5.575C16.6321 5.43959 16.706 5.25792 16.706 5.06875C16.706 4.87958 16.6321 4.69791 16.5 4.5625L16.5031 4.54688Z" fill="var(--fill-0, #707070)"/>
</g>
<defs>
<clipPath id="clip0_68_1035">
<rect width="20" height="20" fill="white"/>
</clipPath>
</defs>
</svg>
