<svg preserveAspectRatio="none" width="100%" height="100%" overflow="visible" style="display: block;" viewBox="0 0 7 4" fill="none" xmlns="http://www.w3.org/2000/svg">
<g id="Shape">
<path d="M1.9818 3.19087C2.02988 2.94359 2.13995 2.64051 2.3492 2.41252C2.52853 2.21714 2.84723 2 3.50019 2C4.14191 2 4.46873 2.22165 4.65742 2.42878C4.87556 2.66826 4.98065 2.97368 5.01493 3.17109C5.10942 3.71523 5.62714 4.07975 6.17128 3.98526C6.71542 3.89076 7.07993 3.37305 6.98544 2.82891C6.90644 2.37398 6.68017 1.6794 6.13595 1.08196C5.56227 0.45218 4.69573 0 3.50019 0C2.31588 0 1.45293 0.431296 0.875759 1.06013C0.328508 1.65637 0.107208 2.35329 0.0185717 2.80913C-0.0868428 3.35126 0.267186 3.8762 0.809317 3.98162C1.35145 4.08703 1.87639 3.733 1.9818 3.19087Z" fill="var(--fill-0, #583F51)"/>
<path d="M1.9818 3.19087C2.02988 2.94359 2.13995 2.64051 2.3492 2.41252C2.52853 2.21714 2.84723 2 3.50019 2C4.14191 2 4.46873 2.22165 4.65742 2.42878C4.87556 2.66826 4.98065 2.97368 5.01493 3.17109C5.10942 3.71523 5.62714 4.07975 6.17128 3.98526C6.71542 3.89076 7.07993 3.37305 6.98544 2.82891C6.90644 2.37398 6.68017 1.6794 6.13595 1.08196C5.56227 0.45218 4.69573 0 3.50019 0C2.31588 0 1.45293 0.431296 0.875759 1.06013C0.328508 1.65637 0.107208 2.35329 0.0185717 2.80913C-0.0868428 3.35126 0.267186 3.8762 0.809317 3.98162C1.35145 4.08703 1.87639 3.733 1.9818 3.19087Z" fill="url(#paint0_radial_146_1736)"/>
<path d="M1.9818 3.19087C2.02988 2.94359 2.13995 2.64051 2.3492 2.41252C2.52853 2.21714 2.84723 2 3.50019 2C4.14191 2 4.46873 2.22165 4.65742 2.42878C4.87556 2.66826 4.98065 2.97368 5.01493 3.17109C5.10942 3.71523 5.62714 4.07975 6.17128 3.98526C6.71542 3.89076 7.07993 3.37305 6.98544 2.82891C6.90644 2.37398 6.68017 1.6794 6.13595 1.08196C5.56227 0.45218 4.69573 0 3.50019 0C2.31588 0 1.45293 0.431296 0.875759 1.06013C0.328508 1.65637 0.107208 2.35329 0.0185717 2.80913C-0.0868428 3.35126 0.267186 3.8762 0.809317 3.98162C1.35145 4.08703 1.87639 3.733 1.9818 3.19087Z" fill="url(#paint1_radial_146_1736)"/>
<path d="M1.9818 3.19087C2.02988 2.94359 2.13995 2.64051 2.3492 2.41252C2.52853 2.21714 2.84723 2 3.50019 2C4.14191 2 4.46873 2.22165 4.65742 2.42878C4.87556 2.66826 4.98065 2.97368 5.01493 3.17109C5.10942 3.71523 5.62714 4.07975 6.17128 3.98526C6.71542 3.89076 7.07993 3.37305 6.98544 2.82891C6.90644 2.37398 6.68017 1.6794 6.13595 1.08196C5.56227 0.45218 4.69573 0 3.50019 0C2.31588 0 1.45293 0.431296 0.875759 1.06013C0.328508 1.65637 0.107208 2.35329 0.0185717 2.80913C-0.0868428 3.35126 0.267186 3.8762 0.809317 3.98162C1.35145 4.08703 1.87639 3.733 1.9818 3.19087Z" fill="url(#paint2_radial_146_1736)"/>
</g>
<defs>
<radialGradient id="paint0_radial_146_1736" cx="0" cy="0" r="1" gradientUnits="userSpaceOnUse" gradientTransform="translate(3.50018 3.22815) rotate(90) scale(2.78818)">
<stop offset="0.188596" stop-color="#1D1019"/>
<stop offset="1" stop-color="#462B3F" stop-opacity="0"/>
</radialGradient>
<radialGradient id="paint1_radial_146_1736" cx="0" cy="0" r="1" gradientUnits="userSpaceOnUse" gradientTransform="translate(3.50018 3.22815) rotate(90) scale(3.60751 4.0944)">
<stop offset="0.718644" stop-color="#462B3F" stop-opacity="0"/>
<stop offset="1" stop-color="#1D1019"/>
</radialGradient>
<radialGradient id="paint2_radial_146_1736" cx="0" cy="0" r="1" gradientUnits="userSpaceOnUse" gradientTransform="translate(3.50017 1.375) rotate(90) scale(3.3125 6.95835)">
<stop offset="0.429103" stop-color="#462B3F" stop-opacity="0"/>
<stop offset="1" stop-color="#1D1019"/>
</radialGradient>
</defs>
</svg>
