<svg preserveAspectRatio="none" width="100%" height="100%" overflow="visible" style="display: block;" viewBox="0 0 14 14" fill="none" xmlns="http://www.w3.org/2000/svg">
<g id="&#228;&#191;&#174;&#230;&#148;&#185;&#227;&#128;&#129;&#228;&#191;&#174;&#230;&#148;&#185;&#232;&#181;&#132;&#230;&#150;&#153; 1" clip-path="url(#clip0_68_1025)">
<path id="Vector" d="M13.0419 13.3087C12.9925 13.3868 12.924 13.4512 12.8429 13.4956C12.7618 13.54 12.6707 13.563 12.5782 13.5624H0.535993C0.443713 13.5632 0.352745 13.5405 0.271628 13.4965C0.19051 13.4525 0.121902 13.3886 0.0722431 13.3108C0.0250431 13.2358 0 13.149 0 13.0604C0 12.9717 0.0250431 12.8849 0.0722431 12.8099C0.121685 12.7316 0.190132 12.6671 0.271214 12.6223C0.352297 12.5776 0.443382 12.5541 0.535993 12.554H12.5672C12.6599 12.5528 12.7513 12.5753 12.8328 12.6193C12.9144 12.6633 12.9833 12.7274 13.0332 12.8055C13.0826 12.8798 13.1098 12.9666 13.1113 13.0558C13.1129 13.145 13.0888 13.2328 13.0419 13.3087ZM6.89943 9.40615C6.33686 9.91863 5.6306 10.2462 4.87599 10.3446L3.56349 10.4518C2.93131 10.5043 2.58349 10.5327 2.51787 10.5327C2.45137 10.5331 2.38545 10.5203 2.32388 10.4952C2.26232 10.47 2.20633 10.433 2.15912 10.3862C1.98631 10.2155 1.98631 10.2155 2.08912 8.98397L2.19849 7.67147C2.2969 6.91685 2.62445 6.2106 3.13693 5.64803L7.94943 0.846465C8.23712 0.573833 8.61839 0.421875 9.01474 0.421875C9.41109 0.421875 9.79236 0.573833 10.0801 0.846465L11.7054 2.47178C11.9868 2.75356 12.1449 3.13554 12.1449 3.53381C12.1449 3.93208 11.9868 4.31406 11.7054 4.59584L6.89943 9.40615ZM10.9944 3.18272L9.36912 1.5574C9.27433 1.46494 9.14716 1.41319 9.01474 1.41319C8.88233 1.41319 8.75516 1.46494 8.66037 1.5574L3.84787 6.3699C3.49637 6.76114 3.26809 7.24736 3.19162 7.76772L3.08224 9.08021L3.04724 9.5024L3.46943 9.4674L4.78193 9.35803C5.30202 9.28068 5.78801 9.05251 6.17974 8.70178L10.9922 3.9024C11.0847 3.80762 11.1365 3.68044 11.1365 3.54803C11.1365 3.41561 11.0847 3.28844 10.9922 3.19365L10.9944 3.18272Z" fill="var(--fill-0, #FFFAF4)"/>
</g>
<defs>
<clipPath id="clip0_68_1025">
<rect width="14" height="14" fill="white"/>
</clipPath>
</defs>
</svg>
