<svg preserveAspectRatio="none" width="100%" height="100%" overflow="visible" style="display: block;" viewBox="0 0 23 22" fill="none" xmlns="http://www.w3.org/2000/svg">
<path id="Vector" d="M7.437 0.129164C8.082 -0.146836 8.937 0.0331641 9.417 0.538664C9.957 1.10116 10.833 1.68466 11.394 1.68466C11.949 1.68466 12.825 1.10866 13.356 0.562664C13.7925 0.106664 14.5455 -0.0778358 15.1665 0.105164L15.3495 0.171164L15.4005 0.196664L18.1995 1.75666C18.7875 2.16766 19.0395 2.93116 18.8355 3.60166L18.699 3.96766C18.6281 4.16481 18.5813 4.36979 18.5595 4.57816C18.5239 5.21674 18.7379 5.84414 19.1564 6.32781C19.5749 6.81149 20.1649 7.11354 20.802 7.17016L21.012 7.18066H21.108C21.774 7.18066 22.287 7.71466 22.437 8.51266L22.4895 8.80816L22.5345 9.10216C22.62 9.69016 22.674 10.2542 22.674 10.7327C22.674 11.1137 22.6395 11.5517 22.5825 12.0122L22.5345 12.3632L22.4685 12.7757L22.4385 12.9497C22.299 13.6787 21.8595 14.1902 21.2835 14.2712L21.1245 14.2817H21.0135C19.656 14.2817 18.552 15.3857 18.552 16.7432L18.5565 16.8647C18.5715 17.0237 18.6075 17.1977 18.66 17.3747L18.735 17.5997L18.7665 17.6792C19.0575 18.3317 18.8775 19.1147 18.3465 19.5902L18.192 19.7102L18.138 19.7462L15.2895 21.3137C15.0795 21.4037 14.8545 21.4502 14.6205 21.4502C14.1165 21.4502 13.623 21.2402 13.2975 20.8832C12.7605 20.2907 11.8575 19.6637 11.28 19.6637C10.7325 19.6637 9.8205 20.2682 9.2745 20.8577C8.8395 21.3317 8.085 21.5267 7.4595 21.3422L7.2765 21.2747L7.218 21.2477L4.473 19.7057C4.18817 19.5026 3.97391 19.2156 3.86015 18.8848C3.74639 18.554 3.73882 18.196 3.8385 17.8607L3.975 17.4962L4.014 17.3717C4.0665 17.1992 4.1025 17.0297 4.116 16.8737L4.122 16.7432C4.122 15.4577 3.132 14.3987 1.872 14.2907L1.662 14.2817H1.566C0.9 14.2817 0.387 13.7477 0.237 12.9512C0.0940217 12.2194 0.0147251 11.4766 0 10.7312C0 9.99766 0.1275 9.05716 0.237 8.51266C0.375 7.78366 0.8145 7.27216 1.389 7.19266L1.548 7.18066H1.6605C3.018 7.18066 4.122 6.07666 4.122 4.71916L4.1175 4.59766C4.10056 4.42457 4.06587 4.25367 4.014 4.08766L3.939 3.86266L3.906 3.78466C3.7672 3.46176 3.73336 3.10341 3.80927 2.76024C3.88517 2.41707 4.06697 2.10641 4.329 1.87216L4.4835 1.75216L4.539 1.71616L7.437 0.129164ZM8.085 2.11816L5.925 3.30616L5.967 3.42466C6.066 3.73366 6.138 4.06216 6.168 4.39066L6.183 4.71916C6.1835 5.808 5.79116 6.86046 5.07803 7.68326C4.3649 8.50606 3.37886 9.04396 2.301 9.19816L2.2095 9.20866L2.1795 9.39466C2.1271 9.73729 2.09056 10.0822 2.07 10.4282L2.0625 10.7327C2.0625 11.1152 2.1105 11.5952 2.181 12.0677L2.2095 12.2537L2.301 12.2642C3.33297 12.4117 4.28229 12.9112 4.98832 13.6782C5.69435 14.4452 6.11373 15.4325 6.1755 16.4732L6.1845 16.7432C6.1845 17.1827 6.099 17.6282 5.967 18.0422L5.925 18.1607L7.9305 19.2842L7.962 19.2542C8.127 19.0922 8.328 18.9152 8.55 18.7397L8.778 18.5657C9.648 17.9282 10.488 17.6012 11.28 17.6012C12.0765 17.6012 12.924 17.9342 13.8 18.5822C14.0925 18.8012 14.352 19.0262 14.5695 19.2362L14.649 19.3157L16.7475 18.1577L16.7055 18.0392C16.604 17.7253 16.5366 17.4014 16.5045 17.0732L16.4895 16.7432C16.4891 15.6539 16.8819 14.6011 17.5956 13.7782C18.3093 12.9553 19.2961 12.4177 20.3745 12.2642L20.4645 12.2537L20.4945 12.0632C20.5468 11.722 20.5833 11.3787 20.604 11.0342L20.6115 10.7327C20.6115 10.3517 20.565 9.87766 20.4945 9.39916L20.463 9.20866L20.373 9.19816C19.3408 9.05094 18.3911 8.55156 17.6848 7.78455C16.9784 7.01754 16.5588 6.03002 16.497 4.98916L16.4895 4.71916C16.4895 4.27666 16.5765 3.82966 16.707 3.41866L16.7475 3.30166L14.676 2.15266L14.604 2.22166C14.4269 2.38445 14.2417 2.53815 14.049 2.68216L13.833 2.83966C12.9825 3.43966 12.162 3.74716 11.394 3.74716C10.6185 3.74716 9.792 3.43216 8.934 2.82166C8.6659 2.63135 8.41036 2.42392 8.169 2.20066L8.085 2.11816ZM11.289 6.53866C12.3965 6.54025 13.4581 6.98089 14.2412 7.76398C15.0243 8.54707 15.4649 9.60871 15.4665 10.7162C15.4657 11.824 15.0254 12.8863 14.2422 13.6698C13.4589 14.4533 12.3968 14.894 11.289 14.8952C10.1809 14.8944 9.11842 14.4538 8.33488 13.6703C7.55134 12.8867 7.11079 11.8243 7.11 10.7162C7.11199 9.60871 7.553 8.54723 8.33637 7.76442C9.11975 6.98161 10.1815 6.54135 11.289 6.54016V6.53866ZM11.289 8.60116C10.122 8.60116 9.174 9.55066 9.174 10.7162C9.174 11.8832 10.122 12.8327 11.289 12.8327C12.456 12.8327 13.404 11.8832 13.404 10.7177C13.404 9.55066 12.456 8.60116 11.289 8.60116Z" fill="var(--fill-0, #E4E4E4)"/>
</svg>
