<svg preserveAspectRatio="none" width="100%" height="100%" overflow="visible" style="display: block;" viewBox="0 0 8 9" fill="none" xmlns="http://www.w3.org/2000/svg">
<g id="Vector">
<path d="M2.1235 0.0138631C2.1235 0.0138631 1.4994 -0.113603 0.771935 0.404488C-0.0392365 0.982195 -0.173374 2.3498 0.193813 2.94355C0.561001 3.5373 0.842736 3.93649 0.842736 3.93649C0.842736 3.93649 1.48242 3.93649 2.12255 4.63983C2.12255 4.63983 3.37305 6.13086 4.68555 8.10742C5.26805 8.98464 6.8418 8.4668 7.16992 8.10742C8.08495 7.10525 7.429 5.59522 7.2793 5.31055C6.80273 4.4043 3.74405 0.87362 3.54492 0.646484C2.9903 0.0138631 2.1235 0.0138631 2.1235 0.0138631Z" fill="url(#paint0_radial_32_1419)"/>
<path d="M2.1235 0.0138631C2.1235 0.0138631 1.4994 -0.113603 0.771935 0.404488C-0.0392365 0.982195 -0.173374 2.3498 0.193813 2.94355C0.561001 3.5373 0.842736 3.93649 0.842736 3.93649C0.842736 3.93649 1.48242 3.93649 2.12255 4.63983C2.12255 4.63983 3.37305 6.13086 4.68555 8.10742C5.26805 8.98464 6.8418 8.4668 7.16992 8.10742C8.08495 7.10525 7.429 5.59522 7.2793 5.31055C6.80273 4.4043 3.74405 0.87362 3.54492 0.646484C2.9903 0.0138631 2.1235 0.0138631 2.1235 0.0138631Z" fill="url(#paint1_radial_32_1419)"/>
<path d="M2.1235 0.0138631C2.1235 0.0138631 1.4994 -0.113603 0.771935 0.404488C-0.0392365 0.982195 -0.173374 2.3498 0.193813 2.94355C0.561001 3.5373 0.842736 3.93649 0.842736 3.93649C0.842736 3.93649 1.48242 3.93649 2.12255 4.63983C2.12255 4.63983 3.37305 6.13086 4.68555 8.10742C5.26805 8.98464 6.8418 8.4668 7.16992 8.10742C8.08495 7.10525 7.429 5.59522 7.2793 5.31055C6.80273 4.4043 3.74405 0.87362 3.54492 0.646484C2.9903 0.0138631 2.1235 0.0138631 2.1235 0.0138631Z" fill="url(#paint2_linear_32_1419)"/>
</g>
<defs>
<radialGradient id="paint0_radial_32_1419" cx="0" cy="0" r="1" gradientUnits="userSpaceOnUse" gradientTransform="translate(5.31055 3.56055) rotate(52.9945) scale(42.2626 6.06263)">
<stop offset="0.117759" stop-color="#D0A88F"/>
<stop offset="0.392418" stop-color="#A87D6F"/>
<stop offset="0.602637" stop-color="#876050"/>
</radialGradient>
<radialGradient id="paint1_radial_32_1419" cx="0" cy="0" r="1" gradientUnits="userSpaceOnUse" gradientTransform="translate(2.56055 5.87305) rotate(52.1555) scale(10.289 2.64639)">
<stop stop-color="#714A36"/>
<stop offset="0.498616" stop-color="#A97E70" stop-opacity="0"/>
</radialGradient>
<linearGradient id="paint2_linear_32_1419" x1="8.24805" y1="7.81055" x2="5.36471" y2="6.16988" gradientUnits="userSpaceOnUse">
<stop offset="0.147947" stop-color="#CDA48C"/>
<stop offset="1" stop-color="#CBA38B" stop-opacity="0"/>
</linearGradient>
</defs>
</svg>
