<svg preserveAspectRatio="none" width="100%" height="100%" overflow="visible" style="display: block;" viewBox="0 0 28 28" fill="none" xmlns="http://www.w3.org/2000/svg">
<path id="Subtract" d="M14 0C18.5706 4.27258e-08 22.1032 1.54215 24.4863 4.12988C26.857 6.70421 28 10.2147 28 14C28 17.7853 26.857 21.2958 24.4863 23.8701C22.1032 26.4578 18.5706 28 14 28C9.42942 28 5.89678 26.4578 3.51367 23.8701C1.14298 21.2958 3.82327e-08 17.7853 0 14C0 11.9696 0.329182 10.0183 1 8.24805V10.4141L3.16699 8.24609C2.3958 9.9347 2 11.889 2 14C2 17.3944 3.02314 20.3839 4.98535 22.5146C6.93514 24.6319 9.90228 26 14 26C18.0977 26 21.0649 24.6319 23.0146 22.5146C24.9769 20.3839 26 17.3944 26 14C26 10.6056 24.9769 7.6161 23.0146 5.48535C21.0649 3.3681 18.0977 2 14 2C11.7707 2 9.87613 2.40507 8.29785 3.11523L11.2061 0.207031C12.089 0.0703193 13.0207 0 14 0ZM1.50586 7.0791C2.03328 6.00386 2.70141 5.01192 3.51367 4.12988C4.5187 3.03856 5.72823 2.13332 7.13379 1.45117L1.50586 7.0791Z" fill="var(--fill-0, #212121)"/>
</svg>
