<svg preserveAspectRatio="none" width="100%" height="100%" overflow="visible" style="display: block;" viewBox="0 0 27 32" fill="none" xmlns="http://www.w3.org/2000/svg">
<path id="Union" d="M14.8896 0C15.4796 0 16.0704 0.0998047 16.6504 0.299805C18.3802 0.879831 19.2001 1.98008 19.5801 2.79004C20.46 4.66003 19.9598 6.88029 19.2998 8.78027C19.5598 8.80027 19.8201 8.7998 20.0801 8.7998C22.79 8.79985 24.9902 11 24.9902 13.71C24.9902 14.1799 24.92 14.6499 24.79 15.0898C25.59 15.9298 26.0595 17.0599 26.0596 18.2598C26.0596 19.2496 25.7503 20.1998 25.1904 20.9697C25.4704 21.5797 25.6104 22.2502 25.6104 22.9502C25.6103 24.2401 25.1001 25.4401 24.2402 26.3301C24.2702 26.55 24.29 26.7703 24.29 26.9902C24.2899 29.6901 22.1199 31.8799 19.46 31.8799H14.3799C13.54 31.8799 12.7002 31.8896 11.8604 31.8896H11.7598C10.7196 31.8896 8.01949 31.7402 5.42969 30.3203C2.94974 28.9603 7.85987e-05 26.11 0 20.2402C0 14.0105 3.85967 11.7201 5.50977 10.75C5.69977 10.64 5.90023 10.52 5.99023 10.46C6.97015 9.74998 7.90019 8.71013 8.2002 8.16016C8.5702 7.46016 8.8902 6.49957 9.2002 5.55957C9.45013 4.81974 9.70008 4.04996 10 3.37012C10.91 1.30012 12.7904 0.00976562 14.9004 0.00976562L14.8896 0ZM14.9004 2.00977C13.6104 2.00977 12.4398 2.78993 11.8398 4.16992C11.2098 5.60992 10.74 7.66035 9.95996 9.11035C9.48987 9.97033 8.33 11.2302 7.16016 12.0801C7.00022 12.19 6.78014 12.3198 6.53027 12.4697C4.96027 13.3897 2 15.1405 2 20.2305C2.00028 29.56 10.45 29.8799 11.75 29.8799H11.8301C12.4199 29.8729 13.0049 29.8737 13.5918 29.873C13.0231 29.7849 11.928 29.1075 12.0938 27.1025C12.1018 27.0056 12.1136 26.9179 12.127 26.8389C12.2342 25.8471 12.8482 25.2553 13.1709 25.0732C12.5173 24.6046 12.1085 23.917 12.1084 22.9854C12.1084 21.7643 13.1484 20.7417 13.1709 20.7197C13.1651 20.7146 12.1086 19.7785 12.1084 18.501C12.1084 17.3513 12.6086 16.4231 13.1709 16.1729C12.6085 15.7823 12.1397 15.0788 12.1396 13.8291C12.1396 13.7181 12.1486 13.611 12.1611 13.5078C12.1661 10.8467 14.9354 10.0567 16.7158 9.96191C17.7162 7.32075 19.4545 3.33637 16 2.16992C15.7149 2.07238 15.4353 2.01415 15.1572 1.99121L14.9004 2.00977ZM19.0195 10.7529C18.81 10.7824 18.4598 10.7966 17.9297 10.7852C16.4069 10.7523 15.64 10.962 15.1973 11.2656C15.0192 11.4014 14.8701 11.5657 14.7422 11.7432C14.6699 11.8545 14.6089 11.9678 14.5469 12.0791C14.4752 12.2498 14.3944 12.4289 14.3105 12.6123C14.1782 13.0181 14.124 13.4121 14.124 13.6904C14.1241 14.3768 14.4036 15.264 14.9668 15.8604H20.1396C20.4158 15.8604 20.6396 16.0842 20.6396 16.3604C20.6395 16.6363 20.4157 16.8604 20.1396 16.8604H14.5205C14.2403 17.3791 14.124 17.927 14.124 18.2842C14.1241 19.0351 14.3768 19.8114 14.8906 20.3604H20.1396C20.4158 20.3604 20.6396 20.5842 20.6396 20.8604C20.6395 21.1363 20.4157 21.3604 20.1396 21.3604H14.6699C14.2805 21.9457 14.124 22.6189 14.124 23.0342C14.1241 23.7016 14.3235 24.389 14.7285 24.9189H20.1396C20.4158 24.9189 20.6396 25.1428 20.6396 25.4189C20.6395 25.695 20.4157 25.9189 20.1396 25.9189H14.5918C14.259 26.4276 14.1241 27.0028 14.124 27.3613C14.124 27.659 14.1696 27.9615 14.2617 28.248C14.2677 28.259 14.2744 28.2694 14.2803 28.2803C14.4371 28.8247 15.0585 29.873 17.2676 29.873C17.3091 29.873 17.3488 29.8743 17.3867 29.875C18.0752 29.877 18.7636 29.8799 19.4502 29.8799C21.01 29.8798 22.2801 28.5501 22.2803 26.9902C22.2803 26.4702 22.1396 25.9796 21.8896 25.5596C22.8995 25.1196 23.5994 24.1102 23.5996 22.9404C23.5996 22.0104 23.1597 21.1899 22.4697 20.6699C23.3997 20.2599 24.0498 19.33 24.0498 18.25C24.0498 17.05 23.2501 16.0397 22.1602 15.7197C22.6699 15.1898 22.9804 14.4801 22.9805 13.6904C22.9805 12.0805 21.6802 10.7804 20.0703 10.7803C19.7268 10.7803 19.3743 10.7668 19.0195 10.7529Z" fill="var(--fill-0, #212121)"/>
</svg>
