<svg preserveAspectRatio="none" width="100%" height="100%" overflow="visible" style="display: block;" viewBox="0 0 22 27" fill="none" xmlns="http://www.w3.org/2000/svg">
<g id="Shape">
<path d="M17 1C17 1.55228 16.5523 2 16 2C15.4477 2 15 1.55228 15 1C15 0.447715 15.4477 0 16 0C16.5523 0 17 0.447715 17 1Z" fill="var(--fill-0, #00A6ED)"/>
<path d="M1 19C1.55228 19 2 18.5523 2 18C2 17.4477 1.55228 17 1 17C0.447715 17 0 17.4477 0 18C0 18.5523 0.447715 19 1 19Z" fill="var(--fill-0, #00A6ED)"/>
<path d="M18 27C18.5523 27 19 26.5523 19 26C19 25.4477 18.5523 25 18 25C17.4477 25 17 25.4477 17 26C17 26.5523 17.4477 27 18 27Z" fill="var(--fill-0, #00A6ED)"/>
<path d="M18.3214 11C16.4871 11 15 12.4871 15 14.3214V14.45C15 15.8583 16.1417 17 17.55 17C18.627 17 19.5 16.127 19.5 15.05V14.75C19.5 14.3358 19.1642 14 18.75 14C18.3358 14 18 14.3358 18 14.75V15.05C18 15.2985 17.7985 15.5 17.55 15.5C16.9701 15.5 16.5 15.0299 16.5 14.45V14.3214C16.5 13.3155 17.3155 12.5 18.3214 12.5H18.5C19.6046 12.5 20.5 13.3954 20.5 14.5V14.8611C20.5 16.5947 19.0947 18 17.3611 18H11C10.5858 18 10.25 18.3358 10.25 18.75C10.25 19.1642 10.5858 19.5 11 19.5H17.3611C19.9231 19.5 22 17.4231 22 14.8611V14.5C22 12.567 20.433 11 18.5 11H18.3214Z" fill="var(--fill-0, #00A6ED)"/>
</g>
</svg>
