<svg preserveAspectRatio="none" width="100%" height="100%" overflow="visible" style="display: block;" viewBox="0 0 31 30" fill="none" xmlns="http://www.w3.org/2000/svg">
<g id="Union">
<path d="M2.00045 0.100707C3.21314 -0.258995 4.50034 0.500712 5.00034 1.00071C5.50022 0.500738 7.16842 -0.831085 8.75024 0.750738C10.025 2.02549 9.5004 4.0007 8.5004 5.5007C7.91165 6.38382 6.38407 7.77243 5.15335 8.70995C4.50919 9.20064 3.61366 9.05526 3.06764 8.45727C2.14308 7.44471 0.972926 6.14586 0.400347 5.0007C-0.599653 3.0007 0.400543 0.575264 2.00045 0.100707Z" fill="var(--fill-0, #F70A8D)"/>
<path d="M3.0004 27.0007C1.8823 25.8828 1.50037 24.0007 2.50037 23.0007C3.50035 22.0007 5.50031 22.5007 5.50031 22.5007C5.50031 22.5007 6.0004 21.2507 7.5004 21.5007C9.5004 21.7507 9.7504 24.0007 9.2504 25.5007C8.86835 26.6469 7.94296 27.8693 7.27094 28.6568C6.83885 29.1631 6.10286 29.2358 5.55297 28.8607C4.62841 28.2301 3.31614 27.3164 3.0004 27.0007Z" fill="var(--fill-0, #F70A8D)"/>
<path d="M25.5002 17.5007C25.1669 17.0007 23.5003 15.6007 22.0002 16.1007C20.1029 16.7332 20.0003 19.0007 21.0002 20.5007C21.6255 21.4386 23.3919 23.5343 24.3548 24.6606C24.7113 25.0776 25.3336 25.1235 25.7363 24.7509C26.9403 23.6369 29.27 21.3262 30.0002 19.5007C30.5573 18.108 30.0002 16.0007 28.0002 16.0007C26.4002 16.0007 25.6669 17.0007 25.5002 17.5007Z" fill="var(--fill-0, #F70A8D)"/>
</g>
</svg>
