<svg preserveAspectRatio="none" width="100%" height="100%" overflow="visible" style="display: block;" viewBox="0 0 26 26" fill="none" xmlns="http://www.w3.org/2000/svg">
<g id="&#232;&#174;&#190;&#231;&#189;&#174; 1">
<path id="Vector" d="M8.788 1.521C9.48675 1.222 10.413 1.417 10.933 1.96462C11.518 2.574 12.467 3.20613 13.0747 3.20613C13.676 3.20613 14.625 2.58213 15.2003 1.99063C15.6731 1.49663 16.4889 1.29675 17.1616 1.495L17.3599 1.5665L17.4151 1.59412L20.4474 3.28412C21.0844 3.72937 21.3574 4.5565 21.1364 5.28288L20.9885 5.67937C20.9117 5.89295 20.861 6.11502 20.8374 6.34075C20.7988 7.03254 21.0307 7.71223 21.484 8.2362C21.9373 8.76018 22.5766 9.08741 23.2668 9.14875L23.4943 9.16012H23.5983C24.3198 9.16012 24.8755 9.73862 25.038 10.6031L25.0949 10.9232L25.1436 11.2418C25.2362 11.8788 25.2948 12.4897 25.2948 13.0081C25.2948 13.4209 25.2574 13.8954 25.1956 14.3942L25.1436 14.7745L25.0721 15.2214L25.0396 15.4099C24.8885 16.1996 24.4124 16.7538 23.7884 16.8415L23.6161 16.8529H23.4959C22.0252 16.8529 20.8293 18.0489 20.8293 19.5195L20.8341 19.6511C20.8504 19.8234 20.8894 20.0119 20.9463 20.2036L21.0275 20.4474L21.0616 20.5335C21.3769 21.2404 21.1819 22.0886 20.6066 22.6037L20.4393 22.7337L20.3808 22.7727L17.2949 24.4709C17.0674 24.5684 16.8236 24.6187 16.5701 24.6187C16.0241 24.6187 15.4895 24.3913 15.1369 24.0045C14.5551 23.3626 13.5769 22.6834 12.9512 22.6834C12.3581 22.6834 11.3701 23.3382 10.7786 23.9769C10.3074 24.4904 9.49 24.7016 8.81238 24.5017L8.61413 24.4286L8.55075 24.3994L5.577 22.7289C5.26844 22.5089 5.03632 22.198 4.91308 21.8396C4.78984 21.4813 4.78164 21.0934 4.88963 20.7301L5.0375 20.3352L5.07975 20.2004C5.13662 20.0135 5.17562 19.8299 5.19025 19.6609L5.19675 19.5195C5.19675 18.1269 4.12425 16.9796 2.75925 16.8626L2.53175 16.8529H2.42775C1.70625 16.8529 1.1505 16.2744 0.988 15.4115C0.833107 14.6188 0.747202 13.8141 0.73125 13.0065C0.73125 12.2119 0.869375 11.193 0.988 10.6031C1.1375 9.81337 1.61363 9.25925 2.236 9.17312L2.40825 9.16012H2.53013C4.00075 9.16012 5.19675 7.96413 5.19675 6.4935L5.19187 6.36188C5.17352 6.17435 5.13595 5.98922 5.07975 5.80938L4.9985 5.56563L4.96275 5.48112C4.81238 5.13132 4.77573 4.7431 4.85795 4.37133C4.94018 3.99956 5.13714 3.66302 5.421 3.40925L5.58837 3.27925L5.6485 3.24025L8.788 1.521ZM9.49 3.67575L7.15 4.96275L7.1955 5.09112C7.30275 5.42587 7.38075 5.78175 7.41325 6.13763L7.4295 6.4935C7.43004 7.67307 7.00501 8.81324 6.23245 9.7046C5.45989 10.596 4.39168 11.1787 3.224 11.3457L3.12488 11.3571L3.09238 11.5586C3.03561 11.9298 2.99602 12.3034 2.97375 12.6782L2.96562 13.0081C2.96562 13.4225 3.01762 13.9425 3.094 14.4544L3.12488 14.6559L3.224 14.6672C4.34197 14.8271 5.3704 15.3682 6.13526 16.1991C6.90013 17.03 7.35446 18.0996 7.42138 19.227L7.43113 19.5195C7.43113 19.9956 7.3385 20.4783 7.1955 20.9268L7.15 21.0551L9.32263 22.2723L9.35675 22.2397C9.5355 22.0642 9.75325 21.8725 9.99375 21.6824L10.2408 21.4939C11.1833 20.8033 12.0932 20.449 12.9512 20.449C13.8141 20.449 14.7322 20.8097 15.6812 21.5117C15.9981 21.749 16.2793 21.9927 16.5149 22.2202L16.601 22.3064L18.8744 21.0519L18.8289 20.9235C18.7189 20.5835 18.6459 20.2326 18.6111 19.877L18.5949 19.5195C18.5944 18.3394 19.0199 17.1989 19.7932 16.3074C20.5664 15.416 21.6354 14.8336 22.8036 14.6672L22.9011 14.6559L22.9336 14.4495C22.9902 14.0799 23.0298 13.708 23.0523 13.3348L23.0604 13.0081C23.0604 12.5954 23.01 12.0819 22.9336 11.5635L22.8995 11.3571L22.802 11.3457C21.6837 11.1863 20.6549 10.6453 19.8897 9.81433C19.1245 8.98341 18.67 7.9136 18.603 6.786L18.5949 6.4935C18.5949 6.01413 18.6891 5.52988 18.8305 5.08463L18.8744 4.95788L16.6303 3.71313L16.5523 3.78788C16.3604 3.96423 16.1597 4.13074 15.951 4.28675L15.717 4.45738C14.7956 5.10738 13.9067 5.4405 13.0747 5.4405C12.2346 5.4405 11.3393 5.09925 10.4098 4.43787C10.1193 4.2317 9.84248 4.00699 9.581 3.76512L9.49 3.67575ZM12.961 8.46462C14.1607 8.46634 15.3109 8.9437 16.1592 9.79205C17.0075 10.6404 17.4849 11.7905 17.4866 12.9902C17.4858 14.1904 17.0087 15.3412 16.1602 16.19C15.3118 17.0388 14.1612 17.5162 12.961 17.5175C11.7606 17.5166 10.6095 17.0394 9.7607 16.1905C8.91186 15.3417 8.43461 14.1907 8.43375 12.9902C8.4359 11.7905 8.91367 10.6406 9.76232 9.79253C10.611 8.94448 11.7613 8.46754 12.961 8.46625V8.46462ZM12.961 10.699C11.6968 10.699 10.6698 11.7276 10.6698 12.9902C10.6698 14.2545 11.6968 15.2831 12.961 15.2831C14.2253 15.2831 15.2522 14.2545 15.2522 12.9919C15.2522 11.7276 14.2253 10.699 12.961 10.699Z" fill="var(--fill-0, #E4E4E4)"/>
</g>
</svg>
