<svg preserveAspectRatio="none" width="100%" height="100%" overflow="visible" style="display: block;" viewBox="0 0 23 23" fill="none" xmlns="http://www.w3.org/2000/svg">
<g id="&#229;&#177;&#149;&#229;&#188;&#128; 1">
<path id="Vector" d="M19.5859 4.22266V9.07422C19.5859 9.55938 19.2625 9.88281 18.7773 9.88281C18.2922 9.88281 17.9688 9.55938 17.9688 9.07422V6.16328L13.6832 10.4488C13.5215 10.6105 13.3598 10.6914 13.1172 10.6914C12.8746 10.6914 12.7129 10.6105 12.5512 10.4488C12.4745 10.3758 12.4135 10.288 12.3718 10.1907C12.3301 10.0934 12.3086 9.98867 12.3086 9.88281C12.3086 9.77696 12.3301 9.67221 12.3718 9.57491C12.4135 9.47761 12.4745 9.3898 12.5512 9.3168L16.8367 5.03125H13.9258C13.4406 5.03125 13.1172 4.70781 13.1172 4.22266C13.1172 3.7375 13.4406 3.41406 13.9258 3.41406H18.7773C18.8582 3.41406 19.0199 3.41406 19.1008 3.49492C19.2625 3.57578 19.4242 3.7375 19.5051 3.89922C19.5859 3.98008 19.5859 4.1418 19.5859 4.22266ZM9.3168 12.5512L5.03125 16.8367V13.9258C5.03125 13.4406 4.70781 13.1172 4.22266 13.1172C3.7375 13.1172 3.41406 13.4406 3.41406 13.9258V18.7773C3.41406 18.8582 3.41406 19.0199 3.49492 19.1008C3.57578 19.2625 3.7375 19.4242 3.89922 19.5051C3.98008 19.5859 4.1418 19.5859 4.22266 19.5859H9.07422C9.55938 19.5859 9.88281 19.2625 9.88281 18.7773C9.88281 18.2922 9.55938 17.9688 9.07422 17.9688H6.16328L10.4488 13.6832C10.5255 13.6102 10.5865 13.5224 10.6282 13.4251C10.6699 13.3278 10.6914 13.223 10.6914 13.1172C10.6914 13.0113 10.6699 12.9066 10.6282 12.8093C10.5865 12.712 10.5255 12.6242 10.4488 12.5512C10.3758 12.4745 10.288 12.4135 10.1907 12.3718C10.0934 12.3301 9.98867 12.3086 9.88281 12.3086C9.77696 12.3086 9.67221 12.3301 9.57491 12.3718C9.47761 12.4135 9.3898 12.4745 9.3168 12.5512Z" fill="var(--fill-0, #333333)"/>
</g>
</svg>
