<svg preserveAspectRatio="none" width="100%" height="100%" overflow="visible" style="display: block;" viewBox="0 0 9 10" fill="none" xmlns="http://www.w3.org/2000/svg">
<g id="Vector">
<path d="M4.50897 1.58614C4.50897 1.58614 4.01678 1.04708 3.43084 0.515829C2.84491 -0.015421 1.80584 -0.202921 1.00115 0.273642C0.348556 0.660131 -0.491034 1.74239 0.360528 3.14864C0.360528 3.14864 1.17383 3.14864 1.70508 3.69531C1.70508 3.69531 4.00804 6.22284 5.45508 8.41406C6.36229 9.78784 9.14605 8.95326 8.7832 7.3125C8.59934 6.48109 4.79883 1.96875 4.50897 1.58614Z" fill="url(#paint0_radial_32_1135)"/>
<path d="M4.50897 1.58614C4.50897 1.58614 4.01678 1.04708 3.43084 0.515829C2.84491 -0.015421 1.80584 -0.202921 1.00115 0.273642C0.348556 0.660131 -0.491034 1.74239 0.360528 3.14864C0.360528 3.14864 1.17383 3.14864 1.70508 3.69531C1.70508 3.69531 4.00804 6.22284 5.45508 8.41406C6.36229 9.78784 9.14605 8.95326 8.7832 7.3125C8.59934 6.48109 4.79883 1.96875 4.50897 1.58614Z" fill="url(#paint1_radial_32_1135)"/>
<path d="M4.50897 1.58614C4.50897 1.58614 4.01678 1.04708 3.43084 0.515829C2.84491 -0.015421 1.80584 -0.202921 1.00115 0.273642C0.348556 0.660131 -0.491034 1.74239 0.360528 3.14864C0.360528 3.14864 1.17383 3.14864 1.70508 3.69531C1.70508 3.69531 4.00804 6.22284 5.45508 8.41406C6.36229 9.78784 9.14605 8.95326 8.7832 7.3125C8.59934 6.48109 4.79883 1.96875 4.50897 1.58614Z" fill="url(#paint2_linear_32_1135)"/>
</g>
<defs>
<radialGradient id="paint0_radial_32_1135" cx="0" cy="0" r="1" gradientUnits="userSpaceOnUse" gradientTransform="translate(5.62026 3.90069) rotate(54.4286) scale(42.3162 6.43477)">
<stop offset="0.0126503" stop-color="#D0A88F"/>
<stop offset="0.296062" stop-color="#A77D6F"/>
<stop offset="0.602637" stop-color="#966E5F"/>
</radialGradient>
<radialGradient id="paint1_radial_32_1135" cx="0" cy="0" r="1" gradientUnits="userSpaceOnUse" gradientTransform="translate(2.08008 4.85156) rotate(50.0937) scale(15.9286 2.22533)">
<stop offset="0.101813" stop-color="#7B5844"/>
<stop offset="0.540918" stop-color="#99715B" stop-opacity="0"/>
</radialGradient>
<linearGradient id="paint2_linear_32_1135" x1="9.29883" y1="9.10547" x2="5.73633" y2="6.00781" gradientUnits="userSpaceOnUse">
<stop offset="0.28671" stop-color="#D0A88F"/>
<stop offset="1" stop-color="#D0A88F" stop-opacity="0"/>
</linearGradient>
</defs>
</svg>
