<svg preserveAspectRatio="none" width="100%" height="100%" overflow="visible" style="display: block;" viewBox="0 0 3 3" fill="none" xmlns="http://www.w3.org/2000/svg">
<g id="Vector">
<path d="M2.47812 1.99797L0.49709 2.25597C0.19003 2.29566 -0.0575991 2.0178 0.0117371 1.71018L0.338608 0.340732C0.407944 0.0430272 0.764531 -0.0958906 1.02207 0.0728086L2.67623 1.18423C3.01301 1.4224 2.88424 1.94835 2.47812 1.99797Z" fill="var(--fill-0, #1A80EA)"/>
<path d="M2.47812 1.99797L0.49709 2.25597C0.19003 2.29566 -0.0575991 2.0178 0.0117371 1.71018L0.338608 0.340732C0.407944 0.0430272 0.764531 -0.0958906 1.02207 0.0728086L2.67623 1.18423C3.01301 1.4224 2.88424 1.94835 2.47812 1.99797Z" fill="url(#paint0_linear_146_1626)"/>
<path d="M2.47812 1.99797L0.49709 2.25597C0.19003 2.29566 -0.0575991 2.0178 0.0117371 1.71018L0.338608 0.340732C0.407944 0.0430272 0.764531 -0.0958906 1.02207 0.0728086L2.67623 1.18423C3.01301 1.4224 2.88424 1.94835 2.47812 1.99797Z" fill="url(#paint1_linear_146_1626)"/>
<path d="M2.47812 1.99797L0.49709 2.25597C0.19003 2.29566 -0.0575991 2.0178 0.0117371 1.71018L0.338608 0.340732C0.407944 0.0430272 0.764531 -0.0958906 1.02207 0.0728086L2.67623 1.18423C3.01301 1.4224 2.88424 1.94835 2.47812 1.99797Z" fill="url(#paint2_linear_146_1626)"/>
</g>
<defs>
<linearGradient id="paint0_linear_146_1626" x1="-7.40511e-09" y1="1.12988" x2="0.642537" y2="1.28507" gradientUnits="userSpaceOnUse">
<stop stop-color="#2065A3"/>
<stop offset="1" stop-color="#2067AE" stop-opacity="0"/>
</linearGradient>
<linearGradient id="paint1_linear_146_1626" x1="1.4345" y1="2.61498" x2="1.37473" y2="1.8529" gradientUnits="userSpaceOnUse">
<stop offset="0.605233" stop-color="#1C60FF"/>
<stop offset="1" stop-color="#1963FF" stop-opacity="0"/>
</linearGradient>
<linearGradient id="paint2_linear_146_1626" x1="1.82675" y1="0.474431" x2="1.55031" y2="0.877885" gradientUnits="userSpaceOnUse">
<stop stop-color="#2093F1"/>
<stop offset="1" stop-color="#2294F3" stop-opacity="0"/>
</linearGradient>
</defs>
</svg>
