<svg preserveAspectRatio="none" width="100%" height="100%" overflow="visible" style="display: block;" viewBox="0 0 17 12" fill="none" xmlns="http://www.w3.org/2000/svg">
<path id="Wifi" d="M6.11231 8.95898C7.49091 7.68034 9.51016 7.68016 10.8887 8.95898C10.9579 9.02774 10.9981 9.12508 11 9.22753C11.0019 9.33007 10.9652 9.42913 10.8984 9.50097L8.73926 11.8906C8.67602 11.9606 8.58985 12 8.50001 12C8.41016 12 8.32398 11.9606 8.26075 11.8906L6.10157 9.50097C6.03487 9.42907 5.99803 9.33008 6.00001 9.22753C6.00199 9.12499 6.04291 9.02771 6.11231 8.95898ZM3.1084 6.11034C6.14692 3.29648 10.8531 3.29648 13.8916 6.11034C13.9601 6.17631 13.999 6.26741 14 6.3623C14.0009 6.45701 13.9635 6.54798 13.8965 6.61523L12.6201 7.89941C12.4886 8.03051 12.2756 8.03383 12.1406 7.90624C11.1429 7.00679 9.84502 6.50878 8.49903 6.50878C7.15382 6.50934 5.85652 7.00732 4.85938 7.90624C4.72442 8.03384 4.51142 8.03051 4.37989 7.89941L3.10352 6.61523C3.03647 6.54807 2.99919 6.45699 3.00001 6.3623C3.00091 6.26738 3.03986 6.17631 3.1084 6.11034ZM0.107428 3.19335C4.79922 -1.06448 12.2007 -1.06442 16.8926 3.19335C16.9605 3.25661 16.9994 3.34337 17 3.43358C17.0005 3.52372 16.9636 3.61083 16.8965 3.6748L15.6094 4.90429C15.4768 5.03049 15.2616 5.03147 15.127 4.90722C13.3394 3.29788 10.9665 2.40048 8.50001 2.40038C6.03341 2.40049 3.66077 3.29781 1.87305 4.90722C1.73852 5.03166 1.52312 5.03068 1.39063 4.90429L0.103522 3.6748C0.0365013 3.6108 -0.00055106 3.52371 6.19569e-06 3.43358C0.000632915 3.34337 0.0394625 3.25656 0.107428 3.19335Z" fill="var(--fill-0, black)"/>
</svg>
