<svg preserveAspectRatio="none" width="100%" height="100%" overflow="visible" style="display: block;" viewBox="0 0 31 30" fill="none" xmlns="http://www.w3.org/2000/svg">
<g id="Shape">
<path d="M5.00034 1.00071C4.50034 0.500712 3.21314 -0.258995 2.00045 0.100707C0.400543 0.575264 -0.599653 3.0007 0.400347 5.0007C0.737945 5.6759 1.28329 6.40453 1.86354 7.0964C2.26741 7.57796 2.68817 8.04176 3.06759 8.4573C3.14172 8.53848 3.22228 8.61132 3.30779 8.67535C3.85213 9.08305 4.59663 9.13404 5.15335 8.70995C6.38407 7.77243 7.91165 6.38382 8.5004 5.5007C9.5004 4.0007 10.025 2.02549 8.75024 0.750738C7.16842 -0.831085 5.50022 0.500738 5.00034 1.00071Z" fill="#212121"/>
<path d="M9.95928 0.67076C10.3373 1.27254 10.4954 1.93739 10.5018 2.59547C11.8326 2.21076 13.3297 2.00073 14.9991 2.00073C19.4299 2.00073 22.6471 3.4803 24.7634 5.77833C26.8921 8.08984 27.998 11.3294 27.998 14.9996V15.0008L28.0003 15.0008C28.8123 15.0008 29.4779 15.2562 29.9869 15.6651C29.9943 15.4442 29.998 15.2224 29.998 14.9996C29.998 10.9385 28.7717 7.17858 26.2346 4.4235C23.685 1.65493 19.9028 0.000732473 14.9991 0.000732473C13.1594 0.000732473 11.4775 0.233578 9.95928 0.67076Z" fill="#212121"/>
<path d="M24.6645 24.9031C24.5497 24.8459 24.444 24.7649 24.3548 24.6606C23.3919 23.5343 21.6255 21.4386 21.0002 20.5007C20.0003 19.0007 20.1029 16.7332 22.0002 16.1007C23.5003 15.6007 25.1669 17.0007 25.5002 17.5007C25.6669 17.0007 26.4002 16.0007 28.0002 16.0007C28.1352 16.0007 28.2635 16.0103 28.3855 16.0287C28.5785 16.0577 28.7552 16.1085 28.9162 16.1778C29.354 16.3663 29.6748 16.691 29.8868 17.0829C30.2774 17.805 30.2984 18.7553 30.0002 19.5007C29.7526 20.1199 29.3209 20.7949 28.8115 21.4601C27.8192 22.7559 26.5319 24.0148 25.7364 24.7509C25.5122 24.9583 25.22 25.0361 24.9435 24.9923C24.8475 24.9771 24.7533 24.9472 24.6645 24.9031Z" fill="#212121"/>
<path d="M14.9991 27.9985C18.6815 27.9985 21.5257 26.9765 23.5962 25.3121C24.2225 26.0431 25.2795 26.217 26.0913 25.7288C23.5442 28.4052 19.8118 29.9985 14.9991 29.9985C12.5241 29.9985 10.3348 29.5771 8.44543 28.8037C8.82649 28.3238 9.25043 27.7379 9.60725 27.1101C11.1511 27.6804 12.9447 27.9985 14.9991 27.9985Z" fill="#212121"/>
<path d="M7.50453 28.3774C7.42425 28.4755 7.34601 28.5689 7.27094 28.6568C6.83885 29.1631 6.10286 29.2358 5.55297 28.8607C4.62841 28.2301 3.31614 27.3164 3.0004 27.0007C1.8823 25.8828 1.50037 24.0007 2.50037 23.0007C3.50035 22.0007 5.50031 22.5007 5.50031 22.5007C5.50031 22.5007 6.0004 21.2507 7.5004 21.5007C9.5004 21.7507 9.7504 24.0007 9.2504 25.5007C9.11533 25.9059 8.91236 26.3206 8.67669 26.7223C8.32019 27.3299 7.88887 27.9077 7.50453 28.3774Z" fill="#212121"/>
<path d="M3.37921 21.4742C2.84046 21.5881 2.26294 21.824 1.79327 22.2936C1.73801 22.3489 1.68574 22.4056 1.63635 22.4635C0.537434 20.2435 0.000244134 17.6875 0.000244134 14.9996C0.000244134 12.5268 0.45489 10.1657 1.38328 8.07507C1.71548 8.45893 2.04183 8.81695 2.32912 9.13159C2.50093 9.31974 2.69899 9.48209 2.91493 9.61409C2.30923 11.24 2.00024 13.0596 2.00024 14.9996C2.00024 17.3853 2.46752 19.589 3.37921 21.4742Z" fill="#212121"/>
<path d="M7.9818 10.1916C8.02988 9.94432 8.13995 9.64124 8.3492 9.41326C8.52853 9.21787 8.84723 9.00073 9.50019 9.00073C10.1419 9.00073 10.4687 9.22238 10.6574 9.42952C10.8756 9.66899 10.9807 9.97441 11.0149 10.1718C11.1094 10.716 11.6271 11.0805 12.1713 10.986C12.7154 10.8915 13.0799 10.3738 12.9854 9.82964C12.9064 9.37471 12.6802 8.68013 12.1359 8.08269C11.5623 7.45291 10.6957 7.00073 9.50019 7.00073C8.31588 7.00073 7.45293 7.43203 6.87576 8.06087C6.32851 8.6571 6.10721 9.35402 6.01857 9.80986C5.91316 10.352 6.26719 10.8769 6.80932 10.9823C7.35145 11.0878 7.87639 10.7337 7.9818 10.1916Z" fill="#212121"/>
<path d="M18.982 10.1916C19.0301 9.94432 19.1402 9.64124 19.3494 9.41326C19.5288 9.21787 19.8475 9.00073 20.5004 9.00073C21.1422 9.00073 21.469 9.22238 21.6577 9.42952C21.8758 9.66899 21.9809 9.97441 22.0152 10.1718C22.1097 10.716 22.6274 11.0805 23.1715 10.986C23.7157 10.8915 24.0802 10.3738 23.9857 9.82964C23.9067 9.37471 23.6804 8.68013 23.1362 8.08269C22.5625 7.45291 21.696 7.00073 20.5004 7.00073C19.3161 7.00073 18.4532 7.43203 17.876 8.06087C17.3288 8.6571 17.1075 9.35402 17.0188 9.80986C16.9134 10.352 17.2674 10.8769 17.8096 10.9823C18.3517 11.0878 18.8766 10.7337 18.982 10.1916Z" fill="#212121"/>
<path d="M12.0002 15.0007C12.0002 14.4484 11.5525 14.0007 11.0002 14.0007C10.448 14.0007 10.0002 14.4484 10.0002 15.0007C10.0002 15.8274 10.24 17.0452 10.9887 18.085C11.7741 19.1759 13.0743 20.0007 15.0002 20.0007C16.9262 20.0007 18.2264 19.1759 19.0118 18.085C19.7605 17.0452 20.0002 15.8274 20.0002 15.0007C20.0002 14.4484 19.5525 14.0007 19.0002 14.0007C18.448 14.0007 18.0002 14.4484 18.0002 15.0007C18.0002 15.5074 17.84 16.2896 17.3887 16.9164C16.9741 17.4923 16.2743 18.0007 15.0002 18.0007C13.7262 18.0007 13.0264 17.4923 12.6118 16.9164C12.1605 16.2896 12.0002 15.5074 12.0002 15.0007Z" fill="#212121"/>
</g>
</svg>
