<svg preserveAspectRatio="none" width="100%" height="100%" overflow="visible" style="display: block;" viewBox="0 0 4 9" fill="none" xmlns="http://www.w3.org/2000/svg">
<path id="Union" d="M1 0C2.39213 0 3.51928 1.12746 3.51953 2.51953C3.51953 3.09158 3.32665 3.61708 3.00586 4.04004C3.32646 4.46274 3.51943 4.9878 3.51953 5.55957C3.51953 6.95186 2.39228 8.08008 1 8.08008C0.447728 8.08008 2.06156e-05 7.63235 0 7.08008C0 6.52779 0.447715 6.08008 1 6.08008C1.28772 6.08008 1.51953 5.84729 1.51953 5.55957C1.51928 5.27207 1.28756 5.04004 1 5.04004C0.447729 5.04004 2.16463e-05 4.59231 0 4.04004C0 3.48775 0.447715 3.04004 1 3.04004C1.28772 3.04004 1.51953 2.80724 1.51953 2.51953C1.51928 2.23203 1.28756 2 1 2C0.447715 2 0 1.55228 0 1C0 0.447715 0.447715 0 1 0Z" fill="var(--fill-0, #212121)"/>
</svg>
