<svg preserveAspectRatio="none" width="100%" height="100%" overflow="visible" style="display: block;" viewBox="0 0 20 24" fill="none" xmlns="http://www.w3.org/2000/svg">
<g id="Vector">
<path d="M19.6221 15.0932C19.4455 11.9708 19.3271 10.7339 19.4299 9.22038C19.5328 7.70683 20.3034 4.51301 17.812 4.17635C15.4645 3.85911 15.179 6.36527 15.179 6.36527C15.179 6.36527 12.3916 1.78133 11.4151 0.780642C10.4385 -0.220045 9.39583 -0.134209 8.61036 0.345233C7.8249 0.824675 7.71975 1.85141 7.71975 1.85141C7.71975 1.85141 7.22756 1.31235 6.64162 0.781097C6.05569 0.249847 5.01662 0.0623474 4.21194 0.53891C3.55934 0.925399 2.71974 2.00766 3.57131 3.41391C3.57131 3.41391 2.94721 3.28644 2.21974 3.80453C1.40857 4.38224 1.27443 5.74985 1.64162 6.3436C2.00881 6.93735 2.29028 7.33654 2.29028 7.33654C2.29028 7.33654 1.78047 7.05739 0.712155 7.77404C0.126503 8.1669 -0.382596 9.47656 0.399119 10.6641C1.18083 11.8516 2.02443 12.8053 3.04006 14.3209C4.05568 15.8365 6.74319 20.0865 6.74319 20.0865C8.94631 22.9615 13.0205 24.0684 16.2445 22.11C18.4427 20.7746 19.7987 18.2156 19.6221 15.0932Z" fill="url(#paint0_radial_32_1143)"/>
<path d="M19.6221 15.0932C19.4455 11.9708 19.3271 10.7339 19.4299 9.22038C19.5328 7.70683 20.3034 4.51301 17.812 4.17635C15.4645 3.85911 15.179 6.36527 15.179 6.36527C15.179 6.36527 12.3916 1.78133 11.4151 0.780642C10.4385 -0.220045 9.39583 -0.134209 8.61036 0.345233C7.8249 0.824675 7.71975 1.85141 7.71975 1.85141C7.71975 1.85141 7.22756 1.31235 6.64162 0.781097C6.05569 0.249847 5.01662 0.0623474 4.21194 0.53891C3.55934 0.925399 2.71974 2.00766 3.57131 3.41391C3.57131 3.41391 2.94721 3.28644 2.21974 3.80453C1.40857 4.38224 1.27443 5.74985 1.64162 6.3436C2.00881 6.93735 2.29028 7.33654 2.29028 7.33654C2.29028 7.33654 1.78047 7.05739 0.712155 7.77404C0.126503 8.1669 -0.382596 9.47656 0.399119 10.6641C1.18083 11.8516 2.02443 12.8053 3.04006 14.3209C4.05568 15.8365 6.74319 20.0865 6.74319 20.0865C8.94631 22.9615 13.0205 24.0684 16.2445 22.11C18.4427 20.7746 19.7987 18.2156 19.6221 15.0932Z" fill="url(#paint1_radial_32_1143)"/>
<path d="M19.6221 15.0932C19.4455 11.9708 19.3271 10.7339 19.4299 9.22038C19.5328 7.70683 20.3034 4.51301 17.812 4.17635C15.4645 3.85911 15.179 6.36527 15.179 6.36527C15.179 6.36527 12.3916 1.78133 11.4151 0.780642C10.4385 -0.220045 9.39583 -0.134209 8.61036 0.345233C7.8249 0.824675 7.71975 1.85141 7.71975 1.85141C7.71975 1.85141 7.22756 1.31235 6.64162 0.781097C6.05569 0.249847 5.01662 0.0623474 4.21194 0.53891C3.55934 0.925399 2.71974 2.00766 3.57131 3.41391C3.57131 3.41391 2.94721 3.28644 2.21974 3.80453C1.40857 4.38224 1.27443 5.74985 1.64162 6.3436C2.00881 6.93735 2.29028 7.33654 2.29028 7.33654C2.29028 7.33654 1.78047 7.05739 0.712155 7.77404C0.126503 8.1669 -0.382596 9.47656 0.399119 10.6641C1.18083 11.8516 2.02443 12.8053 3.04006 14.3209C4.05568 15.8365 6.74319 20.0865 6.74319 20.0865C8.94631 22.9615 13.0205 24.0684 16.2445 22.11C18.4427 20.7746 19.7987 18.2156 19.6221 15.0932Z" fill="url(#paint2_radial_32_1143)"/>
<path d="M19.6221 15.0932C19.4455 11.9708 19.3271 10.7339 19.4299 9.22038C19.5328 7.70683 20.3034 4.51301 17.812 4.17635C15.4645 3.85911 15.179 6.36527 15.179 6.36527C15.179 6.36527 12.3916 1.78133 11.4151 0.780642C10.4385 -0.220045 9.39583 -0.134209 8.61036 0.345233C7.8249 0.824675 7.71975 1.85141 7.71975 1.85141C7.71975 1.85141 7.22756 1.31235 6.64162 0.781097C6.05569 0.249847 5.01662 0.0623474 4.21194 0.53891C3.55934 0.925399 2.71974 2.00766 3.57131 3.41391C3.57131 3.41391 2.94721 3.28644 2.21974 3.80453C1.40857 4.38224 1.27443 5.74985 1.64162 6.3436C2.00881 6.93735 2.29028 7.33654 2.29028 7.33654C2.29028 7.33654 1.78047 7.05739 0.712155 7.77404C0.126503 8.1669 -0.382596 9.47656 0.399119 10.6641C1.18083 11.8516 2.02443 12.8053 3.04006 14.3209C4.05568 15.8365 6.74319 20.0865 6.74319 20.0865C8.94631 22.9615 13.0205 24.0684 16.2445 22.11C18.4427 20.7746 19.7987 18.2156 19.6221 15.0932Z" fill="url(#paint3_radial_32_1143)"/>
<path d="M19.6221 15.0932C19.4455 11.9708 19.3271 10.7339 19.4299 9.22038C19.5328 7.70683 20.3034 4.51301 17.812 4.17635C15.4645 3.85911 15.179 6.36527 15.179 6.36527C15.179 6.36527 12.3916 1.78133 11.4151 0.780642C10.4385 -0.220045 9.39583 -0.134209 8.61036 0.345233C7.8249 0.824675 7.71975 1.85141 7.71975 1.85141C7.71975 1.85141 7.22756 1.31235 6.64162 0.781097C6.05569 0.249847 5.01662 0.0623474 4.21194 0.53891C3.55934 0.925399 2.71974 2.00766 3.57131 3.41391C3.57131 3.41391 2.94721 3.28644 2.21974 3.80453C1.40857 4.38224 1.27443 5.74985 1.64162 6.3436C2.00881 6.93735 2.29028 7.33654 2.29028 7.33654C2.29028 7.33654 1.78047 7.05739 0.712155 7.77404C0.126503 8.1669 -0.382596 9.47656 0.399119 10.6641C1.18083 11.8516 2.02443 12.8053 3.04006 14.3209C4.05568 15.8365 6.74319 20.0865 6.74319 20.0865C8.94631 22.9615 13.0205 24.0684 16.2445 22.11C18.4427 20.7746 19.7987 18.2156 19.6221 15.0932Z" fill="url(#paint4_radial_32_1143)"/>
<path d="M19.6221 15.0932C19.4455 11.9708 19.3271 10.7339 19.4299 9.22038C19.5328 7.70683 20.3034 4.51301 17.812 4.17635C15.4645 3.85911 15.179 6.36527 15.179 6.36527C15.179 6.36527 12.3916 1.78133 11.4151 0.780642C10.4385 -0.220045 9.39583 -0.134209 8.61036 0.345233C7.8249 0.824675 7.71975 1.85141 7.71975 1.85141C7.71975 1.85141 7.22756 1.31235 6.64162 0.781097C6.05569 0.249847 5.01662 0.0623474 4.21194 0.53891C3.55934 0.925399 2.71974 2.00766 3.57131 3.41391C3.57131 3.41391 2.94721 3.28644 2.21974 3.80453C1.40857 4.38224 1.27443 5.74985 1.64162 6.3436C2.00881 6.93735 2.29028 7.33654 2.29028 7.33654C2.29028 7.33654 1.78047 7.05739 0.712155 7.77404C0.126503 8.1669 -0.382596 9.47656 0.399119 10.6641C1.18083 11.8516 2.02443 12.8053 3.04006 14.3209C4.05568 15.8365 6.74319 20.0865 6.74319 20.0865C8.94631 22.9615 13.0205 24.0684 16.2445 22.11C18.4427 20.7746 19.7987 18.2156 19.6221 15.0932Z" fill="url(#paint5_radial_32_1143)"/>
</g>
<defs>
<radialGradient id="paint0_radial_32_1143" cx="0" cy="0" r="1" gradientUnits="userSpaceOnUse" gradientTransform="translate(12.6953 8.39844) rotate(57.1596) scale(32.7309 20.5602)">
<stop offset="0.174074" stop-color="#6C5654"/>
<stop offset="0.456741" stop-color="#553839"/>
<stop offset="0.730967" stop-color="#3C1F2A"/>
</radialGradient>
<radialGradient id="paint1_radial_32_1143" cx="0" cy="0" r="1" gradientUnits="userSpaceOnUse" gradientTransform="translate(18.4141 10.2422) rotate(90) scale(7.5 1.84375)">
<stop stop-color="#6C5654"/>
<stop offset="1" stop-color="#6C5654" stop-opacity="0"/>
</radialGradient>
<radialGradient id="paint2_radial_32_1143" cx="0" cy="0" r="1" gradientUnits="userSpaceOnUse" gradientTransform="translate(3.75781 10.0234) rotate(53.6606) scale(6.75029 1.49832)">
<stop stop-color="#6C5654"/>
<stop offset="1" stop-color="#6C5654" stop-opacity="0"/>
</radialGradient>
<radialGradient id="paint3_radial_32_1143" cx="0" cy="0" r="1" gradientUnits="userSpaceOnUse" gradientTransform="translate(9.03906 8.80469) rotate(53.3659) scale(3.03753 1.63772)">
<stop stop-color="#5B4544"/>
<stop offset="1" stop-color="#6C5654" stop-opacity="0"/>
</radialGradient>
<radialGradient id="paint4_radial_32_1143" cx="0" cy="0" r="1" gradientUnits="userSpaceOnUse" gradientTransform="translate(4.94531 2.27344) rotate(72.7725) scale(33.7648 28.7091)">
<stop offset="0.63763" stop-color="#4C3037" stop-opacity="0"/>
<stop offset="0.703717" stop-color="#4C3037"/>
</radialGradient>
<radialGradient id="paint5_radial_32_1143" cx="0" cy="0" r="1" gradientUnits="userSpaceOnUse" gradientTransform="translate(3.44531 19.0234) rotate(47.7621) scale(20.176 6.395)">
<stop offset="0.332283" stop-color="#321D28"/>
<stop offset="1" stop-color="#674F4E" stop-opacity="0"/>
</radialGradient>
</defs>
</svg>
