<svg preserveAspectRatio="none" width="100%" height="100%" overflow="visible" style="display: block;" viewBox="0 0 13 12" fill="none" xmlns="http://www.w3.org/2000/svg">
<g id="Shape">
<path d="M11.8174 7.74722C9.80235 10.0728 7.12166 11.0913 5.74736 11.4846C5.18423 11.6458 4.59333 11.4842 4.17632 11.0728C2.98324 9.89603 0.579119 7.19618 0.0651973 4.11363C-0.652505 -0.191205 4.74528 -1.50353 6.92053 2.04459C12.009 -0.345485 14.7007 4.41947 11.8174 7.74722Z" fill="#CB0C4C"/>
<path d="M11.8174 7.74722C9.80235 10.0728 7.12166 11.0913 5.74736 11.4846C5.18423 11.6458 4.59333 11.4842 4.17632 11.0728C2.98324 9.89603 0.579119 7.19618 0.0651973 4.11363C-0.652505 -0.191205 4.74528 -1.50353 6.92053 2.04459C12.009 -0.345485 14.7007 4.41947 11.8174 7.74722Z" fill="url(#paint0_radial_32_1085)"/>
<path d="M11.8174 7.74722C9.80235 10.0728 7.12166 11.0913 5.74736 11.4846C5.18423 11.6458 4.59333 11.4842 4.17632 11.0728C2.98324 9.89603 0.579119 7.19618 0.0651973 4.11363C-0.652505 -0.191205 4.74528 -1.50353 6.92053 2.04459C12.009 -0.345485 14.7007 4.41947 11.8174 7.74722Z" fill="url(#paint1_linear_32_1085)"/>
<path d="M11.8174 7.74722C9.80235 10.0728 7.12166 11.0913 5.74736 11.4846C5.18423 11.6458 4.59333 11.4842 4.17632 11.0728C2.98324 9.89603 0.579119 7.19618 0.0651973 4.11363C-0.652505 -0.191205 4.74528 -1.50353 6.92053 2.04459C12.009 -0.345485 14.7007 4.41947 11.8174 7.74722Z" fill="url(#paint2_radial_32_1085)"/>
<path d="M11.8174 7.74722C9.80235 10.0728 7.12166 11.0913 5.74736 11.4846C5.18423 11.6458 4.59333 11.4842 4.17632 11.0728C2.98324 9.89603 0.579119 7.19618 0.0651973 4.11363C-0.652505 -0.191205 4.74528 -1.50353 6.92053 2.04459C12.009 -0.345485 14.7007 4.41947 11.8174 7.74722Z" fill="url(#paint3_radial_32_1085)"/>
<path d="M11.8174 7.74722C9.80235 10.0728 7.12166 11.0913 5.74736 11.4846C5.18423 11.6458 4.59333 11.4842 4.17632 11.0728C2.98324 9.89603 0.579119 7.19618 0.0651973 4.11363C-0.652505 -0.191205 4.74528 -1.50353 6.92053 2.04459C12.009 -0.345485 14.7007 4.41947 11.8174 7.74722Z" fill="url(#paint4_radial_32_1085)"/>
<path d="M11.8174 7.74722C9.80235 10.0728 7.12166 11.0913 5.74736 11.4846C5.18423 11.6458 4.59333 11.4842 4.17632 11.0728C2.98324 9.89603 0.579119 7.19618 0.0651973 4.11363C-0.652505 -0.191205 4.74528 -1.50353 6.92053 2.04459C12.009 -0.345485 14.7007 4.41947 11.8174 7.74722Z" fill="url(#paint5_radial_32_1085)"/>
<path d="M11.8174 7.74722C9.80235 10.0728 7.12166 11.0913 5.74736 11.4846C5.18423 11.6458 4.59333 11.4842 4.17632 11.0728C2.98324 9.89603 0.579119 7.19618 0.0651973 4.11363C-0.652505 -0.191205 4.74528 -1.50353 6.92053 2.04459C12.009 -0.345485 14.7007 4.41947 11.8174 7.74722Z" fill="url(#paint6_radial_32_1085)"/>
<path d="M11.8174 7.74722C9.80235 10.0728 7.12166 11.0913 5.74736 11.4846C5.18423 11.6458 4.59333 11.4842 4.17632 11.0728C2.98324 9.89603 0.579119 7.19618 0.0651973 4.11363C-0.652505 -0.191205 4.74528 -1.50353 6.92053 2.04459C12.009 -0.345485 14.7007 4.41947 11.8174 7.74722Z" fill="url(#paint7_radial_32_1085)"/>
<path d="M11.8174 7.74722C9.80235 10.0728 7.12166 11.0913 5.74736 11.4846C5.18423 11.6458 4.59333 11.4842 4.17632 11.0728C2.98324 9.89603 0.579119 7.19618 0.0651973 4.11363C-0.652505 -0.191205 4.74528 -1.50353 6.92053 2.04459C12.009 -0.345485 14.7007 4.41947 11.8174 7.74722Z" fill="url(#paint8_radial_32_1085)"/>
<path d="M11.8174 7.74722C9.80235 10.0728 7.12166 11.0913 5.74736 11.4846C5.18423 11.6458 4.59333 11.4842 4.17632 11.0728C2.98324 9.89603 0.579119 7.19618 0.0651973 4.11363C-0.652505 -0.191205 4.74528 -1.50353 6.92053 2.04459C12.009 -0.345485 14.7007 4.41947 11.8174 7.74722Z" fill="url(#paint9_radial_32_1085)"/>
</g>
<defs>
<radialGradient id="paint0_radial_32_1085" cx="0" cy="0" r="1" gradientUnits="userSpaceOnUse" gradientTransform="translate(5.6668 2.67768) rotate(56.0304) scale(3.73239 2.34474)">
<stop offset="0.363657" stop-color="#EC6686"/>
<stop offset="1" stop-color="#EC6686" stop-opacity="0"/>
</radialGradient>
<linearGradient id="paint1_linear_32_1085" x1="7.171" y1="3.19488" x2="6.23395" y2="3.03424" gradientUnits="userSpaceOnUse">
<stop offset="0.308486" stop-color="#CB0C4C"/>
<stop offset="1" stop-color="#CB0C4C" stop-opacity="0"/>
</linearGradient>
<radialGradient id="paint2_radial_32_1085" cx="0" cy="0" r="1" gradientUnits="userSpaceOnUse" gradientTransform="translate(5.28696 8.42995) rotate(49.9555) scale(7.5548 4.75717)">
<stop stop-color="#F944A5" stop-opacity="0.69"/>
<stop offset="1" stop-color="#F944A5" stop-opacity="0"/>
</radialGradient>
<radialGradient id="paint3_radial_32_1085" cx="0" cy="0" r="1" gradientUnits="userSpaceOnUse" gradientTransform="translate(6.97534 1.7352) rotate(97.2889) scale(2.44055 0.421203)">
<stop stop-color="#CE2356"/>
<stop offset="1" stop-color="#DE265D" stop-opacity="0"/>
</radialGradient>
<radialGradient id="paint4_radial_32_1085" cx="0" cy="0" r="1" gradientUnits="userSpaceOnUse" gradientTransform="translate(9.05813 5.31765) rotate(130.989) scale(4.5923 1.72507)">
<stop stop-color="#E63277"/>
<stop offset="1" stop-color="#E63277" stop-opacity="0"/>
</radialGradient>
<radialGradient id="paint5_radial_32_1085" cx="0" cy="0" r="1" gradientUnits="userSpaceOnUse" gradientTransform="translate(10.5251 3.94382) rotate(137.878) scale(2.72734 1.5626)">
<stop stop-color="#F87797"/>
<stop offset="1" stop-color="#EB6385" stop-opacity="0"/>
</radialGradient>
<radialGradient id="paint6_radial_32_1085" cx="0" cy="0" r="1" gradientUnits="userSpaceOnUse" gradientTransform="translate(4.12007 10.6694) rotate(31.4346) scale(2.78808 1.24588)">
<stop stop-color="#D6246F"/>
<stop offset="1" stop-color="#D6246F" stop-opacity="0"/>
</radialGradient>
<radialGradient id="paint7_radial_32_1085" cx="0" cy="0" r="1" gradientUnits="userSpaceOnUse" gradientTransform="translate(1.97204 8.58746) rotate(45.8212) scale(4.1255 1.8072)">
<stop stop-color="#D6246F"/>
<stop offset="1" stop-color="#D6246F" stop-opacity="0"/>
</radialGradient>
<radialGradient id="paint8_radial_32_1085" cx="0" cy="0" r="1" gradientUnits="userSpaceOnUse" gradientTransform="translate(0.617126 5.24975) rotate(65.4042) scale(5.16089 1.02788)">
<stop stop-color="#D6246F"/>
<stop offset="1" stop-color="#D6246F" stop-opacity="0"/>
</radialGradient>
<radialGradient id="paint9_radial_32_1085" cx="0" cy="0" r="1" gradientUnits="userSpaceOnUse" gradientTransform="translate(10.0634 8.07009) rotate(117.896) scale(3.9331 3.66908)">
<stop stop-color="#F944A5" stop-opacity="0.69"/>
<stop offset="1" stop-color="#F944A5" stop-opacity="0"/>
</radialGradient>
</defs>
</svg>
