<svg preserveAspectRatio="none" width="100%" height="100%" overflow="visible" style="display: block;" viewBox="0 0 18 13" fill="none" xmlns="http://www.w3.org/2000/svg">
<path id="Wifi" d="M6.16309 9.0332C7.55318 7.74384 9.58946 7.74371 10.9795 9.0332C11.0493 9.10247 11.0898 9.20053 11.0918 9.30371C11.0937 9.40711 11.0566 9.50764 10.9893 9.58008L8.8125 11.9893C8.74879 12.0599 8.66186 12.0995 8.57129 12.0996C8.48054 12.0996 8.39291 12.06 8.3291 11.9893L6.15234 9.58008C6.08509 9.50758 6.04781 9.40711 6.0498 9.30371C6.05188 9.20043 6.09317 9.10244 6.16309 9.0332ZM3.13477 6.16113C6.1986 3.32382 10.944 3.32382 14.0078 6.16113C14.0767 6.22753 14.1161 6.31864 14.1172 6.41406C14.1182 6.50969 14.0803 6.60203 14.0127 6.66992L12.7256 7.96484C12.5929 8.09705 12.3783 8.10035 12.2422 7.97168C11.2362 7.06475 9.92749 6.56251 8.57031 6.5625C7.2139 6.56306 5.90584 7.06527 4.90039 7.97168C4.76431 8.10041 4.54965 8.09707 4.41699 7.96484L3.12988 6.66992C3.06228 6.60224 3.0246 6.51049 3.02539 6.41504C3.0263 6.31938 3.06572 6.22765 3.13477 6.16113ZM0.108398 3.21973C4.83942 -1.07376 12.3032 -1.0739 17.0342 3.21973C17.1026 3.28351 17.141 3.371 17.1416 3.46191C17.1421 3.5526 17.1045 3.63966 17.0371 3.7041L15.7393 4.94434C15.6056 5.07158 15.3887 5.07351 15.2529 4.94824C13.4504 3.32538 11.0584 2.42003 8.57129 2.41992C6.08395 2.41993 3.6914 3.32528 1.88867 4.94824C1.75301 5.07355 1.53588 5.07172 1.40234 4.94434L0.104492 3.7041C0.0371591 3.63963 -0.000527855 3.55259 0 3.46191C0.000631942 3.37095 0.0398665 3.28347 0.108398 3.21973Z" fill="var(--fill-0, white)"/>
</svg>
