<svg preserveAspectRatio="none" width="100%" height="100%" overflow="visible" style="display: block;" viewBox="0 0 29 29" fill="none" xmlns="http://www.w3.org/2000/svg">
<g id="Shape">
<path d="M6.05336 2.80925C6.10884 2.88351 6.1859 2.93883 6.274 2.96764C6.36211 2.99645 6.45697 2.99734 6.5456 2.97021C6.63424 2.94307 6.71233 2.88922 6.76921 2.81602C6.82608 2.74282 6.85896 2.65384 6.86336 2.56125L7.00136 0.492246C7.00703 0.418853 6.9949 0.345175 6.96598 0.277481C6.93706 0.209786 6.89222 0.150078 6.83527 0.103437C6.77832 0.0567965 6.71095 0.0246036 6.63888 0.00959702C6.56681 -0.00540952 6.49219 -0.00278548 6.42136 0.0172464L5.06136 0.440246C4.99099 0.46338 4.92713 0.502884 4.87501 0.555509C4.82289 0.608134 4.78401 0.672377 4.76156 0.742958C4.7391 0.813538 4.73372 0.88844 4.74586 0.961505C4.75799 1.03457 4.78729 1.10371 4.83136 1.16325L6.05336 2.80925Z" fill="var(--fill-0, #212121)"/>
<path d="M3.69335 4.43123L1.83335 3.65123C1.76604 3.62386 1.70649 3.58035 1.65995 3.52454C1.61341 3.46873 1.58132 3.40233 1.5665 3.33119C1.55168 3.26006 1.55459 3.18636 1.57497 3.11661C1.59534 3.04686 1.63257 2.9832 1.68335 2.93123L2.65335 1.90123C2.7031 1.84839 2.76491 1.80839 2.8335 1.78467C2.90209 1.76095 2.9754 1.75421 3.04716 1.76502C3.11893 1.77584 3.187 1.80388 3.24555 1.84676C3.3041 1.88964 3.35138 1.94607 3.38335 2.01123L4.27335 3.82123C4.31184 3.90356 4.32461 3.99559 4.31 4.08529C4.29539 4.175 4.25407 4.25822 4.19144 4.32408C4.12882 4.38995 4.04779 4.4354 3.95893 4.45452C3.87008 4.47363 3.77752 4.46551 3.69335 4.43123Z" fill="var(--fill-0, #212121)"/>
<path d="M27.8154 8.56827C28.4636 9.12771 28.8697 9.91664 28.9484 10.7693C28.9523 10.8058 28.9543 10.8425 28.9544 10.8793V20.3243C29.0314 21.8121 28.7116 23.2938 28.0278 24.6174C27.3439 25.9411 26.3205 27.0592 25.0624 27.8573C23.8172 28.6011 22.3918 28.9889 20.9414 28.9783C19.9676 28.9769 19.0009 28.8126 18.0814 28.4923C17.2027 28.816 16.2738 28.9822 15.3374 28.9833C14.0324 28.9953 12.7431 28.6988 11.5746 28.1178C10.4061 27.5369 9.39143 26.6879 8.61338 25.6403L5.14238 19.9733L2.64238 15.7523C2.29393 15.0788 2.18763 14.3061 2.3413 13.5636C2.49497 12.8211 2.89926 12.154 3.48638 11.6743C3.71132 11.5214 3.95081 11.3911 4.20138 11.2853C3.97864 10.6493 3.96526 9.95868 4.16318 9.31453C4.3611 8.67038 4.75995 8.10646 5.30138 7.70526C5.52063 7.57047 5.75156 7.45568 5.99138 7.36226C5.95974 7.1034 5.96209 6.84151 5.99838 6.58326C6.06553 6.12034 6.235 5.6782 6.49447 5.28899C6.75395 4.89979 7.09689 4.5733 7.49838 4.33326C8.05081 4.02436 8.68229 3.88584 9.3133 3.93513C9.9443 3.98442 10.5466 4.21933 11.0444 4.61026C11.2128 4.43153 11.4041 4.27585 11.6134 4.14726C12.2584 3.76076 13.0292 3.64264 13.7604 3.81826C14.1914 3.70304 14.6403 3.6708 15.0834 3.72326C15.6519 3.78462 16.1885 4.01682 16.6224 4.38926C16.7937 4.20674 16.9884 4.04769 17.2014 3.91626C17.8862 3.51283 18.7029 3.39713 19.4728 3.59448C20.2427 3.79183 20.9031 4.28616 21.3094 4.96926L23.3814 8.66926C23.6537 8.38919 23.9785 8.16555 24.3373 8.01112C24.6961 7.85669 25.0818 7.7745 25.4724 7.76926C26.3273 7.72243 27.1672 8.00882 27.8154 8.56827ZM15.9674 12.3373H15.9614L15.9244 12.3633L15.9504 12.3473L15.9674 12.3373ZM9.14495 5.93142C8.93611 5.91654 8.72694 5.95539 8.53738 6.04426V6.04026C8.38796 6.12514 8.2598 6.24289 8.16261 6.38461C8.06541 6.52633 8.00173 6.6883 7.97638 6.85826C7.95028 7.05153 7.9916 7.2479 8.09338 7.41426L9.57738 9.66926C9.60811 9.23844 9.73633 8.82023 9.95236 8.44622C10.1684 8.07221 10.4666 7.75217 10.8244 7.51026C10.8729 7.48069 10.92 7.45917 10.9671 7.43762C10.9997 7.42273 11.0323 7.40783 11.0654 7.39026C10.8067 7.35699 10.5715 7.22339 10.4104 7.01826L9.79138 6.21826C9.76934 6.1898 9.74897 6.16008 9.73038 6.12926C9.55533 6.01441 9.35378 5.94629 9.14495 5.93142ZM6.85738 9.18126C6.67362 9.2341 6.49847 9.31325 6.33738 9.41626L6.34038 9.41226C6.19071 9.59311 6.09243 9.81089 6.05584 10.0428C6.01924 10.2747 6.04568 10.5121 6.13238 10.7303C6.25947 10.9738 6.35362 11.1505 6.42579 11.2859L6.43238 11.2983L7.83738 13.4103C7.9481 12.829 8.21577 12.2892 8.61138 11.8493L6.85738 9.18126ZM6.85238 18.9463L10.2804 24.5463L10.2834 24.5423C10.8826 25.3319 11.6632 25.9657 12.559 26.3901C13.4549 26.8144 14.4398 27.0169 15.4304 26.9803C14.9562 26.5789 14.5342 26.1197 14.1744 25.6133L10.6684 19.8903L9.18738 17.3903C8.97101 17.5102 8.71757 17.5448 8.47697 17.4873C8.23636 17.4297 8.02602 17.2842 7.88738 17.0793L5.20138 13.0563C4.98534 13.1094 4.78162 13.2038 4.60138 13.3343C4.44391 13.5254 4.33829 13.7539 4.29468 13.9977C4.25107 14.2415 4.27094 14.4924 4.35238 14.7263L6.85238 18.9463ZM19.622 26.8787C21.1271 27.1801 22.6905 26.9225 24.0194 26.1543L24.0224 26.1503C24.9697 25.5409 25.7399 24.6928 26.2554 23.6914C26.771 22.6899 27.0138 21.5703 26.9594 20.4453V10.9423C26.9433 10.7705 26.8932 10.6036 26.812 10.4514C26.7307 10.2992 26.62 10.1646 26.4863 10.0556C26.3525 9.94665 26.1984 9.86537 26.0329 9.81655C25.8674 9.76772 25.6939 9.75233 25.5224 9.77126C25.2656 9.7763 25.0196 9.87575 24.8315 10.0506C24.6433 10.2255 24.5262 10.4635 24.5024 10.7193C24.8904 11.4163 25.2124 11.9903 25.3714 12.2653C25.4909 12.4938 25.5176 12.7597 25.4457 13.0074C25.3738 13.2551 25.209 13.4655 24.9857 13.5946C24.7624 13.7236 24.4979 13.7614 24.2474 13.7001C23.9969 13.6387 23.7797 13.4829 23.6414 13.2653C23.4664 12.9633 23.1174 12.3403 22.7024 11.5953L22.6314 11.4683V11.4073C22.6269 11.4006 22.6217 11.3947 22.6165 11.3889C22.6099 11.3815 22.6034 11.3741 22.5984 11.3653L19.5984 6.00626C19.5208 5.84291 19.3977 5.70548 19.2438 5.61055C19.0899 5.51562 18.9118 5.46724 18.7311 5.47126C18.5503 5.47528 18.3745 5.53151 18.225 5.63319C18.0755 5.73486 17.9586 5.87762 17.8884 6.04426C18.1781 6.51159 18.5341 7.08265 18.912 7.68865L19.0234 7.86726C19.9744 9.39826 21.0044 11.0453 21.3414 11.5673C21.4855 11.7899 21.5353 12.0607 21.4798 12.3201C21.4243 12.5794 21.268 12.8061 21.0454 12.9503C20.8227 13.0944 20.5519 13.1442 20.2926 13.0887C20.0332 13.0332 19.8065 12.8769 19.6624 12.6543C19.3134 12.1133 18.2724 10.4473 17.3254 8.92826C17.0225 8.44235 16.7285 7.96986 16.4684 7.55176L16.0624 6.89926L16.0494 6.87826L16.0204 6.83126C16.0162 6.82668 16.0115 6.82272 16.0067 6.81873C16.001 6.814 15.9953 6.80922 15.9904 6.80326L15.3654 5.99026C15.3444 5.96126 15.3234 5.93126 15.3054 5.90126C15.1745 5.78149 15.0047 5.71296 14.8274 5.70826C14.5756 5.66596 14.317 5.70082 14.0854 5.80826C13.9334 5.89491 13.8031 6.01489 13.7042 6.15917C13.6053 6.30345 13.5404 6.46828 13.5144 6.64126C13.489 6.82636 13.5241 7.01471 13.6144 7.17826C14.0788 7.36236 14.5075 7.62597 14.8814 7.95726C15.1898 8.27223 15.4615 8.62112 15.6914 8.99726C15.9704 9.41926 16.2854 9.93526 16.5974 10.4553C16.8304 10.8443 17.0614 11.2363 17.2764 11.6013L17.3576 11.7383C17.6974 12.311 17.9854 12.7966 18.1764 13.0923C18.3211 13.3149 18.3714 13.5859 18.3162 13.8457C18.2611 14.1054 18.105 14.3326 17.8824 14.4773C17.6597 14.6219 17.3887 14.6722 17.129 14.6171C16.8692 14.562 16.6421 14.4059 16.4974 14.1833C16.2689 13.8292 15.922 13.2413 15.5497 12.6102L15.4104 12.3745L15.4094 12.3728C15.2363 12.08 15.059 11.7801 14.8844 11.4893C14.5764 10.9743 14.2784 10.4893 14.0244 10.1043C13.8964 9.90126 13.7814 9.74426 13.6964 9.63126C13.6577 9.57473 13.623 9.53197 13.597 9.50006L13.5964 9.49926C13.5847 9.48498 13.5724 9.4713 13.5594 9.45826C13.3393 9.25971 13.0834 9.10494 12.8054 9.00226C12.7312 8.99151 12.6585 8.97273 12.5884 8.94626C12.3301 8.97707 12.0835 9.07119 11.8704 9.22026C11.7166 9.40402 11.6152 9.62576 11.5766 9.86224C11.5381 10.0987 11.5639 10.3412 11.6514 10.5643L11.9684 11.1533C12.3897 11.3331 12.7814 11.5755 13.1304 11.8723C13.399 12.135 13.6341 12.4299 13.8304 12.7503C14.0464 13.0803 14.2764 13.4693 14.4994 13.8583C14.6334 14.0913 14.7654 14.3253 14.8924 14.5513L14.8994 14.5633L14.9398 14.6349C15.2325 15.153 15.4942 15.6164 15.7084 15.9473C15.7828 16.0575 15.8345 16.1814 15.8604 16.3119C15.8863 16.4423 15.886 16.5766 15.8594 16.7069C15.8328 16.8372 15.7805 16.9609 15.7055 17.0707C15.6305 17.1805 15.5344 17.2743 15.4227 17.3465C15.3111 17.4187 15.1861 17.468 15.0552 17.4913C14.9243 17.5147 14.79 17.5117 14.6603 17.4825C14.5305 17.4533 14.4079 17.3986 14.2996 17.3214C14.1912 17.2443 14.0994 17.1463 14.0294 17.0333C13.7665 16.6285 13.4467 16.0608 13.1358 15.5091C13.0098 15.2851 12.8834 15.0613 12.7614 14.8483C12.5434 14.4673 12.3374 14.1193 12.1544 13.8403C12.0594 13.6993 11.9794 13.5823 11.9154 13.4993C11.8794 13.4511 11.8403 13.4053 11.7984 13.3623C11.5758 13.1781 11.3253 13.0306 11.0564 12.9253C10.9831 12.9131 10.9113 12.893 10.8424 12.8653C10.5768 12.9135 10.3252 13.0197 10.1054 13.1763C9.94602 13.3712 9.83934 13.6037 9.79557 13.8516C9.7518 14.0996 9.77239 14.3546 9.85538 14.5923L12.3794 18.8593L15.8424 24.5173C16.7731 25.7379 18.1168 26.5774 19.622 26.8787Z" fill="var(--fill-0, #212121)"/>
<path d="M1.07036 5.06819L2.80136 6.23019C2.87946 6.28426 2.9393 6.36078 2.97296 6.44961C3.00662 6.53844 3.01251 6.63539 2.98985 6.72764C2.9672 6.8199 2.91706 6.90309 2.84608 6.96622C2.7751 7.02936 2.68663 7.06944 2.59236 7.08119L0.521364 7.35119C0.446741 7.36049 0.370976 7.35151 0.300594 7.32502C0.230212 7.29854 0.167321 7.25535 0.117336 7.19916C0.0673516 7.14298 0.0317714 7.07549 0.0136592 7.0025C-0.00445283 6.92952 -0.00455392 6.85322 0.0133643 6.78019L0.355364 5.34819C0.373957 5.27552 0.409567 5.20831 0.459254 5.15212C0.508941 5.09592 0.57128 5.05235 0.641126 5.025C0.710972 4.99765 0.786322 4.9873 0.860956 4.99481C0.93559 5.00232 1.00737 5.02747 1.07036 5.06819Z" fill="var(--fill-0, #212121)"/>
</g>
</svg>
