<svg preserveAspectRatio="none" width="100%" height="100%" overflow="visible" style="display: block;" viewBox="0 0 12 9" fill="none" xmlns="http://www.w3.org/2000/svg">
<path id="Vector 182 (Stroke)" fill-rule="evenodd" clip-rule="evenodd" d="M4.75 3.32143C4.75 1.48705 6.23705 0 8.07143 0H8.25C10.183 0 11.75 1.567 11.75 3.5V3.86111C11.75 6.4231 9.6731 8.5 7.11111 8.5H0.75C0.335786 8.5 0 8.16421 0 7.75C0 7.33579 0.335786 7 0.75 7H7.11111C8.84467 7 10.25 5.59467 10.25 3.86111V3.5C10.25 2.39543 9.35457 1.5 8.25 1.5H8.07143C7.06548 1.5 6.25 2.31548 6.25 3.32143V3.75C6.25 4.16421 6.58579 4.5 7 4.5C7.13807 4.5 7.25 4.38807 7.25 4.25V3.75C7.25 3.33579 7.58579 3 8 3C8.41421 3 8.75 3.33579 8.75 3.75V4.25C8.75 5.2165 7.9665 6 7 6C5.75736 6 4.75 4.99264 4.75 3.75V3.32143Z" fill="var(--fill-0, #212121)"/>
</svg>
