<svg preserveAspectRatio="none" width="100%" height="100%" overflow="visible" style="display: block;" viewBox="0 0 23 28" fill="none" xmlns="http://www.w3.org/2000/svg">
<path id="Hand" d="M9.82812 2.15935C10.6034 0.386841 12.2979 -0.39159 14.0156 0.190573C15.8598 0.814821 16.6719 2.69 15.6562 5.33063C15.0993 6.77876 14.4455 8.75909 14.4225 8.82874C14.5661 8.80695 14.7131 8.79565 14.8628 8.79565H18.0861C19.6933 8.79565 20.9962 10.0986 20.9962 11.7058C20.9962 12.4941 20.6827 13.2092 20.1736 13.7333C21.2672 14.0532 22.0659 15.0635 22.0659 16.2605C22.0659 17.342 21.4138 18.2712 20.4813 18.6764C21.1665 19.1972 21.6089 20.0209 21.6089 20.948C21.6089 22.1183 20.9038 23.124 19.8953 23.5634C20.1403 23.9825 20.2808 24.4702 20.2808 24.9907C20.2808 26.5547 19.0129 27.8225 17.449 27.8225H15.9251C15.7029 27.8225 15.4866 27.7969 15.2792 27.7485C13.2357 27.7116 10.284 27.6595 9.89062 27.6595C9.87562 27.6595 9.85534 27.6598 9.83008 27.66C8.82817 27.6704 0 27.7614 0 18.2244C0 13.1339 2.95743 11.3863 4.52578 10.4595C4.77782 10.3105 4.994 10.1828 5.15625 10.0658C6.32812 9.2207 7.48903 7.95856 7.95312 7.09625C8.40873 6.2497 8.7582 5.19587 9.09496 4.18033C9.33456 3.4578 9.56773 2.75465 9.82812 2.15935Z" fill="var(--fill-0, #966661)"/>
</svg>
