<svg preserveAspectRatio="none" width="100%" height="100%" overflow="visible" style="display: block;" viewBox="0 0 26 32" fill="none" xmlns="http://www.w3.org/2000/svg">
<path id="Union" d="M9.97698 3.38162C10.8849 1.30448 12.7506 0 14.8557 0C15.4444 0 16.033 0.100345 16.6117 0.301035C18.3377 0.883035 19.1558 1.98683 19.5349 2.79962C20.4129 4.67607 19.914 6.90373 19.2556 8.81028C19.515 8.83035 19.7743 8.83035 20.0337 8.83035C22.7375 8.83035 24.9325 11.0379 24.9325 13.7573C24.9325 14.2289 24.8626 14.7005 24.7329 15.142C25.5311 15.9849 26 17.1188 26 18.323C26 19.3164 25.6907 20.2697 25.132 21.0423C25.4114 21.6544 25.551 22.3267 25.551 23.0292C25.551 24.3236 25.0422 25.5278 24.1842 26.4208C24.2141 26.6416 24.2341 26.8623 24.2341 27.0831C24.2341 29.7924 22.0691 31.99 19.4152 31.99H14.3469C13.9279 31.99 13.5088 31.9925 13.0898 31.995C12.6708 31.9975 12.2517 32 11.8327 32H11.7329C10.6953 32 8.00154 31.8495 5.4175 30.4246C2.94321 29.0599 0 26.2001 0 20.3098C0 14.0583 3.85111 11.7604 5.49731 10.7871C5.68688 10.6767 5.88642 10.5563 5.97621 10.4961C6.95395 9.78363 7.88181 8.74004 8.18112 8.18815C8.55027 7.48573 8.86953 6.52242 9.17882 5.57918L9.26245 5.32946C9.48457 4.66519 9.71109 3.98777 9.97698 3.38162ZM15.9632 2.17748C15.584 2.04704 15.2149 1.98683 14.8457 1.98683C13.5587 1.98683 12.4114 2.79962 11.8127 4.18438C11.5513 4.78542 11.3175 5.49235 11.0775 6.21781C10.7406 7.23646 10.3916 8.29163 9.93707 9.14142C9.46815 10.0044 8.31082 11.2687 7.14352 12.1217C7.0019 12.2196 6.81318 12.3333 6.59825 12.4628L6.51497 12.513C4.94858 13.4362 1.9954 15.1922 1.9954 20.2998C1.9954 29.662 10.4259 29.9831 11.7229 29.9831H11.8028C12.3857 29.9762 12.9639 29.974 13.5439 29.9733C12.9722 29.8743 11.902 29.1884 12.0658 27.1958C12.0733 27.1055 12.0831 27.0231 12.0952 26.9483C12.197 25.9426 12.8172 25.3434 13.1409 25.1598C12.4886 24.6895 12.0809 23.9994 12.0809 23.0643C12.0809 21.8256 13.1409 20.7908 13.1409 20.7908C13.1409 20.7908 12.0809 19.8501 12.0809 18.5644C12.0809 17.4105 12.5797 16.4791 13.1409 16.2283C12.5797 15.8363 12.1121 15.1307 12.1121 13.8764C12.1121 11.2823 14.3443 10.1183 16.6782 9.99369C16.7293 9.85801 16.7823 9.7188 16.8365 9.57662C17.8402 6.94167 19.2322 3.28768 15.9632 2.17748ZM18.0366 10.7907C16.7539 10.7907 16.1805 10.6526 15.1637 11.3037C14.9961 11.4321 14.8521 11.5843 14.7291 11.7505C14.6598 11.854 14.6015 11.9599 14.5439 12.0644C14.5336 12.0832 14.5233 12.1019 14.513 12.1206C14.4381 12.2999 14.3555 12.4895 14.2673 12.6826C14.1416 13.0801 14.0918 13.4641 14.0918 13.7372C14.0918 14.426 14.3703 15.3161 14.9323 15.9147H20.0936C20.3692 15.9147 20.5925 16.1393 20.5925 16.4164C20.5925 16.6935 20.3692 16.9181 20.0936 16.9181H14.4869C14.2072 17.4387 14.0918 17.9883 14.0918 18.3468C14.0918 19.1005 14.3437 19.8793 14.8564 20.4302H20.0936C20.3692 20.4302 20.5925 20.6548 20.5925 20.9319C20.5925 21.209 20.3692 21.4337 20.0936 21.4337H14.6366C14.2478 22.0211 14.0918 22.6964 14.0918 23.1132C14.0918 23.783 14.2908 24.4728 14.695 25.0047H20.0936C20.3692 25.0047 20.5925 25.2293 20.5925 25.5064C20.5925 25.7835 20.3692 26.0082 20.0936 26.0082H14.5578C14.2257 26.5186 14.0918 27.0962 14.0918 27.456C14.0918 27.7541 14.1372 28.0566 14.2287 28.3435L14.2472 28.378C14.4037 28.9243 15.0238 29.9761 17.2278 29.9761C17.3045 29.9761 17.3748 29.9773 17.4391 29.9797C18.0952 29.9816 18.7509 29.9831 19.4052 29.9831C20.9616 29.9831 22.2287 28.6485 22.2287 27.0831C22.2287 26.5613 22.089 26.0696 21.8396 25.6482C22.8473 25.2066 23.5457 24.1932 23.5457 23.0191C23.5457 22.0859 23.1067 21.2631 22.4183 20.7413C23.3461 20.3299 23.9946 19.3967 23.9946 18.313C23.9946 17.1088 23.1965 16.0953 22.109 15.7742C22.6178 15.2424 22.9271 14.5299 22.9271 13.7372C22.9271 12.1217 21.6301 10.8172 20.0238 10.8172C19.684 10.8172 18.3874 10.8044 18.0366 10.7907Z" fill="var(--fill-0, #212121)"/>
</svg>
