<svg preserveAspectRatio="none" width="100%" height="100%" overflow="visible" style="display: block;" viewBox="0 0 9 19" fill="none" xmlns="http://www.w3.org/2000/svg">
<path id="Shadow" d="M3.44926 18.8404C3.20294 18.836 2.95646 18.8317 2.7142 18.8275C0.915321 18.4661 0 17.4533 0 16.2812C0 15.1062 0.708334 14.413 1.0625 14.2133C0.40861 13.7446 0 13.057 0 12.125C0 10.8906 1.0625 9.85938 1.0625 9.85938C1.0625 9.85938 0 8.92188 0 7.64062C0 6.49062 0.5 5.5625 1.0625 5.3125C0.5 4.92188 0.0312498 4.21875 0.0312499 2.96875C0.03125 0.59375 3.01042 0.0312499 4.03125 0L4.03148 0.0202423C2.4579 0.230251 2.0156 2.01997 2.0156 2.83C2.0156 3.51639 2.29467 4.40351 2.85801 5H8.03125C8.30739 5 8.53125 5.22386 8.53125 5.5C8.53125 5.77614 8.30739 6 8.03125 6H2.41153C2.13125 6.51877 2.0156 7.06653 2.0156 7.42375C2.0156 8.17481 2.26804 8.95094 2.78192 9.5H8.03125C8.30739 9.5 8.53125 9.72386 8.53125 10C8.53125 10.2761 8.30739 10.5 8.03125 10.5H2.56164C2.17195 11.0855 2.0156 11.7584 2.0156 12.1738C2.0156 12.8413 2.21502 13.5287 2.62019 14.0588H8.03125C8.30739 14.0588 8.53125 14.2826 8.53125 14.5588C8.53125 14.8349 8.30739 15.0588 8.03125 15.0588H2.48268C2.14979 15.5675 2.0156 16.1431 2.0156 16.5016C2.0156 17.4563 2.48545 18.4567 3.44926 18.8404Z" fill="var(--fill-0, #A9715F)"/>
</svg>
