<svg preserveAspectRatio="none" width="100%" height="100%" overflow="visible" style="display: block;" viewBox="0 0 32 32" fill="none" xmlns="http://www.w3.org/2000/svg">
<g id="Arrow Up">
<path id="Vector" d="M9.20218 14.7346C8.91756 15.0356 8.93078 15.5103 9.23171 15.7949C9.53265 16.0795 10.0073 16.0663 10.292 15.7654L15.2471 10.5263V23.25C15.2471 23.6642 15.5829 24 15.9971 24C16.4113 24 16.7471 23.6642 16.7471 23.25V10.524L21.7043 15.7654C21.989 16.0663 22.4636 16.0795 22.7646 15.7949C23.0655 15.5103 23.0787 15.0356 22.7941 14.7346L16.7247 8.31742C16.5674 8.15112 16.3673 8.05112 16.1585 8.01741C16.1065 8.00601 16.0525 8 15.9971 8C15.9395 8 15.8834 8.00649 15.8295 8.01878C15.6237 8.05377 15.4268 8.15332 15.2716 8.31742L9.20218 14.7346Z" fill="var(--fill-0, white)"/>
</g>
</svg>
