<svg preserveAspectRatio="none" width="100%" height="100%" overflow="visible" style="display: block;" viewBox="0 0 22 22" fill="none" xmlns="http://www.w3.org/2000/svg">
<g id="&#232;&#181;&#158; 1">
<path id="Vector" d="M17.5499 7.04286H14.7612C14.7612 7.04286 15.1249 5.75714 15.3674 3.44286C15.4887 2.28571 14.6399 1.12857 13.4274 1H13.1849C12.2149 1 11.6087 1.64286 11.2449 2.54286L10.5174 4.47143C9.9112 5.75714 9.4262 6.52857 9.06246 6.78571C8.57746 7.04286 6.75872 7.04286 6.63747 7.04286H4.21249C3.485 7.04286 3 7.55714 3 8.2V17.8429C3 18.4857 3.485 19 4.21249 19H16.4587C18.2774 19 18.7624 17.7143 19.0049 15.9143L19.9749 9.74286C20.0961 8.32857 19.8536 7.04286 17.5499 7.04286ZM6.63747 17.8429H4.21249V8.2H6.63747V17.8429ZM18.7624 9.61429L17.7924 15.7857C17.5499 16.9429 17.5499 17.8429 16.3374 17.8429H7.84997V8.2C8.69871 8.2 9.18371 8.07143 9.54745 7.81429C10.1537 7.55714 10.7599 6.52857 11.6087 4.85714C12.0937 3.57143 12.3362 2.92857 12.4574 2.8C12.5787 2.41429 12.8212 2.15714 13.3062 2.15714H13.4274C14.0337 2.15714 14.2762 2.8 14.2762 3.18571C14.0337 5.24286 13.6699 6.52857 13.6699 6.52857L13.1849 8.2H17.7924C18.1561 8.2 18.3986 8.2 18.6411 8.45714C18.8836 8.71429 18.7624 9.22857 18.7624 9.61429Z" fill="var(--fill-0, #221400)"/>
</g>
</svg>
