<svg preserveAspectRatio="none" width="100%" height="100%" overflow="visible" style="display: block;" viewBox="0 0 20 24" fill="none" xmlns="http://www.w3.org/2000/svg">
<g id="Vector">
<path d="M19.6826 15.8728L19.8772 7.49866C19.7762 6.58971 19.9724 5.07181 18.2752 4.65941C16.7346 4.28506 15.1537 6.29414 15.1537 6.29414L12.0083 1.00066C11.2508 -0.151322 9.8183 -0.0126881 9.27299 0.32016C8.49534 0.794832 8.28516 1.65585 8.28516 1.65585C8.28516 1.65585 8.39373 1.65585 7.80078 0.79648C7.20783 -0.0628954 5.96774 -0.235015 5.05859 0.319917C3.85627 1.0538 3.91797 2.61679 4.45703 3.52304C4.40604 3.46797 3.74103 3.1438 2.66797 3.73398C1.73047 4.2496 1.598 5.71054 1.95738 6.50742C2.31675 7.30429 2.41794 7.51523 2.41794 7.51523C2.41794 7.51523 1.57708 7.30115 0.770155 7.84335C0.013941 8.35149 -0.276997 9.60117 0.317643 10.8512C0.317643 10.8512 1.53525 13.5543 2.51963 15.3668C3.504 17.1793 5.03525 19.6168 5.03525 19.6168C7.80088 23.9449 13.0449 24.5188 16.2368 22.5798C18.4132 21.2577 19.8899 18.4639 19.6826 15.8728Z" fill="url(#paint0_linear_146_1772)"/>
<path d="M19.6826 15.8728L19.8772 7.49866C19.7762 6.58971 19.9724 5.07181 18.2752 4.65941C16.7346 4.28506 15.1537 6.29414 15.1537 6.29414L12.0083 1.00066C11.2508 -0.151322 9.8183 -0.0126881 9.27299 0.32016C8.49534 0.794832 8.28516 1.65585 8.28516 1.65585C8.28516 1.65585 8.39373 1.65585 7.80078 0.79648C7.20783 -0.0628954 5.96774 -0.235015 5.05859 0.319917C3.85627 1.0538 3.91797 2.61679 4.45703 3.52304C4.40604 3.46797 3.74103 3.1438 2.66797 3.73398C1.73047 4.2496 1.598 5.71054 1.95738 6.50742C2.31675 7.30429 2.41794 7.51523 2.41794 7.51523C2.41794 7.51523 1.57708 7.30115 0.770155 7.84335C0.013941 8.35149 -0.276997 9.60117 0.317643 10.8512C0.317643 10.8512 1.53525 13.5543 2.51963 15.3668C3.504 17.1793 5.03525 19.6168 5.03525 19.6168C7.80088 23.9449 13.0449 24.5188 16.2368 22.5798C18.4132 21.2577 19.8899 18.4639 19.6826 15.8728Z" fill="url(#paint1_radial_146_1772)"/>
<path d="M19.6826 15.8728L19.8772 7.49866C19.7762 6.58971 19.9724 5.07181 18.2752 4.65941C16.7346 4.28506 15.1537 6.29414 15.1537 6.29414L12.0083 1.00066C11.2508 -0.151322 9.8183 -0.0126881 9.27299 0.32016C8.49534 0.794832 8.28516 1.65585 8.28516 1.65585C8.28516 1.65585 8.39373 1.65585 7.80078 0.79648C7.20783 -0.0628954 5.96774 -0.235015 5.05859 0.319917C3.85627 1.0538 3.91797 2.61679 4.45703 3.52304C4.40604 3.46797 3.74103 3.1438 2.66797 3.73398C1.73047 4.2496 1.598 5.71054 1.95738 6.50742C2.31675 7.30429 2.41794 7.51523 2.41794 7.51523C2.41794 7.51523 1.57708 7.30115 0.770155 7.84335C0.013941 8.35149 -0.276997 9.60117 0.317643 10.8512C0.317643 10.8512 1.53525 13.5543 2.51963 15.3668C3.504 17.1793 5.03525 19.6168 5.03525 19.6168C7.80088 23.9449 13.0449 24.5188 16.2368 22.5798C18.4132 21.2577 19.8899 18.4639 19.6826 15.8728Z" fill="url(#paint2_radial_146_1772)"/>
<path d="M19.6826 15.8728L19.8772 7.49866C19.7762 6.58971 19.9724 5.07181 18.2752 4.65941C16.7346 4.28506 15.1537 6.29414 15.1537 6.29414L12.0083 1.00066C11.2508 -0.151322 9.8183 -0.0126881 9.27299 0.32016C8.49534 0.794832 8.28516 1.65585 8.28516 1.65585C8.28516 1.65585 8.39373 1.65585 7.80078 0.79648C7.20783 -0.0628954 5.96774 -0.235015 5.05859 0.319917C3.85627 1.0538 3.91797 2.61679 4.45703 3.52304C4.40604 3.46797 3.74103 3.1438 2.66797 3.73398C1.73047 4.2496 1.598 5.71054 1.95738 6.50742C2.31675 7.30429 2.41794 7.51523 2.41794 7.51523C2.41794 7.51523 1.57708 7.30115 0.770155 7.84335C0.013941 8.35149 -0.276997 9.60117 0.317643 10.8512C0.317643 10.8512 1.53525 13.5543 2.51963 15.3668C3.504 17.1793 5.03525 19.6168 5.03525 19.6168C7.80088 23.9449 13.0449 24.5188 16.2368 22.5798C18.4132 21.2577 19.8899 18.4639 19.6826 15.8728Z" fill="url(#paint3_radial_146_1772)"/>
</g>
<defs>
<linearGradient id="paint0_linear_146_1772" x1="13.3945" y1="24.1797" x2="7.39453" y2="9.42969" gradientUnits="userSpaceOnUse">
<stop offset="0.122196" stop-color="#93596D"/>
<stop offset="1" stop-color="#9D6B6B"/>
</linearGradient>
<radialGradient id="paint1_radial_146_1772" cx="0" cy="0" r="1" gradientUnits="userSpaceOnUse" gradientTransform="translate(2.58203 8.67969) rotate(76.185) scale(3.92607 3.30127)">
<stop offset="0.126711" stop-color="#B18975"/>
<stop offset="1" stop-color="#9C696C" stop-opacity="0"/>
</radialGradient>
<radialGradient id="paint2_radial_146_1772" cx="0" cy="0" r="1" gradientUnits="userSpaceOnUse" gradientTransform="translate(11.3945 12.5547) rotate(59.3715) scale(12.881 7.42758)">
<stop offset="0.505939" stop-color="#7A4A42"/>
<stop offset="1" stop-color="#955B6D" stop-opacity="0"/>
</radialGradient>
<radialGradient id="paint3_radial_146_1772" cx="0" cy="0" r="1" gradientUnits="userSpaceOnUse" gradientTransform="translate(18.9258 5.80469) rotate(96.3402) scale(2.82981 2.37946)">
<stop stop-color="#986567"/>
<stop offset="1" stop-color="#986567" stop-opacity="0"/>
</radialGradient>
</defs>
</svg>
