<svg preserveAspectRatio="none" width="100%" height="100%" overflow="visible" style="display: block;" viewBox="0 0 20 24" fill="none" xmlns="http://www.w3.org/2000/svg">
<path id="Hand Front" d="M19.1867 15.8639V6.37956C19.0867 5.47956 18.4367 4.27018 16.7492 4.27018C14.7805 4.36393 14.7023 6.37956 14.7023 6.37956L11.7023 1.02021C10.9523 -0.120432 9.72234 -0.199815 8.95234 0.270185C8.18234 0.740185 8.01484 1.69207 8.01484 1.69207L7.38984 0.879568C6.91984 0.109568 5.51334 0.0198928 4.79609 0.457693C3.60561 1.18435 3.43261 2.68889 4.20234 3.52019C4.15185 3.46566 3.56359 3.26195 2.57734 3.86394C1.80734 4.33394 1.5695 5.739 1.9992 6.53582C2.42889 7.33264 2.49139 7.45764 2.49139 7.45764C2.49139 7.45764 1.82733 7.14514 0.780453 7.84827C0.031576 8.35124 -0.236428 9.84395 0.233572 10.6139L2.75483 14.865L6.22483 20.535C8.26484 23.4264 12.6144 24.4248 15.7748 22.505C17.9298 21.1959 19.392 18.4295 19.1867 15.8639Z" fill="var(--fill-0, #966661)"/>
</svg>
