<svg preserveAspectRatio="none" width="100%" height="100%" overflow="visible" style="display: block;" viewBox="0 0 27 27" fill="none" xmlns="http://www.w3.org/2000/svg">
<path id="Emoji" d="M13.45 18.39C11.34 18.39 9.1 18.09 7.06 17.57C6.68 16.99 6.4 16.37 6.27 15.74C8.42 16.35 10.92 16.77 13.46 16.77C16 16.77 18.5 16.35 20.66 15.74C20.51 16.37 20.24 16.99 19.87 17.57C17.83 18.08 15.59 18.39 13.46 18.39H13.45ZM13.45 22.46C17.97 22.46 21.6 19.14 22.1 15.2C22.21 14.41 21.69 14.05 20.99 14.25C18.45 15 16.07 15.42 13.45 15.42C10.83 15.42 8.47 15 5.92 14.25C5.22 14.05 4.71 14.41 4.81 15.2C5.3 19.14 8.92 22.46 13.45 22.46ZM17.35 12.28C18.18 12.28 18.92 11.53 18.92 10.47C18.92 9.41 18.18 8.65 17.35 8.65C16.52 8.65 15.79 9.41 15.79 10.47C15.79 11.53 16.52 12.28 17.35 12.28ZM9.53 12.28C10.37 12.28 11.11 11.53 11.11 10.47C11.11 9.41 10.37 8.65 9.53 8.65C8.69 8.65 7.99 9.41 7.99 10.47C7.99 11.53 8.7 12.28 9.53 12.28ZM13.46 24.63C7.26 24.63 2.29 19.66 2.29 13.45C2.29 7.24 7.25 2.28 13.45 2.28C19.65 2.28 24.64 7.25 24.64 13.46C24.64 19.67 19.67 24.64 13.46 24.64V24.63ZM13.46 26.91C20.82 26.91 26.92 20.81 26.92 13.45C26.92 6.09 20.82 0 13.45 0C6.08 0 0 6.1 0 13.46C0 20.82 6.1 26.92 13.46 26.92V26.91Z" fill="var(--fill-0, #3C3C43)" fill-opacity="0.8"/>
</svg>
