<svg preserveAspectRatio="none" width="100%" height="100%" overflow="visible" style="display: block;" viewBox="0 0 4 4" fill="none" xmlns="http://www.w3.org/2000/svg">
<g id="Party Horn (Stroke)">
<path fill-rule="evenodd" clip-rule="evenodd" d="M0 2.89732C0 1.29718 1.29717 0 2.89732 0H2.95959C3.37381 0 3.70959 0.335786 3.70959 0.75C3.70959 1.16421 3.37381 1.5 2.95959 1.5H2.89732C2.1256 1.5 1.5 2.1256 1.5 2.89732V3.21132C1.5 3.62553 1.16421 3.96132 0.75 3.96132C0.335786 3.96132 0 3.62553 0 3.21132V2.89732Z" fill="var(--fill-0, #00A6ED)"/>
<path fill-rule="evenodd" clip-rule="evenodd" d="M0 2.89732C0 1.29718 1.29717 0 2.89732 0H2.95959C3.37381 0 3.70959 0.335786 3.70959 0.75C3.70959 1.16421 3.37381 1.5 2.95959 1.5H2.89732C2.1256 1.5 1.5 2.1256 1.5 2.89732V3.21132C1.5 3.62553 1.16421 3.96132 0.75 3.96132C0.335786 3.96132 0 3.62553 0 3.21132V2.89732Z" fill="url(#paint0_radial_146_1744)"/>
<path fill-rule="evenodd" clip-rule="evenodd" d="M0 2.89732C0 1.29718 1.29717 0 2.89732 0H2.95959C3.37381 0 3.70959 0.335786 3.70959 0.75C3.70959 1.16421 3.37381 1.5 2.95959 1.5H2.89732C2.1256 1.5 1.5 2.1256 1.5 2.89732V3.21132C1.5 3.62553 1.16421 3.96132 0.75 3.96132C0.335786 3.96132 0 3.62553 0 3.21132V2.89732Z" fill="url(#paint1_radial_146_1744)"/>
<path fill-rule="evenodd" clip-rule="evenodd" d="M0 2.89732C0 1.29718 1.29717 0 2.89732 0H2.95959C3.37381 0 3.70959 0.335786 3.70959 0.75C3.70959 1.16421 3.37381 1.5 2.95959 1.5H2.89732C2.1256 1.5 1.5 2.1256 1.5 2.89732V3.21132C1.5 3.62553 1.16421 3.96132 0.75 3.96132C0.335786 3.96132 0 3.62553 0 3.21132V2.89732Z" fill="url(#paint2_radial_146_1744)"/>
<path fill-rule="evenodd" clip-rule="evenodd" d="M0 2.89732C0 1.29718 1.29717 0 2.89732 0H2.95959C3.37381 0 3.70959 0.335786 3.70959 0.75C3.70959 1.16421 3.37381 1.5 2.95959 1.5H2.89732C2.1256 1.5 1.5 2.1256 1.5 2.89732V3.21132C1.5 3.62553 1.16421 3.96132 0.75 3.96132C0.335786 3.96132 0 3.62553 0 3.21132V2.89732Z" fill="url(#paint3_radial_146_1744)"/>
<path fill-rule="evenodd" clip-rule="evenodd" d="M0 2.89732C0 1.29718 1.29717 0 2.89732 0H2.95959C3.37381 0 3.70959 0.335786 3.70959 0.75C3.70959 1.16421 3.37381 1.5 2.95959 1.5H2.89732C2.1256 1.5 1.5 2.1256 1.5 2.89732V3.21132C1.5 3.62553 1.16421 3.96132 0.75 3.96132C0.335786 3.96132 0 3.62553 0 3.21132V2.89732Z" fill="url(#paint4_radial_146_1744)"/>
</g>
<defs>
<radialGradient id="paint0_radial_146_1744" cx="0" cy="0" r="1" gradientUnits="userSpaceOnUse" gradientTransform="translate(-3.51764 -0.429422) rotate(9.87654) scale(3.80167 6.58153)">
<stop offset="0.328125" stop-color="#1B6AD1"/>
<stop offset="1" stop-color="#2A80F0" stop-opacity="0"/>
</radialGradient>
<radialGradient id="paint1_radial_146_1744" cx="0" cy="0" r="1" gradientUnits="userSpaceOnUse" gradientTransform="translate(0.35508 0.183537) rotate(28.4569) scale(0.985316 1.43729)">
<stop stop-color="#1B6AD1"/>
<stop offset="1" stop-color="#2A80F0" stop-opacity="0"/>
</radialGradient>
<radialGradient id="paint2_radial_146_1744" cx="0" cy="0" r="1" gradientUnits="userSpaceOnUse" gradientTransform="translate(1.65448 5.15242) rotate(-92.8366) scale(3.60392 14.4876)">
<stop stop-color="#1B6AD1"/>
<stop offset="0.601914" stop-color="#2A80F0" stop-opacity="0"/>
</radialGradient>
<radialGradient id="paint3_radial_146_1744" cx="0" cy="0" r="1" gradientUnits="userSpaceOnUse" gradientTransform="translate(3.03933 3.08595) rotate(-130.314) scale(2.81488 2.71541)">
<stop stop-color="#A0D9FF" stop-opacity="0"/>
<stop offset="0.493221" stop-color="#A0D9FF" stop-opacity="0.0663814"/>
<stop offset="0.735331" stop-color="#A0D9FF" stop-opacity="0.47"/>
<stop offset="0.798816" stop-color="#A0D9FF" stop-opacity="0.5"/>
<stop offset="0.83338" stop-color="#A0D9FF" stop-opacity="0.52"/>
<stop offset="0.8682" stop-color="#A0D9FF" stop-opacity="0.46"/>
<stop offset="0.941594" stop-color="#A0D9FF" stop-opacity="0.203845"/>
<stop offset="1" stop-color="#A0D9FF" stop-opacity="0"/>
</radialGradient>
<radialGradient id="paint4_radial_146_1744" cx="0" cy="0" r="1" gradientUnits="userSpaceOnUse" gradientTransform="translate(1.59134 2.84333) rotate(-158.86) scale(0.508232 0.957121)">
<stop stop-color="#00A6ED"/>
<stop offset="0.56047" stop-color="#00A6ED" stop-opacity="0.610887"/>
<stop offset="1" stop-color="#00A6ED" stop-opacity="0"/>
</radialGradient>
</defs>
</svg>
