<svg preserveAspectRatio="none" width="100%" height="100%" overflow="visible" style="display: block;" viewBox="0 0 7 4" fill="none" xmlns="http://www.w3.org/2000/svg">
<g id="Eye Left">
<path d="M6.12055 3.99228C5.57676 4.06025 5.08046 3.67803 5.0059 3.1367C4.97185 2.93472 4.88144 2.73411 4.76623 2.56653C4.59172 2.3127 4.26279 2 3.49652 2C2.73024 2 2.40132 2.3127 2.22681 2.56653C2.12544 2.71398 2.06228 2.86716 2.02522 2.98577C2.02435 2.98855 1.98857 3.1258 1.98866 3.12509C1.91966 3.67253 1.42015 4.06074 0.872483 3.99228C0.310878 3.92208 -0.076539 3.36706 0.0128224 2.81714C0.0172809 2.78971 0.0235338 2.7546 0.0320964 2.7129C0.0829211 2.46541 0.213784 1.9643 0.578726 1.43347C1.09172 0.687302 2.01279 0 3.49652 0C4.98024 0 5.90132 0.687302 6.41431 1.43347C6.84074 2.05373 6.94929 2.62685 6.98021 2.81714C7.06859 3.36106 6.67614 3.92283 6.12055 3.99228Z" fill="var(--fill-0, #583F51)"/>
<path d="M6.12055 3.99228C5.57676 4.06025 5.08046 3.67803 5.0059 3.1367C4.97185 2.93472 4.88144 2.73411 4.76623 2.56653C4.59172 2.3127 4.26279 2 3.49652 2C2.73024 2 2.40132 2.3127 2.22681 2.56653C2.12544 2.71398 2.06228 2.86716 2.02522 2.98577C2.02435 2.98855 1.98857 3.1258 1.98866 3.12509C1.91966 3.67253 1.42015 4.06074 0.872483 3.99228C0.310878 3.92208 -0.076539 3.36706 0.0128224 2.81714C0.0172809 2.78971 0.0235338 2.7546 0.0320964 2.7129C0.0829211 2.46541 0.213784 1.9643 0.578726 1.43347C1.09172 0.687302 2.01279 0 3.49652 0C4.98024 0 5.90132 0.687302 6.41431 1.43347C6.84074 2.05373 6.94929 2.62685 6.98021 2.81714C7.06859 3.36106 6.67614 3.92283 6.12055 3.99228Z" fill="url(#paint0_radial_32_1263)"/>
<path d="M6.12055 3.99228C5.57676 4.06025 5.08046 3.67803 5.0059 3.1367C4.97185 2.93472 4.88144 2.73411 4.76623 2.56653C4.59172 2.3127 4.26279 2 3.49652 2C2.73024 2 2.40132 2.3127 2.22681 2.56653C2.12544 2.71398 2.06228 2.86716 2.02522 2.98577C2.02435 2.98855 1.98857 3.1258 1.98866 3.12509C1.91966 3.67253 1.42015 4.06074 0.872483 3.99228C0.310878 3.92208 -0.076539 3.36706 0.0128224 2.81714C0.0172809 2.78971 0.0235338 2.7546 0.0320964 2.7129C0.0829211 2.46541 0.213784 1.9643 0.578726 1.43347C1.09172 0.687302 2.01279 0 3.49652 0C4.98024 0 5.90132 0.687302 6.41431 1.43347C6.84074 2.05373 6.94929 2.62685 6.98021 2.81714C7.06859 3.36106 6.67614 3.92283 6.12055 3.99228Z" fill="url(#paint1_radial_32_1263)"/>
<path d="M6.12055 3.99228C5.57676 4.06025 5.08046 3.67803 5.0059 3.1367C4.97185 2.93472 4.88144 2.73411 4.76623 2.56653C4.59172 2.3127 4.26279 2 3.49652 2C2.73024 2 2.40132 2.3127 2.22681 2.56653C2.12544 2.71398 2.06228 2.86716 2.02522 2.98577C2.02435 2.98855 1.98857 3.1258 1.98866 3.12509C1.91966 3.67253 1.42015 4.06074 0.872483 3.99228C0.310878 3.92208 -0.076539 3.36706 0.0128224 2.81714C0.0172809 2.78971 0.0235338 2.7546 0.0320964 2.7129C0.0829211 2.46541 0.213784 1.9643 0.578726 1.43347C1.09172 0.687302 2.01279 0 3.49652 0C4.98024 0 5.90132 0.687302 6.41431 1.43347C6.84074 2.05373 6.94929 2.62685 6.98021 2.81714C7.06859 3.36106 6.67614 3.92283 6.12055 3.99228Z" fill="url(#paint2_radial_32_1263)"/>
</g>
<defs>
<radialGradient id="paint0_radial_32_1263" cx="0" cy="0" r="1" gradientUnits="userSpaceOnUse" gradientTransform="translate(3.49644 3.22809) rotate(90) scale(2.78812)">
<stop offset="0.188596" stop-color="#1D1019"/>
<stop offset="1" stop-color="#462B3F" stop-opacity="0"/>
</radialGradient>
<radialGradient id="paint1_radial_32_1263" cx="0" cy="0" r="1" gradientUnits="userSpaceOnUse" gradientTransform="translate(3.49644 3.22809) rotate(90) scale(3.60744 4.09431)">
<stop offset="0.718644" stop-color="#462B3F" stop-opacity="0"/>
<stop offset="1" stop-color="#1D1019"/>
</radialGradient>
<radialGradient id="paint2_radial_32_1263" cx="0" cy="0" r="1" gradientUnits="userSpaceOnUse" gradientTransform="translate(3.49644 1.37497) rotate(90) scale(3.31243 6.95821)">
<stop offset="0.429103" stop-color="#462B3F" stop-opacity="0"/>
<stop offset="1" stop-color="#1D1019"/>
</radialGradient>
</defs>
</svg>
