<svg preserveAspectRatio="none" width="100%" height="100%" overflow="visible" style="display: block;" viewBox="0 0 28 25" fill="none" xmlns="http://www.w3.org/2000/svg">
<path id="Shape" d="M13.9574 3.37781C14.3056 2.91348 14.7798 2.40429 15.3609 1.92527C17.2829 0.341038 20.3756 -0.913064 23.9574 0.877814C29.9574 3.8778 28.4574 11.3778 23.9574 15.8778C21.7617 18.0735 17.8946 21.9406 15.0662 24.0915C14.4128 24.5884 13.5189 24.5662 12.8801 24.0506C10.2874 21.9578 6.12243 18.0429 3.95739 15.8778C-0.542618 11.3778 -2.04261 3.8778 3.95739 0.877814C7.53916 -0.913065 10.6319 0.341042 12.5539 1.92528C13.135 2.40429 13.6091 2.91348 13.9574 3.37781ZM10.0849 2.66959C9.87385 2.55863 9.65351 2.45747 9.42491 2.36936C8.60448 2.05315 7.66372 1.89623 6.61181 2.0752L20.7672 16.2306C21.2856 15.7191 21.7723 15.234 22.211 14.7957L10.0849 2.66959ZM23.2416 13.705C23.7255 13.134 24.152 12.5278 24.5141 11.9046L16.5847 3.50871C16.1583 3.8662 15.8098 4.24132 15.5574 4.57781C15.3456 4.86024 15.0661 5.0775 14.7505 5.21385L23.2416 13.705ZM17.847 2.66065L25.222 10.4695C25.5051 9.77617 25.7062 9.07894 25.8164 8.40106L19.4988 2.08352C19.1447 2.14793 18.8082 2.24665 18.4899 2.36936C18.2674 2.45509 18.0528 2.55319 17.847 2.66065ZM21.6925 2.15592L25.8489 6.31225C25.6166 4.79247 24.76 3.51517 23.063 2.66667C22.5884 2.42937 22.1313 2.26308 21.6925 2.15592ZM19.6956 17.2803L5.00672 2.59143C4.9553 2.61567 4.90366 2.64075 4.85182 2.66667C4.2263 2.97943 3.71497 3.35044 3.307 3.77039L18.2258 18.6892C18.7242 18.2188 19.2176 17.7448 19.6956 17.2803ZM17.1272 19.7119L2.44336 5.02807C2.10622 5.76503 1.97141 6.58951 2.00448 7.47181L15.5777 21.0929C16.0829 20.6572 16.6035 20.1918 17.1272 19.7119ZM14.4212 22.0573L2.57579 10.1702C3.14171 11.6846 4.10433 13.1963 5.37161 14.4636C7.47771 16.5697 11.4803 20.3316 14.0032 22.3864C14.1401 22.2807 14.2795 22.1709 14.4212 22.0573Z" fill="var(--fill-0, #212121)"/>
</svg>
