<svg preserveAspectRatio="none" width="100%" height="100%" overflow="visible" style="display: block;" viewBox="0 0 19 28" fill="none" xmlns="http://www.w3.org/2000/svg">
<g id="Hand">
<path d="M9.82812 2.15935C10.6034 0.386841 12.2979 -0.39159 14.0156 0.190573C15.8598 0.814821 16.6719 2.69 15.6562 5.33063C15.0892 6.80486 14.4219 8.83063 14.4219 8.83063C14.4219 8.83063 13.8095 9.63698 13.5388 9.89803C16.554 11.4385 18.6201 14.5886 18.6201 18.2244C18.6201 19.2094 18.4685 20.1587 18.1874 21.0501L17.25 27.7845C17.25 27.7845 10.5 27.6595 9.89062 27.6595C9.28125 27.6595 0 28.0033 0 18.2244C-1.37111e-07 12.3158 3.98438 10.9109 5.15625 10.0658C6.32812 9.2207 7.48903 7.95856 7.95312 7.09625C8.73288 5.6474 9.20175 3.59136 9.82812 2.15935Z" fill="url(#paint0_radial_32_1217)"/>
<path d="M9.82812 2.15935C10.6034 0.386841 12.2979 -0.39159 14.0156 0.190573C15.8598 0.814821 16.6719 2.69 15.6562 5.33063C15.0892 6.80486 14.4219 8.83063 14.4219 8.83063C14.4219 8.83063 13.8095 9.63698 13.5388 9.89803C16.554 11.4385 18.6201 14.5886 18.6201 18.2244C18.6201 19.2094 18.4685 20.1587 18.1874 21.0501L17.25 27.7845C17.25 27.7845 10.5 27.6595 9.89062 27.6595C9.28125 27.6595 0 28.0033 0 18.2244C-1.37111e-07 12.3158 3.98438 10.9109 5.15625 10.0658C6.32812 9.2207 7.48903 7.95856 7.95312 7.09625C8.73288 5.6474 9.20175 3.59136 9.82812 2.15935Z" fill="url(#paint1_radial_32_1217)"/>
<path d="M9.82812 2.15935C10.6034 0.386841 12.2979 -0.39159 14.0156 0.190573C15.8598 0.814821 16.6719 2.69 15.6562 5.33063C15.0892 6.80486 14.4219 8.83063 14.4219 8.83063C14.4219 8.83063 13.8095 9.63698 13.5388 9.89803C16.554 11.4385 18.6201 14.5886 18.6201 18.2244C18.6201 19.2094 18.4685 20.1587 18.1874 21.0501L17.25 27.7845C17.25 27.7845 10.5 27.6595 9.89062 27.6595C9.28125 27.6595 0 28.0033 0 18.2244C-1.37111e-07 12.3158 3.98438 10.9109 5.15625 10.0658C6.32812 9.2207 7.48903 7.95856 7.95312 7.09625C8.73288 5.6474 9.20175 3.59136 9.82812 2.15935Z" fill="url(#paint2_radial_32_1217)"/>
<path d="M9.82812 2.15935C10.6034 0.386841 12.2979 -0.39159 14.0156 0.190573C15.8598 0.814821 16.6719 2.69 15.6562 5.33063C15.0892 6.80486 14.4219 8.83063 14.4219 8.83063C14.4219 8.83063 13.8095 9.63698 13.5388 9.89803C16.554 11.4385 18.6201 14.5886 18.6201 18.2244C18.6201 19.2094 18.4685 20.1587 18.1874 21.0501L17.25 27.7845C17.25 27.7845 10.5 27.6595 9.89062 27.6595C9.28125 27.6595 0 28.0033 0 18.2244C-1.37111e-07 12.3158 3.98438 10.9109 5.15625 10.0658C6.32812 9.2207 7.48903 7.95856 7.95312 7.09625C8.73288 5.6474 9.20175 3.59136 9.82812 2.15935Z" fill="url(#paint3_linear_32_1217)"/>
<path d="M9.82812 2.15935C10.6034 0.386841 12.2979 -0.39159 14.0156 0.190573C15.8598 0.814821 16.6719 2.69 15.6562 5.33063C15.0892 6.80486 14.4219 8.83063 14.4219 8.83063C14.4219 8.83063 13.8095 9.63698 13.5388 9.89803C16.554 11.4385 18.6201 14.5886 18.6201 18.2244C18.6201 19.2094 18.4685 20.1587 18.1874 21.0501L17.25 27.7845C17.25 27.7845 10.5 27.6595 9.89062 27.6595C9.28125 27.6595 0 28.0033 0 18.2244C-1.37111e-07 12.3158 3.98438 10.9109 5.15625 10.0658C6.32812 9.2207 7.48903 7.95856 7.95312 7.09625C8.73288 5.6474 9.20175 3.59136 9.82812 2.15935Z" fill="url(#paint4_radial_32_1217)"/>
<path d="M9.82812 2.15935C10.6034 0.386841 12.2979 -0.39159 14.0156 0.190573C15.8598 0.814821 16.6719 2.69 15.6562 5.33063C15.0892 6.80486 14.4219 8.83063 14.4219 8.83063C14.4219 8.83063 13.8095 9.63698 13.5388 9.89803C16.554 11.4385 18.6201 14.5886 18.6201 18.2244C18.6201 19.2094 18.4685 20.1587 18.1874 21.0501L17.25 27.7845C17.25 27.7845 10.5 27.6595 9.89062 27.6595C9.28125 27.6595 0 28.0033 0 18.2244C-1.37111e-07 12.3158 3.98438 10.9109 5.15625 10.0658C6.32812 9.2207 7.48903 7.95856 7.95312 7.09625C8.73288 5.6474 9.20175 3.59136 9.82812 2.15935Z" fill="url(#paint5_radial_32_1217)"/>
<path d="M9.82812 2.15935C10.6034 0.386841 12.2979 -0.39159 14.0156 0.190573C15.8598 0.814821 16.6719 2.69 15.6562 5.33063C15.0892 6.80486 14.4219 8.83063 14.4219 8.83063C14.4219 8.83063 13.8095 9.63698 13.5388 9.89803C16.554 11.4385 18.6201 14.5886 18.6201 18.2244C18.6201 19.2094 18.4685 20.1587 18.1874 21.0501L17.25 27.7845C17.25 27.7845 10.5 27.6595 9.89062 27.6595C9.28125 27.6595 0 28.0033 0 18.2244C-1.37111e-07 12.3158 3.98438 10.9109 5.15625 10.0658C6.32812 9.2207 7.48903 7.95856 7.95312 7.09625C8.73288 5.6474 9.20175 3.59136 9.82812 2.15935Z" fill="url(#paint6_radial_32_1217)"/>
<path d="M9.82812 2.15935C10.6034 0.386841 12.2979 -0.39159 14.0156 0.190573C15.8598 0.814821 16.6719 2.69 15.6562 5.33063C15.0892 6.80486 14.4219 8.83063 14.4219 8.83063C14.4219 8.83063 13.8095 9.63698 13.5388 9.89803C16.554 11.4385 18.6201 14.5886 18.6201 18.2244C18.6201 19.2094 18.4685 20.1587 18.1874 21.0501L17.25 27.7845C17.25 27.7845 10.5 27.6595 9.89062 27.6595C9.28125 27.6595 0 28.0033 0 18.2244C-1.37111e-07 12.3158 3.98438 10.9109 5.15625 10.0658C6.32812 9.2207 7.48903 7.95856 7.95312 7.09625C8.73288 5.6474 9.20175 3.59136 9.82812 2.15935Z" fill="url(#paint7_radial_32_1217)"/>
<path d="M9.82812 2.15935C10.6034 0.386841 12.2979 -0.39159 14.0156 0.190573C15.8598 0.814821 16.6719 2.69 15.6562 5.33063C15.0892 6.80486 14.4219 8.83063 14.4219 8.83063C14.4219 8.83063 13.8095 9.63698 13.5388 9.89803C16.554 11.4385 18.6201 14.5886 18.6201 18.2244C18.6201 19.2094 18.4685 20.1587 18.1874 21.0501L17.25 27.7845C17.25 27.7845 10.5 27.6595 9.89062 27.6595C9.28125 27.6595 0 28.0033 0 18.2244C-1.37111e-07 12.3158 3.98438 10.9109 5.15625 10.0658C6.32812 9.2207 7.48903 7.95856 7.95312 7.09625C8.73288 5.6474 9.20175 3.59136 9.82812 2.15935Z" fill="url(#paint8_radial_32_1217)"/>
</g>
<defs>
<radialGradient id="paint0_radial_32_1217" cx="0" cy="0" r="1" gradientUnits="userSpaceOnUse" gradientTransform="translate(16.5312 19.002) rotate(-180) scale(24.75 22.4375)">
<stop stop-color="#FFCFCF"/>
<stop offset="0.507576" stop-color="#F6C2B1"/>
<stop offset="0.689394" stop-color="#D49C95"/>
<stop offset="1" stop-color="#FFDFDA"/>
</radialGradient>
<radialGradient id="paint1_radial_32_1217" cx="0" cy="0" r="1" gradientUnits="userSpaceOnUse" gradientTransform="translate(9.31055 18.0645) rotate(75.9588) scale(22.0333 22.3239)">
<stop offset="0.345735" stop-color="#D7A284" stop-opacity="0"/>
<stop offset="0.427604" stop-color="#D7A284"/>
</radialGradient>
<radialGradient id="paint2_radial_32_1217" cx="0" cy="0" r="1" gradientUnits="userSpaceOnUse" gradientTransform="translate(14.0938 20.752) rotate(85.3196) scale(10.7233 7.65537)">
<stop offset="0.529843" stop-color="#D49E99"/>
<stop offset="1" stop-color="#D49E99" stop-opacity="0"/>
</radialGradient>
<linearGradient id="paint3_linear_32_1217" x1="6.53125" y1="28.252" x2="6.53125" y2="17.127" gradientUnits="userSpaceOnUse">
<stop stop-color="#BF8496"/>
<stop offset="1" stop-color="#BF8496" stop-opacity="0"/>
</linearGradient>
<radialGradient id="paint4_radial_32_1217" cx="0" cy="0" r="1" gradientUnits="userSpaceOnUse" gradientTransform="translate(14.0312 13.4395) rotate(-1.52076) scale(7.06499 5.31174)">
<stop offset="0.193422" stop-color="#985751"/>
<stop offset="0.643579" stop-color="#CB949C" stop-opacity="0"/>
</radialGradient>
<radialGradient id="paint5_radial_32_1217" cx="0" cy="0" r="1" gradientUnits="userSpaceOnUse" gradientTransform="translate(13.1563 17.5645) rotate(-6.14661) scale(8.17198 7.57925)">
<stop offset="0.215957" stop-color="#985751"/>
<stop offset="0.701321" stop-color="#CB949C" stop-opacity="0"/>
</radialGradient>
<radialGradient id="paint6_radial_32_1217" cx="0" cy="0" r="1" gradientUnits="userSpaceOnUse" gradientTransform="translate(14.0313 20.9707) rotate(0.753843) scale(7.12562 9.54108)">
<stop offset="0.287032" stop-color="#985751"/>
<stop offset="0.569673" stop-color="#CB949C" stop-opacity="0"/>
</radialGradient>
<radialGradient id="paint7_radial_32_1217" cx="0" cy="0" r="1" gradientUnits="userSpaceOnUse" gradientTransform="translate(14.2812 24.5645) rotate(-15.3885) scale(7.06582 7.56448)">
<stop offset="0.174171" stop-color="#985751"/>
<stop offset="0.643579" stop-color="#CB949C" stop-opacity="0"/>
</radialGradient>
<radialGradient id="paint8_radial_32_1217" cx="0" cy="0" r="1" gradientUnits="userSpaceOnUse" gradientTransform="translate(12.8438 9.75195) rotate(64.5367) scale(1.45371 3.35617)">
<stop offset="0.4792" stop-color="#FCC8B3"/>
<stop offset="1" stop-color="#FCC8B3" stop-opacity="0"/>
</radialGradient>
</defs>
</svg>
