<svg preserveAspectRatio="none" width="100%" height="100%" overflow="visible" style="display: block;" viewBox="0 0 28 28" fill="none" xmlns="http://www.w3.org/2000/svg">
<g id="Circle">
<path d="M13.9989 27.9978C23.3333 27.9978 27.9978 21.7303 27.9978 13.9989C27.9978 6.26751 23.3333 0 13.9989 0C4.66443 0 0 6.26751 0 13.9989C0 21.7303 4.66443 27.9978 13.9989 27.9978Z" fill="url(#paint0_radial_32_1305)"/>
<path d="M13.9989 27.9978C23.3333 27.9978 27.9978 21.7303 27.9978 13.9989C27.9978 6.26751 23.3333 0 13.9989 0C4.66443 0 0 6.26751 0 13.9989C0 21.7303 4.66443 27.9978 13.9989 27.9978Z" fill="url(#paint1_radial_32_1305)"/>
<path d="M13.9989 27.9978C23.3333 27.9978 27.9978 21.7303 27.9978 13.9989C27.9978 6.26751 23.3333 0 13.9989 0C4.66443 0 0 6.26751 0 13.9989C0 21.7303 4.66443 27.9978 13.9989 27.9978Z" fill="url(#paint2_radial_32_1305)"/>
<path d="M13.9989 27.9978C23.3333 27.9978 27.9978 21.7303 27.9978 13.9989C27.9978 6.26751 23.3333 0 13.9989 0C4.66443 0 0 6.26751 0 13.9989C0 21.7303 4.66443 27.9978 13.9989 27.9978Z" fill="url(#paint3_radial_32_1305)" fill-opacity="0.6"/>
<path d="M13.9989 27.9978C23.3333 27.9978 27.9978 21.7303 27.9978 13.9989C27.9978 6.26751 23.3333 0 13.9989 0C4.66443 0 0 6.26751 0 13.9989C0 21.7303 4.66443 27.9978 13.9989 27.9978Z" fill="url(#paint4_radial_32_1305)"/>
<path d="M13.9989 27.9978C23.3333 27.9978 27.9978 21.7303 27.9978 13.9989C27.9978 6.26751 23.3333 0 13.9989 0C4.66443 0 0 6.26751 0 13.9989C0 21.7303 4.66443 27.9978 13.9989 27.9978Z" fill="url(#paint5_radial_32_1305)"/>
<path d="M13.9989 27.9978C23.3333 27.9978 27.9978 21.7303 27.9978 13.9989C27.9978 6.26751 23.3333 0 13.9989 0C4.66443 0 0 6.26751 0 13.9989C0 21.7303 4.66443 27.9978 13.9989 27.9978Z" fill="url(#paint6_radial_32_1305)"/>
<path d="M13.9989 27.9978C23.3333 27.9978 27.9978 21.7303 27.9978 13.9989C27.9978 6.26751 23.3333 0 13.9989 0C4.66443 0 0 6.26751 0 13.9989C0 21.7303 4.66443 27.9978 13.9989 27.9978Z" fill="url(#paint7_radial_32_1305)"/>
<path d="M13.9989 27.9978C23.3333 27.9978 27.9978 21.7303 27.9978 13.9989C27.9978 6.26751 23.3333 0 13.9989 0C4.66443 0 0 6.26751 0 13.9989C0 21.7303 4.66443 27.9978 13.9989 27.9978Z" fill="url(#paint8_radial_32_1305)"/>
<path d="M13.9989 27.9978C23.3333 27.9978 27.9978 21.7303 27.9978 13.9989C27.9978 6.26751 23.3333 0 13.9989 0C4.66443 0 0 6.26751 0 13.9989C0 21.7303 4.66443 27.9978 13.9989 27.9978Z" fill="url(#paint9_radial_32_1305)"/>
<path d="M13.9989 27.9978C23.3333 27.9978 27.9978 21.7303 27.9978 13.9989C27.9978 6.26751 23.3333 0 13.9989 0C4.66443 0 0 6.26751 0 13.9989C0 21.7303 4.66443 27.9978 13.9989 27.9978Z" fill="url(#paint10_radial_32_1305)"/>
<path d="M13.9989 27.9978C23.3333 27.9978 27.9978 21.7303 27.9978 13.9989C27.9978 6.26751 23.3333 0 13.9989 0C4.66443 0 0 6.26751 0 13.9989C0 21.7303 4.66443 27.9978 13.9989 27.9978Z" fill="url(#paint11_radial_32_1305)"/>
</g>
<defs>
<radialGradient id="paint0_radial_32_1305" cx="0" cy="0" r="1" gradientUnits="userSpaceOnUse" gradientTransform="translate(23.5 7) rotate(132.839) scale(37.5033)">
<stop stop-color="#FFF478"/>
<stop offset="0.474827" stop-color="#FFB02E"/>
<stop offset="1" stop-color="#F70A8D"/>
</radialGradient>
<radialGradient id="paint1_radial_32_1305" cx="0" cy="0" r="1" gradientUnits="userSpaceOnUse" gradientTransform="translate(23.5 7) rotate(131.878) scale(38.9487)">
<stop stop-color="#FFF478"/>
<stop offset="0.474827" stop-color="#FFB02E"/>
<stop offset="1" stop-color="#F70A8D"/>
</radialGradient>
<radialGradient id="paint2_radial_32_1305" cx="0" cy="0" r="1" gradientUnits="userSpaceOnUse" gradientTransform="translate(14 10.5) rotate(101.31) scale(17.8466 22.8581)">
<stop offset="0.787821" stop-color="#F59639" stop-opacity="0"/>
<stop offset="0.972509" stop-color="#FF7DCE"/>
</radialGradient>
<radialGradient id="paint3_radial_32_1305" cx="0" cy="0" r="1" gradientUnits="userSpaceOnUse" gradientTransform="translate(16 12) rotate(135) scale(41.0122)">
<stop offset="0.314853" stop-opacity="0"/>
<stop offset="1"/>
</radialGradient>
<radialGradient id="paint4_radial_32_1305" cx="0" cy="0" r="1" gradientUnits="userSpaceOnUse" gradientTransform="translate(14 15) rotate(77.692) scale(28.1469)">
<stop offset="0.507903" stop-color="#7D6133" stop-opacity="0"/>
<stop offset="1" stop-color="#715B32"/>
</radialGradient>
<radialGradient id="paint5_radial_32_1305" cx="0" cy="0" r="1" gradientUnits="userSpaceOnUse" gradientTransform="translate(14.5 14.5) rotate(55.7131) scale(13.3135 9.65032)">
<stop stop-color="#FFB849"/>
<stop offset="1" stop-color="#FFB847" stop-opacity="0"/>
</radialGradient>
<radialGradient id="paint6_radial_32_1305" cx="0" cy="0" r="1" gradientUnits="userSpaceOnUse" gradientTransform="translate(18.5 16) rotate(9.86581) scale(11.6726)">
<stop stop-color="#FFA64B"/>
<stop offset="0.900412" stop-color="#FFAE46" stop-opacity="0"/>
</radialGradient>
<radialGradient id="paint7_radial_32_1305" cx="0" cy="0" r="1" gradientUnits="userSpaceOnUse" gradientTransform="translate(15.5 13) rotate(43.9708) scale(59.0529)">
<stop offset="0.185425" stop-opacity="0"/>
<stop offset="1" stop-opacity="0.4"/>
</radialGradient>
<radialGradient id="paint8_radial_32_1305" cx="0" cy="0" r="1" gradientUnits="userSpaceOnUse" gradientTransform="translate(3.0453 7.67886) rotate(35.4031) scale(6.89818 3.60263)">
<stop stop-color="#CE5635"/>
<stop offset="1" stop-color="#CE5635" stop-opacity="0"/>
</radialGradient>
<radialGradient id="paint9_radial_32_1305" cx="0" cy="0" r="1" gradientUnits="userSpaceOnUse" gradientTransform="translate(16.5321 4.21577) rotate(57.7713) scale(3.92783)">
<stop stop-color="#DF7536"/>
<stop offset="1" stop-color="#DF7536" stop-opacity="0"/>
</radialGradient>
<radialGradient id="paint10_radial_32_1305" cx="0" cy="0" r="1" gradientUnits="userSpaceOnUse" gradientTransform="translate(17.654 6.17074) rotate(62.5467) scale(6.11889 3.84245)">
<stop stop-color="#DF7536"/>
<stop offset="1" stop-color="#DF7536" stop-opacity="0"/>
</radialGradient>
<radialGradient id="paint11_radial_32_1305" cx="0" cy="0" r="1" gradientUnits="userSpaceOnUse" gradientTransform="translate(17.4995 6.91665) rotate(49.834) scale(6.42182 4.06028)">
<stop stop-color="#DF7536"/>
<stop offset="1" stop-color="#DF7536" stop-opacity="0"/>
</radialGradient>
</defs>
</svg>
