<svg preserveAspectRatio="none" width="100%" height="100%" overflow="visible" style="display: block;" viewBox="0 0 6 10" fill="none" xmlns="http://www.w3.org/2000/svg">
<g id="Ring">
<path d="M0 2.85156C0 1.27669 1.27669 0 2.85156 0V0C4.42644 0 5.70313 1.27669 5.70313 2.85156V6.80523C5.70313 8.3801 4.42644 9.65679 2.85156 9.65679V9.65679C1.27669 9.65679 0 8.3801 0 6.80522V2.85156Z" fill="url(#paint0_radial_146_1700)"/>
<path d="M0 2.85156C0 1.27669 1.27669 0 2.85156 0V0C4.42644 0 5.70313 1.27669 5.70313 2.85156V6.80523C5.70313 8.3801 4.42644 9.65679 2.85156 9.65679V9.65679C1.27669 9.65679 0 8.3801 0 6.80522V2.85156Z" fill="url(#paint1_radial_146_1700)"/>
<path d="M0 2.85156C0 1.27669 1.27669 0 2.85156 0V0C4.42644 0 5.70313 1.27669 5.70313 2.85156V6.80523C5.70313 8.3801 4.42644 9.65679 2.85156 9.65679V9.65679C1.27669 9.65679 0 8.3801 0 6.80522V2.85156Z" fill="url(#paint2_radial_146_1700)"/>
<path d="M0 2.85156C0 1.27669 1.27669 0 2.85156 0V0C4.42644 0 5.70313 1.27669 5.70313 2.85156V6.80523C5.70313 8.3801 4.42644 9.65679 2.85156 9.65679V9.65679C1.27669 9.65679 0 8.3801 0 6.80522V2.85156Z" fill="url(#paint3_radial_146_1700)"/>
</g>
<defs>
<radialGradient id="paint0_radial_146_1700" cx="0" cy="0" r="1" gradientUnits="userSpaceOnUse" gradientTransform="translate(2.16263 2.09809) rotate(90) scale(7.55812 4.46369)">
<stop offset="0.0706402" stop-color="#695352"/>
<stop offset="0.785872" stop-color="#3F2A2A"/>
<stop offset="1" stop-color="#2D1D1E"/>
</radialGradient>
<radialGradient id="paint1_radial_146_1700" cx="0" cy="0" r="1" gradientUnits="userSpaceOnUse" gradientTransform="translate(7.03125 8.07812) rotate(-91.7184) scale(12.5056 3.82019)">
<stop stop-color="#221211"/>
<stop offset="1" stop-color="#201110" stop-opacity="0"/>
<stop offset="1" stop-color="#221211" stop-opacity="0"/>
</radialGradient>
<radialGradient id="paint2_radial_146_1700" cx="0" cy="0" r="1" gradientUnits="userSpaceOnUse" gradientTransform="translate(4.53125 10.2344) rotate(-53.5194) scale(5.51888 1.68589)">
<stop stop-color="#3B2523"/>
<stop offset="1" stop-color="#3B2523" stop-opacity="0"/>
</radialGradient>
<radialGradient id="paint3_radial_146_1700" cx="0" cy="0" r="1" gradientUnits="userSpaceOnUse" gradientTransform="translate(0.5 9.65625) rotate(-89.9187) scale(22.0156 0.968481)">
<stop offset="0.39245" stop-color="#20100F"/>
<stop offset="0.858036" stop-color="#20100F" stop-opacity="0"/>
</radialGradient>
</defs>
</svg>
