<svg preserveAspectRatio="none" width="100%" height="100%" overflow="visible" style="display: block;" viewBox="0 0 17 10" fill="none" xmlns="http://www.w3.org/2000/svg">
<path id="Combined Shape" d="M1.5 5.5C1.96594 5.5 2.19904 5.50005 2.38281 5.57617C2.62774 5.67766 2.82234 5.87226 2.92383 6.11719C2.99995 6.30096 3 6.53406 3 7V8.5C3 8.96594 2.99995 9.19904 2.92383 9.38281C2.82234 9.62774 2.62774 9.82234 2.38281 9.92383C2.19904 9.99995 1.96594 10 1.5 10C1.03406 10 0.800959 9.99995 0.617188 9.92383C0.372263 9.82234 0.177663 9.62774 0.0761719 9.38281C5.14099e-05 9.19904 0 8.96594 0 8.5V7C0 6.53406 5.14075e-05 6.30096 0.0761719 6.11719C0.177663 5.87226 0.372263 5.67766 0.617188 5.57617C0.800959 5.50005 1.03406 5.5 1.5 5.5ZM6 4C6.46594 4 6.69904 4.00005 6.88281 4.07617C7.12774 4.17766 7.32234 4.37226 7.42383 4.61719C7.49995 4.80096 7.5 5.03406 7.5 5.5V8.5C7.5 8.96594 7.49995 9.19904 7.42383 9.38281C7.32234 9.62774 7.12774 9.82234 6.88281 9.92383C6.69904 9.99995 6.46594 10 6 10C5.53406 10 5.30096 9.99995 5.11719 9.92383C4.87226 9.82234 4.67766 9.62774 4.57617 9.38281C4.50005 9.19904 4.5 8.96594 4.5 8.5V5.5C4.5 5.03406 4.50005 4.80096 4.57617 4.61719C4.67766 4.37226 4.87226 4.17766 5.11719 4.07617C5.30096 4.00005 5.53406 4 6 4ZM10.5 2C10.9659 2 11.199 2.00005 11.3828 2.07617C11.6277 2.17766 11.8223 2.37226 11.9238 2.61719C11.9999 2.80096 12 3.03406 12 3.5V8.5C12 8.96594 11.9999 9.19904 11.9238 9.38281C11.8223 9.62774 11.6277 9.82234 11.3828 9.92383C11.199 9.99995 10.9659 10 10.5 10C10.0341 10 9.80096 9.99995 9.61719 9.92383C9.37226 9.82234 9.17766 9.62774 9.07617 9.38281C9.00005 9.19904 9 8.96594 9 8.5V3.5C9 3.03406 9.00005 2.80096 9.07617 2.61719C9.17766 2.37226 9.37226 2.17766 9.61719 2.07617C9.80096 2.00005 10.0341 2 10.5 2ZM15 0C15.4659 0 15.699 5.14075e-05 15.8828 0.0761719C16.1277 0.177663 16.3223 0.372263 16.4238 0.617188C16.4999 0.800959 16.5 1.03406 16.5 1.5V8.5C16.5 8.96594 16.4999 9.19904 16.4238 9.38281C16.3223 9.62774 16.1277 9.82234 15.8828 9.92383C15.699 9.99995 15.4659 10 15 10C14.5341 10 14.301 9.99995 14.1172 9.92383C13.8723 9.82234 13.6777 9.62774 13.5762 9.38281C13.5001 9.19904 13.5 8.96594 13.5 8.5V1.5C13.5 1.03406 13.5001 0.800959 13.5762 0.617188C13.6777 0.372263 13.8723 0.177663 14.1172 0.0761719C14.301 5.14075e-05 14.5341 0 15 0Z" fill="var(--fill-0, white)"/>
</svg>
