<svg preserveAspectRatio="none" width="100%" height="100%" overflow="visible" style="display: block;" viewBox="0 0 61 40" fill="none" xmlns="http://www.w3.org/2000/svg">
<g id="bi:soundwave">
<path id="Vector" fill-rule="evenodd" clip-rule="evenodd" d="M32.4062 5C32.9118 5 33.3967 5.1317 33.7542 5.36612C34.1117 5.60054 34.3125 5.91848 34.3125 6.25V33.75C34.3125 34.0815 34.1117 34.3995 33.7542 34.6339C33.3967 34.8683 32.9118 35 32.4062 35C31.9007 35 31.4158 34.8683 31.0583 34.6339C30.7008 34.3995 30.5 34.0815 30.5 33.75V6.25C30.5 5.91848 30.7008 5.60054 31.0583 5.36612C31.4158 5.1317 31.9007 5 32.4062 5ZM24.7812 10C25.2868 10 25.7717 10.1317 26.1292 10.3661C26.4867 10.6005 26.6875 10.9185 26.6875 11.25V28.75C26.6875 29.0815 26.4867 29.3995 26.1292 29.6339C25.7717 29.8683 25.2868 30 24.7812 30C24.2757 30 23.7908 29.8683 23.4333 29.6339C23.0758 29.3995 22.875 29.0815 22.875 28.75V11.25C22.875 10.9185 23.0758 10.6005 23.4333 10.3661C23.7908 10.1317 24.2757 10 24.7812 10ZM40.0312 10C40.5368 10 41.0217 10.1317 41.3792 10.3661C41.7367 10.6005 41.9375 10.9185 41.9375 11.25V28.75C41.9375 29.0815 41.7367 29.3995 41.3792 29.6339C41.0217 29.8683 40.5368 30 40.0312 30C39.5257 30 39.0408 29.8683 38.6833 29.6339C38.3258 29.3995 38.125 29.0815 38.125 28.75V11.25C38.125 10.9185 38.3258 10.6005 38.6833 10.3661C39.0408 10.1317 39.5257 10 40.0312 10ZM17.1562 13.75C17.6618 13.75 18.1467 13.8817 18.5042 14.1161C18.8617 14.3505 19.0625 14.6685 19.0625 15V25C19.0625 25.3315 18.8617 25.6495 18.5042 25.8839C18.1467 26.1183 17.6618 26.25 17.1562 26.25C16.6507 26.25 16.1658 26.1183 15.8083 25.8839C15.4508 25.6495 15.25 25.3315 15.25 25V15C15.25 14.6685 15.4508 14.3505 15.8083 14.1161C16.1658 13.8817 16.6507 13.75 17.1562 13.75ZM47.6562 13.75C48.1618 13.75 48.6467 13.8817 49.0042 14.1161C49.3617 14.3505 49.5625 14.6685 49.5625 15V25C49.5625 25.3315 49.3617 25.6495 49.0042 25.8839C48.6467 26.1183 48.1618 26.25 47.6562 26.25C47.1507 26.25 46.6658 26.1183 46.3083 25.8839C45.9508 25.6495 45.75 25.3315 45.75 25V15C45.75 14.6685 45.9508 14.3505 46.3083 14.1161C46.6658 13.8817 47.1507 13.75 47.6562 13.75ZM9.53125 16.25C10.0368 16.25 10.5217 16.3817 10.8792 16.6161C11.2367 16.8505 11.4375 17.1685 11.4375 17.5V22.5C11.4375 22.8315 11.2367 23.1495 10.8792 23.3839C10.5217 23.6183 10.0368 23.75 9.53125 23.75C9.02568 23.75 8.54082 23.6183 8.18333 23.3839C7.82584 23.1495 7.625 22.8315 7.625 22.5V17.5C7.625 17.1685 7.82584 16.8505 8.18333 16.6161C8.54082 16.3817 9.02568 16.25 9.53125 16.25ZM55.2812 16.25C55.7868 16.25 56.2717 16.3817 56.6292 16.6161C56.9867 16.8505 57.1875 17.1685 57.1875 17.5V22.5C57.1875 22.8315 56.9867 23.1495 56.6292 23.3839C56.2717 23.6183 55.7868 23.75 55.2812 23.75C54.7757 23.75 54.2908 23.6183 53.9333 23.3839C53.5758 23.1495 53.375 22.8315 53.375 22.5V17.5C53.375 17.1685 53.5758 16.8505 53.9333 16.6161C54.2908 16.3817 54.7757 16.25 55.2812 16.25Z" fill="var(--fill-0, #2F2F38)" fill-opacity="0.25"/>
<path id="Vector_2" fill-rule="evenodd" clip-rule="evenodd" d="M32.4062 5C32.9118 5 33.3967 5.1317 33.7542 5.36612C34.1117 5.60054 34.3125 5.91848 34.3125 6.25V33.75C34.3125 34.0815 34.1117 34.3995 33.7542 34.6339C33.3967 34.8683 32.9118 35 32.4062 35C31.9007 35 31.4158 34.8683 31.0583 34.6339C30.7008 34.3995 30.5 34.0815 30.5 33.75V6.25C30.5 5.91848 30.7008 5.60054 31.0583 5.36612C31.4158 5.1317 31.9007 5 32.4062 5ZM24.7812 10C25.2868 10 25.7717 10.1317 26.1292 10.3661C26.4867 10.6005 26.6875 10.9185 26.6875 11.25V28.75C26.6875 29.0815 26.4867 29.3995 26.1292 29.6339C25.7717 29.8683 25.2868 30 24.7812 30C24.2757 30 23.7908 29.8683 23.4333 29.6339C23.0758 29.3995 22.875 29.0815 22.875 28.75V11.25C22.875 10.9185 23.0758 10.6005 23.4333 10.3661C23.7908 10.1317 24.2757 10 24.7812 10ZM40.0312 10C40.5368 10 41.0217 10.1317 41.3792 10.3661C41.7367 10.6005 41.9375 10.9185 41.9375 11.25V28.75C41.9375 29.0815 41.7367 29.3995 41.3792 29.6339C41.0217 29.8683 40.5368 30 40.0312 30C39.5257 30 39.0408 29.8683 38.6833 29.6339C38.3258 29.3995 38.125 29.0815 38.125 28.75V11.25C38.125 10.9185 38.3258 10.6005 38.6833 10.3661C39.0408 10.1317 39.5257 10 40.0312 10Z" fill="var(--fill-0, #2F2F38)" fill-opacity="0.52"/>
</g>
</svg>
