<svg preserveAspectRatio="none" width="100%" height="100%" overflow="visible" style="display: block;" viewBox="0 0 24 18" fill="none" xmlns="http://www.w3.org/2000/svg">
<path id="Symbol" d="M11.3925 5.27C11.5525 5.27 11.7025 5.33 11.8125 5.45C11.8325 5.48 11.8625 5.51 11.8825 5.54L14.4925 8.15L17.1125 5.53C17.1125 5.53 17.1525 5.47 17.1825 5.45C17.3525 5.28 17.6125 5.23 17.8325 5.32C18.0525 5.41 18.2025 5.63 18.2025 5.87C18.2025 6.03 18.1425 6.18 18.0325 6.29L15.3425 9L17.9625 11.61C17.9625 11.61 18.0225 11.65 18.0425 11.68C18.2125 11.85 18.2625 12.11 18.1725 12.33C18.0825 12.55 17.8625 12.7 17.6225 12.7C17.4625 12.7 17.3125 12.64 17.2025 12.53L14.5025 9.84L11.8125 12.54H11.8025C11.7525 12.58 11.6825 12.63 11.6125 12.66C11.3925 12.75 11.1325 12.7 10.9625 12.53C10.8525 12.42 10.7825 12.27 10.7825 12.11C10.7825 11.95 10.8425 11.8 10.9625 11.69C10.9925 11.66 11.0225 11.64 11.0625 11.61L13.6625 9.01L10.9625 6.31C10.9125 6.25 10.8625 6.18 10.8325 6.11C10.7425 5.89 10.7925 5.63 10.9625 5.46C11.0725 5.35 11.2225 5.28 11.3825 5.28L11.3925 5.27ZM18.4625 1.33H11.0725C10.9825 1.33 10.9025 1.33 10.8225 1.33C10.6725 1.33 10.5225 1.33 10.3325 1.33C10.0025 1.33 9.6625 1.36 9.3425 1.42C9.0425 1.47 8.7625 1.57 8.4925 1.7C8.2325 1.83 7.9825 2.01 7.7725 2.22C7.7725 2.22 7.7525 2.24 7.7225 2.27C7.6625 2.33 7.6525 2.35 7.6325 2.37C7.5325 2.46 7.4425 2.55 7.3525 2.64C7.3025 2.69 7.2525 2.74 7.2025 2.79L7.0225 2.97L4.7225 5.27C4.7225 5.27 4.6825 5.31 4.6725 5.32C4.6325 5.36 4.5825 5.41 4.5325 5.45L4.4725 5.51C4.4725 5.51 4.4425 5.54 4.4325 5.55L4.3925 5.59L4.3425 5.64L2.2825 7.7C2.2825 7.7 2.2025 7.79 2.1425 7.84C2.1425 7.84 2.11583 7.86667 2.0625 7.92C2.0625 7.92 1.9825 8 1.9025 8.08C1.7525 8.22 1.6225 8.38 1.4925 8.54L1.4525 8.59C1.4525 8.59 1.3925 8.67 1.3725 8.71C1.3225 8.89 1.3225 9.07 1.3725 9.25C1.3925 9.29 1.4225 9.33 1.4525 9.37L1.4925 9.42C1.6225 9.58 1.7625 9.73 1.9225 9.89C1.9525 9.92 1.9825 9.95 2.0125 9.99L2.1725 10.15C2.1725 10.15 2.2425 10.22 2.2725 10.25L4.3425 12.32L4.5025 12.47C4.5025 12.47 4.5325 12.5 4.5425 12.51C4.6225 12.59 4.6525 12.62 4.6825 12.65C4.6825 12.65 4.7025 12.67 4.7325 12.7L7.0325 15.01C7.2025 15.18 7.2725 15.25 7.3725 15.35C7.4925 15.47 7.5625 15.54 7.6425 15.62C7.6625 15.64 7.6625 15.64 7.7325 15.72C7.7525 15.74 7.7725 15.76 7.7825 15.77C7.9925 15.98 8.2325 16.16 8.4925 16.29C8.7625 16.43 9.0525 16.52 9.3425 16.57C9.6725 16.62 10.0025 16.65 10.3425 16.66C10.5125 16.66 10.6725 16.66 10.8325 16.66H18.6725C18.8125 16.66 18.9625 16.66 19.1725 16.66C19.5125 16.66 19.8425 16.63 20.1725 16.57C20.4725 16.52 20.7625 16.42 21.0325 16.29C21.3025 16.15 21.5425 15.98 21.7525 15.77C21.9625 15.56 22.1425 15.31 22.2825 15.05C22.4225 14.78 22.5125 14.49 22.5625 14.19C22.6125 13.86 22.6425 13.52 22.6525 13.17C22.6525 13.07 22.6525 12.99 22.6525 12.8C22.6525 12.76 22.6525 12.74 22.6525 12.72V5.23C22.6525 5.23 22.6525 5.21 22.6525 5.19C22.6525 5.07 22.6525 5.02 22.6525 4.96C22.6525 4.9 22.6525 4.85 22.6525 4.79C22.6525 4.46 22.6225 4.12 22.5625 3.8C22.5125 3.5 22.4125 3.21 22.2825 2.95C22.1425 2.68 21.9725 2.44 21.7625 2.23C21.5525 2.02 21.3125 1.84 21.0525 1.71C20.7825 1.57 20.4925 1.48 20.2125 1.43C19.8825 1.38 19.5525 1.35 19.2125 1.34C19.0325 1.34 18.8725 1.34 18.7225 1.34C18.6425 1.34 18.5725 1.34 18.4725 1.34L18.4625 1.33ZM18.5525 0H18.7125C18.8725 0 19.0425 0 19.2225 0C19.6225 0 20.0225 0.04 20.4225 0.11C20.8525 0.18 21.2625 0.32 21.6525 0.52C22.0425 0.72 22.4025 0.98 22.7125 1.29C23.0225 1.6 23.2825 1.95 23.4825 2.35C23.6725 2.74 23.8125 3.15 23.8825 3.58C23.9425 3.97 23.9825 4.37 23.9825 4.76C23.9825 4.82 23.9825 4.87 23.9825 4.94C23.9825 5.01 23.9825 5.06 23.9825 5.18C23.9825 5.21333 23.9825 5.25 23.9825 5.29V12.69C23.9825 12.73 23.9825 12.77 23.9825 12.81C23.9825 13 23.9825 13.09 23.9825 13.19C23.9825 13.59 23.9425 14 23.8725 14.4C23.8025 14.83 23.6625 15.25 23.4625 15.64C23.2625 16.03 23.0025 16.39 22.6925 16.7C22.3825 17.01 22.0225 17.27 21.6225 17.47C21.2325 17.67 20.8125 17.8 20.3825 17.88C19.9825 17.95 19.5825 17.98 19.1825 17.99C18.9725 17.99 18.8125 17.99 18.6625 17.99H10.8125C10.6425 17.99 10.4725 17.99 10.3025 17.99C9.9025 17.99 9.5025 17.95 9.1025 17.88C8.6725 17.81 8.2625 17.67 7.8725 17.47C7.4825 17.27 7.1225 17.01 6.8325 16.72C6.8125 16.7 6.7925 16.68 6.7425 16.63C6.6125 16.5 6.5325 16.42 6.4025 16.3C6.3625 16.26 6.3325 16.23 6.2925 16.19L6.0625 15.96L3.7825 13.68C3.7125 13.61 3.6725 13.57 3.6025 13.51C3.5625 13.47 3.5325 13.44 3.4925 13.4L3.3725 13.28L1.3025 11.2L1.2625 11.16L1.1625 11.05C1.1625 11.05 1.1425 11.03 1.1225 11.01C1.0525 10.94 0.9925 10.88 0.9625 10.84C0.7925 10.67 0.6225 10.49 0.4725 10.3C0.3325 10.15 0.2125 9.97 0.1325 9.78L0.1125 9.72C-0.0375 9.26 -0.0375 8.76 0.1125 8.29L0.1325 8.23C0.2125 8.04 0.3325 7.86 0.4725 7.71C0.6225 7.52 0.7925 7.34 0.9525 7.18C1.0225 7.11 1.0725 7.05 1.1325 6.99L1.1625 6.96C1.1625 6.96 1.1725 6.95 1.1825 6.94C1.2325 6.89 1.2725 6.85 1.3125 6.81L3.3825 4.74L3.4325 4.69C3.4325 4.69 3.4525 4.67 3.4725 4.65C3.5225 4.6 3.5525 4.57 3.5825 4.54C3.6425 4.48 3.7025 4.42 3.7725 4.35L3.7925 4.33C3.7925 4.33 3.8225 4.3 3.8425 4.28L3.9225 4.2C3.9225 4.2 3.9525 4.17 3.9725 4.15L4.1025 4.02C4.1025 4.02 4.1525 3.97 4.1825 3.94L4.8025 3.32C4.9725 3.15 5.1625 2.96 5.3725 2.75L6.0725 2.05C6.1725 1.95 6.2625 1.86 6.3425 1.79L6.4125 1.72C6.5125 1.62 6.6125 1.53 6.7125 1.42C6.8025 1.33 6.8125 1.32 6.8225 1.3C7.1325 0.99 7.4825 0.73 7.8825 0.53C8.2725 0.34 8.6825 0.2 9.1125 0.12C9.5025 0.06 9.9025 0.02 10.2925 0.02C10.4825 0.02 10.6525 0.02 10.8025 0.02C10.8625 0.02 10.9125 0.02 10.9725 0.02H18.5425L18.5525 0Z" fill="var(--fill-0, black)"/>
</svg>
