<svg preserveAspectRatio="none" width="100%" height="100%" overflow="visible" style="display: block;" viewBox="0 0 20 12" fill="none" xmlns="http://www.w3.org/2000/svg">
<path id="Cellular Connection" d="M2.13379 7.40039C2.72262 7.40066 3.2001 7.91493 3.2002 8.5498V10.8496C3.2002 11.4846 2.72268 11.9997 2.13379 12H1.06641C0.477422 11.9998 0 11.4846 0 10.8496V8.5498C9.79152e-05 7.91486 0.477483 7.40054 1.06641 7.40039H2.13379ZM7.43359 5C8.02258 5.00015 8.5 5.52275 8.5 6.16699V10.833C8.5 11.4772 8.02258 11.9998 7.43359 12H6.36621C5.77732 11.9997 5.2998 11.4772 5.2998 10.833V6.16699C5.2998 5.52283 5.77732 5.00027 6.36621 5H7.43359ZM12.833 2.40039C13.422 2.40039 13.9003 2.91564 13.9004 3.55176V10.8477C13.9004 11.4839 13.4221 12 12.833 12H11.7666C11.1775 12 10.7002 11.4839 10.7002 10.8477V3.55176C10.7003 2.91566 11.1776 2.40043 11.7666 2.40039H12.833ZM18.1338 0C18.7227 0.00025962 19.2002 0.50384 19.2002 1.125V10.875C19.2002 11.4962 18.7227 11.9997 18.1338 12H17.0664C16.4774 11.9999 16 11.4962 16 10.875V1.125C16 0.503771 16.4774 0.000148442 17.0664 0H18.1338Z" fill="var(--fill-0, black)"/>
</svg>
