<svg preserveAspectRatio="none" width="100%" height="100%" overflow="visible" style="display: block;" viewBox="0 0 3 3" fill="none" xmlns="http://www.w3.org/2000/svg">
<g id="Vector">
<path d="M1.25087 2.68686L0.0872662 1.11164C-0.0939513 0.865515 0.0205014 0.511078 0.306634 0.422471L1.60377 0.0188323C1.8899 -0.0697739 2.17604 0.166501 2.15696 0.4717L2.02343 2.45058C1.98528 2.85423 1.48932 3.01175 1.25087 2.68686Z" fill="var(--fill-0, #1A80EA)"/>
<path d="M1.25087 2.68686L0.0872662 1.11164C-0.0939513 0.865515 0.0205014 0.511078 0.306634 0.422471L1.60377 0.0188323C1.8899 -0.0697739 2.17604 0.166501 2.15696 0.4717L2.02343 2.45058C1.98528 2.85423 1.48932 3.01175 1.25087 2.68686Z" fill="url(#paint0_linear_32_1153)"/>
<path d="M1.25087 2.68686L0.0872662 1.11164C-0.0939513 0.865515 0.0205014 0.511078 0.306634 0.422471L1.60377 0.0188323C1.8899 -0.0697739 2.17604 0.166501 2.15696 0.4717L2.02343 2.45058C1.98528 2.85423 1.48932 3.01175 1.25087 2.68686Z" fill="url(#paint1_linear_32_1153)"/>
<path d="M1.25087 2.68686L0.0872662 1.11164C-0.0939513 0.865515 0.0205014 0.511078 0.306634 0.422471L1.60377 0.0188323C1.8899 -0.0697739 2.17604 0.166501 2.15696 0.4717L2.02343 2.45058C1.98528 2.85423 1.48932 3.01175 1.25087 2.68686Z" fill="url(#paint2_linear_32_1153)"/>
</g>
<defs>
<linearGradient id="paint0_linear_32_1153" x1="0.88846" y1="-0.104319" x2="1.1382" y2="0.720299" gradientUnits="userSpaceOnUse">
<stop stop-color="#2065A3"/>
<stop offset="1" stop-color="#2067AE" stop-opacity="0"/>
</linearGradient>
<linearGradient id="paint1_linear_32_1153" x1="0.605308" y1="2.46641" x2="1.12449" y2="2.087" gradientUnits="userSpaceOnUse">
<stop offset="0.605233" stop-color="#1C60FF"/>
<stop offset="1" stop-color="#1963FF" stop-opacity="0"/>
</linearGradient>
<linearGradient id="paint2_linear_32_1153" x1="2.09558" y1="0.998484" x2="1.83422" y2="0.984932" gradientUnits="userSpaceOnUse">
<stop stop-color="#2093F1"/>
<stop offset="1" stop-color="#2294F3" stop-opacity="0"/>
</linearGradient>
</defs>
</svg>
