<svg preserveAspectRatio="none" width="100%" height="100%" overflow="visible" style="display: block;" viewBox="0 0 17 4" fill="none" xmlns="http://www.w3.org/2000/svg">
<g id="Shape">
<path d="M1.9818 3.19087C2.02988 2.94359 2.13995 2.64051 2.3492 2.41252C2.52853 2.21714 2.84723 2 3.50019 2C4.14191 2 4.46873 2.22165 4.65742 2.42878C4.87556 2.66826 4.98065 2.97368 5.01493 3.17109C5.10942 3.71523 5.62714 4.07975 6.17128 3.98526C6.71542 3.89076 7.07993 3.37305 6.98544 2.82891C6.90644 2.37398 6.68017 1.6794 6.13595 1.08196C5.56227 0.45218 4.69573 0 3.50019 0C2.31588 0 1.45293 0.431296 0.875759 1.06013C0.328508 1.65637 0.107208 2.35329 0.0185717 2.80913C-0.0868428 3.35126 0.267186 3.8762 0.809317 3.98162C1.35145 4.08703 1.87639 3.733 1.9818 3.19087Z" fill="var(--fill-0, #402A32)"/>
<path d="M11.982 3.19087C12.0301 2.94359 12.1402 2.64051 12.3494 2.41252C12.5288 2.21714 12.8475 2 13.5004 2C14.1422 2 14.469 2.22165 14.6577 2.42878C14.8758 2.66826 14.9809 2.97368 15.0152 3.17109C15.1097 3.71523 15.6274 4.07975 16.1715 3.98526C16.7157 3.89076 17.0802 3.37305 16.9857 2.82891C16.9067 2.37398 16.6804 1.6794 16.1362 1.08196C15.5625 0.45218 14.696 0 13.5004 0C12.3161 0 11.4532 0.431296 10.876 1.06013C10.3288 1.65637 10.1075 2.35329 10.0188 2.80913C9.9134 3.35126 10.2674 3.8762 10.8096 3.98162C11.3517 4.08703 11.8766 3.733 11.982 3.19087Z" fill="var(--fill-0, #402A32)"/>
</g>
</svg>
