<svg preserveAspectRatio="none" width="100%" height="100%" overflow="visible" style="display: block;" viewBox="0 0 14 11" fill="none" xmlns="http://www.w3.org/2000/svg">
<path id="Vector 181 (Stroke)" d="M9.25 0.5C11.4591 0.5 13.25 2.29086 13.25 4.5V4.86133C13.2499 7.69929 10.9493 9.99988 8.11133 10H1.75C1.05964 10 0.5 9.44036 0.5 8.75C0.5 8.05964 1.05964 7.5 1.75 7.5H8.11133C8.15263 7.5 8.19353 7.49504 8.23438 7.49316C6.56936 7.39279 5.25 6.01154 5.25 4.32129C5.25008 2.21088 6.96088 0.500075 9.07129 0.5H9.25ZM9.07129 3C8.34159 3.00008 7.75008 3.59159 7.75 4.32129C7.75 4.69605 8.05395 5 8.42871 5H8.59961C8.68245 5 8.75 4.93245 8.75 4.84961V4.75C8.75 4.05964 9.30964 3.5 10 3.5C10.1519 3.5 10.297 3.5285 10.4316 3.57812C10.1571 3.22674 9.73047 3 9.25 3H9.07129Z" fill="var(--fill-0, #212121)" stroke="var(--stroke-0, #E5E5E5)" stroke-linecap="round" stroke-linejoin="round"/>
</svg>
