<svg preserveAspectRatio="none" width="100%" height="100%" overflow="visible" style="display: block;" viewBox="0 0 22 22" fill="none" xmlns="http://www.w3.org/2000/svg">
<g id="&#233;&#148;&#174;&#231;&#155;&#152; (1) 1">
<path id="Vector" d="M11.0384 20.1586C8.59853 20.1586 6.30706 19.2097 4.58358 17.4862C2.86009 15.7627 1.91117 13.4712 1.91117 11.0313C1.91117 8.59141 2.86009 6.29985 4.58358 4.57637C8.14018 1.01967 13.9368 1.01967 17.4934 4.57637C21.0501 8.13306 21.0501 13.9296 17.4934 17.4862C15.7699 19.2097 13.4784 20.1586 11.0385 20.1586H11.0384ZM11.0384 3.27243C9.05031 3.27243 7.06227 4.03412 5.55176 5.54455C4.08652 7.00988 3.27964 8.95281 3.27964 11.0313C3.27964 13.1098 4.08652 15.0527 5.55176 16.518C7.01709 17.9832 8.96641 18.7965 11.0384 18.7901C13.117 18.7901 15.0599 17.9832 16.5251 16.518C19.5525 13.4906 19.5525 8.57197 16.5251 5.54464C15.0147 4.03412 13.0266 3.27252 11.0384 3.27252V3.27243Z" fill="var(--fill-0, #E4E4E4)"/>
<path id="Vector_2" d="M6.84647 7.34134H7.84149C8.07884 7.34134 8.26141 7.52391 8.26141 7.75213V8.74715C8.26141 8.97536 8.07884 9.15793 7.85062 9.15793H6.84647C6.61826 9.16706 6.43568 8.98449 6.43568 8.75627V7.75213C6.43568 7.52391 6.61826 7.34134 6.84647 7.34134ZM10.4979 7.34134H11.4929C11.7303 7.34134 11.9129 7.52391 11.9129 7.75213V8.74715C11.9129 8.97536 11.7303 9.15793 11.5021 9.15793H10.4979C10.2697 9.16706 10.0871 8.98449 10.0871 8.75627V7.75213C10.0871 7.52391 10.2697 7.34134 10.4979 7.34134ZM14.1494 7.34134H15.1444C15.3817 7.34134 15.5643 7.52391 15.5643 7.75213V8.74715C15.5643 8.97536 15.3817 9.15793 15.1535 9.15793H14.1494C13.9212 9.16706 13.7386 8.98449 13.7386 8.75627V7.75213C13.7386 7.52391 13.9212 7.34134 14.1494 7.34134ZM6.84647 10.0799H7.84149C8.06971 10.0799 8.25228 10.2625 8.25228 10.4907V11.4857C8.25228 11.7139 8.06971 11.8965 7.84149 11.8965H6.84647C6.61826 11.9057 6.43568 11.7231 6.43568 11.4949V10.4907C6.43568 10.2625 6.61826 10.0799 6.84647 10.0799ZM10.4979 10.0799H11.4929C11.7212 10.0799 11.9037 10.2625 11.9037 10.4907V11.4857C11.9037 11.7139 11.7212 11.8965 11.4929 11.8965H10.4979C10.2697 11.9057 10.0871 11.7231 10.0871 11.4949V10.4907C10.0871 10.2625 10.2697 10.0799 10.4979 10.0799ZM14.1494 10.0799H15.1444C15.3726 10.0799 15.5552 10.2625 15.5552 10.4907V11.4857C15.5552 11.7139 15.3726 11.8965 15.1444 11.8965H14.1494C13.9212 11.9057 13.7386 11.7231 13.7386 11.4949V10.4907C13.7386 10.2625 13.9212 10.0799 14.1494 10.0799ZM9.85892 14.1878H12.1411C12.5154 14.1878 12.8257 14.4982 12.8257 14.8725C12.8257 15.2467 12.5154 15.5571 12.1411 15.5571H9.85892C9.48465 15.5571 9.17427 15.2467 9.17427 14.8725C9.17427 14.4982 9.48465 14.1878 9.85892 14.1878Z" fill="var(--fill-0, #E4E4E4)"/>
</g>
</svg>
