<svg preserveAspectRatio="none" width="100%" height="100%" overflow="visible" style="display: block;" viewBox="0 0 28 28" fill="none" xmlns="http://www.w3.org/2000/svg">
<g id="Union">
<path d="M14 0H2C0.89543 0 0 0.895431 0 2V14C0 17.7853 1.14306 21.2955 3.51375 23.8698C3.62912 23.9951 3.74719 24.1179 3.86793 24.2382C4.12692 24.0868 4.42833 24 4.75 24C5.19971 24 5.62693 23.7397 5.84652 23.3436C5.53992 23.0826 5.25283 22.8059 4.98495 22.515C3.02275 20.3842 2 17.3944 2 14C2 13.2652 2.04793 12.5493 2.14294 11.8571L11.8668 2.13315C12.5406 2.04564 13.2515 2 14 2C17.7835 2 20.6035 3.16604 22.5485 5.01147C22.6146 5.00389 22.6819 5 22.75 5C23.3984 5 24 4.45886 24 3.75C24 3.71161 24.0012 3.67351 24.0037 3.63574C21.6364 1.34713 18.2716 0 14 0ZM2 2H4.41421L2 4.41421V2ZM6.58579 2H9.17157L2 9.17157V6.58579L6.58579 2Z" fill="#212121"/>
<path d="M14 28C11.48 28 9.27557 27.5311 7.40537 26.6767C7.99442 26.2802 8.5007 25.753 8.86789 25.1229C10.3265 25.6849 12.033 26 14 26C18.0977 26 21.0653 24.6322 23.015 22.515C23.6031 21.8764 24.1068 21.1607 24.5239 20.38C25.5872 20.1571 26.5404 19.6346 27.2911 18.9049C26.7153 20.7683 25.785 22.4595 24.4862 23.8698C22.1031 26.4576 18.5707 28 14 28Z" fill="#212121"/>
<path d="M20.8637 11.729C21.2715 11.1859 21.8043 10.742 22.4193 10.4401C22.3361 10.3187 22.2421 10.1985 22.1359 10.082C21.5623 9.45218 20.6957 9 19.5002 9C18.3159 9 17.4529 9.4313 16.8758 10.0601C16.3285 10.6564 16.1072 11.3533 16.0186 11.8091C15.9132 12.3513 16.2672 12.8762 16.8093 12.9816C17.3514 13.087 17.8764 12.733 17.9818 12.1909C18.0299 11.9436 18.1399 11.6405 18.3492 11.4125C18.5285 11.2171 18.8472 11 19.5002 11C20.1419 11 20.4687 11.2216 20.6574 11.4288C20.7426 11.5222 20.8105 11.6258 20.8637 11.729Z" fill="#212121"/>
<path d="M27.821 11.4633C27.2142 10.8001 26.4114 10.3193 25.5043 10.1125C25.3077 9.389 25.0534 8.69989 24.7424 8.05156C25.358 7.76428 25.9158 7.34738 26.3661 6.82548C27.0989 8.24072 27.5811 9.80765 27.821 11.4633Z" fill="#212121"/>
<path d="M8.34896 11.4125C8.13971 11.6405 8.02964 11.9436 7.98156 12.1909C7.87614 12.733 7.3512 13.087 6.80907 12.9816C6.26694 12.8762 5.91291 12.3513 6.01833 11.8091C6.10696 11.3533 6.32826 10.6564 6.87551 10.0601C7.45269 9.4313 8.31564 9 9.49994 9C10.6955 9 11.562 9.45218 12.1357 10.082C12.6799 10.6794 12.9062 11.374 12.9852 11.8289C13.0797 12.373 12.7152 12.8908 12.171 12.9853C11.6269 13.0797 11.1092 12.7152 11.0147 12.1711C10.9804 11.9737 10.8753 11.6683 10.6572 11.4288C10.4685 11.2216 10.1417 11 9.49994 11C8.84698 11 8.52829 11.2171 8.34896 11.4125Z" fill="#212121"/>
<path d="M24 2C24.5523 2 25 1.55228 25 1C25 0.447715 24.5523 0 24 0C23.4477 0 23 0.447715 23 1C23 1.55228 23.4477 2 24 2Z" fill="#212121"/>
<path d="M25.75 3C26.1642 3 26.5 3.33579 26.5 3.75C26.5 5.94812 24.668 7.5 22.75 7.5C22.3358 7.5 22 7.16421 22 6.75C22 6.33579 22.3358 6 22.75 6C23.909 6 25 5.05188 25 3.75C25 3.33579 25.3358 3 25.75 3Z" fill="#212121"/>
<path d="M7.75 22C8.16421 22 8.5 22.3358 8.5 22.75C8.5 24.9481 6.66796 26.5 4.75 26.5C4.33579 26.5 4 26.1642 4 25.75C4 25.3358 4.33579 25 4.75 25C5.90902 25 7 24.0519 7 22.75C7 22.3358 7.33579 22 7.75 22Z" fill="#212121"/>
<path d="M25 27C25.5523 27 26 26.5523 26 26C26 25.4477 25.5523 25 25 25C24.4477 25 24 25.4477 24 26C24 26.5523 24.4477 27 25 27Z" fill="#212121"/>
<path d="M8 18C8 18.5523 7.55228 19 7 19C6.44772 19 6 18.5523 6 18C6 17.4477 6.44772 17 7 17C7.55228 17 8 17.4477 8 18Z" fill="#212121"/>
<path d="M24.3214 11C22.4871 11 21 12.4871 21 14.3214V14.75C21 15.9926 22.0074 17 23.25 17C24.2165 17 25 16.2165 25 15.25V14.75C25 14.3358 24.6642 14 24.25 14C23.8358 14 23.5 14.3358 23.5 14.75V15.25C23.5 15.3881 23.3881 15.5 23.25 15.5C22.8358 15.5 22.5 15.1642 22.5 14.75V14.3214C22.5 13.3155 23.3155 12.5 24.3214 12.5H24.5C25.6046 12.5 26.5 13.3954 26.5 14.5V14.8611C26.5 16.5947 25.0947 18 23.3611 18H18.1275C18.1684 17.8199 18.1899 17.6325 18.1899 17.44C18.1899 16.0477 17.0622 14.92 15.6699 14.92C15.1176 14.92 14.6699 15.3677 14.6699 15.92C14.6699 16.4723 15.1176 16.92 15.6699 16.92C15.9576 16.92 16.1899 17.1523 16.1899 17.44C16.1899 17.7277 15.9576 17.96 15.6699 17.96C15.1176 17.96 14.6699 18.4077 14.6699 18.96C14.6699 19.5123 15.1176 19.96 15.6699 19.96C15.9576 19.96 16.1899 20.1923 16.1899 20.48C16.1899 20.7677 15.9576 21 15.6699 21C15.1176 21 14.6699 21.4477 14.6699 22C14.6699 22.5523 15.1176 23 15.6699 23C17.0622 23 18.1899 21.8723 18.1899 20.48C18.1899 20.1324 18.1196 19.8012 17.9924 19.5H23.3611C25.9231 19.5 28 17.4231 28 14.8611V14.5C28 12.567 26.433 11 24.5 11H24.3214Z" fill="#212121"/>
</g>
</svg>
