<svg preserveAspectRatio="none" width="100%" height="100%" overflow="visible" style="display: block;" viewBox="0 0 28 12" fill="none" xmlns="http://www.w3.org/2000/svg">
<g id="Shape">
<path d="M1.18104 7.75037C3.19703 10.0771 5.8791 11.096 7.25386 11.4894C7.81699 11.6506 8.40791 11.4889 8.82493 11.0776C10.0184 9.90045 12.4238 7.19933 12.938 4.11531C13.656 -0.191283 8.25599 -1.50414 6.07985 2.04542C0.989331 -0.345625 -1.70351 4.42127 1.18104 7.75037Z" fill="#F70A8D"/>
<path d="M26.8172 7.75198C24.8022 10.0775 22.1215 11.0961 20.7473 11.4894C20.1841 11.6506 19.5932 11.4889 19.1762 11.0776C17.9831 9.90079 15.579 7.20094 15.0651 4.11839C14.3474 -0.186444 19.7452 -1.49877 21.9204 2.04935C27.0089 -0.340724 29.7006 4.42423 26.8172 7.75198Z" fill="#F70A8D"/>
</g>
</svg>
