<svg preserveAspectRatio="none" width="100%" height="100%" overflow="visible" style="display: block;" viewBox="0 0 28 28" fill="none" xmlns="http://www.w3.org/2000/svg">
<g id="Circle">
<path d="M13.9989 27.9978C23.3333 27.9978 27.9978 21.7303 27.9978 13.9989C27.9978 6.26751 23.3333 0 13.9989 0C4.66443 0 0 6.26751 0 13.9989C0 21.7303 4.66443 27.9978 13.9989 27.9978Z" fill="url(#paint0_radial_146_1746)"/>
<path d="M13.9989 27.9978C23.3333 27.9978 27.9978 21.7303 27.9978 13.9989C27.9978 6.26751 23.3333 0 13.9989 0C4.66443 0 0 6.26751 0 13.9989C0 21.7303 4.66443 27.9978 13.9989 27.9978Z" fill="url(#paint1_radial_146_1746)"/>
<path d="M13.9989 27.9978C23.3333 27.9978 27.9978 21.7303 27.9978 13.9989C27.9978 6.26751 23.3333 0 13.9989 0C4.66443 0 0 6.26751 0 13.9989C0 21.7303 4.66443 27.9978 13.9989 27.9978Z" fill="url(#paint2_radial_146_1746)" fill-opacity="0.6"/>
<path d="M13.9989 27.9978C23.3333 27.9978 27.9978 21.7303 27.9978 13.9989C27.9978 6.26751 23.3333 0 13.9989 0C4.66443 0 0 6.26751 0 13.9989C0 21.7303 4.66443 27.9978 13.9989 27.9978Z" fill="url(#paint3_radial_146_1746)" fill-opacity="0.67"/>
<path d="M13.9989 27.9978C23.3333 27.9978 27.9978 21.7303 27.9978 13.9989C27.9978 6.26751 23.3333 0 13.9989 0C4.66443 0 0 6.26751 0 13.9989C0 21.7303 4.66443 27.9978 13.9989 27.9978Z" fill="url(#paint4_radial_146_1746)" style="mix-blend-mode:multiply"/>
<path d="M13.9989 27.9978C23.3333 27.9978 27.9978 21.7303 27.9978 13.9989C27.9978 6.26751 23.3333 0 13.9989 0C4.66443 0 0 6.26751 0 13.9989C0 21.7303 4.66443 27.9978 13.9989 27.9978Z" fill="url(#paint5_radial_146_1746)" fill-opacity="0.45"/>
<path d="M13.9989 27.9978C23.3333 27.9978 27.9978 21.7303 27.9978 13.9989C27.9978 6.26751 23.3333 0 13.9989 0C4.66443 0 0 6.26751 0 13.9989C0 21.7303 4.66443 27.9978 13.9989 27.9978Z" fill="url(#paint6_radial_146_1746)" fill-opacity="0.45"/>
<path d="M13.9989 27.9978C23.3333 27.9978 27.9978 21.7303 27.9978 13.9989C27.9978 6.26751 23.3333 0 13.9989 0C4.66443 0 0 6.26751 0 13.9989C0 21.7303 4.66443 27.9978 13.9989 27.9978Z" fill="url(#paint7_radial_146_1746)" fill-opacity="0.45"/>
<path d="M13.9989 27.9978C23.3333 27.9978 27.9978 21.7303 27.9978 13.9989C27.9978 6.26751 23.3333 0 13.9989 0C4.66443 0 0 6.26751 0 13.9989C0 21.7303 4.66443 27.9978 13.9989 27.9978Z" fill="url(#paint8_radial_146_1746)" fill-opacity="0.45"/>
<path d="M13.9989 27.9978C23.3333 27.9978 27.9978 21.7303 27.9978 13.9989C27.9978 6.26751 23.3333 0 13.9989 0C4.66443 0 0 6.26751 0 13.9989C0 21.7303 4.66443 27.9978 13.9989 27.9978Z" fill="url(#paint9_radial_146_1746)" fill-opacity="0.45"/>
<path d="M13.9989 27.9978C23.3333 27.9978 27.9978 21.7303 27.9978 13.9989C27.9978 6.26751 23.3333 0 13.9989 0C4.66443 0 0 6.26751 0 13.9989C0 21.7303 4.66443 27.9978 13.9989 27.9978Z" fill="url(#paint10_radial_146_1746)" fill-opacity="0.45"/>
<path d="M13.9989 27.9978C23.3333 27.9978 27.9978 21.7303 27.9978 13.9989C27.9978 6.26751 23.3333 0 13.9989 0C4.66443 0 0 6.26751 0 13.9989C0 21.7303 4.66443 27.9978 13.9989 27.9978Z" fill="url(#paint11_radial_146_1746)" fill-opacity="0.45"/>
<path d="M13.9989 27.9978C23.3333 27.9978 27.9978 21.7303 27.9978 13.9989C27.9978 6.26751 23.3333 0 13.9989 0C4.66443 0 0 6.26751 0 13.9989C0 21.7303 4.66443 27.9978 13.9989 27.9978Z" fill="url(#paint12_radial_146_1746)" fill-opacity="0.45"/>
<path d="M13.9989 27.9978C23.3333 27.9978 27.9978 21.7303 27.9978 13.9989C27.9978 6.26751 23.3333 0 13.9989 0C4.66443 0 0 6.26751 0 13.9989C0 21.7303 4.66443 27.9978 13.9989 27.9978Z" fill="url(#paint13_radial_146_1746)" fill-opacity="0.45"/>
<path d="M13.9989 27.9978C23.3333 27.9978 27.9978 21.7303 27.9978 13.9989C27.9978 6.26751 23.3333 0 13.9989 0C4.66443 0 0 6.26751 0 13.9989C0 21.7303 4.66443 27.9978 13.9989 27.9978Z" fill="url(#paint14_radial_146_1746)" fill-opacity="0.3"/>
<path d="M13.9989 27.9978C23.3333 27.9978 27.9978 21.7303 27.9978 13.9989C27.9978 6.26751 23.3333 0 13.9989 0C4.66443 0 0 6.26751 0 13.9989C0 21.7303 4.66443 27.9978 13.9989 27.9978Z" fill="url(#paint15_radial_146_1746)" fill-opacity="0.45"/>
<path d="M13.9989 27.9978C23.3333 27.9978 27.9978 21.7303 27.9978 13.9989C27.9978 6.26751 23.3333 0 13.9989 0C4.66443 0 0 6.26751 0 13.9989C0 21.7303 4.66443 27.9978 13.9989 27.9978Z" fill="url(#paint16_radial_146_1746)" fill-opacity="0.45"/>
<path d="M13.9989 27.9978C23.3333 27.9978 27.9978 21.7303 27.9978 13.9989C27.9978 6.26751 23.3333 0 13.9989 0C4.66443 0 0 6.26751 0 13.9989C0 21.7303 4.66443 27.9978 13.9989 27.9978Z" fill="url(#paint17_radial_146_1746)" fill-opacity="0.45"/>
<path d="M13.9989 27.9978C23.3333 27.9978 27.9978 21.7303 27.9978 13.9989C27.9978 6.26751 23.3333 0 13.9989 0C4.66443 0 0 6.26751 0 13.9989C0 21.7303 4.66443 27.9978 13.9989 27.9978Z" fill="url(#paint18_radial_146_1746)" fill-opacity="0.35"/>
<path d="M13.9989 27.9978C23.3333 27.9978 27.9978 21.7303 27.9978 13.9989C27.9978 6.26751 23.3333 0 13.9989 0C4.66443 0 0 6.26751 0 13.9989C0 21.7303 4.66443 27.9978 13.9989 27.9978Z" fill="url(#paint19_radial_146_1746)" fill-opacity="0.35"/>
</g>
<defs>
<radialGradient id="paint0_radial_146_1746" cx="0" cy="0" r="1" gradientUnits="userSpaceOnUse" gradientTransform="translate(23.5 7) rotate(132.839) scale(37.5033)">
<stop stop-color="#FFF478"/>
<stop offset="0.474827" stop-color="#FFB02E"/>
<stop offset="1" stop-color="#F70A8D"/>
</radialGradient>
<radialGradient id="paint1_radial_146_1746" cx="0" cy="0" r="1" gradientUnits="userSpaceOnUse" gradientTransform="translate(14 10.5) rotate(101.31) scale(17.8466 22.8581)">
<stop offset="0.787821" stop-color="#F59639" stop-opacity="0"/>
<stop offset="0.972509" stop-color="#FF7DCE"/>
</radialGradient>
<radialGradient id="paint2_radial_146_1746" cx="0" cy="0" r="1" gradientUnits="userSpaceOnUse" gradientTransform="translate(16 12) rotate(135) scale(41.0122)">
<stop offset="0.314853" stop-opacity="0"/>
<stop offset="1"/>
</radialGradient>
<radialGradient id="paint3_radial_146_1746" cx="0" cy="0" r="1" gradientUnits="userSpaceOnUse" gradientTransform="translate(22.6891 21.9568) rotate(139.121) scale(4.32052 14.0847)">
<stop stop-color="#E4694E"/>
<stop offset="0.559747" stop-color="#E4694E" stop-opacity="0"/>
</radialGradient>
<radialGradient id="paint4_radial_146_1746" cx="0" cy="0" r="1" gradientUnits="userSpaceOnUse" gradientTransform="translate(21.0405 19.1828) rotate(59.6707) scale(6.29978 3.1932)">
<stop stop-color="#E4694E"/>
<stop offset="0.512033" stop-color="#E4694E" stop-opacity="0.407125"/>
<stop offset="0.787356" stop-color="#E4694E" stop-opacity="0.15781"/>
<stop offset="1" stop-color="#E4694E" stop-opacity="0"/>
</radialGradient>
<radialGradient id="paint5_radial_146_1746" cx="0" cy="0" r="1" gradientUnits="userSpaceOnUse" gradientTransform="translate(21.5578 9.23103) rotate(111.939) scale(20.2318)">
<stop stop-color="#9A4609"/>
<stop offset="0.0783513" stop-color="#9A4609" stop-opacity="0"/>
</radialGradient>
<radialGradient id="paint6_radial_146_1746" cx="0" cy="0" r="1" gradientUnits="userSpaceOnUse" gradientTransform="translate(21.1515 8.28183) rotate(34.0321) scale(1.73396 1.26055)">
<stop stop-color="#9A4609"/>
<stop offset="1" stop-color="#9A4609" stop-opacity="0"/>
</radialGradient>
<radialGradient id="paint7_radial_146_1746" cx="0" cy="0" r="1" gradientUnits="userSpaceOnUse" gradientTransform="translate(10.6642 9.06269) rotate(59.8227) scale(2.13655 1.96495)">
<stop stop-color="#9A4609"/>
<stop offset="0.603875" stop-color="#9A4609" stop-opacity="0.338014"/>
<stop offset="0.812249" stop-color="#9A4609" stop-opacity="0"/>
</radialGradient>
<radialGradient id="paint8_radial_146_1746" cx="0" cy="0" r="1" gradientUnits="userSpaceOnUse" gradientTransform="translate(5.61431 9.29254) rotate(14.7926) scale(6.33376 5.82508)">
<stop stop-color="#9A4609"/>
<stop offset="0.153015" stop-color="#9A4609" stop-opacity="0.338014"/>
<stop offset="0.278557" stop-color="#9A4609" stop-opacity="0"/>
</radialGradient>
<radialGradient id="paint9_radial_146_1746" cx="0" cy="0" r="1" gradientUnits="userSpaceOnUse" gradientTransform="translate(6.09345 8.40877) rotate(23.896) scale(6.1739 8.3635)">
<stop stop-color="#9A4609"/>
<stop offset="0.163944" stop-color="#9A4609" stop-opacity="0.338014"/>
<stop offset="0.284327" stop-color="#9A4609" stop-opacity="0"/>
</radialGradient>
<radialGradient id="paint10_radial_146_1746" cx="0" cy="0" r="1" gradientUnits="userSpaceOnUse" gradientTransform="translate(7.41616 7.45094) rotate(38.6691) scale(5.53555 7.49876)">
<stop stop-color="#9A4609"/>
<stop offset="0.163944" stop-color="#9A4609" stop-opacity="0.338014"/>
<stop offset="0.284327" stop-color="#9A4609" stop-opacity="0"/>
</radialGradient>
<radialGradient id="paint11_radial_146_1746" cx="0" cy="0" r="1" gradientUnits="userSpaceOnUse" gradientTransform="translate(8.8757 7.35972) rotate(51.1196) scale(4.56023 6.17754)">
<stop stop-color="#9A4609"/>
<stop offset="0.163944" stop-color="#9A4609" stop-opacity="0.338014"/>
<stop offset="0.284327" stop-color="#9A4609" stop-opacity="0"/>
</radialGradient>
<radialGradient id="paint12_radial_146_1746" cx="0" cy="0" r="1" gradientUnits="userSpaceOnUse" gradientTransform="translate(9.90194 7.79302) rotate(59.4951) scale(3.61734 4.90025)">
<stop stop-color="#9A4609"/>
<stop offset="0.163944" stop-color="#9A4609" stop-opacity="0.338014"/>
<stop offset="0.34084" stop-color="#9A4609" stop-opacity="0"/>
</radialGradient>
<radialGradient id="paint13_radial_146_1746" cx="0" cy="0" r="1" gradientUnits="userSpaceOnUse" gradientTransform="translate(20.1251 7.47936) rotate(106.624) scale(21.4134)">
<stop stop-color="#9A4609"/>
<stop offset="0.064017" stop-color="#9A4609" stop-opacity="0"/>
</radialGradient>
<radialGradient id="paint14_radial_146_1746" cx="0" cy="0" r="1" gradientUnits="userSpaceOnUse" gradientTransform="translate(20.4957 7.63595) rotate(117.304) scale(1.24468 2.32844)">
<stop stop-color="#9A4609"/>
<stop offset="1" stop-color="#9A4609" stop-opacity="0"/>
</radialGradient>
<radialGradient id="paint15_radial_146_1746" cx="0" cy="0" r="1" gradientUnits="userSpaceOnUse" gradientTransform="translate(18.8755 7.24165) rotate(103.222) scale(21.3213)">
<stop offset="0.0060053" stop-color="#9A4609"/>
<stop offset="0.0685509" stop-color="#9A4609" stop-opacity="0"/>
</radialGradient>
<radialGradient id="paint16_radial_146_1746" cx="0" cy="0" r="1" gradientUnits="userSpaceOnUse" gradientTransform="translate(16.6849 9.16397) rotate(98.1166) scale(19.0244)">
<stop stop-color="#9A4609"/>
<stop offset="0.0762812" stop-color="#9A4609" stop-opacity="0.13"/>
<stop offset="0.0938815" stop-color="#9A4609" stop-opacity="0"/>
</radialGradient>
<radialGradient id="paint17_radial_146_1746" cx="0" cy="0" r="1" gradientUnits="userSpaceOnUse" gradientTransform="translate(17.1765 8.30049) rotate(99.1641) scale(19.9519 16.1492)">
<stop stop-color="#9A4609"/>
<stop offset="0.0944858" stop-color="#9A4609" stop-opacity="0"/>
</radialGradient>
<radialGradient id="paint18_radial_146_1746" cx="0" cy="0" r="1" gradientUnits="userSpaceOnUse" gradientTransform="translate(18.1093 7.43645) rotate(58.5359) scale(1.52587 1.96335)">
<stop stop-color="#9A4609"/>
<stop offset="1" stop-color="#9A4609" stop-opacity="0"/>
</radialGradient>
<radialGradient id="paint19_radial_146_1746" cx="0" cy="0" r="1" gradientUnits="userSpaceOnUse" gradientTransform="translate(19.0076 7.52666) rotate(75.9637) scale(1.53565 2.88789)">
<stop stop-color="#9A4609"/>
<stop offset="1" stop-color="#9A4609" stop-opacity="0"/>
</radialGradient>
</defs>
</svg>
