<svg preserveAspectRatio="none" width="100%" height="100%" overflow="visible" style="display: block;" viewBox="0 0 27 12" fill="none" xmlns="http://www.w3.org/2000/svg">
<g id="Battery Icon">
<g id="Combined Shape" opacity="0.4">
<mask id="path-1-inside-1_116_1091" fill="white">
<path d="M18.7998 0C20.62 0 21.5304 0.000263363 22.2256 0.354492C22.837 0.666053 23.3339 1.16304 23.6455 1.77441C23.9997 2.46963 24 3.38002 24 5.2002V6.7998C24 8.61998 23.9997 9.53037 23.6455 10.2256L23.5205 10.4492C23.2083 10.9583 22.7606 11.3728 22.2256 11.6455L22.0928 11.708C21.4132 12 20.5065 12 18.7998 12H5.2002L3.99512 11.9941C2.93841 11.9775 2.2959 11.9112 1.77441 11.6455C1.23938 11.3728 0.791722 10.9583 0.479492 10.4492L0.354492 10.2256C0.000263363 9.53037 0 8.61998 0 6.7998V5.2002C0 3.49351 -2.64886e-05 2.58675 0.291992 1.90723L0.354492 1.77441C0.627155 1.23938 1.04169 0.791722 1.55078 0.479492L1.77441 0.354492C2.2959 0.0887819 2.93841 0.0224518 3.99512 0.00585938L5.2002 0H18.7998ZM5.2002 1C4.27361 1 3.63826 1.00084 3.14648 1.04102C2.66665 1.08024 2.41161 1.15184 2.22852 1.24512C1.80515 1.46083 1.46083 1.80515 1.24512 2.22852C1.15184 2.41161 1.08024 2.66665 1.04102 3.14648C1.00084 3.63826 1 4.27361 1 5.2002V6.7998C1 7.72639 1.00084 8.36174 1.04102 8.85352C1.08024 9.33335 1.15184 9.58839 1.24512 9.77148C1.46083 10.1948 1.80515 10.5392 2.22852 10.7549C2.41161 10.8482 2.66665 10.9198 3.14648 10.959C3.63826 10.9992 4.27361 11 5.2002 11H18.7998C19.7264 11 20.3617 10.9992 20.8535 10.959C21.3334 10.9198 21.5884 10.8482 21.7715 10.7549C22.1948 10.5392 22.5392 10.1948 22.7549 9.77148C22.8482 9.58839 22.9198 9.33335 22.959 8.85352C22.9992 8.36174 23 7.72639 23 6.7998V5.2002C23 4.27361 22.9992 3.63826 22.959 3.14648C22.9198 2.66665 22.8482 2.41161 22.7549 2.22852C22.5392 1.80515 22.1948 1.46083 21.7715 1.24512C21.5884 1.15184 21.3334 1.08024 20.8535 1.04102C20.3617 1.00084 19.7264 1 18.7998 1H5.2002ZM25 4.06348C25.8626 4.28554 26.5 5.06812 26.5 6C26.5 6.93188 25.8626 7.71446 25 7.93652V4.06348Z"/>
</mask>
<path d="M22.2256 0.354492L22.6796 -0.536483L22.6796 -0.536514L22.2256 0.354492ZM23.6455 1.77441L24.5365 1.32042L24.5365 1.32036L23.6455 1.77441ZM23.6455 10.2256L24.5184 10.7135L24.5278 10.6967L24.5365 10.6796L23.6455 10.2256ZM23.5205 10.4492L24.373 10.972L24.3835 10.9548L24.3934 10.9371L23.5205 10.4492ZM22.2256 11.6455L22.6514 12.5503L22.6656 12.5436L22.6796 12.5365L22.2256 11.6455ZM22.0928 11.708L22.4876 12.6268L22.5032 12.6201L22.5186 12.6128L22.0928 11.708ZM5.2002 12L5.19533 13H5.2002V12ZM3.99512 11.9941L3.97942 12.9941L3.99026 12.9941L3.99512 11.9941ZM1.77441 11.6455L1.32036 12.5365L1.32042 12.5365L1.77441 11.6455ZM0.479492 10.4492L-0.393404 10.9371L-0.383532 10.9548L-0.372955 10.972L0.479492 10.4492ZM0.354492 10.2256L-0.536514 10.6796L-0.527785 10.6967L-0.518404 10.7135L0.354492 10.2256ZM0.291992 1.90723L-0.612827 1.48143L-0.620058 1.4968L-0.626764 1.5124L0.291992 1.90723ZM0.354492 1.77441L-0.536483 1.32036L-0.543627 1.33438L-0.550327 1.34862L0.354492 1.77441ZM1.55078 0.479492L1.06287 -0.393404L1.04521 -0.383532L1.02797 -0.372955L1.55078 0.479492ZM1.77441 0.354492L1.32042 -0.536514L1.30329 -0.527785L1.28651 -0.518404L1.77441 0.354492ZM3.99512 0.00585938L3.99025 -0.994188L3.97942 -0.994017L3.99512 0.00585938ZM5.2002 0L5.2002 -1.00001L5.19533 -0.999988L5.2002 0ZM3.14648 1.04102L3.06505 0.0443367L3.065 0.044341L3.14648 1.04102ZM2.22852 1.24512L1.77456 0.354093L1.77453 0.354111L2.22852 1.24512ZM1.24512 2.22852L0.354111 1.77453L0.354093 1.77456L1.24512 2.22852ZM1.04102 3.14648L0.044341 3.065L0.0443367 3.06505L1.04102 3.14648ZM1.04102 8.85352L0.0443367 8.93495L0.044341 8.935L1.04102 8.85352ZM1.24512 9.77148L0.354093 10.2254L0.354111 10.2255L1.24512 9.77148ZM2.22852 10.7549L1.77453 11.6459L1.77456 11.6459L2.22852 10.7549ZM3.14648 10.959L3.065 11.9557L3.06505 11.9557L3.14648 10.959ZM20.8535 10.959L20.9349 11.9557L20.935 11.9557L20.8535 10.959ZM21.7715 10.7549L22.2254 11.6459L22.2255 11.6459L21.7715 10.7549ZM22.7549 9.77148L23.6459 10.2255L23.6459 10.2254L22.7549 9.77148ZM22.959 8.85352L23.9557 8.935L23.9557 8.93495L22.959 8.85352ZM22.959 3.14648L23.9557 3.06505L23.9557 3.065L22.959 3.14648ZM22.7549 2.22852L23.6459 1.77456L23.6459 1.77453L22.7549 2.22852ZM21.7715 1.24512L22.2255 0.354111L22.2254 0.354093L21.7715 1.24512ZM20.8535 1.04102L20.935 0.044341L20.9349 0.0443367L20.8535 1.04102ZM25 4.06348L25.2493 3.09505L24 2.77342V4.06348H25ZM25 7.93652H24V9.22658L25.2493 8.90495L25 7.93652ZM18.7998 0V1C19.7263 1 20.3612 1.00084 20.853 1.04108C21.3332 1.08037 21.5884 1.15216 21.7716 1.2455L22.2256 0.354492L22.6796 -0.536514C22.1676 -0.797399 21.62 -0.902856 21.0161 -0.95226C20.4239 -1.00071 19.6935 -1 18.7998 -1V0ZM22.2256 0.354492L21.7715 1.24547C22.1948 1.46116 22.5388 1.80521 22.7545 2.22847L23.6455 1.77441L24.5365 1.32036C24.1291 0.52088 23.4791 -0.129057 22.6796 -0.536483L22.2256 0.354492ZM23.6455 1.77441L22.7545 2.2284C22.8478 2.4116 22.9196 2.66681 22.9589 3.14699C22.9992 3.6388 23 4.27369 23 5.2002H24H25C25 4.30653 25.0007 3.57614 24.9523 2.98391C24.9029 2.38004 24.7974 1.83244 24.5365 1.32042L23.6455 1.77441ZM24 5.2002H23V6.7998H24H25V5.2002H24ZM24 6.7998H23C23 7.72631 22.9992 8.3612 22.9589 8.85301C22.9196 9.33319 22.8478 9.5884 22.7545 9.7716L23.6455 10.2256L24.5365 10.6796C24.7974 10.1676 24.9029 9.61996 24.9523 9.01609C25.0007 8.42386 25 7.69347 25 6.7998H24ZM23.6455 10.2256L22.7726 9.73768L22.6476 9.96131L23.5205 10.4492L24.3934 10.9371L24.5184 10.7135L23.6455 10.2256ZM23.5205 10.4492L22.6681 9.92641C22.4521 10.2786 22.1422 10.5656 21.7715 10.7545L22.2256 11.6455L22.6796 12.5365C23.379 12.1801 23.9645 11.638 24.373 10.972L23.5205 10.4492ZM22.2256 11.6455L21.7998 10.7407L21.667 10.8032L22.0928 11.708L22.5186 12.6128L22.6514 12.5503L22.2256 11.6455ZM22.0928 11.708L21.6979 10.7893C21.5072 10.8712 21.2386 10.9328 20.7621 10.9659C20.2798 10.9995 19.6668 11 18.7998 11V12V13C19.6395 13 20.3332 13.0006 20.9008 12.9611C21.4742 12.9212 21.9988 12.8368 22.4876 12.6268L22.0928 11.708ZM18.7998 12V11H5.2002V12V13H18.7998V12ZM5.2002 12L5.20506 11L3.99998 10.9942L3.99512 11.9941L3.99026 12.9941L5.19533 13L5.2002 12ZM3.99512 11.9941L4.01082 10.9943C2.94137 10.9775 2.51886 10.9025 2.2284 10.7545L1.77441 11.6455L1.32042 12.5365C2.07294 12.9199 2.93545 12.9776 3.97942 12.994L3.99512 11.9941ZM1.77441 11.6455L2.22847 10.7545C1.8578 10.5656 1.54794 10.2786 1.33194 9.92641L0.479492 10.4492L-0.372955 10.972C0.0355054 11.638 0.620953 12.1801 1.32036 12.5365L1.77441 11.6455ZM0.479492 10.4492L1.35239 9.96131L1.22739 9.73768L0.354492 10.2256L-0.518404 10.7135L-0.393404 10.9371L0.479492 10.4492ZM0.354492 10.2256L1.2455 9.7716C1.15216 9.5884 1.08037 9.33319 1.04108 8.85301C1.00084 8.3612 1 7.72631 1 6.7998H0H-1C-1 7.69347 -1.00071 8.42386 -0.95226 9.01609C-0.902856 9.61996 -0.797399 10.1676 -0.536514 10.6796L0.354492 10.2256ZM0 6.7998H1V5.2002H0H-1V6.7998H0ZM0 5.2002H1C1 4.33325 1.00055 3.7202 1.03408 3.23788C1.06721 2.76136 1.12879 2.49278 1.21075 2.30205L0.291992 1.90723L-0.626764 1.5124C-0.83682 2.0012 -0.921239 2.52576 -0.961103 3.09917C-1.00056 3.66678 -1 4.36045 -1 5.2002H0ZM0.291992 1.90723L1.19681 2.33302L1.25931 2.20021L0.354492 1.77441L-0.550327 1.34862L-0.612827 1.48143L0.291992 1.90723ZM0.354492 1.77441L1.24547 2.22847C1.43436 1.8578 1.72141 1.54794 2.07359 1.33194L1.55078 0.479492L1.02797 -0.372955C0.361974 0.0355054 -0.180055 0.620953 -0.536483 1.32036L0.354492 1.77441ZM1.55078 0.479492L2.03869 1.35239L2.26232 1.22739L1.77441 0.354492L1.28651 -0.518404L1.06287 -0.393404L1.55078 0.479492ZM1.77441 0.354492L2.2284 1.2455C2.51886 1.0975 2.94137 1.02253 4.01082 1.00574L3.99512 0.00585938L3.97942 -0.994017C2.93545 -0.977625 2.07294 -0.919941 1.32042 -0.536514L1.77441 0.354492ZM3.99512 0.00585938L3.99998 1.00585L5.20506 0.999988L5.2002 0L5.19533 -0.999988L3.99026 -0.994129L3.99512 0.00585938ZM5.2002 0V1H18.7998V0V-1H5.2002V0ZM5.2002 1V0C4.29044 0 3.60708 5.16973e-05 3.06505 0.0443367L3.14648 1.04102L3.22792 2.03769C3.66945 2.00162 4.25678 2 5.2002 2V1ZM3.14648 1.04102L3.065 0.044341C2.5241 0.0885626 2.12251 0.176821 1.77456 0.354093L2.22852 1.24512L2.68247 2.13614C2.7007 2.12685 2.8092 2.07193 3.22797 2.03769L3.14648 1.04102ZM2.22852 1.24512L1.77453 0.354111C1.163 0.665699 0.665699 1.163 0.354111 1.77453L1.24512 2.22852L2.13612 2.68251C2.25597 2.4473 2.4473 2.25597 2.68251 2.13612L2.22852 1.24512ZM1.24512 2.22852L0.354093 1.77456C0.176821 2.12251 0.0885626 2.5241 0.044341 3.065L1.04102 3.14648L2.03769 3.22797C2.07193 2.8092 2.12685 2.7007 2.13614 2.68247L1.24512 2.22852ZM1.04102 3.14648L0.0443367 3.06505C5.16979e-05 3.60708 0 4.29044 0 5.2002H1H2C2 4.25678 2.00162 3.66945 2.03769 3.22792L1.04102 3.14648ZM1 5.2002H0V6.7998H1H2V5.2002H1ZM1 6.7998H0C0 7.70956 5.16973e-05 8.39292 0.0443367 8.93495L1.04102 8.85352L2.03769 8.77208C2.00162 8.33055 2 7.74322 2 6.7998H1ZM1.04102 8.85352L0.044341 8.935C0.0885626 9.4759 0.176821 9.87749 0.354093 10.2254L1.24512 9.77148L2.13614 9.31753C2.12685 9.2993 2.07193 9.1908 2.03769 8.77203L1.04102 8.85352ZM1.24512 9.77148L0.354111 10.2255C0.665699 10.837 1.163 11.3343 1.77453 11.6459L2.22852 10.7549L2.68251 9.86388C2.4473 9.74403 2.25597 9.5527 2.13612 9.31749L1.24512 9.77148ZM2.22852 10.7549L1.77456 11.6459C2.12251 11.8232 2.5241 11.9114 3.065 11.9557L3.14648 10.959L3.22797 9.96231C2.8092 9.92807 2.7007 9.87315 2.68247 9.86386L2.22852 10.7549ZM3.14648 10.959L3.06505 11.9557C3.60708 11.9999 4.29044 12 5.2002 12V11V10C4.25678 10 3.66945 9.99838 3.22792 9.96231L3.14648 10.959ZM5.2002 11V12H18.7998V11V10H5.2002V11ZM18.7998 11V12C19.7096 12 20.3929 11.9999 20.9349 11.9557L20.8535 10.959L20.7721 9.96231C20.3306 9.99838 19.7432 10 18.7998 10V11ZM20.8535 10.959L20.935 11.9557C21.4759 11.9114 21.8775 11.8232 22.2254 11.6459L21.7715 10.7549L21.3175 9.86386C21.2993 9.87315 21.1908 9.92807 20.772 9.96231L20.8535 10.959ZM21.7715 10.7549L22.2255 11.6459C22.837 11.3343 23.3343 10.837 23.6459 10.2255L22.7549 9.77148L21.8639 9.31749C21.744 9.5527 21.5527 9.74403 21.3175 9.86388L21.7715 10.7549ZM22.7549 9.77148L23.6459 10.2254C23.8232 9.87749 23.9114 9.4759 23.9557 8.935L22.959 8.85352L21.9623 8.77203C21.9281 9.1908 21.8731 9.2993 21.8639 9.31753L22.7549 9.77148ZM22.959 8.85352L23.9557 8.93495C23.9999 8.39292 24 7.70956 24 6.7998H23H22C22 7.74322 21.9984 8.33055 21.9623 8.77208L22.959 8.85352ZM23 6.7998H24V5.2002H23H22V6.7998H23ZM23 5.2002H24C24 4.29044 23.9999 3.60708 23.9557 3.06505L22.959 3.14648L21.9623 3.22792C21.9984 3.66945 22 4.25678 22 5.2002H23ZM22.959 3.14648L23.9557 3.065C23.9114 2.5241 23.8232 2.12251 23.6459 1.77456L22.7549 2.22852L21.8639 2.68247C21.8731 2.7007 21.9281 2.8092 21.9623 3.22797L22.959 3.14648ZM22.7549 2.22852L23.6459 1.77453C23.3343 1.163 22.837 0.665699 22.2255 0.354111L21.7715 1.24512L21.3175 2.13612C21.5527 2.25597 21.744 2.4473 21.8639 2.68251L22.7549 2.22852ZM21.7715 1.24512L22.2254 0.354093C21.8775 0.176821 21.4759 0.0885626 20.935 0.044341L20.8535 1.04102L20.772 2.03769C21.1908 2.07193 21.2993 2.12685 21.3175 2.13614L21.7715 1.24512ZM20.8535 1.04102L20.9349 0.0443367C20.3929 5.16967e-05 19.7096 0 18.7998 0V1V2C19.7432 2 20.3306 2.00162 20.7721 2.03769L20.8535 1.04102ZM18.7998 1V0H5.2002V1V2H18.7998V1ZM25 4.06348L24.7507 5.0319C25.1825 5.14307 25.5 5.53578 25.5 6H26.5H27.5C27.5 4.60046 26.5426 3.428 25.2493 3.09505L25 4.06348ZM26.5 6H25.5C25.5 6.46422 25.1825 6.85693 24.7507 6.9681L25 7.93652L25.2493 8.90495C26.5426 8.572 27.5 7.39954 27.5 6H26.5ZM25 7.93652H26V4.06348H25H24V7.93652H25Z" fill="var(--stroke-0, black)" mask="url(#path-1-inside-1_116_1091)"/>
</g>
<rect id="Capacity" x="2" y="2" width="20" height="8" rx="1.5" fill="var(--fill-0, black)"/>
</g>
</svg>
