<svg preserveAspectRatio="none" width="100%" height="100%" overflow="visible" style="display: block;" viewBox="0 0 63 24" fill="none" xmlns="http://www.w3.org/2000/svg">
<g id="Frame 2147225178">
<g id="&#232;&#174;&#190;&#231;&#189;&#174; 1">
<path id="Vector" d="M8.112 1.404C8.757 1.128 9.612 1.308 10.092 1.8135C10.632 2.376 11.508 2.9595 12.069 2.9595C12.624 2.9595 13.5 2.3835 14.031 1.8375C14.4675 1.3815 15.2205 1.197 15.8415 1.38L16.0245 1.446L16.0755 1.4715L18.8745 3.0315C19.4625 3.4425 19.7145 4.206 19.5105 4.8765L19.374 5.2425C19.3031 5.43965 19.2563 5.64463 19.2345 5.853C19.1989 6.49157 19.4129 7.11898 19.8314 7.60265C20.2499 8.08632 20.8399 8.38838 21.477 8.445L21.687 8.4555H21.783C22.449 8.4555 22.962 8.9895 23.112 9.7875L23.1645 10.083L23.2095 10.377C23.295 10.965 23.349 11.529 23.349 12.0075C23.349 12.3885 23.3145 12.8265 23.2575 13.287L23.2095 13.638L23.1435 14.0505L23.1135 14.2245C22.974 14.9535 22.5345 15.465 21.9585 15.546L21.7995 15.5565H21.6885C20.331 15.5565 19.227 16.6605 19.227 18.018L19.2315 18.1395C19.2465 18.2985 19.2825 18.4725 19.335 18.6495L19.41 18.8745L19.4415 18.954C19.7325 19.6065 19.5525 20.3895 19.0215 20.865L18.867 20.985L18.813 21.021L15.9645 22.5885C15.7545 22.6785 15.5295 22.725 15.2955 22.725C14.7915 22.725 14.298 22.515 13.9725 22.158C13.4355 21.5655 12.5325 20.9385 11.955 20.9385C11.4075 20.9385 10.4955 21.543 9.9495 22.1325C9.5145 22.6065 8.76 22.8015 8.1345 22.617L7.9515 22.5495L7.893 22.5225L5.148 20.9805C4.86317 20.7774 4.64891 20.4904 4.53515 20.1597C4.42139 19.8289 4.41382 19.4708 4.5135 19.1355L4.65 18.771L4.689 18.6465C4.7415 18.474 4.7775 18.3045 4.791 18.1485L4.797 18.018C4.797 16.7325 3.807 15.6735 2.547 15.5655L2.337 15.5565H2.241C1.575 15.5565 1.062 15.0225 0.912 14.226C0.769022 13.4942 0.689725 12.7515 0.675 12.006C0.675 11.2725 0.8025 10.332 0.912 9.7875C1.05 9.0585 1.4895 8.547 2.064 8.4675L2.223 8.4555H2.3355C3.693 8.4555 4.797 7.3515 4.797 5.994L4.7925 5.8725C4.77556 5.6994 4.74087 5.52851 4.689 5.3625L4.614 5.1375L4.581 5.0595C4.4422 4.7366 4.40836 4.37825 4.48427 4.03508C4.56017 3.6919 4.74197 3.38125 5.004 3.147L5.1585 3.027L5.214 2.991L8.112 1.404ZM8.76 3.393L6.6 4.581L6.642 4.6995C6.741 5.0085 6.813 5.337 6.843 5.6655L6.858 5.994C6.8585 7.08283 6.46616 8.13529 5.75303 8.9581C5.0399 9.7809 4.05386 10.3188 2.976 10.473L2.8845 10.4835L2.8545 10.6695C2.8021 11.0121 2.76556 11.357 2.745 11.703L2.7375 12.0075C2.7375 12.39 2.7855 12.87 2.856 13.3425L2.8845 13.5285L2.976 13.539C4.00797 13.6865 4.95729 14.1861 5.66332 14.953C6.36935 15.72 6.78873 16.7074 6.8505 17.748L6.8595 18.018C6.8595 18.4575 6.774 18.903 6.642 19.317L6.6 19.4355L8.6055 20.559L8.637 20.529C8.802 20.367 9.003 20.19 9.225 20.0145L9.453 19.8405C10.323 19.203 11.163 18.876 11.955 18.876C12.7515 18.876 13.599 19.209 14.475 19.857C14.7675 20.076 15.027 20.301 15.2445 20.511L15.324 20.5905L17.4225 19.4325L17.3805 19.314C17.279 19.0002 17.2116 18.6763 17.1795 18.348L17.1645 18.018C17.1641 16.9287 17.5569 15.8759 18.2706 15.053C18.9843 14.2302 19.9711 13.6925 21.0495 13.539L21.1395 13.5285L21.1695 13.338C21.2218 12.9969 21.2583 12.6535 21.279 12.309L21.2865 12.0075C21.2865 11.6265 21.24 11.1525 21.1695 10.674L21.138 10.4835L21.048 10.473C20.0158 10.3258 19.0661 9.8264 18.3598 9.05939C17.6534 8.29237 17.2338 7.30486 17.172 6.264L17.1645 5.994C17.1645 5.5515 17.2515 5.1045 17.382 4.6935L17.4225 4.5765L15.351 3.4275L15.279 3.4965C15.1019 3.65929 14.9167 3.81299 14.724 3.957L14.508 4.1145C13.6575 4.7145 12.837 5.022 12.069 5.022C11.2935 5.022 10.467 4.707 9.609 4.0965C9.3409 3.90619 9.08536 3.69876 8.844 3.4755L8.76 3.393ZM11.964 7.8135C13.0715 7.81509 14.1331 8.25573 14.9162 9.03881C15.6993 9.8219 16.1399 10.8835 16.1415 11.991C16.1407 13.0988 15.7004 14.1611 14.9172 14.9446C14.1339 15.7281 13.0718 16.1688 11.964 16.17C10.8559 16.1692 9.79342 15.7287 9.00988 14.9451C8.22634 14.1616 7.7858 13.0991 7.785 11.991C7.78699 10.8835 8.228 9.82206 9.01138 9.03925C9.79475 8.25645 10.8565 7.81619 11.964 7.815V7.8135ZM11.964 9.876C10.797 9.876 9.849 10.8255 9.849 11.991C9.849 13.158 10.797 14.1075 11.964 14.1075C13.131 14.1075 14.079 13.158 14.079 11.9925C14.079 10.8255 13.131 9.876 11.964 9.876Z" fill="var(--fill-0, #E4E4E4)"/>
</g>
<path id="Vector_2" d="M58.1543 1.84277C58.8328 1.84286 59.5002 2.01589 60.0938 2.34473C60.6874 2.67366 61.188 3.14821 61.5479 3.72363C61.9076 4.29891 62.1154 4.95623 62.1514 5.63379C62.1873 6.31148 62.0499 6.98744 61.7529 7.59766C61.4559 8.20791 61.0087 8.73318 60.4531 9.12305C59.8976 9.51282 59.252 9.75536 58.5771 9.82715C57.9023 9.89891 57.2198 9.79744 56.5947 9.5332C56.0091 9.28558 55.4933 8.90068 55.0859 8.41406L49.7412 11.0869C49.8819 11.6877 49.8818 12.3113 49.7412 12.9121L55.0859 15.585C55.4932 15.0986 56.0093 14.7143 56.5947 14.4668C57.2198 14.2026 57.9023 14.1011 58.5771 14.1729C59.252 14.2446 59.8976 14.4872 60.4531 14.877C61.0087 15.2668 61.4559 15.7921 61.7529 16.4023C62.0499 17.0126 62.1873 17.6885 62.1514 18.3662C62.1154 19.0438 61.9076 19.7011 61.5479 20.2764C61.188 20.8518 60.6874 21.3263 60.0938 21.6553C59.5002 21.9841 58.8328 22.1571 58.1543 22.1572H58.1533C57.5395 22.1563 56.9341 22.0141 56.3838 21.7422C55.8334 21.4702 55.3531 21.075 54.9795 20.5879C54.6059 20.1008 54.3485 19.5347 54.2285 18.9326C54.1169 18.3728 54.1277 17.7963 54.2568 17.2412L48.9121 14.5684C48.4064 15.1721 47.7358 15.6165 46.9785 15.8398C46.1798 16.0753 45.3272 16.0559 44.54 15.7842C43.7528 15.5124 43.0693 15.0015 42.5859 14.3232C42.1026 13.645 41.8428 12.8328 41.8428 12C41.8428 11.1672 42.1026 10.355 42.5859 9.67676C43.0693 8.99853 43.7528 8.48763 44.54 8.21582C45.3272 7.94414 46.1798 7.92468 46.9785 8.16016C47.7355 8.38338 48.4064 8.82724 48.9121 9.43066L54.2568 6.75879C54.1268 6.20367 54.1154 5.62661 54.2266 5.06641C54.3462 4.46411 54.6029 3.89742 54.9766 3.41016C55.3504 2.92274 55.8319 2.52754 56.3828 2.25586C56.9337 1.98424 57.5401 1.84263 58.1543 1.84277ZM58.1543 16.0029C57.8719 16.0029 57.592 16.0589 57.3311 16.167C57.0701 16.2751 56.8325 16.4331 56.6328 16.6328C56.4331 16.8325 56.2751 17.0701 56.167 17.3311C56.0589 17.592 56.0029 17.8719 56.0029 18.1543C56.003 18.7245 56.2296 19.2716 56.6328 19.6748C57.0362 20.0782 57.5838 20.3047 58.1543 20.3047C58.7246 20.3046 59.2715 20.0781 59.6748 19.6748C60.0781 19.2715 60.3046 18.7246 60.3047 18.1543C60.3047 17.8719 60.2487 17.592 60.1406 17.3311C60.0325 17.0701 59.8745 16.8325 59.6748 16.6328C59.4752 16.4333 59.2383 16.2751 58.9775 16.167C58.7167 16.0589 58.4366 16.003 58.1543 16.0029ZM45.8457 9.84961C45.5635 9.84966 45.2842 9.90478 45.0234 10.0127C44.7625 10.1208 44.5249 10.2798 44.3252 10.4795C44.1256 10.6791 43.9674 10.916 43.8594 11.1768C43.7513 11.4377 43.6953 11.7175 43.6953 12C43.6953 12.5704 43.9219 13.1172 44.3252 13.5205C44.7285 13.9238 45.2754 14.1503 45.8457 14.1504C46.4162 14.1504 46.9638 13.9239 47.3672 13.5205C47.7704 13.1172 47.9971 12.5703 47.9971 12C47.9971 11.7175 47.9411 11.4377 47.833 11.1768C47.725 10.916 47.5667 10.6791 47.3672 10.4795C47.1675 10.2798 46.9299 10.1208 46.6689 10.0127C46.4081 9.90467 46.1281 9.84961 45.8457 9.84961ZM58.1543 3.69531C57.8719 3.69531 57.592 3.7513 57.3311 3.85938C57.0701 3.96747 56.8325 4.12547 56.6328 4.3252C56.4331 4.52491 56.2751 4.76251 56.167 5.02344C56.059 5.28418 56.003 5.56349 56.0029 5.8457C56.0029 6.41613 56.2295 6.96382 56.6328 7.36719C57.0362 7.77055 57.5838 7.99707 58.1543 7.99707C58.7246 7.99697 59.2715 7.77041 59.6748 7.36719C60.0782 6.96382 60.3047 6.41615 60.3047 5.8457C60.3046 5.56346 60.2486 5.28421 60.1406 5.02344C60.0325 4.76248 59.8745 4.52492 59.6748 4.3252C59.4752 4.12563 59.2383 3.96745 58.9775 3.85938C58.7167 3.75133 58.4366 3.69536 58.1543 3.69531Z" fill="var(--fill-0, #E4E4E4)" stroke="var(--stroke-0, #E4E4E4)" stroke-width="0.313636"/>
</g>
</svg>
