<svg preserveAspectRatio="none" width="100%" height="100%" overflow="visible" style="display: block;" viewBox="0 0 13 12" fill="none" xmlns="http://www.w3.org/2000/svg">
<g id="Shape">
<path d="M1.18104 7.75037C3.19703 10.0771 5.8791 11.096 7.25386 11.4894C7.81699 11.6506 8.40791 11.4889 8.82493 11.0776C10.0184 9.90045 12.4238 7.19933 12.938 4.11531C13.656 -0.191283 8.25599 -1.50414 6.07985 2.04542C0.989331 -0.345625 -1.70351 4.42127 1.18104 7.75037Z" fill="url(#paint0_linear_32_1165)"/>
<path d="M1.18104 7.75037C3.19703 10.0771 5.8791 11.096 7.25386 11.4894C7.81699 11.6506 8.40791 11.4889 8.82493 11.0776C10.0184 9.90045 12.4238 7.19933 12.938 4.11531C13.656 -0.191283 8.25599 -1.50414 6.07985 2.04542C0.989331 -0.345625 -1.70351 4.42127 1.18104 7.75037Z" fill="url(#paint1_radial_32_1165)"/>
<path d="M1.18104 7.75037C3.19703 10.0771 5.8791 11.096 7.25386 11.4894C7.81699 11.6506 8.40791 11.4889 8.82493 11.0776C10.0184 9.90045 12.4238 7.19933 12.938 4.11531C13.656 -0.191283 8.25599 -1.50414 6.07985 2.04542C0.989331 -0.345625 -1.70351 4.42127 1.18104 7.75037Z" fill="url(#paint2_radial_32_1165)"/>
<path d="M1.18104 7.75037C3.19703 10.0771 5.8791 11.096 7.25386 11.4894C7.81699 11.6506 8.40791 11.4889 8.82493 11.0776C10.0184 9.90045 12.4238 7.19933 12.938 4.11531C13.656 -0.191283 8.25599 -1.50414 6.07985 2.04542C0.989331 -0.345625 -1.70351 4.42127 1.18104 7.75037Z" fill="url(#paint3_radial_32_1165)"/>
<path d="M1.18104 7.75037C3.19703 10.0771 5.8791 11.096 7.25386 11.4894C7.81699 11.6506 8.40791 11.4889 8.82493 11.0776C10.0184 9.90045 12.4238 7.19933 12.938 4.11531C13.656 -0.191283 8.25599 -1.50414 6.07985 2.04542C0.989331 -0.345625 -1.70351 4.42127 1.18104 7.75037Z" fill="url(#paint4_radial_32_1165)"/>
<path d="M1.18104 7.75037C3.19703 10.0771 5.8791 11.096 7.25386 11.4894C7.81699 11.6506 8.40791 11.4889 8.82493 11.0776C10.0184 9.90045 12.4238 7.19933 12.938 4.11531C13.656 -0.191283 8.25599 -1.50414 6.07985 2.04542C0.989331 -0.345625 -1.70351 4.42127 1.18104 7.75037Z" fill="url(#paint5_radial_32_1165)"/>
<path d="M1.18104 7.75037C3.19703 10.0771 5.8791 11.096 7.25386 11.4894C7.81699 11.6506 8.40791 11.4889 8.82493 11.0776C10.0184 9.90045 12.4238 7.19933 12.938 4.11531C13.656 -0.191283 8.25599 -1.50414 6.07985 2.04542C0.989331 -0.345625 -1.70351 4.42127 1.18104 7.75037Z" fill="url(#paint6_radial_32_1165)"/>
<path d="M1.18104 7.75037C3.19703 10.0771 5.8791 11.096 7.25386 11.4894C7.81699 11.6506 8.40791 11.4889 8.82493 11.0776C10.0184 9.90045 12.4238 7.19933 12.938 4.11531C13.656 -0.191283 8.25599 -1.50414 6.07985 2.04542C0.989331 -0.345625 -1.70351 4.42127 1.18104 7.75037Z" fill="url(#paint7_radial_32_1165)"/>
<path d="M1.18104 7.75037C3.19703 10.0771 5.8791 11.096 7.25386 11.4894C7.81699 11.6506 8.40791 11.4889 8.82493 11.0776C10.0184 9.90045 12.4238 7.19933 12.938 4.11531C13.656 -0.191283 8.25599 -1.50414 6.07985 2.04542C0.989331 -0.345625 -1.70351 4.42127 1.18104 7.75037Z" fill="url(#paint8_radial_32_1165)"/>
<path d="M1.18104 7.75037C3.19703 10.0771 5.8791 11.096 7.25386 11.4894C7.81699 11.6506 8.40791 11.4889 8.82493 11.0776C10.0184 9.90045 12.4238 7.19933 12.938 4.11531C13.656 -0.191283 8.25599 -1.50414 6.07985 2.04542C0.989331 -0.345625 -1.70351 4.42127 1.18104 7.75037Z" fill="url(#paint9_radial_32_1165)"/>
<path d="M1.18104 7.75037C3.19703 10.0771 5.8791 11.096 7.25386 11.4894C7.81699 11.6506 8.40791 11.4889 8.82493 11.0776C10.0184 9.90045 12.4238 7.19933 12.938 4.11531C13.656 -0.191283 8.25599 -1.50414 6.07985 2.04542C0.989331 -0.345625 -1.70351 4.42127 1.18104 7.75037Z" fill="url(#paint10_radial_32_1165)"/>
<path d="M1.18104 7.75037C3.19703 10.0771 5.8791 11.096 7.25386 11.4894C7.81699 11.6506 8.40791 11.4889 8.82493 11.0776C10.0184 9.90045 12.4238 7.19933 12.938 4.11531C13.656 -0.191283 8.25599 -1.50414 6.07985 2.04542C0.989331 -0.345625 -1.70351 4.42127 1.18104 7.75037Z" fill="url(#paint11_radial_32_1165)"/>
<path d="M1.18104 7.75037C3.19703 10.0771 5.8791 11.096 7.25386 11.4894C7.81699 11.6506 8.40791 11.4889 8.82493 11.0776C10.0184 9.90045 12.4238 7.19933 12.938 4.11531C13.656 -0.191283 8.25599 -1.50414 6.07985 2.04542C0.989331 -0.345625 -1.70351 4.42127 1.18104 7.75037Z" fill="url(#paint12_radial_32_1165)"/>
<path d="M1.18104 7.75037C3.19703 10.0771 5.8791 11.096 7.25386 11.4894C7.81699 11.6506 8.40791 11.4889 8.82493 11.0776C10.0184 9.90045 12.4238 7.19933 12.938 4.11531C13.656 -0.191283 8.25599 -1.50414 6.07985 2.04542C0.989331 -0.345625 -1.70351 4.42127 1.18104 7.75037Z" fill="url(#paint13_radial_32_1165)"/>
</g>
<defs>
<linearGradient id="paint0_linear_32_1165" x1="22.0041" y1="1.33759" x2="19.8701" y2="12.2017" gradientUnits="userSpaceOnUse">
<stop stop-color="#CA0B4A"/>
<stop offset="1" stop-color="#F70A8D"/>
</linearGradient>
<radialGradient id="paint1_radial_32_1165" cx="0" cy="0" r="1" gradientUnits="userSpaceOnUse" gradientTransform="translate(5.02927 10.6167) rotate(16.6992) scale(4.76329 2.12853)">
<stop stop-color="#D6246F"/>
<stop offset="1" stop-color="#D6246F" stop-opacity="0"/>
</radialGradient>
<radialGradient id="paint2_radial_32_1165" cx="0" cy="0" r="1" gradientUnits="userSpaceOnUse" gradientTransform="translate(2.88845 8.96723) rotate(33.5535) scale(4.67451 2.0477)">
<stop stop-color="#D6246F"/>
<stop offset="1" stop-color="#D6246F" stop-opacity="0"/>
</radialGradient>
<radialGradient id="paint3_radial_32_1165" cx="0" cy="0" r="1" gradientUnits="userSpaceOnUse" gradientTransform="translate(0.590147 6.31174) rotate(51.7817) scale(5.65781 1.12685)">
<stop stop-color="#D6246F"/>
<stop offset="1" stop-color="#D6246F" stop-opacity="0"/>
</radialGradient>
<radialGradient id="paint4_radial_32_1165" cx="0" cy="0" r="1" gradientUnits="userSpaceOnUse" gradientTransform="translate(0.17528 6.29395) rotate(58.4957) scale(1.78688 0.433485)">
<stop stop-color="#A41B36"/>
<stop offset="1" stop-color="#A41B36" stop-opacity="0"/>
</radialGradient>
<radialGradient id="paint5_radial_32_1165" cx="0" cy="0" r="1" gradientUnits="userSpaceOnUse" gradientTransform="translate(-0.0998645 4.65253) rotate(75.0124) scale(1.92886 0.404891)">
<stop stop-color="#A41B36"/>
<stop offset="1" stop-color="#A41B36" stop-opacity="0"/>
</radialGradient>
<radialGradient id="paint6_radial_32_1165" cx="0" cy="0" r="1" gradientUnits="userSpaceOnUse" gradientTransform="translate(7.49894e-09 3.18082) rotate(90) scale(1.47644 0.448179)">
<stop stop-color="#A41B36"/>
<stop offset="1" stop-color="#A41B36" stop-opacity="0"/>
</radialGradient>
<radialGradient id="paint7_radial_32_1165" cx="0" cy="0" r="1" gradientUnits="userSpaceOnUse" gradientTransform="translate(0.0507851 2.41452) rotate(91.2259) scale(2.37382 0.720582)">
<stop stop-color="#A41B36"/>
<stop offset="1" stop-color="#A41B36" stop-opacity="0"/>
</radialGradient>
<radialGradient id="paint8_radial_32_1165" cx="0" cy="0" r="1" gradientUnits="userSpaceOnUse" gradientTransform="translate(1.03974 1.93431) rotate(116.065) scale(1.18125 0.358572)">
<stop stop-color="#A41B36"/>
<stop offset="1" stop-color="#A41B36" stop-opacity="0"/>
</radialGradient>
<radialGradient id="paint9_radial_32_1165" cx="0" cy="0" r="1" gradientUnits="userSpaceOnUse" gradientTransform="translate(6.00827 8.54995) rotate(39.4337) scale(4.13536 2.60399)">
<stop stop-color="#F944A5" stop-opacity="0.69"/>
<stop offset="1" stop-color="#F944A5" stop-opacity="0"/>
</radialGradient>
<radialGradient id="paint10_radial_32_1165" cx="0" cy="0" r="1" gradientUnits="userSpaceOnUse" gradientTransform="translate(9.06182 5.31985) rotate(111.882) scale(4.30139 1.61579)">
<stop stop-color="#E63277"/>
<stop offset="1" stop-color="#E63277" stop-opacity="0"/>
</radialGradient>
<radialGradient id="paint11_radial_32_1165" cx="0" cy="0" r="1" gradientUnits="userSpaceOnUse" gradientTransform="translate(5.47168 3.93265) rotate(46.1088) scale(3.62264 2.00742)">
<stop offset="0.194665" stop-color="#EC6686"/>
<stop offset="1" stop-color="#EC6686" stop-opacity="0"/>
</radialGradient>
<radialGradient id="paint12_radial_32_1165" cx="0" cy="0" r="1" gradientUnits="userSpaceOnUse" gradientTransform="translate(10.5143 2.37061) rotate(107.745) scale(2.63118 2.06562)">
<stop stop-color="#F87797"/>
<stop offset="1" stop-color="#EB6385" stop-opacity="0"/>
</radialGradient>
<radialGradient id="paint13_radial_32_1165" cx="0" cy="0" r="1" gradientUnits="userSpaceOnUse" gradientTransform="translate(6.1074 1.80682) rotate(71.0992) scale(3.2833 0.566645)">
<stop stop-color="#CE2356"/>
<stop offset="1" stop-color="#DE265D" stop-opacity="0"/>
</radialGradient>
</defs>
</svg>
