<svg preserveAspectRatio="none" width="100%" height="100%" overflow="visible" style="display: block;" viewBox="0 0 28 25" fill="none" xmlns="http://www.w3.org/2000/svg">
<g id="Heart">
<path d="M12.7872 23.9036C13.3986 24.2525 14.1406 24.2326 14.7497 23.8797C18.3191 21.811 24.3646 17.1818 26.7571 11.1909C30.3131 3.29184 21.9635 -3.01368 16.1927 1.52147C15.6194 1.97206 14.9055 2.48466 14.3888 2.97555C14.111 3.23956 13.6257 3.26651 13.3396 3.01138C12.6537 2.39963 11.6373 1.64231 10.9757 1.19468C6.05598 -2.1338 -2.8955 2.2537 0.922885 11.6177C2.30598 15.7737 8.83853 21.6505 12.7872 23.9036Z" fill="var(--fill-0, #FF2C3B)"/>
<path d="M12.7872 23.9036C13.3986 24.2525 14.1406 24.2326 14.7497 23.8797C18.3191 21.811 24.3646 17.1818 26.7571 11.1909C30.3131 3.29184 21.9635 -3.01368 16.1927 1.52147C15.6194 1.97206 14.9055 2.48466 14.3888 2.97555C14.111 3.23956 13.6257 3.26651 13.3396 3.01138C12.6537 2.39963 11.6373 1.64231 10.9757 1.19468C6.05598 -2.1338 -2.8955 2.2537 0.922885 11.6177C2.30598 15.7737 8.83853 21.6505 12.7872 23.9036Z" fill="url(#paint0_radial_32_1265)"/>
<path d="M12.7872 23.9036C13.3986 24.2525 14.1406 24.2326 14.7497 23.8797C18.3191 21.811 24.3646 17.1818 26.7571 11.1909C30.3131 3.29184 21.9635 -3.01368 16.1927 1.52147C15.6194 1.97206 14.9055 2.48466 14.3888 2.97555C14.111 3.23956 13.6257 3.26651 13.3396 3.01138C12.6537 2.39963 11.6373 1.64231 10.9757 1.19468C6.05598 -2.1338 -2.8955 2.2537 0.922885 11.6177C2.30598 15.7737 8.83853 21.6505 12.7872 23.9036Z" fill="url(#paint1_radial_32_1265)"/>
<path d="M12.7872 23.9036C13.3986 24.2525 14.1406 24.2326 14.7497 23.8797C18.3191 21.811 24.3646 17.1818 26.7571 11.1909C30.3131 3.29184 21.9635 -3.01368 16.1927 1.52147C15.6194 1.97206 14.9055 2.48466 14.3888 2.97555C14.111 3.23956 13.6257 3.26651 13.3396 3.01138C12.6537 2.39963 11.6373 1.64231 10.9757 1.19468C6.05598 -2.1338 -2.8955 2.2537 0.922885 11.6177C2.30598 15.7737 8.83853 21.6505 12.7872 23.9036Z" fill="url(#paint2_radial_32_1265)"/>
<path d="M12.7872 23.9036C13.3986 24.2525 14.1406 24.2326 14.7497 23.8797C18.3191 21.811 24.3646 17.1818 26.7571 11.1909C30.3131 3.29184 21.9635 -3.01368 16.1927 1.52147C15.6194 1.97206 14.9055 2.48466 14.3888 2.97555C14.111 3.23956 13.6257 3.26651 13.3396 3.01138C12.6537 2.39963 11.6373 1.64231 10.9757 1.19468C6.05598 -2.1338 -2.8955 2.2537 0.922885 11.6177C2.30598 15.7737 8.83853 21.6505 12.7872 23.9036Z" fill="url(#paint3_radial_32_1265)"/>
<path d="M12.7872 23.9036C13.3986 24.2525 14.1406 24.2326 14.7497 23.8797C18.3191 21.811 24.3646 17.1818 26.7571 11.1909C30.3131 3.29184 21.9635 -3.01368 16.1927 1.52147C15.6194 1.97206 14.9055 2.48466 14.3888 2.97555C14.111 3.23956 13.6257 3.26651 13.3396 3.01138C12.6537 2.39963 11.6373 1.64231 10.9757 1.19468C6.05598 -2.1338 -2.8955 2.2537 0.922885 11.6177C2.30598 15.7737 8.83853 21.6505 12.7872 23.9036Z" fill="url(#paint4_linear_32_1265)"/>
<path d="M12.7872 23.9036C13.3986 24.2525 14.1406 24.2326 14.7497 23.8797C18.3191 21.811 24.3646 17.1818 26.7571 11.1909C30.3131 3.29184 21.9635 -3.01368 16.1927 1.52147C15.6194 1.97206 14.9055 2.48466 14.3888 2.97555C14.111 3.23956 13.6257 3.26651 13.3396 3.01138C12.6537 2.39963 11.6373 1.64231 10.9757 1.19468C6.05598 -2.1338 -2.8955 2.2537 0.922885 11.6177C2.30598 15.7737 8.83853 21.6505 12.7872 23.9036Z" fill="url(#paint5_radial_32_1265)"/>
<path d="M12.7872 23.9036C13.3986 24.2525 14.1406 24.2326 14.7497 23.8797C18.3191 21.811 24.3646 17.1818 26.7571 11.1909C30.3131 3.29184 21.9635 -3.01368 16.1927 1.52147C15.6194 1.97206 14.9055 2.48466 14.3888 2.97555C14.111 3.23956 13.6257 3.26651 13.3396 3.01138C12.6537 2.39963 11.6373 1.64231 10.9757 1.19468C6.05598 -2.1338 -2.8955 2.2537 0.922885 11.6177C2.30598 15.7737 8.83853 21.6505 12.7872 23.9036Z" fill="url(#paint6_radial_32_1265)"/>
<path d="M12.7872 23.9036C13.3986 24.2525 14.1406 24.2326 14.7497 23.8797C18.3191 21.811 24.3646 17.1818 26.7571 11.1909C30.3131 3.29184 21.9635 -3.01368 16.1927 1.52147C15.6194 1.97206 14.9055 2.48466 14.3888 2.97555C14.111 3.23956 13.6257 3.26651 13.3396 3.01138C12.6537 2.39963 11.6373 1.64231 10.9757 1.19468C6.05598 -2.1338 -2.8955 2.2537 0.922885 11.6177C2.30598 15.7737 8.83853 21.6505 12.7872 23.9036Z" fill="url(#paint7_radial_32_1265)"/>
<path d="M12.7872 23.9036C13.3986 24.2525 14.1406 24.2326 14.7497 23.8797C18.3191 21.811 24.3646 17.1818 26.7571 11.1909C30.3131 3.29184 21.9635 -3.01368 16.1927 1.52147C15.6194 1.97206 14.9055 2.48466 14.3888 2.97555C14.111 3.23956 13.6257 3.26651 13.3396 3.01138C12.6537 2.39963 11.6373 1.64231 10.9757 1.19468C6.05598 -2.1338 -2.8955 2.2537 0.922885 11.6177C2.30598 15.7737 8.83853 21.6505 12.7872 23.9036Z" fill="url(#paint8_radial_32_1265)"/>
<path d="M12.7872 23.9036C13.3986 24.2525 14.1406 24.2326 14.7497 23.8797C18.3191 21.811 24.3646 17.1818 26.7571 11.1909C30.3131 3.29184 21.9635 -3.01368 16.1927 1.52147C15.6194 1.97206 14.9055 2.48466 14.3888 2.97555C14.111 3.23956 13.6257 3.26651 13.3396 3.01138C12.6537 2.39963 11.6373 1.64231 10.9757 1.19468C6.05598 -2.1338 -2.8955 2.2537 0.922885 11.6177C2.30598 15.7737 8.83853 21.6505 12.7872 23.9036Z" fill="url(#paint9_radial_32_1265)"/>
<path d="M12.7872 23.9036C13.3986 24.2525 14.1406 24.2326 14.7497 23.8797C18.3191 21.811 24.3646 17.1818 26.7571 11.1909C30.3131 3.29184 21.9635 -3.01368 16.1927 1.52147C15.6194 1.97206 14.9055 2.48466 14.3888 2.97555C14.111 3.23956 13.6257 3.26651 13.3396 3.01138C12.6537 2.39963 11.6373 1.64231 10.9757 1.19468C6.05598 -2.1338 -2.8955 2.2537 0.922885 11.6177C2.30598 15.7737 8.83853 21.6505 12.7872 23.9036Z" fill="url(#paint10_radial_32_1265)"/>
<path d="M12.7872 23.9036C13.3986 24.2525 14.1406 24.2326 14.7497 23.8797C18.3191 21.811 24.3646 17.1818 26.7571 11.1909C30.3131 3.29184 21.9635 -3.01368 16.1927 1.52147C15.6194 1.97206 14.9055 2.48466 14.3888 2.97555C14.111 3.23956 13.6257 3.26651 13.3396 3.01138C12.6537 2.39963 11.6373 1.64231 10.9757 1.19468C6.05598 -2.1338 -2.8955 2.2537 0.922885 11.6177C2.30598 15.7737 8.83853 21.6505 12.7872 23.9036Z" fill="url(#paint11_linear_32_1265)"/>
<path d="M12.7872 23.9036C13.3986 24.2525 14.1406 24.2326 14.7497 23.8797C18.3191 21.811 24.3646 17.1818 26.7571 11.1909C30.3131 3.29184 21.9635 -3.01368 16.1927 1.52147C15.6194 1.97206 14.9055 2.48466 14.3888 2.97555C14.111 3.23956 13.6257 3.26651 13.3396 3.01138C12.6537 2.39963 11.6373 1.64231 10.9757 1.19468C6.05598 -2.1338 -2.8955 2.2537 0.922885 11.6177C2.30598 15.7737 8.83853 21.6505 12.7872 23.9036Z" fill="url(#paint12_linear_32_1265)"/>
<path d="M12.7872 23.9036C13.3986 24.2525 14.1406 24.2326 14.7497 23.8797C18.3191 21.811 24.3646 17.1818 26.7571 11.1909C30.3131 3.29184 21.9635 -3.01368 16.1927 1.52147C15.6194 1.97206 14.9055 2.48466 14.3888 2.97555C14.111 3.23956 13.6257 3.26651 13.3396 3.01138C12.6537 2.39963 11.6373 1.64231 10.9757 1.19468C6.05598 -2.1338 -2.8955 2.2537 0.922885 11.6177C2.30598 15.7737 8.83853 21.6505 12.7872 23.9036Z" fill="url(#paint13_linear_32_1265)"/>
<path d="M12.7872 23.9036C13.3986 24.2525 14.1406 24.2326 14.7497 23.8797C18.3191 21.811 24.3646 17.1818 26.7571 11.1909C30.3131 3.29184 21.9635 -3.01368 16.1927 1.52147C15.6194 1.97206 14.9055 2.48466 14.3888 2.97555C14.111 3.23956 13.6257 3.26651 13.3396 3.01138C12.6537 2.39963 11.6373 1.64231 10.9757 1.19468C6.05598 -2.1338 -2.8955 2.2537 0.922885 11.6177C2.30598 15.7737 8.83853 21.6505 12.7872 23.9036Z" fill="url(#paint14_radial_32_1265)"/>
<path d="M12.7872 23.9036C13.3986 24.2525 14.1406 24.2326 14.7497 23.8797C18.3191 21.811 24.3646 17.1818 26.7571 11.1909C30.3131 3.29184 21.9635 -3.01368 16.1927 1.52147C15.6194 1.97206 14.9055 2.48466 14.3888 2.97555C14.111 3.23956 13.6257 3.26651 13.3396 3.01138C12.6537 2.39963 11.6373 1.64231 10.9757 1.19468C6.05598 -2.1338 -2.8955 2.2537 0.922885 11.6177C2.30598 15.7737 8.83853 21.6505 12.7872 23.9036Z" fill="url(#paint15_radial_32_1265)"/>
<path d="M12.7872 23.9036C13.3986 24.2525 14.1406 24.2326 14.7497 23.8797C18.3191 21.811 24.3646 17.1818 26.7571 11.1909C30.3131 3.29184 21.9635 -3.01368 16.1927 1.52147C15.6194 1.97206 14.9055 2.48466 14.3888 2.97555C14.111 3.23956 13.6257 3.26651 13.3396 3.01138C12.6537 2.39963 11.6373 1.64231 10.9757 1.19468C6.05598 -2.1338 -2.8955 2.2537 0.922885 11.6177C2.30598 15.7737 8.83853 21.6505 12.7872 23.9036Z" fill="url(#paint16_radial_32_1265)"/>
</g>
<defs>
<radialGradient id="paint0_radial_32_1265" cx="0" cy="0" r="1" gradientUnits="userSpaceOnUse" gradientTransform="translate(33.692 13.6874) rotate(166.261) scale(34.7795)">
<stop offset="0.46875" stop-color="#B91D43" stop-opacity="0"/>
<stop offset="0.625" stop-color="#B91D43"/>
</radialGradient>
<radialGradient id="paint1_radial_32_1265" cx="0" cy="0" r="1" gradientUnits="userSpaceOnUse" gradientTransform="translate(29.4805 4.73793) rotate(43.4926) scale(28.3006 29.1428)">
<stop offset="0.436191" stop-color="#FF2C64" stop-opacity="0"/>
<stop offset="0.579111" stop-color="#FF2839"/>
<stop offset="0.820977" stop-color="#FF2839"/>
</radialGradient>
<radialGradient id="paint2_radial_32_1265" cx="0" cy="0" r="1" gradientUnits="userSpaceOnUse" gradientTransform="translate(25.7954 2.63219) rotate(130.697) scale(15.614 4.83363)">
<stop offset="0.241492" stop-color="#FF6975"/>
<stop offset="1" stop-color="#FF6975" stop-opacity="0"/>
</radialGradient>
<radialGradient id="paint3_radial_32_1265" cx="0" cy="0" r="1" gradientUnits="userSpaceOnUse" gradientTransform="translate(8.94943 2.10575) rotate(74.876) scale(20.177 7.63994)">
<stop stop-color="#FF8E9D"/>
<stop offset="0.829857" stop-color="#FF8191" stop-opacity="0"/>
</radialGradient>
<linearGradient id="paint4_linear_32_1265" x1="23.1632" y1="7.37012" x2="11.0552" y2="8.42299" gradientUnits="userSpaceOnUse">
<stop offset="0.592259" stop-color="#FF2F48" stop-opacity="0"/>
<stop offset="0.728317" stop-color="#FF2F48"/>
<stop offset="0.889416" stop-color="#FF2F48" stop-opacity="0"/>
</linearGradient>
<radialGradient id="paint5_radial_32_1265" cx="0" cy="0" r="1" gradientUnits="userSpaceOnUse" gradientTransform="translate(9.47587 20.0046) rotate(114.057) scale(96.8544 76.1535)">
<stop offset="0.213872" stop-color="#FF4750" stop-opacity="0"/>
<stop offset="0.280316" stop-color="#FF4750"/>
</radialGradient>
<radialGradient id="paint6_radial_32_1265" cx="0" cy="0" r="1" gradientUnits="userSpaceOnUse" gradientTransform="translate(8.42299 -0.526437) rotate(75.0686) scale(8.1725)">
<stop offset="0.226211" stop-color="#FF4851"/>
<stop offset="1" stop-color="#FF4851" stop-opacity="0"/>
</radialGradient>
<radialGradient id="paint7_radial_32_1265" cx="0" cy="0" r="1" gradientUnits="userSpaceOnUse" gradientTransform="translate(6.11426 9.47028) rotate(36.0274) scale(6.80073)">
<stop offset="0.226211" stop-color="#FF4851"/>
<stop offset="1" stop-color="#FF4851" stop-opacity="0"/>
</radialGradient>
<radialGradient id="paint8_radial_32_1265" cx="0" cy="0" r="1" gradientUnits="userSpaceOnUse" gradientTransform="translate(11.0552 -0.526438) rotate(93.8141) scale(7.91408)">
<stop offset="0.226211" stop-color="#FF4851"/>
<stop offset="0.631601" stop-color="#FF4851" stop-opacity="0"/>
</radialGradient>
<radialGradient id="paint9_radial_32_1265" cx="0" cy="0" r="1" gradientUnits="userSpaceOnUse" gradientTransform="translate(29.4805 4.73793) rotate(45.6161) scale(34.621 35.6513)">
<stop offset="0.605375" stop-color="#D32750" stop-opacity="0"/>
<stop offset="0.760922" stop-color="#D32750"/>
</radialGradient>
<radialGradient id="paint10_radial_32_1265" cx="0" cy="0" r="1" gradientUnits="userSpaceOnUse" gradientTransform="translate(24.7425 14.7402) rotate(26.9802) scale(32.4902 20.2563)">
<stop offset="0.734432" stop-color="#C03D60" stop-opacity="0"/>
<stop offset="0.785127" stop-color="#C03D60"/>
</radialGradient>
<linearGradient id="paint11_linear_32_1265" x1="14.6143" y1="24.9703" x2="15.1143" y2="3.47028" gradientUnits="userSpaceOnUse">
<stop stop-color="#FB31AD"/>
<stop offset="0.792966" stop-color="#FB31AD" stop-opacity="0"/>
</linearGradient>
<linearGradient id="paint12_linear_32_1265" x1="6.31725" y1="26.3219" x2="14.7402" y2="15.7931" gradientUnits="userSpaceOnUse">
<stop offset="0.389423" stop-color="#CF55BC"/>
<stop offset="0.508449" stop-color="#CF55BC" stop-opacity="0"/>
</linearGradient>
<linearGradient id="paint13_linear_32_1265" x1="21.6143" y1="24.9703" x2="14.7402" y2="15.7931" gradientUnits="userSpaceOnUse">
<stop offset="0.389423" stop-color="#CF55BC"/>
<stop offset="0.508449" stop-color="#CF55BC" stop-opacity="0"/>
</linearGradient>
<radialGradient id="paint14_radial_32_1265" cx="0" cy="0" r="1" gradientUnits="userSpaceOnUse" gradientTransform="translate(14.2138 25.269) rotate(-86.8202) scale(9.49048 10.8479)">
<stop offset="0.0975182" stop-color="#CF55BC"/>
<stop offset="0.250164" stop-color="#CF55BC" stop-opacity="0"/>
</radialGradient>
<radialGradient id="paint15_radial_32_1265" cx="0" cy="0" r="1" gradientUnits="userSpaceOnUse" gradientTransform="translate(7.61426 22.9703) rotate(127.569) scale(8.20061 24.1714)">
<stop stop-color="#B51D85"/>
<stop offset="0.547667" stop-color="#B51D85" stop-opacity="0"/>
</radialGradient>
<radialGradient id="paint16_radial_32_1265" cx="0" cy="0" r="1" gradientUnits="userSpaceOnUse" gradientTransform="translate(2.61426 20.4703) rotate(154.654) scale(10.5119 30.9839)">
<stop stop-color="#B51D85"/>
<stop offset="0.547667" stop-color="#B51D85" stop-opacity="0"/>
</radialGradient>
</defs>
</svg>
