<svg preserveAspectRatio="none" width="100%" height="100%" overflow="visible" style="display: block;" viewBox="0 0 24 24" fill="none" xmlns="http://www.w3.org/2000/svg">
<g id="&#232;&#174;&#190;&#231;&#189;&#174; 1">
<path id="Vector" d="M8.112 1.404C8.757 1.128 9.612 1.308 10.092 1.8135C10.632 2.376 11.508 2.9595 12.069 2.9595C12.624 2.9595 13.5 2.3835 14.031 1.8375C14.4675 1.3815 15.2205 1.197 15.8415 1.38L16.0245 1.446L16.0755 1.4715L18.8745 3.0315C19.4625 3.4425 19.7145 4.206 19.5105 4.8765L19.374 5.2425C19.3031 5.43965 19.2563 5.64463 19.2345 5.853C19.1989 6.49157 19.4129 7.11898 19.8314 7.60265C20.2499 8.08632 20.8399 8.38838 21.477 8.445L21.687 8.4555H21.783C22.449 8.4555 22.962 8.9895 23.112 9.7875L23.1645 10.083L23.2095 10.377C23.295 10.965 23.349 11.529 23.349 12.0075C23.349 12.3885 23.3145 12.8265 23.2575 13.287L23.2095 13.638L23.1435 14.0505L23.1135 14.2245C22.974 14.9535 22.5345 15.465 21.9585 15.546L21.7995 15.5565H21.6885C20.331 15.5565 19.227 16.6605 19.227 18.018L19.2315 18.1395C19.2465 18.2985 19.2825 18.4725 19.335 18.6495L19.41 18.8745L19.4415 18.954C19.7325 19.6065 19.5525 20.3895 19.0215 20.865L18.867 20.985L18.813 21.021L15.9645 22.5885C15.7545 22.6785 15.5295 22.725 15.2955 22.725C14.7915 22.725 14.298 22.515 13.9725 22.158C13.4355 21.5655 12.5325 20.9385 11.955 20.9385C11.4075 20.9385 10.4955 21.543 9.9495 22.1325C9.5145 22.6065 8.76 22.8015 8.1345 22.617L7.9515 22.5495L7.893 22.5225L5.148 20.9805C4.86317 20.7774 4.64891 20.4904 4.53515 20.1597C4.42139 19.8289 4.41382 19.4708 4.5135 19.1355L4.65 18.771L4.689 18.6465C4.7415 18.474 4.7775 18.3045 4.791 18.1485L4.797 18.018C4.797 16.7325 3.807 15.6735 2.547 15.5655L2.337 15.5565H2.241C1.575 15.5565 1.062 15.0225 0.912 14.226C0.769022 13.4942 0.689725 12.7515 0.675 12.006C0.675 11.2725 0.8025 10.332 0.912 9.7875C1.05 9.0585 1.4895 8.547 2.064 8.4675L2.223 8.4555H2.3355C3.693 8.4555 4.797 7.3515 4.797 5.994L4.7925 5.8725C4.77556 5.6994 4.74087 5.52851 4.689 5.3625L4.614 5.1375L4.581 5.0595C4.4422 4.7366 4.40836 4.37825 4.48427 4.03508C4.56017 3.6919 4.74197 3.38125 5.004 3.147L5.1585 3.027L5.214 2.991L8.112 1.404ZM8.76 3.393L6.6 4.581L6.642 4.6995C6.741 5.0085 6.813 5.337 6.843 5.6655L6.858 5.994C6.8585 7.08283 6.46616 8.13529 5.75303 8.9581C5.0399 9.7809 4.05386 10.3188 2.976 10.473L2.8845 10.4835L2.8545 10.6695C2.8021 11.0121 2.76556 11.357 2.745 11.703L2.7375 12.0075C2.7375 12.39 2.7855 12.87 2.856 13.3425L2.8845 13.5285L2.976 13.539C4.00797 13.6865 4.95729 14.1861 5.66332 14.953C6.36935 15.72 6.78873 16.7074 6.8505 17.748L6.8595 18.018C6.8595 18.4575 6.774 18.903 6.642 19.317L6.6 19.4355L8.6055 20.559L8.637 20.529C8.802 20.367 9.003 20.19 9.225 20.0145L9.453 19.8405C10.323 19.203 11.163 18.876 11.955 18.876C12.7515 18.876 13.599 19.209 14.475 19.857C14.7675 20.076 15.027 20.301 15.2445 20.511L15.324 20.5905L17.4225 19.4325L17.3805 19.314C17.279 19.0002 17.2116 18.6763 17.1795 18.348L17.1645 18.018C17.1641 16.9287 17.5569 15.8759 18.2706 15.053C18.9843 14.2302 19.9711 13.6925 21.0495 13.539L21.1395 13.5285L21.1695 13.338C21.2218 12.9969 21.2583 12.6535 21.279 12.309L21.2865 12.0075C21.2865 11.6265 21.24 11.1525 21.1695 10.674L21.138 10.4835L21.048 10.473C20.0158 10.3258 19.0661 9.8264 18.3598 9.05939C17.6534 8.29237 17.2338 7.30486 17.172 6.264L17.1645 5.994C17.1645 5.5515 17.2515 5.1045 17.382 4.6935L17.4225 4.5765L15.351 3.4275L15.279 3.4965C15.1019 3.65929 14.9167 3.81299 14.724 3.957L14.508 4.1145C13.6575 4.7145 12.837 5.022 12.069 5.022C11.2935 5.022 10.467 4.707 9.609 4.0965C9.3409 3.90619 9.08536 3.69876 8.844 3.4755L8.76 3.393ZM11.964 7.8135C13.0715 7.81509 14.1331 8.25573 14.9162 9.03881C15.6993 9.8219 16.1399 10.8835 16.1415 11.991C16.1407 13.0988 15.7004 14.1611 14.9172 14.9446C14.1339 15.7281 13.0718 16.1688 11.964 16.17C10.8559 16.1692 9.79342 15.7287 9.00988 14.9451C8.22634 14.1616 7.7858 13.0991 7.785 11.991C7.78699 10.8835 8.228 9.82206 9.01138 9.03925C9.79475 8.25645 10.8565 7.81619 11.964 7.815V7.8135ZM11.964 9.876C10.797 9.876 9.849 10.8255 9.849 11.991C9.849 13.158 10.797 14.1075 11.964 14.1075C13.131 14.1075 14.079 13.158 14.079 11.9925C14.079 10.8255 13.131 9.876 11.964 9.876Z" fill="var(--fill-0, #E4E4E4)"/>
</g>
</svg>
